<?xml version="1.0" encoding="UTF-8"?>
<svg id="Layer_1" data-name="Layer 1" xmlns="http://www.w3.org/2000/svg" viewBox="0 0 1204.44 1085.44">
  <defs>
    <style>
      .cls-1 {
        fill: #edff36;
      }

      .cls-2 {
        fill: #fff;
      }

      .cls-3 {
        fill: #161616;
      }
    </style>
  </defs>
  <path d="m879.73,53.73c1.15-9.4,2.2-18.82,3.25-28.24l-.65.85c3.74-.61,7.44.36,10.94,1.62s6.87,2.69,10.23,4.19c6.6,2.93,13.03,6.23,19.27,9.86v-1.69c-6.74,3.38-13.62,6.54-20.6,9.4s-14.08,5.09-21.05,7.8c-1.24.48-.79,2.39.56,2.04,7.35-1.91,14.53-4.93,21.52-7.88,6.99-2.94,13.84-6.16,20.56-9.68.66-.34.61-1.33,0-1.69-6.66-3.85-13.53-7.32-20.59-10.38-6.56-2.84-13.96-6.58-21.3-5.3-.41.07-.61.49-.65.85-.97,9.41-1.95,18.82-2.82,28.24-.08.86,1.23.83,1.33,0h0Z"/>
  <path d="m889.66,26.3c-3.24,5.18-6.58,10.29-9.87,15.43-.65,1.01.86,2.2,1.67,1.29,4.01-4.5,7.78-9.19,11.38-14.02l-1.49-.87c-3.95,7.8-7.84,15.63-11.88,23.37-.63,1.21,1.06,2.18,1.82,1.06,5.49-8.01,11.14-16.03,17.75-23.19l-1.35-1.04c-5.62,9.06-11.2,18.15-16.85,27.19-.79,1.26,1.09,2.26,1.94,1.14,6.77-8.93,13.57-18.19,22.2-25.45l-1.44-1.11c-5.13,8.15-10.24,16.32-15.41,24.45-.67,1.06.96,2.37,1.77,1.36,5.1-6.35,10.44-12.53,16.37-18.12l-1.72-1c-1.78,4.54-4.25,8.8-7.3,12.61-.83,1.04.57,2.53,1.5,1.5,3.75-4.14,7.79-8.17,12.2-11.61l-1.57-.91c-.42,1.4-.83,2.81-1.25,4.21-.24.8.51,1.33,1.22,1.22,3.56-.52,7.11-1.09,10.66-1.63,1.31-.2.76-2.21-.55-2-3.55.57-7.1,1.11-10.64,1.71l1.22,1.22c.38-1.41.76-2.83,1.14-4.24.26-.97-.88-1.47-1.57-.91-4.4,3.56-8.58,7.23-12.38,11.43l1.5,1.5c3.28-4.12,5.88-8.65,7.78-13.56.39-1.01-1.03-1.65-1.72-1-5.98,5.69-11.66,11.65-16.68,18.21l1.94,1.14c4.98-8.24,10.02-16.45,15.04-24.66.57-.93-.68-1.76-1.44-1.11-8.79,7.5-15.88,16.44-22.85,25.61l1.94,1.14c5.43-9.17,10.93-18.31,16.39-27.46.49-.82-.69-1.78-1.35-1.04-6.61,7.4-13.03,14.93-18.35,23.34l1.82,1.06c3.76-7.9,7.69-15.72,11.55-23.57.4-.82-.7-1.85-1.35-1.04-3.72,4.62-7.59,9.13-11.53,13.56l1.67,1.29c3.03-5.29,6.01-10.62,9.1-15.88.41-.69-.65-1.3-1.07-.63h0Z"/>
  <g>
    <path class="cls-1" d="m385.15,546.67c3.11,83.38,2.81,167.07,9.17,250.06,5.45,71.19,9.15,142.47,11.07,213.77.24,9.04.39,18.08.65,27.11.35,12.11,3.28,15-10.32,19.76-14.12,4.94-30.59,2.05-45.18,1.24-11.61-.64-125.85,4.04-126.26-3.06-9.87-169.92-9.35-338.9-29.67-508.68-.48-3.99-.76-8.5,2.78-11.49,2.08-1.76,5.13-2.65,8.08-3.43,32.41-8.58,64.62-9.79,98.52-8.23,21.16.97,57.61-6.12,74.56,6.06,5.78,4.15,6.38,10.85,6.61,16.87Z"/>
    <path class="cls-1" d="m728.55,348.16c3.11,115.61,2.81,231.65,9.17,346.72,5.45,98.72,9.15,197.54,11.07,296.4.24,12.53.39,25.07.65,37.6.35,16.79,3.28,20.8-10.32,27.4s-30.59,2.85-45.18,1.73c-11.61-.89-125.85,5.6-126.26-4.24-9.87-235.61-9.35-469.9-29.67-705.32-.48-5.54-.76-11.78,2.78-15.93,2.08-2.44,5.13-3.67,8.08-4.76,32.41-11.89,64.62-13.57,98.52-11.41,21.16,1.35,57.61-8.49,74.56,8.4,5.78,5.76,6.38,15.04,6.61,23.4Z"/>
    <path class="cls-1" d="m1090.33,154.84c3.11,147,2.81,294.55,9.17,440.86,5.45,125.52,9.15,251.17,11.07,376.87.24,15.93.39,31.87.65,47.8.35,21.35,3.28,26.45-10.32,34.84-14.12,8.71-30.59,3.62-45.18,2.19-11.61-1.13-125.85,7.11-126.26-5.39-9.87-299.57-9.35-597.48-29.67-896.81-.48-7.04-.76-14.98,2.78-20.25,2.08-3.1,5.13-4.67,8.08-6.05,32.41-15.12,64.62-17.26,98.52-14.51,21.16,1.72,57.61-10.79,74.56,10.68,5.78,7.32,6.38,19.13,6.61,29.75Z"/>
    <g>
      <circle class="cls-2" cx="402.51" cy="659.76" r="25.75"/>
      <path d="m426.33,658.1c.5,12.98-8.88,24.58-22.16,25.49-12.93.88-24.64-9.16-25.49-22.16s9.14-24.61,22.16-25.49,24.31,9.18,25.49,22.16c.22,2.38,3.96,2.4,3.74,0-1.04-11.44-8.36-21.34-19.52-24.76s-23.16.68-30.06,9.79c-15.29,20.2,3.66,49.02,28.2,43.56,13.21-2.94,21.9-15.31,21.38-28.58-.09-2.4-3.83-2.41-3.74,0Z"/>
    </g>
    <g>
      <path class="cls-3" d="m420.66,647.08c1.01,5.47-1.89,11.31-8.74,12.08-2.64.29-5.88-.29-8.11-1.8-1.53-1.04-3.54-3.3-4.27-4.99-.65-1.51-.58-3.22-.4-4.85.17-1.53.42-3.08,1.11-4.46,1.1-2.22,3.47-3.55,5.74-4.29,2.82-.92,6.04-1.38,8.65.04,3.4,1.84,5.41,4.99,6.02,8.27Z"/>
      <path d="m419.96,647.27c.46,3.04-1.12,6.28-3.54,8.13-2.94,2.25-7.17,2.57-10.52.97-1.65-.79-3.05-2.22-4.04-3.75-1.14-1.75-1.03-3.74-.72-5.74.33-2.12,1.11-3.86,2.99-4.98,1.68-1,3.77-1.6,5.72-1.71,2.27-.13,4.06.63,5.67,2.21,1.45,1.42,2.53,3.3,3.08,5.25.29,1.01,1.29,1.67,2.32,1.52.94-.14,1.96-1.02,1.84-2.08-.33-2.87-1.29-5.37-3.27-7.51s-4.62-3.61-7.53-3.88-5.95.58-8.54,1.81-4.48,3.12-5.41,5.73c-.49,1.37-.66,2.84-.82,4.28-.18,1.66-.21,3.41.34,5.01.79,2.3,2.6,4.37,4.48,5.86,4.08,3.24,10.54,3.68,15.04,1.03,2.09-1.23,3.64-3.28,4.37-5.6.66-2.1.32-4.81-.09-6.93-.18-.92-1.51-.51-1.38.38Z"/>
    </g>
    <path class="cls-2" d="m404.62,661.92c2.36-2.99.23-7.15-1.18-10.01-2.64-5.33-8.58-.95-9.46,3.29-1.08,5.2,6.47,12.02,10.65,6.72Z"/>
    <g>
      <circle class="cls-2" cx="304.89" cy="666.09" r="25.75"/>
      <path d="m328.71,664.42c.5,12.98-8.88,24.58-22.16,25.49-12.93.88-24.64-9.16-25.49-22.16s9.14-24.61,22.16-25.49c13.19-.89,24.31,9.18,25.49,22.16.22,2.38,3.96,2.4,3.74,0-1.04-11.44-8.36-21.34-19.52-24.76s-23.16.68-30.06,9.79c-15.29,20.2,3.66,49.02,28.2,43.56,13.21-2.94,21.9-15.31,21.38-28.58-.09-2.4-3.83-2.41-3.74,0Z"/>
    </g>
    <g>
      <path class="cls-3" d="m323.03,653.41c1.01,5.47-1.89,11.31-8.74,12.08-2.64.29-5.88-.29-8.11-1.8-1.53-1.04-3.54-3.3-4.27-4.99-.65-1.51-.58-3.22-.4-4.85.17-1.53.42-3.08,1.11-4.46,1.1-2.22,3.47-3.55,5.74-4.29,2.82-.92,6.04-1.38,8.65.04,3.4,1.84,5.41,4.99,6.02,8.27Z"/>
      <path d="m322.34,653.6c.46,3.04-1.12,6.28-3.54,8.13-2.94,2.25-7.17,2.57-10.52.97-1.65-.79-3.05-2.22-4.04-3.75-1.14-1.75-1.03-3.74-.72-5.74.33-2.12,1.11-3.86,2.99-4.98,1.68-1,3.77-1.6,5.72-1.71,2.27-.13,4.06.63,5.67,2.21,1.45,1.42,2.53,3.3,3.08,5.25.29,1.01,1.29,1.67,2.32,1.52.94-.14,1.96-1.02,1.84-2.08-.33-2.87-1.29-5.37-3.27-7.51s-4.62-3.61-7.53-3.88-5.95.58-8.54,1.81-4.48,3.12-5.41,5.73c-.49,1.37-.66,2.84-.82,4.28-.18,1.66-.21,3.41.34,5.01.79,2.3,2.6,4.37,4.48,5.86,4.08,3.24,10.54,3.68,15.04,1.03,2.09-1.23,3.64-3.28,4.37-5.6.66-2.1.32-4.81-.09-6.93-.18-.92-1.51-.51-1.38.38Z"/>
    </g>
    <path class="cls-2" d="m306.99,668.24c2.36-2.99.23-7.15-1.18-10.01-2.64-5.33-8.58-.95-9.46,3.29-1.08,5.2,6.47,12.02,10.65,6.72Z"/>
    <path d="m437.11,609.61c-12.49-9.1-27.93-13.03-43.2-10.21-13.67,2.53-26.98,11.01-32.3,24.3-5.79,14.47.14,30.7,3.97,44.88,4.98,18.41,10.62,36.62,16.87,54.64l1.3-2.29c-7.58,1.32-15.18,1.92-22.87,1.87-1.3,0-2.02,1.2-1.8,2.37.74,4.02,1.57,7.96,1.44,12.07l2.37-1.8c-11.57-2.26-23.75-.53-33.31,6.71-7.37,5.58-13.46,14.58-13.41,24.1.05,10.13,8.35,15.99,18.06,14.77,5.55-.7,10.88-3.28,15.86-5.69,6.62-3.2,12.93-6.96,18.97-11.15l-2.75-1.12c2.77,7.44,4.66,15.06,5.59,22.94.28,2.35,4,2.38,3.72,0-.96-8.23-2.82-16.16-5.71-23.94-.39-1.04-1.67-1.86-2.75-1.12-7.54,5.23-15.53,9.84-23.98,13.44-5,2.13-10.8,4.24-16.23,2.41s-7.46-6.99-6.94-12.38c1.92-19.86,24.66-28.73,41.87-25.38,1.21.24,2.33-.52,2.37-1.8.13-4.45-.78-8.71-1.58-13.06l-1.8,2.37c8.03.05,15.96-.63,23.86-2.01.95-.17,1.61-1.41,1.3-2.29-5.31-15.31-10.2-30.76-14.6-46.36-2.16-7.64-4.21-15.32-6.13-23.03-1.75-6.99-3.23-14.25-2.09-21.47,2.29-14.48,14.93-24.53,28.53-28.03,15.18-3.91,31.36-.48,43.97,8.66,1.44,1.05,2.82-1.35,1.39-2.38h0Z"/>
    <path d="m560.3,400.67c11.06-6.79,26.99-10.66,39.65-6.25s15.44,20.73,17.22,31.76c2.32,14.37,1.42,29.08.07,43.5-1.48,15.78-3.29,31.53-5.19,47.27-.09.73.64,1.7,1.37,1.8,8.17,1.21,16.18,1.25,24.37.12,2.37-.33,1.36-3.91-.99-3.59-7.46,1.02-14.93.97-22.38-.13l1.37,1.8c2.15-17.78,4.33-35.6,5.73-53.45,1.26-16.15,1.47-32.77-3.03-48.48-3.02-10.56-7.72-21.53-19.27-24.5-13.7-3.53-28.58.51-40.31,7.77-1.51.93-.13,3.32,1.39,2.38h0Z"/>
    <path d="m266.98,617.72c19.42-12.83,45.05-11.69,63.09,2.96,1.84,1.5,4.49-1.11,2.63-2.63-19.58-16.04-46.42-17.19-67.12-2.71-1.44,1.01-.1,3.37,1.39,2.38h0Z"/>
    <path d="m341.91,739.34c-2.79,6.53-3.97,14.45-.3,20.91,3.07,5.4,9.27,9.1,15.53,7.77,1.47-.31.84-2.53-.62-2.24-5.44,1.09-10.86-2.36-13.43-7.03-3.18-5.78-2.29-13.01-.09-18.95.23-.63-.83-1.09-1.09-.46h0Z"/>
    <path d="m338.33,739.13c-3.93,4.95-7.67,10.06-11.07,15.39-3.39,5.3-6.72,10.88-9.15,16.69-.43,1.04,1.31,1.76,1.82.77,2.84-5.52,5.45-11.1,8.62-16.45s6.72-10.64,10.6-15.59c.45-.58-.35-1.4-.82-.82h0Z"/>
    <path d="m330.28,746.91c-2.26,3.37-4.32,6.86-6.19,10.46-.92,1.77-1.78,3.56-2.6,5.38s-1.74,3.65-2.28,5.55c-.25.88,1.12,1.52,1.52.64.83-1.81,1.4-3.75,2.16-5.6s1.59-3.66,2.47-5.45c1.76-3.59,3.76-7.04,5.95-10.37.42-.64-.6-1.23-1.02-.6h0Z"/>
    <path d="m336.7,743.44c-5.65,9.68-10.93,19.54-15.17,29.93-.48,1.18,1.35,1.82,1.98.84.73-1.13,1.51-2.24,2.13-3.43.4-.78-.6-1.64-1.25-.96-.93.96-1.74,2.04-2.58,3.08l1.81,1.06c4.01-10.27,8.46-20.43,13.95-30,.32-.56-.54-1.07-.87-.51h0Z"/>
    <path d="m337.75,748.03c-4.7,8.43-9.08,17.22-12.35,26.32-.34.96,1,1.66,1.67.97,1.8-1.86,3.06-4.03,3.86-6.49.34-1.06-1.26-1.46-1.65-.45-.81,2.09-2.06,3.94-3.63,5.53l1.67.97c3.21-9.05,6.73-17.87,11.26-26.36.29-.55-.53-1.03-.83-.49h0Z"/>
    <path d="m338.4,755.02c-3.47,5.57-5.98,11.53-7.9,17.79-.3.99.83,1.72,1.67,1.28,1.8-.93,3.09-2.68,3.48-4.66.24-1.2-1.5-1.7-1.85-.51-.43,1.48-1.41,2.55-2.79,3.21l1.67,1.28c1.25-6.23,3.6-12.29,6.59-17.88.31-.58-.53-1.08-.88-.52h0Z"/>
    <path d="m341.54,755.98c-1.57,2.5-2.93,5.14-4.01,7.9s-2.06,5.65-2.45,8.55c-.13.99.71,1.74,1.67,1.28,1.12-.54,1.9-1.43,2.36-2.57.43-1.06-1.21-1.63-1.78-.75-.36.55-.83,1.02-1.46,1.25l1.4,1.4c.62-2.82,1.17-5.6,2.14-8.34s2.15-5.36,3.58-7.87c.53-.94-.87-1.75-1.44-.84h0Z"/>
    <path d="m344,760.7c-1.5,2.93-2.72,6.02-3.62,9.18-.22.77-.43,1.55-.6,2.34-.16.7-.21,1.47.32,2.03,1.18,1.24,3.29-.63,1.99-1.73-.91-.77-2.14.42-1.32,1.32l-.15-.25v-.5l.42-.39.5.14c.16.32.23.35.2.09,0-.1.01-.19.04-.28.04-.23.08-.45.13-.68.1-.53.21-1.06.33-1.58.23-1.01.49-2.01.79-3.01.6-2.03,1.37-4.02,2.25-5.94.39-.84-.83-1.58-1.26-.74h0Z"/>
    <path d="m346.23,765.51c-.21.87-.3,1.77-.23,2.66.04.47.1.93.23,1.38.15.5.39.9.76,1.27s1.04.1,1.03-.43c0-.43-.04-.84-.14-1.25-.04-.19-.08-.38-.12-.57-.02-.1-.04-.19-.06-.29,0-.03-.05-.31-.03-.15-.05-.39-.07-.78-.06-1.17,0-.19.02-.39.04-.58,0-.03.03-.25.01-.12.02-.11.03-.22.06-.33.07-.4-.11-.86-.55-.96-.4-.09-.86.12-.96.55h0Z"/>
    <path d="m350.71,768.66c-.26.2-.49.43-.64.73s-.24.63-.26.97c-.03.61.21,1.26.66,1.68.28.26.75.3,1.02,0,.25-.27.3-.76,0-1.02-.07-.06-.12-.12-.18-.19l.11.15c-.08-.1-.14-.2-.18-.32l.07.17c-.05-.12-.08-.25-.1-.39l.03.19c-.02-.15-.02-.31,0-.46l-.03.19c.02-.13.05-.26.1-.39l-.07.17c.04-.1.1-.19.16-.29.04-.07-.12.14-.05.06.02-.02.04-.04.06-.06.04-.04.08-.08.13-.12.12-.1.21-.33.2-.49s-.05-.29-.15-.42c-.09-.11-.21-.21-.36-.25-.17-.04-.39-.04-.53.07h0Z"/>
    <path d="m343.45,755.41c.9-2.82,2.83-5.23,5.34-6.82,2.29-1.45,5.49-2.53,8.18-1.63,1.21.4,2.31,1.38,1.78,2.77-.61,1.6-2.43,2.17-3.94,2.55-3.31.83-6.61,1.66-9.38,3.76-1.39,1.05-2.62,2.36-3.46,3.9s-1.54,3.43-.82,5.06c.29.67,1.36.6,1.68,0,.39-.76.47-1.58.73-2.39.27-.85.69-1.64,1.2-2.38,1.02-1.48,2.48-2.6,4.05-3.45,1.74-.93,3.63-1.51,5.54-1.98,1.81-.45,3.69-.91,5.07-2.25,1.18-1.15,1.9-2.89,1.39-4.53-.45-1.44-1.69-2.38-3.08-2.85-2.98-1.01-6.49-.02-9.11,1.52-3.13,1.84-5.5,4.85-6.48,8.36-.24.86,1.06,1.2,1.32.37h0Z"/>
    <path d="m345.72,749.67c-1.64,2.55-3.08,5.49-3.43,8.53-.1.86,1.25.99,1.48.2.4-1.39.75-2.81,1.25-4.17s1.14-2.63,1.9-3.86c.47-.76-.72-1.45-1.2-.7h0Z"/>
    <path d="m350.51,748.03c-1.09,1.58-2.18,3.16-3.28,4.73-.3.42-.56.8-.57,1.34-.01.6.45,1.19,1.07,1.2.47,0,.89-.29,1.07-.71.25-.56-.06-1.12-.62-1.31-.39-.13-.83.11-.97.48s-.04.86.34,1.03l-.21-.22-.11-.42c0-.22.1-.39.28-.51.34-.16.64,0,.91.5,0,.04,0,.07-.02.1.02-.06.05-.12.08-.17.12-.24.27-.46.4-.7.31-.53.61-1.06.92-1.59.61-1.04,1.23-2.07,1.84-3.11.18-.3.07-.71-.23-.89-.32-.19-.69-.06-.89.23h0Z"/>
    <path d="m351.07,748.15c-.12.68-.27,1.36-.42,2.04l-.23,1.02c-.09.39-.12.77-.16,1.17s.33.73.68.77.78-.18.87-.57.17-.77.2-1.16l.1-.99c.07-.69.13-1.26.22-1.93.05-.34-.08-.72-.46-.81-.32-.07-.74.1-.81.46h0Z"/>
    <path d="m353.56,748.9c1.49.92,3.24,1.32,4.98,1.24.37-.02.72-.31.7-.7-.02-.36-.31-.72-.7-.7-1.5.08-2.98-.24-4.36-.9-.3-.14-.66-.08-.84.22s-.06.66.22.84h0Z"/>
    <path d="m303.97,760.65c-1.95,2.9-2.28,7.05-1.83,10.42.48,3.61,2,6.98,4.52,9.62.88.92,2.24-.46,1.39-1.39-2.15-2.39-3.55-5.43-4.01-8.61-.22-1.54-.22-3.15.01-4.69.25-1.66.85-3.14,1.41-4.71.32-.92-1-1.36-1.5-.63h0Z"/>
    <path d="m193.74,509.21c-11.53-3.84-20.44,2.4-27.22,11.35-8.68,11.44-2.77,25.56,2.22,37.32,3.89,9.16,8.29,18.11,11.58,27.5s5.04,18.87,7.4,28.31c4.75,19.06,9.11,38.15,12.43,57.52,1.53,8.93,2.72,17.47,2.72,26.52,0,6.49-.29,14.17,3.55,19.77,1.24,1.82,4.08.72,3.58-1.51-.45-2.01,2.15-8.3,2.89-11.08,1.28-4.81,1.9-9.55,2.92-14.42.83-3.97,1.98-7.86,3.23-11.72,1.13-3.5,2.76-7.11,2.61-10.86-.26-6.64-7.09-10.87-10.31-16.04-4.15-6.68-6.18-14.67-5.48-22.52.81-9.03,8.36-21.05,18.99-16.16,6.91,3.18,9.9,11.95,12.15,18.58,2.77,8.15,4.87,16.49,6.42,24.95.41,2.25,4.15,1.75,4-.54-.82-12.49-1.26-25.01-1.24-37.53.02-11.5-.21-23.37,1.6-34.76,1.63-10.21,5.67-19.82,15.01-25.16,9.88-5.65,22.53-7.58,33.73-8.07,12.07-.54,24.09,1.1,35.8,3.98,11.01,2.7,21.57,7.28,32.81,8.97,17.17,2.57,36.03-2.12,43.83-19.06,3.36-7.29,3.92-15.92-.12-23.07-4.84-8.56-14.46-12.62-23.49-15.14l-.56,4.13c6.98.17,13.79,4.23,20.84,2.75,4.8-1,8.37-4.48,10-9.05,4.01-11.27-3.26-21.56-13.23-26.32-13.6-6.49-30.66-7.71-45.5-8.2-17.32-.57-35.15,1.02-51.86,5.79-18.52,5.28-35.95,13.97-55.08,17.1l1.19,4.33c5.53-1.23,8.22-7.74,5.69-12.75-3.14-6.2-11.33-7.01-17.17-4.74-3.98,1.55-7.56,4.19-11.23,6.35-4.19,2.47-8.35,5.02-12.27,7.9-6.21,4.57-11.95,9.97-14.33,17.5l2.74-1.55c-3.76-.79-7.47-1.28-11.31-1.41-2.85-.1-2.84,4.32,0,4.43,3.43.12,6.77.56,10.13,1.28,1.21.26,2.35-.35,2.74-1.55,3.2-10.05,13.77-16.24,22.29-21.36,4.31-2.6,9.07-6.37,13.94-7.79,2.72-.79,6.08-.82,8.53.85,3.15,2.15,3.35,7.57-.92,8.52-2.87.64-1.6,4.79,1.19,4.33,17.66-2.88,33.85-10.53,50.78-15.94,18.28-5.84,37.74-7.75,56.88-6.93,9.85.42,19.7,1.59,29.33,3.7,7.51,1.65,15.75,4.09,20.84,10.24,4.19,5.06,5.31,14.45-.12,19.15-6.38,5.52-16.73-.67-24.08-.84-2.39-.06-2.83,3.5-.56,4.13,9.11,2.54,19.57,6.89,22.54,16.82,2.57,8.57-1.44,17.99-7.5,24.06-16.39,16.41-40.83,6.31-59.54,1.03-20.33-5.74-41.63-8-62.39-3.16-8.57,2-17.51,4.98-23.76,11.48-5.57,5.79-8.33,13.64-9.66,21.42-1.89,11.03-1.78,22.47-1.85,33.63-.08,13.51.36,27.02,1.26,40.5l4-.54c-1.45-7.86-3.36-15.61-5.86-23.2-1.96-5.95-4.09-12.12-8.01-17.1-7.04-8.97-19.32-9.42-26.55-.21-7.67,9.77-6.11,24.76-.97,35.28,1.24,2.54,2.76,4.93,4.51,7.15,3.44,4.36,7.8,7.1,6.89,13.31-.5,3.43-2.21,6.9-3.2,10.22-1.16,3.87-2.16,7.8-2.8,11.79-.77,4.81-1.84,9.38-3.08,14.09-.74,2.81-2.72,7.11-2.05,10.07l3.58-1.51c-3.32-4.84-3.04-11.49-3.06-17.12-.03-6.07-.25-11.82-1.21-17.83-2.72-17.07-6.02-34.05-10.12-50.85-4.09-16.76-7.33-34.32-13.74-50.37-2.9-7.25-6.27-14.3-9.39-21.45s-6.35-14.22-7.06-21.79c-1.33-14.17,13.59-28.7,27.73-24.05,1.82.6,2.59-2.26.79-2.86h0Z"/>
    <path d="m188.94,499.55c-5.17,7.53-9.67,15.9-12.31,24.67-.25.84.92,1.58,1.52.89,4.31-4.93,8.45-9.99,12.43-15.19,4.03-5.28,7.78-10.76,11.83-16.02.58-.75-.7-1.73-1.32-1.02-7.51,8.63-13.23,19.1-16.64,30.02-.35,1.11,1.26,1.74,1.85.78,8.08-13.22,16.29-26.97,27.73-37.63l-1.05-1.05c-11.45,14.62-21.71,30.37-30.23,46.88-.56,1.09.94,1.94,1.63.95,5.14-7.32,10.31-14.61,15.35-22,.51-.75-.68-1.4-1.2-.7-5.33,7.2-10.55,14.48-15.79,21.74l1.63.95c8.73-16.42,18.57-32.07,29.76-46.94.52-.69-.58-1.47-1.17-.9-11.43,11.06-20.01,24.25-28.42,37.66l1.85.78c3.5-10.76,8.85-20.5,15.87-29.37l-1.32-1.02c-3.34,5.65-7.37,10.9-11.47,16.02s-8.26,9.97-12.63,14.74l1.52.89c1.43-4.37,2.92-8.67,4.89-12.84s4.17-7.98,6.71-11.71c.44-.65-.61-1.25-1.05-.61h0Z"/>
    <path d="m219.1,492.42c-13.9,14.44-26.36,30.18-36.88,47.24-2.98,4.82-5.84,9.73-8.48,14.76-.48.92.81,2.09,1.53,1.18,13.84-17.53,27.81-34.97,41.68-52.48,3.93-4.96,7.82-9.97,11.82-14.88l-1.14-.88c-14.22,18.81-28.27,37.84-40.74,57.87-3.52,5.65-6.89,11.38-10.17,17.18-.59,1.05.92,2.35,1.73,1.34,15.43-19.32,30.75-38.73,46.09-58.13,4.32-5.47,8.52-11.04,12.94-16.44l-.95-.74c-16.52,23.33-32.82,46.83-48.63,70.65-3.79,5.7-7.93,11.79-7.99,18.9,0,1.18,1.43,1.36,2.04.55,16.79-22.38,33.62-44.74,50.33-67.18,4.71-6.32,9.32-12.72,14.11-18.98.48-.62-.49-1.19-1-.77-5.31,4.25-9.23,9.85-13.1,15.37-4.37,6.23-8.65,12.54-12.9,18.85-8.5,12.63-16.82,25.39-24.96,38.26-4.59,7.26-9.1,14.56-13.63,21.85-.81,1.31,1.16,2.39,2.03,1.19,7.05-9.84,13.88-19.83,21.07-29.57,7.14-9.66,14.46-19.2,21.95-28.6,4.27-5.36,8.58-10.69,12.97-15.94.77-.92-.55-2.25-1.32-1.32-15.59,18.65-30.62,37.75-44.85,57.46-4.01,5.55-8.08,11.08-11.85,16.79l2.03,1.19c15.31-25.93,31.75-51.23,48.69-76.11,4.44-6.52,8.64-13.41,14.78-18.51l-1-.77c-8.34,11.2-16.97,22.18-25.43,33.29-8.5,11.18-17,22.36-25.48,33.55-4.77,6.29-9.54,12.58-14.31,18.87l2.04.55c.09-6.39,3.66-11.87,7.03-17.04,3.82-5.84,7.67-11.67,11.54-17.47,7.79-11.68,15.66-23.3,23.58-34.9,4.44-6.51,8.91-13,13.33-19.53.38-.56-.53-1.28-.95-.74-7.61,9.72-15.58,19.17-23.34,28.77-7.77,9.6-15.52,19.22-23.27,28.84-4.37,5.42-8.75,10.83-13.11,16.27l1.73,1.34c11.04-20.83,24.65-40.25,38.48-59.29,3.91-5.39,7.87-10.75,11.78-16.14.48-.66-.63-1.53-1.14-.88-6.88,8.78-13.99,17.4-20.97,26.11s-13.97,17.42-20.96,26.12c-3.96,4.94-7.94,9.86-11.92,14.79l1.53,1.18c9.3-17.75,20.17-34.54,32.97-49.97,3.58-4.31,7.3-8.5,11.17-12.56.29-.3-.17-.75-.45-.45h0Z"/>
    <path d="m252.25,496.9c-9.47,12.97-18.59,26.18-27.37,39.63s-17.16,27.13-25.2,41.02c-4.54,7.84-9.15,15.71-13.28,23.78-.66,1.29,1.26,2.43,1.95,1.14,3.84-7.09,7.49-14.29,11.38-21.35,3.86-6.99,7.82-13.93,11.87-20.8,8.15-13.82,16.66-27.43,25.57-40.77,5.04-7.55,10.22-15,15.5-22.39.19-.27-.25-.52-.44-.26h0Z"/>
    <path d="m261.37,493.69c-11.09,14.77-21.57,29.99-31.39,45.63-9.82,15.64-18.96,31.7-27.4,48.12-4.74,9.23-9.12,18.63-13.58,27.99-.6,1.26,1.13,2.31,1.89,1.11,10.37-16.29,20.84-32.48,31.75-48.42,10.9-15.93,22.1-31.66,33.58-47.18,6.51-8.8,13.01-17.64,19.93-26.12l-1.01-1.01c-5.86,7.21-11.36,14.74-16.83,22.25s-10.83,15.15-16.06,22.86c-10.5,15.47-20.5,31.29-29.97,47.42-5.34,9.1-10.52,18.29-15.54,27.58-.67,1.24.84,2.24,1.86,1.43,6.14-4.87,9.64-12.09,13.16-18.9,3.83-7.42,8.03-14.64,12.57-21.64,9.18-14.18,19.64-27.5,30.93-40.06,6.34-7.05,12.96-13.85,19.77-20.45l-1.28-1.28c-18.19,22.57-34.89,46.26-50,71.01-4.27,6.99-8.38,14.06-12.4,21.2-.64,1.13.98,2.52,1.86,1.44,11.16-13.62,21.94-27.56,33.08-41.2l-1.54-1.19c-8.56,13.5-16.44,27.43-23.64,41.71-.59,1.17.83,2.32,1.82,1.4,7.1-6.55,13.64-13.65,19.82-21.07l-1.7-1.31c-3.41,7.94-6.81,15.88-10.29,23.79-.3.68-.1,1.55.72,1.76,2.72.7,4.77,3.45,4.32,6.29-.24,1.54,2.11,2.2,2.35.65.65-4.11-1.9-8.29-6.03-9.25l.84,1.47c3.27-7.9,6.63-15.76,9.97-23.62.43-1.01-.84-2.35-1.7-1.31-6.15,7.44-12.89,14.37-19.93,20.96l1.82,1.4c7.09-14.34,14.89-28.31,23.34-41.89.58-.93-.83-2.08-1.54-1.19-11.01,13.73-22.38,27.16-33.37,40.91l1.86,1.44c13.78-25.2,29.4-49.42,46.49-72.5,4.92-6.64,9.96-13.19,15.14-19.63.72-.89-.42-2.11-1.28-1.28-12.09,11.72-23.67,24.02-34.23,37.14-10.51,13.05-20,26.94-27.96,41.7-4.15,7.7-7.66,16.18-14.63,21.82l1.86,1.43c8.7-16.46,17.97-32.62,27.76-48.47,9.79-15.84,20.1-31.35,30.92-46.51,6.13-8.59,12.55-16.95,18.8-25.45.55-.74-.69-1.45-1.23-.72-5.78,7.83-11.79,15.48-17.65,23.26s-11.54,15.48-17.21,23.31c-11.33,15.64-22.37,31.49-33.12,47.53-6.08,9.08-12.19,18.16-18.05,27.38l1.89,1.11c7.22-16.97,15.76-33.46,24.68-49.59s18.57-31.93,28.86-47.25c5.78-8.61,11.81-17.07,18.02-25.38.48-.65-.6-1.27-1.08-.63h0Z"/>
    <path d="m214.5,579.23c-2.62,5.82-5.28,11.63-7.93,17.44-1.9,4.18-5.91,10.4-2.88,14.93.68,1.02,2.29.11,1.66-.97-1.32-2.27-.73-4.76.13-7.09.98-2.65,2.21-5.23,3.33-7.82,2.28-5.27,4.53-10.56,6.83-15.82.34-.77-.8-1.45-1.15-.67h0Z"/>
    <path d="m213.94,603.81c-1.53,4.07-2.56,8.28-2.96,12.6s-.42,8.79.85,12.91c.22.72,1.42.63,1.36-.18-.3-4.18-.85-8.29-.6-12.49s1.06-8.49,2.43-12.53c.24-.69-.83-.97-1.08-.3h0Z"/>
    <path d="m217.5,628.79c-2.64,5.95-4.58,12.63-4.59,19.18,0,.9,1.29.87,1.37,0,.3-3.18.6-6.34,1.29-9.47s1.67-6.18,2.93-9.12c.29-.68-.7-1.28-1.01-.59h0Z"/>
    <path d="m221.69,635.76c-3.55,4.97-5.54,10.87-5.77,16.97-.02.63.79,1.17,1.34.77,3.76-2.75,6.35-6.88,7.32-11.42.17-.79-.93-1.34-1.36-.57-4.47,8.07-6.78,16.85-6.39,26.1.04.97,1.25,1.27,1.78.48,3.22-4.84,6.18-9.87,8.88-15.03l-1.64-.69c-1.23,5.34-2.61,10.65-3.92,15.97-.63,2.58-1.26,5.16-1.9,7.74-.68,2.74-1.49,5.46-1.94,8.25-.18,1.11,1.34,1.57,1.7.47.86-2.6,1.38-5.31,2.01-7.97s1.28-5.33,1.92-8c1.28-5.33,2.49-10.68,3.85-15.99.25-.97-1.13-1.6-1.64-.69-2.84,5.09-5.83,10.07-8.98,14.97l1.78.48c-.51-8.68,1.4-17.78,5.76-25.35l-1.36-.57c-1,4.17-3.39,7.68-6.79,10.28l1.34.77c.1-5.83,1.89-11.46,5.16-16.28.49-.73-.67-1.39-1.17-.69h0Z"/>
    <path d="m288.89,491.23c-14.69,17-28.06,35.14-39.94,54.21-3.38,5.43-6.67,10.93-9.77,16.53-.24.43-.12,1.04.34,1.28,1.39.74,2.83.71,4.23,0,.82-.42.24-1.87-.64-1.51s-1.76.37-2.65-.11l.34,1.28c10.99-19.57,23.19-38.36,37.01-56.07,3.89-4.99,7.9-9.89,12.01-14.7.54-.63-.37-1.55-.92-.92h0Z"/>
    <path d="m304.27,490.45c-16.99,17.68-33.28,36.06-48.9,54.96-4.44,5.37-8.78,10.8-13.05,16.3-.72.93.48,2.24,1.33,1.33,22.6-24.18,45.16-48.39,67.74-72.59,6.35-6.81,12.7-13.62,19.08-20.41l-1.29-1.29c-20.37,22.79-40.7,45.66-60.08,69.31-5.4,6.6-10.73,13.25-15.96,19.99-.84,1.08.53,2.58,1.54,1.54,11.64-11.91,23.52-23.59,35.71-34.93,12.19-11.34,24.67-22.38,37.42-33.08,7.18-6.03,14.44-11.98,21.82-17.77l-1.15-1.15c-20.37,18.07-40.06,36.9-59.01,56.46-5.36,5.53-10.65,11.12-15.87,16.78-.99,1.08.49,2.51,1.59,1.59,23.42-19.72,47.29-38.92,71.73-57.35,6.93-5.23,13.9-10.4,20.91-15.53l-1.2-1.55c-17.77,16.34-35.35,32.88-52.61,49.75-4.9,4.79-9.78,9.6-14.63,14.43-.91.9.34,2.66,1.42,1.84,21.2-16.25,42.69-32.09,64.19-47.94,6.03-4.45,12.1-8.83,18.25-13.12l-1.02-1.32c-17.58,16.52-35.57,32.58-53.98,48.17-5.15,4.36-10.35,8.68-15.55,12.99-1.21,1.01.51,2.65,1.71,1.71,21.08-16.43,42.88-32.02,65.22-46.7,6.34-4.16,12.72-8.24,19.2-12.18l-1.07-1.39c-18.84,17.01-37.68,34.02-56.52,51.03-5.3,4.78-10.59,9.56-15.88,14.35-1.06.96.35,2.86,1.55,2.01,18.89-13.36,37.71-26.82,56.46-40.38,5.26-3.8,10.57-7.53,15.89-11.24l-1.37-1.78c-16.09,14.98-32.01,30.16-48,45.25-4.53,4.27-9.05,8.54-13.58,12.81-1.07,1.01.34,2.92,1.6,2.07,14.46-9.78,28.87-19.65,43.3-29.48,4.12-2.81,8.24-5.62,12.37-8.42l-1.5-1.95c-13.25,11.2-25.75,23.23-37.39,36.09-.97,1.07.32,3.04,1.63,2.12,13.47-9.47,26.78-19.17,40.27-28.6l-1.48-1.92c-9.09,9.64-18.17,19.28-27.26,28.92-1.16,1.23.29,2.85,1.71,2.22,9.97-4.44,19.41-9.94,28.34-16.22l-1.88-1.88c-4.92,7.16-10.63,13.73-17.01,19.63-.98.9.04,2.83,1.35,2.32,5.91-2.28,11.99-4.03,18.19-5.31l-1.71-1.71c-1.28,3.75-4.27,6.81-8.01,8.15-1.62.58-.92,3.17.71,2.59,4.7-1.68,8.32-5.28,9.97-10,.38-1.08-.75-1.9-1.71-1.71-6.21,1.23-12.29,3.02-18.19,5.31l1.35,2.32c6.54-6.07,12.37-12.85,17.41-20.21.76-1.11-.76-2.66-1.88-1.88-8.91,6.28-18.47,11.62-28.38,16.15l1.71,2.22c9-9.73,18-19.46,27-29.18.9-.97-.3-2.77-1.48-1.92-13.39,9.56-26.97,18.87-40.39,28.39l1.63,2.12c11.57-12.9,24-25.05,37.24-36.24,1.07-.9-.34-2.74-1.5-1.95-14.44,9.81-28.91,19.58-43.36,29.37-4.13,2.8-8.26,5.59-12.38,8.4l1.6,2.07c15.93-15.15,31.87-30.29,47.8-45.44,4.51-4.29,9.03-8.57,13.51-12.88.9-.87-.31-2.55-1.37-1.78-18.73,13.56-37.74,26.74-56.63,40.08-5.3,3.75-10.59,7.51-15.87,11.28l1.55,2.01c18.72-17.13,37.39-34.31,56.08-51.47,5.25-4.82,10.51-9.64,15.76-14.47.74-.68-.22-1.92-1.07-1.39-22.97,14.22-45.56,28.94-67.27,45.03-6.04,4.48-12.03,9.04-17.97,13.66l1.71,1.71c18.55-15.38,36.6-31.4,54.26-47.8,4.95-4.59,9.86-9.22,14.74-13.89.67-.64-.23-1.88-1.02-1.32-10.88,7.73-21.86,15.31-32.67,23.12s-21.59,15.69-32.24,23.73c-5.97,4.52-11.93,9.06-17.86,13.63l1.42,1.84c17.05-17.08,34.35-33.91,51.94-50.44,4.99-4.69,10-9.36,15.05-13.99.81-.74-.28-2.22-1.2-1.55-24.89,18.13-49.32,36.91-73.2,56.35-6.73,5.48-13.4,11.04-20.03,16.64l1.59,1.59c18.44-20.04,37.52-39.47,57.41-58.08,5.62-5.26,11.3-10.46,17.03-15.6.8-.71-.35-1.79-1.15-1.15-13.06,10.34-25.95,20.89-38.53,31.81-12.57,10.92-24.86,22.18-36.85,33.73-6.76,6.51-13.42,13.12-19.96,19.84l1.71,1.32c18.64-24.13,38.53-47.26,58.67-70.14,5.64-6.4,11.29-12.79,16.94-19.19.77-.87-.49-2.16-1.29-1.29-22.51,24.26-45.18,48.37-67.78,72.55-6.36,6.8-12.72,13.6-19.08,20.41l1.33,1.33c15.05-19.4,30.66-38.33,47.22-56.47,4.7-5.14,9.45-10.23,14.26-15.27.54-.56-.32-1.42-.86-.86h0Z"/>
    <path d="m402.86,496.72c-2.85,4.17-5.1,8.71-6.71,13.5-.38,1.14,1.42,1.63,1.8.5,1.56-4.64,3.53-9.14,5.88-13.43.35-.64-.57-1.16-.97-.57h0Z"/>
    <path d="m703.33,389.59c-17.3-12.45-42-7.57-52.92,10.9-1.26,2.13,1.94,3.95,3.29,1.92,10.87-16.29,31.51-20.91,48.21-10.39,1.56.98,2.87-1.39,1.42-2.43h0Z"/>
    <path d="m662.72,424.58c11.51,2.72,23.16,2.41,34.39-1.41,2.27-.77,1.28-4.41-.99-3.61-10.57,3.72-21.65,4.61-32.59,2.12-1.88-.43-2.69,2.46-.8,2.9h0Z"/>
    <path d="m565.47,423.81c8.87,5.19,19.17,6.08,28.79,2.47,2.22-.83,1.27-4.42-.99-3.59-8.74,3.22-17.95,2.73-26.28-1.49-1.73-.87-3.22,1.62-1.53,2.61h0Z"/>
    <path d="m597.39,592.68c21.84-5.99,44.06-7.96,66.62-5.97,2.38.21,2.34-3.46,0-3.7-22.6-2.3-45.71.11-67.36,6.97-1.7.54-1,3.17.74,2.69h0Z"/>
    <path d="m622.84,608.4c3.83-.64,7.65-1.78,11.38-2.85,2.21-.63,1.28-4.04-.95-3.45-3.75.99-7.62,1.96-11.23,3.37-1.83.71-1.13,3.25.81,2.93h0Z"/>
    <path d="m732.9,306.05c12.88-4.11,25.86,4.18,30.71,16.15,2.47,6.11,3.09,12.8,2.47,19.33-.5,5.31-3.73,22.07-12.49,15.43-1.49-1.13-3.03.73-2.8,2.15,4.75,29.96-24.64,52.38-24.88,81.88l3.83-.52c-3.94-24.91,7.46-50.91-3.53-74.83-.45-.97-1.83-1.18-2.67-.7-14,7.92-27.15-5.09-35.87-14.74-.73-.81-2.02-.69-2.77,0-18.15,16.65-42.76,1.31-58.96-9.99-.82-.58-2.24-.19-2.68.7-10.03,20.44-36.18,11.58-52.01,4.96-1.24-.52-2.44.76-2.48,1.89-.54,13.63-12.41,24.82-26.01,24.71-1.06,0-1.97.91-1.96,1.96.2,23.04.4,46.07.6,69.11l3.67-.99c-5.49-8.06-8.8-17.19-13.11-25.87-4.75-9.57-11.22-19.94-5.94-30.74.45-.92.29-2.18-.71-2.7-8.46-4.38-10.9-16.43-4.44-23.59.7-.78.8-2.02,0-2.79-16.48-15.72-14.86-51.66,8.58-60.13,1.08-.39,1.72-1.38,1.44-2.54-4.13-17.14,1.78-38.45,18.62-46.63,14.58-7.08,35.42-.62,40.75,15.37.58,1.74,3.64,2.17,3.98,0,2.11-13.46,14.17-24.58,28.07-24.34,14.08.25,26.02,12.6,26.94,26.4.15,2.23,3.6,3,4.12.56,2.65-12.27,12.17-23.99,25.31-25.4s25.32,8.8,25.31,21.67c0,1.49,1.84,2.77,3.17,1.82,9.86-7,24.77-5.75,32.61,3.87,8.1,9.93,5.59,25.97-4.39,33.63-2.11,1.62-.03,5.26,2.12,3.62,11.62-8.88,15.25-26.63,6.4-38.79-8.75-12.02-26.92-14.46-38.87-5.97l3.17,1.82c.01-14.63-13.75-26.57-28.16-25.98-15.56.64-27.59,14.08-30.72,28.59l4.12.56c-1.06-15.67-13.87-29.34-29.77-30.46-16.05-1.13-30.97,11.67-33.42,27.3h3.98c-5.94-17.86-28.05-25.66-44.89-18.7-19.83,8.2-27.14,32.63-22.43,52.15l1.44-2.54c-26.29,9.49-29.14,48.91-10.27,66.9v-2.79c-8.08,8.95-5.58,24.18,5.24,29.78l-.71-2.7c-4.65,9.52-1.93,19.75,2.75,28.73,5.5,10.53,9.59,22.02,16.31,31.86,1.05,1.55,3.68,1.06,3.67-.99-.2-23.04-.41-46.07-.61-69.11l-1.96,1.96c15.79.12,29.31-12.9,29.94-28.64l-2.48,1.89c10.79,4.51,22.36,9.28,34.31,7.77,9.22-1.17,17.94-6,22.13-14.53l-2.68.7c17.9,12.48,44.04,27.42,63.71,9.38h-2.77c10.04,11.11,24.87,24.25,40.61,15.35l-2.67-.7c10.64,23.16-.7,49.62,3.14,73.9.35,2.22,3.81,1.62,3.83-.52.24-29.95,29.59-51.96,24.66-82.89l-2.8,2.15c6.09,4.61,13.02-.34,15.52-6.35,3.47-8.32,3.73-18.83,1.6-27.5-3.93-15.98-19.92-28.96-36.72-23.4-1.92.64-1.11,3.68.84,3.06h0Z"/>
    <path d="m529.49,292.27c-11.13,11.01-21,23.83-27.87,37.95-.4.82.71,1.87,1.36,1.05,6.68-8.44,13.45-16.81,19.98-25.37.32-.43-.4-.98-.75-.58-6.95,8.13-13.66,16.46-20.46,24.72l1.36,1.05c3.54-6.96,7.35-13.7,11.86-20.08,4.55-6.44,9.63-12.48,15.22-18.04.46-.46-.25-1.17-.71-.71h0Z"/>
    <path d="m547.92,274.88c2.24-2.7,4.47-5.4,6.71-8.09l-.66-.51c-11.39,15.26-22.61,30.65-33.89,45.99-3.2,4.35-6.42,8.69-9.58,13.08-.59.82.77,1.89,1.41,1.09,15.77-19.77,31.55-39.54,47.32-59.31,4.46-5.59,8.97-11.14,13.46-16.71l-.95-.95c-16.04,20.46-31.44,41.45-46.44,62.69-4.21,5.96-8.38,11.95-12.52,17.96-.66.97.89,2.19,1.64,1.27,16.86-20.94,34.44-41.26,53.09-60.63,5.27-5.47,10.61-10.88,16.03-16.21.69-.67-.37-1.73-1.06-1.06-20.04,19.68-38.56,40.7-55.12,63.41-4.72,6.47-9.28,13.06-13.68,19.76-.67,1.02.86,2.2,1.69,1.3,21.22-22.94,42.98-45.4,65.4-67.18,6.32-6.14,12.67-12.26,19.13-18.26l-1.22-1.22c-11.66,11.91-22.97,24.16-33.9,36.73s-21.41,25.37-31.55,38.51c-5.78,7.49-11.43,15.08-16.96,22.75-.75,1.03.93,2.33,1.77,1.37,12.2-14.02,24.58-27.89,37.29-41.44,12.77-13.61,25.85-26.93,39.21-39.95,7.5-7.31,15.1-14.51,22.79-21.62l-1.03-1.03c-13.56,14.6-26.78,29.5-39.74,44.62-12.86,15-25.46,30.23-37.97,45.53-7.11,8.71-14.08,17.55-21.29,26.17-.95,1.13.68,2.77,1.63,1.63,13.43-16.13,27.4-31.82,41.88-47.02s29.47-29.91,44.91-44.14c8.71-8.02,17.56-15.89,26.55-23.59l-1.37-1.37c-14.73,15.42-29.53,30.77-43.84,46.58-14.3,15.78-28.19,31.95-41.3,48.73-7.37,9.44-14.5,19.06-21.32,28.91-.73,1.05.93,2.35,1.78,1.38,14.01-15.97,27.93-32.02,42.34-47.62s29.18-30.81,44.7-45.26c8.73-8.13,17.71-16,26.98-23.51l-1.02-1.02c-4.04,4-8.28,7.79-12.39,11.72s-7.94,7.69-11.86,11.58c-7.95,7.9-15.79,15.9-23.54,24-15.5,16.2-30.63,32.74-45.5,49.52-8.37,9.45-16.66,18.99-24.9,28.56-.98,1.14.56,2.72,1.66,1.66,18.74-17.89,37.36-35.89,56.02-53.85,18.6-17.91,37.21-35.8,55.76-53.76,10.47-10.14,20.94-20.28,31.45-30.37l-1.29-1.29c-13.13,12.63-25.97,25.58-38.5,38.81s-24.63,26.65-36.46,40.4c-6.71,7.8-13.32,15.68-19.81,23.67-.87,1.07.65,2.61,1.53,1.53,11.49-14.15,23.27-28.06,35.4-41.66,12.08-13.54,24.47-26.8,37.19-39.74,7.21-7.34,14.53-14.58,21.94-21.72.85-.82-.44-2.11-1.29-1.29-18.67,17.96-37.48,35.77-56.18,53.7-18.63,17.87-37.27,35.74-55.9,53.61-10.52,10.09-21.04,20.17-31.52,30.3l1.66,1.66c14.52-17.09,29.24-34.01,44.29-50.64,15.04-16.63,30.4-32.96,46.2-48.87,4.45-4.48,8.94-8.92,13.43-13.35s8.92-8.96,13.62-13.16c.7-.63-.31-1.58-1.02-1.02-16.59,13.18-32.35,27.44-47.33,42.43s-29.39,30.65-43.53,46.48c-7.97,8.92-15.88,17.89-23.74,26.9l1.78,1.38c12.07-17.52,25.14-34.34,38.82-50.63,13.61-16.21,27.82-31.9,42.29-47.35,8.19-8.74,16.43-17.43,24.77-26.01.88-.91-.43-2.17-1.37-1.37-16.06,13.53-31.66,27.6-46.72,42.23s-29.61,29.78-43.64,45.39c-7.92,8.81-15.66,17.77-23.24,26.87l1.63,1.63c6.1-7.88,12.44-15.59,18.68-23.35,6.24-7.77,12.51-15.53,18.82-23.24,12.51-15.31,25.2-30.47,38.24-45.33,7.42-8.45,14.95-16.8,22.66-25,.64-.69-.34-1.66-1.03-1.03-13.71,12.54-27.15,25.38-40.3,38.52s-26.11,26.67-38.71,40.44c-7.07,7.73-14.03,15.55-20.85,23.5l1.77,1.37c9.66-13.57,19.73-26.83,30.19-39.79s21.12-25.39,32.23-37.61c6.31-6.94,12.73-13.78,19.27-20.5.78-.8-.41-1.98-1.22-1.22-22.82,21.38-45.2,43.17-66.79,65.8-6.09,6.38-12.09,12.83-18.04,19.34l1.69,1.3c15.27-23.51,32.53-45.71,51.59-66.27,5.34-5.76,10.77-11.46,16.41-16.93l-1.06-1.06c-19.27,18.73-37.62,38.38-55.05,58.83-4.93,5.78-9.77,11.64-14.5,17.59l1.64,1.27c14.55-21.45,29.53-42.64,45.07-63.4,4.37-5.84,8.75-11.67,13.14-17.49.46-.61-.58-1.42-1.06-.82-15.79,19.74-31.71,39.37-47.61,59.02-4.5,5.56-8.99,11.12-13.49,16.68l1.41,1.09c11.22-15.35,22.19-30.9,33.27-46.35,3.15-4.39,6.26-8.79,9.38-13.19.27-.39-.36-.89-.66-.51-2.17,2.76-4.34,5.52-6.51,8.29-.22.28.17.69.4.4h0Z"/>
    <path d="m657.21,264.52c-20.57,20.97-40.78,42.29-60.67,63.89-5.61,6.09-11.2,12.19-16.67,18.39-.77.87.5,2.16,1.28,1.28,13.36-14.86,27.13-29.35,41.25-43.5,14.12-14.14,28.6-27.92,43.43-41.31,8.37-7.57,16.83-15.05,25.51-22.27l-1.02-1.02c-13.95,12.21-27.28,25.13-40.09,38.53-12.75,13.35-24.98,27.2-36.64,41.51-6.54,8.03-12.9,16.19-19.09,24.49-.77,1.03.94,2.34,1.79,1.38,12.72-14.34,25.88-28.27,39.84-41.42s28.5-25.63,43.61-37.42c8.56-6.68,17.3-13.13,26.22-19.32l-.99-1.28c-14.31,13.71-28.52,27.51-42.51,41.54-13.7,13.74-27.45,27.51-40.61,41.77-6.62,7.17-13.02,14.91-16.92,23.95-.47,1.09.82,2.39,1.78,1.37,13.17-13.91,26.93-27.22,41.22-39.97,14.34-12.8,29.16-25.06,44.43-36.72,8.61-6.58,17.36-12.96,26.24-19.16l-1.12-1.45c-12.83,10.6-25.32,21.61-37.57,32.88s-24.3,22.77-36.26,34.36c-6.75,6.54-13.49,13.1-20.2,19.69-1.01.99.52,2.51,1.55,1.55,13.13-12.23,26.68-24,40.64-35.28,14-11.32,28.38-22.18,43.09-32.55,8.27-5.83,16.67-11.49,25.2-16.93l-1.11-1.43c-23.21,21.53-46.42,43.07-69.63,64.6-6.48,6.01-12.99,11.98-19.44,18-.95.89.34,2.65,1.42,1.84,22.7-16.98,45.95-33.23,69.71-48.69,6.71-4.37,13.46-8.68,20.27-12.88l-1.19-1.54c-21.64,18.16-42.81,36.87-63.6,55.99-5.82,5.35-11.61,10.74-17.34,16.19-.94.89.31,2.59,1.41,1.83,14.71-10.14,29.39-20.33,44.08-30.5,4.17-2.89,8.33-5.79,12.5-8.66.99-.68.05-2.3-.94-1.61-14.72,10.11-29.51,20.12-44.27,30.18-4.19,2.86-8.37,5.72-12.55,8.58l1.41,1.83c20.52-19.41,41.35-38.47,62.68-56.99,5.97-5.18,11.97-10.33,18-15.45.85-.72-.25-2.12-1.19-1.54-24.05,15.01-47.73,30.56-70.79,47.07-6.51,4.66-12.97,9.39-19.39,14.17l1.42,1.84c23.19-21.55,46.23-43.27,69.36-64.88,6.45-6.03,12.9-12.06,19.36-18.09.75-.7-.23-2-1.11-1.43-15.21,9.78-30.21,19.92-44.73,30.71s-28.44,21.94-42.06,33.65c-7.73,6.65-15.32,13.46-22.78,20.42l1.55,1.55c11.88-11.67,23.7-23.4,35.71-34.94s24.18-22.89,36.65-33.91c7.04-6.22,14.17-12.34,21.42-18.32.8-.66-.26-2.04-1.12-1.45-15.77,11-31.12,22.59-46.01,34.76s-29.43,24.99-43.4,38.3c-7.84,7.47-15.58,15.05-23.17,22.79l1.78,1.37c3.64-8.04,8.91-15.05,14.77-21.61,6.27-7.01,12.88-13.73,19.41-20.5,13.64-14.15,27.44-28.13,41.41-41.95,7.85-7.77,15.7-15.53,23.66-23.19.65-.63-.22-1.82-.99-1.28-15.78,11-31.09,22.68-45.8,35.07-14.72,12.39-28.85,25.48-42.38,39.15-7.63,7.71-15.11,15.6-22.27,23.75l1.79,1.38c10.95-14.84,22.49-29.25,34.59-43.17s24.69-27.26,37.77-40.18c7.35-7.26,14.88-14.33,22.5-21.31.69-.63-.33-1.62-1.02-1.02-15.07,13.13-30.07,26.32-44.63,40.01s-28.8,27.72-42.67,42.11c-7.83,8.13-15.54,16.37-23.15,24.69l1.28,1.28c9.87-10.99,19.66-22.06,29.61-32.97,9.85-10.79,19.86-21.43,29.95-31.99,5.72-5.99,11.47-11.94,17.25-17.86.48-.49-.27-1.24-.75-.75h0Z"/>
    <path d="m730.63,301.98c-17.97,12.29-35.09,25.79-51.19,40.45-4.6,4.19-9.12,8.46-13.56,12.81-.96.94.49,2.37,1.47,1.47,11.76-10.8,24.04-20.94,37.17-30.05,3.69-2.56,7.41-5.06,11.19-7.47.9-.57.08-2-.84-1.44-13.67,8.4-26.65,17.89-38.83,28.34-3.46,2.97-6.86,6-10.16,9.15l1.47,1.47c15.24-15.5,31.58-29.92,48.79-43.19,4.87-3.75,9.81-7.41,14.82-10.97.34-.24.02-.81-.33-.57h0Z"/>
    <path d="m745.51,299.02c-16.51,13.86-33.16,27.56-49.76,41.32-4.68,3.88-9.34,7.78-14.05,11.62-.95.77.29,2.38,1.31,1.7,18.26-12.22,36.53-24.43,54.69-36.79,5.14-3.5,10.13-7.25,15.34-10.65.7-.46.05-1.58-.66-1.12-17.22,11.11-33.36,23.94-48.34,37.92-4.24,3.96-8.41,8.01-12.42,12.21-.86.9.24,2.41,1.35,1.75,16.6-9.85,33.07-19.92,49.34-30.29,4.64-2.96,9.26-5.95,13.96-8.81l-.64-1.1c-14.92,9.72-29.04,20.67-42.3,32.56-3.8,3.41-7.51,6.91-11.18,10.45-.88.85.29,2.47,1.34,1.73,13.72-9.72,27.81-18.95,42.22-27.61,4.08-2.45,8.11-5,12.29-7.26l-.9-1.16c-12.88,10.06-25.09,20.97-36.93,32.24-.79.75.02,2.23,1.09,1.87,5.3-1.75,10.21-4.69,14.83-7.75.88-.58.06-2.01-.83-1.43-4.56,3.02-9.53,5.05-14.6,7.02l1.09,1.87c11.57-11.54,23.84-22.33,36.39-32.77.66-.55-.19-1.57-.9-1.16-7.28,4.22-14.68,8.19-21.88,12.54s-14.3,8.86-21.27,13.55c-3.95,2.66-7.85,5.39-11.73,8.15l1.34,1.73c12.52-12.55,26.07-24.11,40.3-34.68,4.04-3,8.12-5.93,12.26-8.79.67-.46.05-1.55-.64-1.1-8.13,5.26-16.53,10.12-24.84,15.08s-16.5,9.85-24.75,14.77c-4.72,2.82-9.46,5.63-14.2,8.42l1.35,1.75c14.18-14.78,29.33-28.47,45.79-40.67,4.61-3.41,9.31-6.7,14.05-9.92l-.66-1.12c-4.5,3.09-9.23,5.87-13.79,8.88s-9.13,6.03-13.69,9.05c-9.18,6.1-18.35,12.23-27.5,18.37-5.16,3.46-10.33,6.93-15.49,10.39l1.31,1.7c16.28-14.09,32.78-27.94,49.13-41.95,4.61-3.95,9.27-7.84,13.92-11.75.54-.46-.24-1.22-.77-.77h0Z"/>
    <path d="m755.1,341.12c-6.07,4.47-12.02,9.1-17.84,13.9s-11.53,10.09-17.35,15.07c-.95.81.26,2.25,1.3,1.68,2.83-1.54,5.5-3.46,8.22-5.18s5.34-3.36,8.03-5.03,5.33-3.39,7.99-5.1,5.4-3.62,8.27-5.09l-.52-.88c-4.84,3.7-9.34,7.94-13.9,11.99s-9.28,8.33-13.99,12.42c-.82.71.05,2.28,1.09,1.87,5.91-2.32,11.6-5.39,17.01-8.69.96-.59.1-2.06-.88-1.51-5.52,3.06-11.22,5.62-16.98,8.16l1.35,1.76c4.47-4.22,9.03-8.34,13.55-12.5s9.19-8.21,13.37-12.68c.38-.41-.12-1.13-.62-.8-2.7,1.78-5.64,3.21-8.47,4.76s-5.53,3.05-8.25,4.66-5.42,3.24-8.12,4.88-5.64,3.25-8.24,5.14l1.3,1.68c5.18-5.48,10.94-10.51,16.61-15.48s11.51-9.82,17.46-14.48c.29-.23-.1-.74-.4-.52h0Z"/>
    <path d="m749.6,364.14c-8.12,5.89-14.84,13.55-19.61,22.38-.41.75.27,1.74,1.14,1.48,5.08-1.5,9.25-4.85,13.37-8.04l-1.32-1.32c-4.65,5.94-8.98,12.08-12.87,18.54-.43.72.3,1.83,1.16,1.5s1.65.17,1.98,1.01c.44,1.1-.03,2.47-.32,3.54-.57,2.08-1.18,4.15-1.78,6.22-1.25,4.3-2.51,8.6-3.76,12.91-.33,1.13,1.44,1.61,1.76.49,1.6-5.58,3.16-11.18,4.8-16.75.65-2.23,1.87-4.88,1-7.2-.61-1.63-2.51-2.89-4.22-2.19l1.16,1.5c3.64-6.4,7.88-12.46,12.42-18.25.75-.96-.37-2.06-1.32-1.32-3.88,3-7.89,5.85-12.58,7.41l1.14,1.48c4.38-8.83,10.7-16.55,18.48-22.6.45-.35-.15-1.13-.61-.79h0Z"/>
    <path d="m563.41,248.06c-11.99,13.06-23.5,26.68-33.96,41.01l1.61.94c9.14-14.03,18.25-28.07,27.42-42.07.32-.49-.34-1.21-.83-.83-5.26,4.03-9.3,9.26-13.51,14.33-4.61,5.54-9.22,11.09-13.85,16.61l1.35,1.35c5.53-6.72,10.18-14.22,14.17-21.94.39-.75-.6-1.63-1.22-.94-7.64,8.45-14.76,17.29-21.16,26.72-.58.85.8,1.65,1.37.8,6.28-9.3,13.21-18.23,20.89-26.43l-1.22-.94c-4.08,7.57-8.92,14.58-14.18,21.37-.74.96.58,2.32,1.35,1.35,4.41-5.51,8.84-11,13.27-16.49,4.11-5.09,8.07-10.77,13.35-14.75l-.83-.83c-9.29,13.94-18.65,27.83-27.98,41.74-.68,1.01.92,1.9,1.61.94,10.41-14.25,21.29-28.07,33.1-41.19.46-.51-.29-1.26-.75-.75h0Z"/>
    <path d="m549.05,364.73c-7.35,7.94-14.71,16.02-21.41,24.52-.41.52-.06,1.6.75,1.28s1.66-.65,2.49-.97.51-1.75-.39-1.42c-.84.3-1.67.61-2.51.91l.75,1.28c3.46-4.19,6.79-8.48,10.31-12.62s7.11-8.21,10.76-12.23c.46-.51-.29-1.26-.75-.75h0Z"/>
    <path d="m566.02,348.33c-7.21,7.19-14.29,14.5-21.28,21.89-3.47,3.67-6.9,7.37-10.29,11.1s-6.97,7.55-10.16,11.56c-.67.84.44,2.03,1.21,1.21,3.5-3.75,6.76-7.72,10.15-11.56s6.71-7.55,10.12-11.28c6.87-7.51,13.92-14.85,21.11-22.06.56-.56-.31-1.43-.87-.87h0Z"/>
    <path d="m568.38,350.68c-13.32,12.51-25.7,25.87-36.9,40.32-3.12,4.03-6.15,8.13-9.13,12.27-.7.98.78,1.96,1.59,1.23,4.16-3.75,8.14-7.72,12.06-11.73s7.6-8.25,11.41-12.37l-.97-.97c-6.76,8.59-12.85,17.75-17.97,27.41-.48.91.65,1.77,1.41,1.08,3.95-3.56,8.17-6.85,12.67-9.7l-1.11-.85c-1.83,5.77-4.6,11.11-8.18,15.98-.41.56.14,1.49.82,1.43,3.26-.31,2.47,4.04,1.98,5.91-.16.59.29,1.11.87,1.14.97.06,1.95.1,2.92.14l-.85-.85c.29,2.49.58,4.98.91,7.46.14,1.06,1.81,1.09,1.69,0-.27-2.49-.59-4.97-.89-7.46-.06-.49-.34-.81-.85-.85-.97-.08-1.95-.17-2.92-.24l.87,1.14c.52-1.9,1.05-4.05.14-5.92-.71-1.45-2.19-2.57-3.86-2.37l.82,1.43c3.53-5.04,6.21-10.65,7.99-16.54.19-.63-.55-1.18-1.11-.85-4.72,2.82-9.12,6.02-13.17,9.73l1.41,1.08c5-9.61,10.75-18.77,17.4-27.34.53-.68-.36-1.65-.97-.97-7.54,8.28-15.86,15.89-23.93,23.64l1.59,1.23c10.16-14.97,21.74-28.97,34.19-42.09,3.51-3.7,7.06-7.34,10.75-10.86.44-.42-.22-1.07-.66-.66h0Z"/>
    <path d="m668.61,424.83c-.3,2.16-.69,4.32-.77,6.5-.07,1.76,2.74,2.18,3.11.42.46-2.14.62-4.32.86-6.49.2-1.81-2.94-2.25-3.2-.43h0Z"/>
    <path d="m680.96,425.87c.23,1.74.63,3.53,1.15,5.21.62,2.03,3.47,1.17,3.13-.86-.27-1.59-.65-3.25-1.17-4.77-.26-.74-.93-1.25-1.73-1.13-.69.1-1.47.76-1.37,1.55h0Z"/>
    <path d="m696.38,423.63c.23.9.45,1.8.68,2.7.2.79,1.08,1.26,1.85,1.05s1.25-1.06,1.05-1.85c-.23-.9-.45-1.8-.68-2.7-.2-.79-1.08-1.26-1.85-1.05s-1.25,1.06-1.05,1.85h0Z"/>
    <g>
      <path class="cls-2" d="m1068.89,281.31c-5.34,5.43-12.75,9.75-20.32,10.92-10.55,1.64-22.45-3.88-27.27-13.54-4.83-9.69-2.32-22.5,5.82-29.65,3.84-3.37,8.67-5.49,13.65-6.63,7.92-1.81,16.59-1.13,23.6,2.96,7.01,4.09,12.05,11.85,11.83,19.97-.17,5.99-3.1,11.69-7.3,15.97Z"/>
      <path d="m1067.81,280.23c-9.46,9.14-23.93,13.93-35.93,6.79-11.23-6.68-14.36-21.3-7.18-32.2,7.29-11.06,24.31-14.09,35.97-9.01,5.93,2.58,10.76,7.51,12.64,13.78,2.24,7.47-.88,14.72-5.92,20.24-1.82,1.99,1.11,4.95,2.97,2.97,8.49-8.99,10.64-21.69,3.02-31.97s-21.76-13.19-33.91-10.15-20.83,11.53-22.36,23.8c-1.41,11.32,4.44,21.9,14.69,26.88,13.75,6.67,27.87,1.15,38.16-8.97,1.4-1.38-.74-3.52-2.16-2.16Z"/>
    </g>
    <g>
      <path class="cls-2" d="m966.65,287.19c-5.34,5.43-12.75,9.75-20.32,10.92-10.55,1.64-22.45-3.88-27.27-13.54-4.83-9.69-2.32-22.5,5.82-29.65,3.84-3.37,8.67-5.49,13.65-6.63,7.92-1.81,16.59-1.13,23.6,2.96s12.05,11.85,11.83,19.97c-.17,5.99-3.1,11.69-7.3,15.97Z"/>
      <path d="m965.57,286.11c-9.46,9.14-23.93,13.93-35.93,6.79-11.23-6.68-14.36-21.3-7.18-32.2s24.31-14.09,35.97-9.01c5.93,2.58,10.76,7.51,12.64,13.78,2.24,7.47-.88,14.72-5.92,20.24-1.82,1.99,1.11,4.95,2.97,2.97,8.49-8.99,10.64-21.69,3.02-31.97-7.76-10.46-21.76-13.19-33.91-10.15s-20.83,11.53-22.36,23.8c-1.41,11.32,4.44,21.9,14.69,26.88,13.75,6.67,27.87,1.15,38.16-8.97,1.4-1.38-.74-3.52-2.16-2.16Z"/>
    </g>
    <path d="m565.98,426.45c-.91,1.8-1.82,3.59-2.73,5.39s1.9,3.52,2.81,1.64,1.76-3.63,2.64-5.44-1.8-3.41-2.72-1.59h0Z"/>
    <path d="m575.36,431.34v2.7c0,.83.7,1.53,1.53,1.53s1.54-.7,1.53-1.53v-2.7c0-.82-.71-1.53-1.53-1.53s-1.52.7-1.53,1.53h0Z"/>
    <path d="m923.61,234.38c13.62-2.86,29.47-5.75,42.2,1.63,12.33,7.15,15.89,22.65,17.49,35.84,1.63,13.46.72,27.11-.56,40.56-1.47,15.48-3.24,30.94-5.1,46.39-.09.73.64,1.7,1.37,1.8,8.17,1.21,16.18,1.25,24.37.12,2.37-.33,1.36-3.91-.99-3.59-7.46,1.02-14.93.97-22.38-.13l1.37,1.8c2.08-17.19,4.15-34.42,5.59-51.68,1.28-15.31,1.69-30.97-1.8-46.04-2.92-12.62-8.23-24.2-20.65-29.7-13.4-5.94-27.96-2.57-41.64.35-1.74.37-1,3.03.73,2.66h0Z"/>
    <path d="m1068.92,231.44c-17.3-12.45-42-7.57-52.92,10.9-1.26,2.13,1.94,3.95,3.29,1.92,10.87-16.29,31.51-20.91,48.21-10.39,1.56.98,2.87-1.39,1.42-2.43h0Z"/>
    <path d="m1028.3,266.43c11.51,2.72,23.16,2.41,34.39-1.41,2.27-.77,1.28-4.41-.99-3.61-10.57,3.72-21.65,4.61-32.59,2.12-1.88-.43-2.69,2.46-.8,2.9h0Z"/>
    <path d="m931.06,265.66c8.87,5.19,19.17,6.08,28.79,2.47,2.22-.83,1.27-4.42-.99-3.59-8.74,3.22-17.95,2.73-26.28-1.49-1.73-.87-3.22,1.62-1.53,2.61h0Z"/>
    <path d="m586.41,429.39l2.62,4.78c.98,1.8,3.76.18,2.75-1.61l-2.67-4.75c-.99-1.76-3.67-.19-2.7,1.58h0Z"/>
    <path d="m660.04,532.39c9.77-.75,18.68,1.32,25.9,8.2,5.24,4.99,9.69,9.78,16.68,12.32,4.84,1.75,13.57,3.75,18.28.46,3.11-2.18,2.81-6.97-1.08-7.93-.9-.22-1.6.29-1.93,1.1-6.53,15.74-22.07,24.71-38.86,23.35-8.77-.71-17.46-3.52-25.67-6.57s-15.45-6.88-21.25-13.22c-.66-.72-2.14-.81-2.79,0-21.68,27.19-61.23,32.44-88.79,10.83l-1.88,3.22c10.54,1.5,19.93-3.34,27.84-9.96,4.53-3.8,8.53-8.28,13.39-11.68s11.07-5.68,17.09-7.09,12.35-2.21,18.48-1.07c3.15.58,6.21,1.64,8.96,3.3,1.79,1.08,3.19,2.93,5.09,3.78,1.68.75,2.83.41,4.38-.48,2.89-1.64,5.15-3.65,8.35-4.85,5.69-2.14,11.85-2.54,17.83-3.23,2.26-.26,2.34-3.8,0-3.61-5.33.44-10.74.87-15.92,2.3-2.12.58-4.21,1.35-6.18,2.32-2.58,1.27-5.36,4.51-8.17,3.11-2.16-1.08-3.95-2.96-6.22-4.01-2.02-.93-4.17-1.64-6.35-2.1-4.95-1.05-9.96-.95-14.95-.23-10.41,1.5-20.25,5.07-28.37,11.85-9.9,8.26-19.86,19.96-34.21,17.94-1.62-.23-3.6,1.87-1.88,3.22,29,22.67,71.32,18.27,94.31-10.77h-2.79c6.09,6.62,13.95,10.71,22.31,13.76,9.83,3.59,20.57,6.94,31.14,6.78,16.79-.26,31.81-10.59,38.15-26.06l-1.93,1.1c-.28,2.28-1.32,3.33-3.13,3.16-.68.1-1.37.14-2.06.13-1.68.04-3.4-.1-5.06-.37-2.96-.49-5.87-1.44-8.55-2.8-5.36-2.72-9-7.27-13.41-11.18-7.46-6.61-17.02-8.48-26.74-7.62-1.66.15-1.69,2.74,0,2.61Z"/>
    <path d="m563.71,554.76c-3.85,4.4-8.11,8.29-12.66,11.95-.44.35-.11.94.29,1.11.84.35,1.76.09,2.42-.49.48-.42-.16-1.27-.69-.89-.46.32-.87.31-1.37.11l.29,1.11c4.51-3.62,8.65-7.81,12.42-12.19.41-.48-.28-1.19-.7-.7h0Z"/>
    <path d="m578.68,542.25c-7.35,8.76-14.93,17.58-20.26,27.76-.47.89.78,2.01,1.47,1.14,9.51-12,19.88-23.26,31.24-33.54l-1.1-1.1c-9.82,10.9-19.29,22.2-27.75,34.19-.53.75.55,1.89,1.31,1.31,6.59-5.05,11.03-12.44,16.58-18.53s12.21-12.1,19.17-17.15l-1.06-1.06c-9.11,12-18.84,23.43-28.76,34.77l1.43,1.43c10.45-13.36,21.97-26.06,34.42-37.6l-1.29-.54c-.15,4.04-2.99,7.3-5.36,10.33s-4.99,6.26-7.57,9.33c-5.2,6.2-10.62,12.2-16.18,18.08l1.33,1.33c11.53-13.2,24.29-25.19,36.75-37.49l-.91-.91c-10.15,13.06-20.8,25.75-31.86,38.06l1.4,1.4c11.65-13.98,24.71-26.84,38.9-38.24l-1.47-1.13c-9.08,11.98-18.27,23.88-27.46,35.78-.78,1.02.48,2.41,1.45,1.45,6.25-6.13,12.42-12.35,18.64-18.51.92-.91-.5-2.34-1.43-1.43-6.22,6.17-12.48,12.28-18.67,18.48l1.62,1.25c9.11-12.06,18.23-24.11,27.46-36.08.7-.91-.72-1.73-1.47-1.13-14.31,11.32-27.37,24.08-38.98,38.16-.8.97.57,2.38,1.4,1.4,10.76-12.61,21.19-25.47,31.36-38.56.5-.64-.28-1.48-.91-.91-12.94,11.75-25.64,23.92-37.17,37.07-.79.9.49,2.22,1.33,1.33,5.89-6.21,11.53-12.68,16.94-19.31,2.63-3.22,5.2-6.48,7.71-9.78,2.26-2.97,4.46-6.13,4.64-9.98.03-.69-.83-.95-1.29-.54-12.6,11.49-24.23,23.82-34.78,37.23-.79,1,.55,2.43,1.43,1.43,10.03-11.39,19.45-23.37,28.66-35.42.47-.61-.45-1.51-1.06-1.06-6.84,4.93-13.2,10.5-18.95,16.67-2.88,3.09-5.55,6.36-8.19,9.66s-5.37,6.52-8.78,9.03l1.31,1.31c8.6-11.73,17.48-23.22,27.2-34.05.67-.75-.36-1.78-1.1-1.1-11.31,10.27-21.91,21.38-31.46,33.31l1.47,1.14c5.35-10.08,12.3-19.06,19.43-27.93.44-.55-.32-1.34-.78-.78h0Z"/>
    <path d="m618.54,545.53c-7.16,8.03-14.46,15.96-21.57,24.04-.84.95.51,2.33,1.4,1.4,10.55-10.98,21.11-21.86,34.23-29.79l-.96-1.25c-3.84,3.79-7.79,7.45-11.5,11.37s-7.27,7.97-10.61,12.2c-.79,1,.51,2.42,1.44,1.44,10.69-11.1,22.63-20.96,35.55-29.35l-1.05-1.36c-6.79,7.22-13.77,14.26-20.55,21.49-.88.94.47,2.29,1.41,1.41,4.67-4.35,9.34-8.7,14.33-12.68,4.97-3.96,10.32-7.78,16.07-10.52l-.9-1.16c-6.49,6.36-12.86,12.87-18.97,19.6-.67.74.23,2.12,1.13,1.46,10.11-7.35,20.74-13.81,31.63-19.92l-.69-1.19c-9.08,6.08-17.52,13.01-25.16,20.81-.71.72.22,2.02,1.11,1.44,10.84-7.05,21.85-14.65,34.34-18.46l-.75-1.28c-8.13,8.04-17.26,14.63-27.24,20.17l1.28,1.66c9.08-7.92,19.96-13.53,31.72-16.17l-.81-1.39c-8.62,8.48-18.9,15.26-29.86,20.3l1.07,1.83c4.61-2.43,9.21-4.87,13.89-7.17s9.3-4.71,14.06-6.79c.8-.35.11-1.52-.69-1.17-4.79,2.09-9.63,4.03-14.35,6.28s-9.39,4.54-13.98,7.02c-1.22.66-.15,2.41,1.07,1.83,11.14-5.24,21.11-12.43,29.97-20.95.63-.61-.03-1.56-.81-1.39-12.08,2.56-23.47,8.16-32.78,16.28-.93.81.26,2.23,1.28,1.66,10-5.55,19.24-12.79,27.26-20.91.52-.53,0-1.52-.75-1.28-12.69,4.03-23.87,10.99-34.85,18.37l1.11,1.44c7.43-7.8,15.65-14.86,24.56-20.92.73-.5.1-1.57-.69-1.19-11.22,5.42-21.84,12.15-31.88,19.5l1.13,1.46c6.1-6.75,12.3-13.4,18.7-19.87.61-.62-.16-1.51-.9-1.16-5.85,2.82-11.19,6.19-16.29,10.21s-9.96,8.45-14.78,12.85l1.41,1.41c6.85-7.16,13.51-14.51,20.36-21.68.66-.69-.2-1.91-1.05-1.36-13.12,8.38-25.26,18.25-36.12,29.4l1.44,1.44c6.68-8.38,13.7-16.81,21.78-23.89.7-.62-.19-1.65-.96-1.25-13.58,7.17-24.44,18.69-34.84,29.76l1.4,1.4c7.03-8.19,13.87-16.54,20.83-24.77.39-.46-.26-1.13-.67-.67h0Z"/>
    <path d="m685.1,549.04c-7.38,5.51-15.22,10.01-23.53,13.94l.97,1.66c5.52-3.22,11.19-6.19,17.04-8.78,2.92-1.29,5.88-2.48,8.88-3.58s6.14-2.35,9.29-3.2l-.87-.5c.5,1.28-1.92,2.38-2.73,2.93-.96.65-1.93,1.3-2.89,1.94-2.13,1.44-4.26,2.87-6.4,4.31-4.19,2.82-8.39,5.65-12.61,8.44-1.18.78-.16,2.51,1.1,1.89,9.02-4.4,18.12-8.86,27.71-11.91l-.69-1.64c-6.72,3.62-13.17,7.73-19.35,12.22-1.23.89-.1,2.95,1.22,2.08,6.95-4.57,14.45-8.34,22.41-10.83l-.76-1.3c-3.42,2.73-6.9,5.41-10.27,8.2-.8.67.06,2.11,1.03,1.76,3.97-1.43,7.97-2.84,11.88-4.43l-1.17-1.17c-.15.68-.54.99-1.22,1.1-.95.15-.74,1.78.23,1.69,1.4-.13,2.43-.93,2.83-2.29.2-.68-.48-1.4-1.17-1.17-4.02,1.3-7.98,2.78-11.94,4.23l1.03,1.76c3.34-2.8,6.59-5.73,9.88-8.59.61-.53-.05-1.47-.76-1.3-8.29,2.01-16.19,5.36-23.21,10.25l1.22,2.08c6.07-4.65,12.44-8.88,19.04-12.75.85-.5.29-1.99-.69-1.64-9.64,3.45-19.28,6.89-28.33,11.75l1.1,1.89c4.86-3.48,9.76-6.91,14.65-10.35,2.38-1.67,4.75-3.34,7.13-5.01,1.54-1.09,3.98-2.46,3.03-4.69-.12-.28-.53-.41-.8-.33-3.13.95-6.3,1.73-9.4,2.81s-6.01,2.22-8.95,3.48c-6.02,2.57-11.87,5.54-17.45,8.98-1.06.65-.13,2.21.97,1.66,8.15-4.11,15.89-9.32,23-15.03.31-.25-.11-.81-.43-.56h0Z"/>
    <path d="m712.88,764.35c-1.47,20.38,6.29,39.84,7.56,60,.67,10.68-1.37,20.93-3.37,31.35s-2.85,21.26-2.69,32.09c.16,10.93.88,21.85,1.42,32.76.55,11.11,1.11,22.21,1.68,33.32s1.14,22.06,1.68,33.09c.4,8.16.56,16.53-1.35,24.53s-6.09,14.88-13.25,19.15c-6.85,4.08-14.97,5.77-21.51,10.41-1.6,1.13-3.04,2.42-4.32,3.91-.81.94.5,2.31,1.38,1.38,5.73-6,13.88-8.24,21.18-11.67,3.61-1.7,7.06-3.76,9.9-6.61s4.75-5.98,6.22-9.5c3.14-7.51,3.72-15.91,3.67-23.95-.06-10.22-.87-20.46-1.39-30.67-1.12-22.26-2.42-44.51-3.37-66.78-.48-11.11-.59-22.28.95-33.32s4.39-20.93,4.64-31.64c.49-20.48-7.74-39.89-8.51-60.25-.1-2.54-.06-5.07.1-7.61.02-.39-.57-.38-.6,0h0Z"/>
    <path d="m732.32,1010.13c-.6,3.95-1.39,7.8-2.77,11.56s-3.28,7.38-5.5,10.75c-.57.87.81,1.65,1.39.81,4.58-6.65,7.67-14.85,8.16-22.94.04-.72-1.17-.9-1.28-.17h0Z"/>
    <path d="m663.72,1035.74c-4.54,1.98-8.92,4.36-13.35,6.57-1.12.56-.13,2.26.99,1.69,4.41-2.24,8.92-4.36,13.19-6.84.94-.55.12-1.84-.83-1.43h0Z"/>
    <path d="m575.09,1017.59c5,5.33,10.21,10.48,15.32,15.7.67.69,1.73-.37,1.05-1.05-5.12-5.21-10.16-10.53-15.39-15.63-.64-.63-1.59.33-.98.98h0Z"/>
    <path d="m233.5,928.32c.52,19.62,1.05,39.23,1.57,58.85.26,9.64.48,19.28.78,28.92.26,8.46.83,17.32,4.73,25,3.48,6.85,10.15,13.31,18.22,13.68.94.04,1.19-1.52.23-1.68-7.22-1.19-12.9-5.78-16.42-12.11-4.12-7.39-4.76-16.16-5.08-24.44-.74-18.76-1.28-37.54-1.91-56.31-.36-10.64-.72-21.28-1.08-31.92-.02-.66-1.04-.66-1.02,0h0Z"/>
    <path d="m266.78,1014.75c.29,10.42,6.7,20.29,16.21,24.61.75.34,1.4-.76.65-1.11-9.04-4.23-15.29-13.5-15.62-23.5-.03-.8-1.26-.8-1.24,0h0Z"/>
    <path d="m975.98,274.34c8.91-12.29,28.92-15.84,39.52-3.55,1.71,1.98,4.52-.88,2.86-2.86-12.21-14.55-34.97-9.07-44.77,5.02-1.02,1.47,1.35,2.81,2.38,1.39h0Z"/>
    <path d="m1076.63,264.88c5.34.14,10.68.42,16.02.72,2.42.14,2.37-3.54,0-3.74-5.34-.45-10.67-.43-16.02-.08-1.97.13-2.01,3.05,0,3.1h0Z"/>
    <path d="m900.05,276.06c4.81.1,9.61.22,14.41.29,2.33.04,2.33-3.66,0-3.62-4.81.07-9.61.19-14.41.29-1.95.04-1.96,3,0,3.04h0Z"/>
    <path d="m925.89,128.04c34.22-.99,60.1,24.21,85.64,43.3,9.98,7.46,22.7,16.46,35.75,11.17,9.42-3.82,13.89-15.94,6.44-23.84l-2.3,2.98c7.17,5.19,15.5,10.97,24.85,9.8,6.85-.86,13.12-5.22,14.56-12.21l-3.39.9c6.32,6.81,16.35,8.9,25.06,5.81s15-11.91,16.36-21.24c1.37-9.38-1.88-18.59-8.05-25.67-8.11-9.3-19.65-12.85-31.41-14.97-55.93-10.09-114.73-8.59-170.28,3.24-10.36,2.2-21.81,5.56-29.26,13.58-9.29,10.01-7.28,23.21-4.34,35.4l2.01-2.63c-13.23-.66-20.05,14.04-17.81,25.43,3.49,17.72,22.37,29.5,21.27,48.47-.16,2.73,4.09,2.72,4.25,0,.82-14.21-8.85-24.78-15.74-36.19-3.71-6.14-7.26-13.53-5.76-20.9,1.37-6.73,6.47-13,13.79-12.65,1.39.07,2.31-1.38,2.01-2.63-2.66-10.92-4.88-22.91,3.7-31.85,6.28-6.54,15.68-9.45,24.26-11.47,22.9-5.37,46.68-8.13,70.14-9.52,23.32-1.38,46.74-1,69.99,1.29,12.06,1.19,24.25,2.64,36.1,5.23,10.53,2.31,20.5,6.79,26.69,16.01s6.76,22.7-1.06,31.59c-7.49,8.53-21.2,9.19-29.04.81-1-1.07-3.09-.6-3.39.9-1.37,6.76-8.34,9.99-14.77,9.33-7.06-.72-13.17-5.17-18.81-9.13-1.8-1.27-3.76,1.48-2.3,2.98,5.23,5.39,2.34,13.93-3.83,17.17-6.49,3.41-14.26,1.74-20.48-1.38-11.82-5.95-22.04-15.47-32.49-23.46-19.84-15.17-42.4-29.38-68.35-28.32-1.72.07-1.74,2.74,0,2.69h0Z"/>
    <path d="m969.27,400.89c18.93-3.7,38.04-5.13,57.28-5.91,2.33-.09,2.35-3.66,0-3.64-19.5.21-38.92,3.07-58,6.94-1.71.35-.98,2.94.72,2.61h0Z"/>
    <path d="m988.84,422.45c5.28,2.87,11.33,2.79,16.65.08,2.12-1.08.24-4.3-1.87-3.19-4.2,2.2-8.9,2.35-13.26.51-1.73-.73-3.27,1.65-1.52,2.6h0Z"/>
    <path d="m1018.51,370.28c1.62,1.61,2.79,3.61,3.54,5.76.59,1.69,3.1,1.03,2.7-.75-.62-2.78-2.1-5.14-4.17-7.09-1.38-1.29-3.42.74-2.08,2.08h0Z"/>
    <path d="m1031.64,368.49l1.57,2.37c.43.65,1.28.93,1.98.52.64-.38.96-1.33.52-1.98l-1.59-2.37c-.43-.64-1.27-.93-1.97-.52-.64.38-.95,1.32-.52,1.97h0Z"/>
    <path d="m995.75,372.93c.56,3.15,1.05,6.33,1.74,9.46.45,2.07,3.46,1.16,3.13-.86-.52-3.16-1.23-6.29-1.87-9.42-.4-1.97-3.35-1.12-3,.83h0Z"/>
    <path d="m976.71,368.89c-.54,2.63-1.09,5.26-1.63,7.89-.45,2.18,2.91,3.1,3.34.92.52-2.64,1.03-5.28,1.55-7.91.41-2.12-2.81-3.03-3.25-.9h0Z"/>
    <path d="m955.5,373.29c-.26,2.37-.52,4.74-.78,7.11-.21,1.92,2.8,1.9,3.01,0,.27-2.37.53-4.74.8-7.11.22-1.93-2.81-1.92-3.02,0h0Z"/>
    <path d="m943.57,375.1c1.31,0,1.31-2.03,0-2.03s-1.31,2.03,0,2.03h0Z"/>
    <path d="m1043.95,365.49c2.16,0,2.17-3.36,0-3.36s-2.17,3.36,0,3.36h0Z"/>
    <path d="m891.78,131.65c1.08,2.17,2.13,4.34,3.18,6.53s2.21,4.37,3.13,6.63c.36.88,1.73.57,1.46-.4-.6-2.17-1.56-4.27-2.41-6.35s-1.72-4.15-2.62-6.21c-.29-.68-1.45-.19-1.2.51.75,2.14,1.51,4.26,2.31,6.38s1.51,4.27,2.53,6.26l1.31-.77c-1.37-2.03-2.53-4.22-3.77-6.33s-2.48-4.24-3.69-6.38c-.08-.15-.3-.02-.23.13h0Z"/>
    <path d="m927.64,119.09c.48,2.49,2.29,4.57,4.62,5.51.29.12.72-.13.76-.43.25-1.62-.11-3.36-.78-4.84-.16-.35-.72-.1-.61.26.21.69.34,1.41.37,2.13s-.07,1.41-.18,2.12l.76-.43c-1.92-.77-3.36-2.6-3.75-4.64-.06-.33-.46-.52-.76-.43-.34.09-.5.43-.43.76h0Z"/>
    <path d="m931.22,116.87c1.89,2.72,3.74,5.45,5.45,8.29.39.64,1.56.22,1.26-.53-1.89-4.8-3.58-9.7-3.99-14.88l-1.05.29c4.95,6.42,9.89,12.86,14.86,19.26.5.64,1.65-.06,1.37-.8-2.99-7.93-10.49-13.73-11.84-22.34l-.32.78c1.28-.65,2.57.9,3.31,1.77.97,1.13,1.92,2.28,2.88,3.41,1.87,2.21,3.73,4.43,5.59,6.65,3.72,4.44,7.39,8.92,11.18,13.3.61.71,1.56-.07,1.43-.83-.75-4.26-2.75-8.2-5.53-11.48-.35-.42-1.1.14-.77.59,2.51,3.38,4,7.21,4.66,11.34l1.43-.83c-4.24-5.08-8.62-10.04-12.93-15.05-2.1-2.44-4.2-4.9-6.29-7.35-1.38-1.61-3.3-3.92-5.64-2.71-.3.15-.36.48-.32.78,1.23,8.61,8.46,14.57,11.58,22.41l1.37-.8c-5.03-6.28-10.09-12.52-15.13-18.79-.3-.37-1.01-.07-.96.4.54,5.29,1.49,10.6,3.86,15.41l1.08-.84c-2.17-2.47-4.19-5.04-6.19-7.65-.15-.2-.49-.01-.34.2h0Z"/>
    <path d="m949.91,110.25c4.59,6.56,9.13,13.15,13.72,19.7,2.25,3.21,4.5,6.42,6.76,9.63,2.07,2.93,4.2,5.83,6.8,8.31.47.45,1.46.32,1.58-.42.73-4.44-2.99-8.39-5.32-11.79-2.88-4.21-5.78-8.4-8.68-12.6-.47-.68-1.58-.05-1.12.66,2.51,3.85,5.01,7.71,7.53,11.56,1.25,1.9,2.52,3.8,3.75,5.71,1.14,1.77,2.36,3.77,2.02,5.97l1.58-.42c-2.69-2.51-4.93-5.4-7.11-8.35-2.31-3.11-4.61-6.22-6.91-9.34-4.68-6.32-9.41-12.6-14.09-18.91-.22-.3-.72-.02-.5.29h0Z"/>
    <path d="m953.3,103.62c9.39,15.84,20.25,30.77,32.22,44.76,3.45,4.03,6.96,8.02,10.64,11.84l1.53-1.53c-12.83-12.2-21.76-27.6-29.81-43.2-2.28-4.42-4.5-8.86-6.64-13.35l-1.38.81c14.94,19.84,30,39.67,46.63,58.15,4.69,5.21,9.5,10.3,14.47,15.25.84.84,2.41-.28,1.69-1.3-13.05-18.62-26.32-37.1-39.49-55.64-3.75-5.28-7.48-10.56-11.2-15.86l-1.16,1.16c4.17,2.99,7.26,7.14,10.27,11.24,3.45,4.69,6.89,9.39,10.34,14.09,6.89,9.39,13.78,18.78,20.67,28.18,3.94,5.37,7.87,10.73,11.81,16.1.76,1.04,2.44.14,1.77-1.04-11.1-19.46-22.37-38.81-33.65-58.17-3.17-5.45-6.39-10.87-9.5-16.36l-1.15.67c13.62,19.54,27.32,39.03,41.02,58.51,3.87,5.5,7.75,10.99,11.63,16.48.69.97,2.31.04,1.61-.94-13.75-19.46-27.59-38.87-41.41-58.28-3.9-5.48-7.8-10.96-11.71-16.43-.49-.68-1.59-.08-1.15.67,11.26,19.36,22.01,39.03,33.13,58.47,3.13,5.47,6.24,10.96,9.39,16.42l1.77-1.04c-14.22-19.2-28.43-38.4-42.64-57.61-3.35-4.53-6.72-9.12-11.37-12.42-.68-.48-1.64.48-1.16,1.16,13.13,18.55,26.06,37.25,39.11,55.86,3.72,5.3,7.43,10.6,11.18,15.88l1.69-1.3c-17.54-17.29-33.15-36.38-48.25-55.8-4.36-5.61-8.66-11.25-12.99-16.88-.62-.8-1.84-.14-1.38.81,7.79,15.96,15.28,32.04,26.3,46.1,3.09,3.94,6.41,7.68,10,11.17,1,.97,2.48-.52,1.53-1.53-6.3-6.67-12.48-13.42-18.3-20.51-5.88-7.15-11.4-14.58-16.72-22.15-2.97-4.22-5.83-8.51-8.62-12.85-.3-.46-1.03-.05-.74.43h0Z"/>
    <path d="m993.14,104.84c10.3,19.64,21.77,38.68,34.36,56.94,3.58,5.19,7.25,10.31,11.02,15.36.78,1.05,2.47.15,1.8-1.05-10.74-19.16-20.57-38.8-30.07-58.6-2.68-5.58-5.34-11.18-8-16.77l-1.64.96c11.96,18.15,23.82,36.37,35.72,54.56,3.36,5.14,6.7,10.29,10.1,15.4.58.87,1.82.5,1.9-.52.32-4.07-4.53-5.71-6.83-8.2-1.57-1.7-2.62-3.81-3.55-5.91-1.09-2.49-2.08-5.03-3.11-7.55-4.32-10.56-8.64-21.12-12.96-31.69-2.43-5.94-4.86-11.87-7.28-17.81l-1.71.72c10.15,16.6,20.28,33.22,30.42,49.83,2.89,4.74,5.78,9.47,8.67,14.21.66,1.08,2.27.13,1.69-.99-8.25-15.86-15.81-32.1-22.63-48.63-1.92-4.65-3.77-9.33-5.57-14.03l-1.69.71c9.66,14.67,18.93,29.6,27.9,44.7,2.58,4.33,5.12,8.69,7.65,13.05l1.74-1.02c-8.16-13.45-15.13-27.61-20.68-42.34-1.59-4.22-3.1-8.47-4.49-12.76l-1.72.73c7.79,15.28,16.02,30.31,24.99,44.92,2.57,4.19,5.2,8.35,7.88,12.48.69,1.06,2.14.14,1.66-.97-7.56-17.42-15.49-34.65-23.81-51.72l-1.27.75c9.55,14.55,18.75,29.32,28.13,43.98,2.68,4.19,5.36,8.38,8.04,12.56.68,1.06,2.12.14,1.64-.96-7.98-18.37-16.07-36.69-24.11-55.03l-1.62.95c9.47,14.89,18.89,29.83,28.33,44.74,2.67,4.22,5.34,8.44,8.01,12.67.73,1.16,2.41.15,1.82-1.07-3.76-7.79-7.65-15.51-11.48-23.27-3.72-7.53-7.56-15.01-10.92-22.71-1.92-4.4-3.64-8.89-5.02-13.48l-1.69.71c10,14.16,19.28,28.82,27.85,43.88,2.42,4.25,4.77,8.52,7.08,12.83l1.77-1.03c-4.77-8.14-9.57-16.26-14.37-24.38-4.51-7.63-9.37-15.16-13.3-23.11-2.15-4.35-3.87-8.9-4.68-13.7l-1.67.7c10.82,14.69,20.12,30.44,29.07,46.31,2.55,4.52,5.07,9.06,7.59,13.6.61,1.09,2.28.11,1.67-.98-7.68-13.82-14.56-28.09-20.49-42.75-1.67-4.14-3.28-8.3-4.78-12.51l-1.43.83c12.1,15.11,20.62,32.62,29.03,49.94.57,1.18,2.31.15,1.75-1.03-7.17-15.22-13.51-30.82-18.67-46.84l-1.75.74c8.37,14.2,16.09,28.77,23.13,43.66.5,1.06,2.27.31,1.9-.8-4.29-12.87-8.67-25.71-13.03-38.56l-1.73.73c6.63,9.63,11.79,20.19,15.73,31.18.47,1.3,2.46.79,2.1-.58-2.38-8.84-4.77-17.69-7.16-26.53l-1.88.79c3.4,6.43,6.77,12.88,10.15,19.33.53,1.02,2.3.31,1.89-.8-1.47-3.98-2.2-8.13-2.13-12.37l-1.78.74c3.34,3.71,6.68,7.42,10.03,11.12.91,1.01,2.39-.48,1.49-1.49-3.35-3.7-6.69-7.41-10.04-11.11-.62-.69-1.77-.13-1.78.74-.06,4.42.68,8.78,2.22,12.92l1.89-.8c-3.39-6.44-6.79-12.87-10.16-19.32-.55-1.05-2.18-.32-1.88.79,2.34,8.85,4.7,17.71,7.05,26.56l2.1-.58c-3.97-11.2-9.54-21.73-16.19-31.56-.57-.84-2.08-.35-1.73.73,4.26,12.88,8.51,25.76,12.85,38.61l1.9-.8c-7.09-14.87-14.86-29.41-23.27-43.58-.54-.91-2.1-.32-1.75.74,5.26,16.16,11.43,32.03,18.76,47.36l1.75-1.03c-6.7-13.6-13.43-27.26-21.96-39.83-2.4-3.54-4.94-6.97-7.63-10.29-.53-.66-1.71.05-1.43.83,5.44,14.94,11.63,29.58,18.82,43.77,2.05,4.05,4.21,8.05,6.42,12.01l1.67-.98c-8.89-15.93-17.79-31.87-27.87-47.09-2.86-4.32-5.83-8.58-8.89-12.77-.62-.85-1.84-.34-1.67.7,1.37,8.37,5.49,15.9,9.71,23.15,4.75,8.17,9.54,16.32,14.32,24.48,2.76,4.71,5.54,9.41,8.32,14.11.67,1.13,2.39.13,1.77-1.03-8.24-15.25-17.19-30.11-26.82-44.52-2.71-4.06-5.46-8.1-8.27-12.09-.57-.81-2.01-.35-1.69.71,2.39,8.02,5.78,15.67,9.39,23.2s7.57,15.53,11.36,23.29c2.21,4.51,4.38,9.05,6.62,13.54l1.82-1.07c-9.5-14.88-18.99-29.76-28.49-44.65-2.69-4.21-5.37-8.43-8.05-12.64-.66-1.04-2.09-.14-1.62.95,8.02,18.35,16,36.72,24.09,55.05l1.64-.96c-9.47-14.61-18.89-29.25-28.47-43.78-2.74-4.15-5.41-8.34-8.07-12.55-.52-.81-1.67-.11-1.27.75,8.02,17.21,15.83,34.54,23.42,51.94l1.66-.97c-9.36-14.36-18.1-29.13-26.17-44.25-2.32-4.34-4.57-8.72-6.74-13.13-.47-.96-2.03-.29-1.72.73,4.71,15.19,10.97,29.89,18.51,43.89,2.14,3.97,4.39,7.88,6.74,11.72.68,1.1,2.4.11,1.74-1.02-8.84-15.18-18-30.17-27.48-44.96-2.72-4.25-5.45-8.48-8.21-12.7-.54-.83-2.08-.32-1.69.71,6.36,16.81,13.47,33.34,21.37,49.48,2.25,4.59,4.56,9.15,6.92,13.68l1.69-.99c-10.15-16.6-20.32-33.19-30.48-49.79-2.9-4.73-5.79-9.47-8.68-14.2-.53-.86-2.12-.3-1.71.72,4.26,10.41,8.51,20.82,12.77,31.22,2.11,5.17,4.23,10.33,6.34,15.5,1.9,4.65,3.51,9.64,6.04,14.01,1.17,2.01,2.62,3.7,4.48,5.1,1.58,1.19,4.07,2.54,3.85,4.83l1.9-.52c-11.81-18.25-23.89-36.33-35.84-54.49-3.38-5.13-6.76-10.25-10.12-15.39-.67-1.03-2.15-.14-1.64.96,9.36,19.87,18.72,39.74,28.97,59.18,2.89,5.48,5.86,10.91,8.94,16.29l1.8-1.05c-13.44-17.67-25.9-36.07-37.06-55.26-3.17-5.45-6.24-10.96-9.22-16.52-.32-.59-1.21-.07-.9.52h0Z"/>
    <path d="m881.39,198.01c6.97,9.66,13.74,19.47,20.76,29.1.58.8,1.85.11,1.35-.79-8.18-14.81-16.06-29.8-23.49-45.01-2.13-4.34-4.21-8.71-6.22-13.11l-1.17.68c10.6,14.61,19.74,30.12,27.65,46.34.46.94,2.12.26,1.71-.72-3.88-9.2-7.76-18.4-11.64-27.6-1.9-4.51-3.83-9.02-5.76-13.52-2.01-4.68-4.19-9.3-6.15-14l-1.07.45c7.99,15.18,15.9,30.41,23.86,45.61.6,1.14,2.28.14,1.72-1-8.56-17.2-15.73-35-20.76-53.57l-1.48.62c7.93,11.94,14.46,24.78,19.5,38.19.46,1.22,2.31.76,1.98-.55-4.47-17.67-9.31-35.24-14.03-52.84l-1.51.42c3.75,9.81,7.23,19.73,10.91,29.57.34.9,1.97.88,1.84-.25-1.53-12.94-4.03-25.75-7.52-38.31l-1.63.69c3.76,8.28,7.46,16.6,11.16,24.91.47,1.05,1.96.26,1.76-.74-2.19-10.89-4.35-21.8-6.42-32.71l-1.6.68c3.99,6.97,7.86,14.01,11.78,21.02.46.83,1.6.39,1.67-.45.54-6.53-.22-13.04-1.84-19.37-.23-.88-1.59-.51-1.37.38,1.59,6.21,1.92,12.62,1.41,18.99l1.67-.45c-3.94-7-7.94-13.96-11.82-21-.51-.92-1.76-.25-1.6.68,1.89,10.96,3.96,21.88,6.26,32.76l1.76-.74c-3.78-8.27-7.56-16.54-11.28-24.84-.42-.94-1.89-.26-1.63.69,3.38,12.42,5.85,25.06,7.36,37.83l1.84-.25c-3.69-9.85-7.59-19.62-11.21-29.49-.34-.93-1.76-.58-1.51.42,4.47,17.67,8.83,35.37,13.56,52.97l1.98-.55c-5.31-13.5-12.05-26.37-20.08-38.46-.5-.75-1.73-.29-1.48.62,5.04,18.64,11.74,36.97,20.61,54.14l1.72-1c-8.18-15.07-16.42-30.11-24.56-45.2-.37-.68-1.3-.08-1.01.59,1.99,4.69,3.76,9.48,5.7,14.19s3.75,9.07,5.64,13.59c3.82,9.13,7.65,18.26,11.47,27.38l1.71-.72c-7.88-16.18-17.41-31.61-28.1-46.08-.51-.7-1.54-.11-1.17.68,7.19,15.33,14.57,30.56,22.54,45.51,2.27,4.27,4.62,8.5,6.99,12.71l1.35-.79c-7.03-9.65-14.31-19.12-21.39-28.73-.31-.43-1.03-.02-.72.42h0Z"/>
    <path d="m903.56,115.98c.74,5.4,2.16,10.77,4.41,15.74.4.88,1.81.42,1.78-.48-.19-5.43.06-11.18,1.39-16.46l-1.28-.17c.7,6.31,1.53,12.66,4.53,18.36.37.71,1.55.56,1.73-.23,1.4-6.22,1.75-12.66,1.15-19l-1.88.25c1.75,5.07,3.45,10.14,5.17,15.22.29.87,1.52.9,1.8,0,1.26-4.03,1.9-8.28,1.87-12.51l-1.37.57c1.9,1.55,3.34,3.47,4.31,5.72.12.27.47.43.75.43,1.08,0,1.83-.63,2.31-1.56.21-.41,1.18-3.82,2.03-3.01.51.49,1.48-.17,1.02-.79-.78-1.05-2.02-.93-2.97-.12-.52.44-.86,1.01-1.08,1.64s-.46,2.09-1.31,2.1l.75.43c-1.07-2.35-2.65-4.38-4.68-5.98-.54-.43-1.34-.18-1.37.57-.15,4.1-.84,8.09-2.06,12.01h1.8c-1.72-5.07-3.44-10.15-5.13-15.23-.32-.97-1.97-.88-1.88.25.51,6.21.11,12.38-1.07,18.5l1.73-.23c-3.04-5.37-3.96-11.57-4.89-17.58-.1-.63-1.15-.62-1.25,0-.96,5.62-1.88,11.09-2.05,16.8l1.88-.25c-2.05-5.01-3.71-10.07-4.75-15.39-.18-.94-1.53-.52-1.41.39h0Z"/>
    <path d="m257.72,413.26c17.09-48.63,42.53-94.62,76.55-133.48,34.62-39.56,78.21-71,127.62-89.31,24.93-9.24,51.12-15.12,77.66-16.89,6.6-.44,13.22-.63,19.84-.56,3.14.03,6.28.12,9.41.28,2.09.1,6.1,1.16,7.97.23.85-.42,1.86-2.32,2.49-3.11.9-1.13,1.81-2.25,2.72-3.37,1.93-2.36,3.89-4.68,5.88-6.99,3.98-4.6,8.09-9.09,12.31-13.48,33.85-35.2,75.24-63.02,120.31-81.73,44.72-18.56,93.19-28.27,141.64-27.35,5.93.11,11.86.38,17.77.75,1.45.09,1.43-2.14,0-2.25-48.58-3.81-98.14,3.86-143.89,20.37-45.7,16.49-88.15,42.04-123.75,75.14-9.03,8.4-17.61,17.27-25.66,26.62-1.99,2.31-3.94,4.64-5.87,7-1.5,1.85-3.77,6.15-6.19,6.36-3.18.28-6.73-.39-9.93-.48-3.48-.1-6.97-.13-10.45-.08-26.22.33-52.36,4.71-77.4,12.45-50.31,15.56-95.69,44.6-132.16,82.44-35.55,36.89-62.67,81.43-81.28,129.06-2.34,5.98-4.53,12.02-6.61,18.1-.22.64.79.91,1.01.28h0Z"/>
    <path d="m62.07,525.05c-.57.61.41,2.06.67,2.62.87,1.85,1.79,3.69,2.72,5.51,3.39,6.62,7.05,13.12,10.66,19.62,5.03,9.05,10.12,18.08,15.22,27.1,5.71,10.1,11.44,20.19,17.2,30.27s10.94,19.12,16.44,28.67c4.36,7.56,8.74,15.12,13.16,22.64,2.51,4.28,5.14,8.48,7.69,12.73.63,1.05,1.12,2.16.67,3.37-.41,1.14-1.34,2.04-2.2,2.86-1.92,1.86-3.89,3.67-5.83,5.5s-3.94,3.72-5.92,5.57c-.96.9-1.91,1.8-2.87,2.7-.48.45-.96.9-1.43,1.35-.22.21-.47.49-.72.68-.52.39-.78.62-1.33.25-.42-.28-.83-1.03-1.13-1.41-.37-.48-.75-.97-1.12-1.45-.79-1.03-1.58-2.06-2.36-3.09-1.52-2-3.03-4.01-4.54-6.02-3-4.01-5.94-8.05-8.91-12.08-11.91-16.14-23.34-32.62-35.33-48.69s-24.34-31.66-37.87-46.35c-3.37-3.66-6.81-7.26-10.32-10.78l.16,1.24c11.24-15.24,24.13-29.25,38.51-41.58,1.11-.95-.51-2.58-1.61-1.61-14.32,12.67-27.33,26.76-38.66,42.16-.26.36-.14.94.16,1.24,14.41,14.48,27.6,30.12,40.04,46.31,12.29,15.99,23.93,32.47,35.71,48.85,5.92,8.23,11.86,16.45,17.95,24.56,1.56,2.07,3.12,4.14,4.7,6.2.74.97,1.49,1.94,2.24,2.91.58.75,1.15,1.57,2.07,1.91,2.13.76,3.98-1.82,5.31-3.07,2.03-1.91,4.07-3.83,6.1-5.74s4.07-3.83,6.1-5.74c1.66-1.56,3.69-3.11,4.77-5.17,1.41-2.71.09-5.01-1.38-7.31-1.13-1.77-2.2-3.57-3.28-5.37-3.88-6.47-7.68-12.98-11.47-19.5-5.27-9.05-10.51-18.13-15.74-27.2-5.83-10.14-11.65-20.29-17.44-30.45-5.47-9.6-10.92-19.21-16.35-28.83-4.27-7.56-8.55-15.13-12.78-22.71-2.17-3.9-4.53-7.75-6.46-11.77-.11-.24-.12-.33-.16-.36-.24-.2.19-.13-.2.32.49-.56-.3-1.38-.83-.83Z"/>
    <path d="m142.93,731.58c4.41,5.8,11.52,9.02,18.8,8.34s13.66-4.51,17.08-10.75c4.51-8.23,2.53-18.43-4.52-24.59-8.26-7.21-21.6-7.36-30.71-1.6-2.39,1.51-4.65,3.57-5.96,6.12-1.2,2.35-1.54,5.04-1.32,7.64.46,5.43,2.84,10.81,6.09,15.14.96,1.27,3.13.02,2.16-1.26-2.63-3.48-4.61-7.57-5.48-11.86-.43-2.13-.57-4.41-.03-6.53s1.88-3.97,3.52-5.46c3.6-3.28,8.7-4.97,13.48-5.39,5.13-.46,10.45.52,14.79,3.39,7.23,4.77,10.31,13.91,6.93,21.95-2.48,5.9-8.07,9.91-14.26,11.14-7.38,1.46-14.9-1.13-19.58-7.05-.45-.57-1.45.2-1.01.78Z"/>
    <path d="m32.91,558.31c-.69,6.32-1.38,12.65-2.07,18.97-.11.97,1.41,1.12,1.66.22,2.82-10.13,6.03-20.12,10.36-29.72l-1.5-.63c-2.21,10.84-3.53,21.85-3.99,32.9-.05,1.09,1.68,1.34,1.91.26,3-13.77,6.63-27.46,11.49-40.71l-1.59-.21c-1.36,17.6-3.83,35.05-7.18,52.38l2,.55c2.85-16.49,6.86-32.79,11.88-48.76,1.43-4.56,2.94-9.1,4.52-13.61l-1.9-.26c-2.15,17.45-4.65,34.87-6.99,52.3-.66,4.93-1.33,9.87-1.99,14.8-.17,1.24,1.85,1.46,2.15.29,4.92-18.71,9.75-37.46,14.4-56.25l-1.68-.23c-1.95,17.79-4.03,35.57-6.04,53.36-.58,5.11-1.16,10.21-1.73,15.32-.14,1.23,1.95,1.52,2.17.29,3.04-16.95,7.36-33.67,13.1-49.92l-1.56-.21c-1.08,18.9-2.7,37.79-4.08,56.67-.09,1.24,1.79,1.43,2.12.29,4.58-15.84,8.64-31.82,13.19-47.66l-1.59-.22c-1.5,20.52-3.54,41.02-6.39,61.4-.19,1.38,1.88,2.02,2.14.59,2.76-15.01,7.46-29.46,14.13-43.19l-1.9-.51c-.84,16.62-2.19,33.22-3.31,49.82-.09,1.27,2.08,1.59,2.26.31,1.88-13.41,6.04-26.45,12.52-38.35l-1.77-.48c-.6,17.72-2.31,35.47-4.63,53.04-.17,1.31,1.95,1.54,2.27.31,3.39-13.02,6.34-27,14.41-38.09l-1.28-.35c-.36,7.46-.98,14.91-1.86,22.33-.89,7.5-2.22,14.92-3.59,22.35-.25,1.35,1.74,1.95,2.09.58,2.52-9.82,5.76-19.64,10-28.86l-1.69-.46c.62,15.94-.56,31.86-3.35,47.56l2.09.28c.84-13.05,3.71-25.9,8.58-38.03l-1.7-.23c.24,13.68-.95,27.46-3.25,40.94l2.04.28c.29-4.59.78-9.17,1.53-13.7s1.41-9,2.63-13.36c.24-.87-1.11-1.24-1.35-.37-1.27,4.53-2.63,8.98-3.4,13.64s-1.26,9.17-1.49,13.79c-.06,1.15,1.86,1.45,2.04.28,2.17-13.76,3.06-27.58,2.98-41.5,0-1.04-1.34-1.08-1.7-.23-5.08,12.25-8.16,25.26-9.04,38.49-.08,1.18,1.87,1.47,2.09.28,2.87-15.85,3.86-32.04,3.12-48.12-.04-.82-1.3-1.34-1.69-.46-2.12,4.7-4.2,9.38-5.94,14.24s-3.28,9.91-4.59,14.96l2.09.58c2.78-14.88,4.2-30.14,4.73-45.25.03-.73-.91-.86-1.28-.35-3.98,5.63-7.13,11.66-9.53,18.12-2.43,6.54-4.27,13.28-5.93,20.04l2.27.31c2.08-17.64,3.33-35.3,4.21-53.04.05-.95-1.32-1.28-1.77-.48-6.82,12.05-11.33,25.27-13.14,39h2.3c1-16.6,1.78-33.24,3.05-49.82.08-1.01-1.45-1.39-1.9-.51-7.06,13.63-12.03,28.48-14.52,43.63l2.18.3c2.46-20.52,4.48-41.08,5.82-61.7.06-.93-1.35-1.08-1.59-.22-4.42,15.88-9.32,31.63-13.71,47.52l2.12.29c1.15-18.89,2.06-37.81,3.52-56.67.07-.95-1.27-.99-1.56-.21-6.06,16.13-10.71,32.77-13.69,49.75l2.17.29c1.91-17.78,3.77-35.57,5.65-53.36.54-5.11,1.07-10.21,1.62-15.32.11-.97-1.43-1.13-1.68-.23-5.11,18.66-10.04,37.39-14.87,56.12l2.15.29c2.24-17.27,4.47-34.54,6.71-51.81.65-5.01,1.28-10.03,1.98-15.04.17-1.22-1.43-1.71-1.87-.52-5.81,15.71-10.41,31.84-13.86,48.23-.98,4.68-1.87,9.38-2.68,14.1-.22,1.3,1.74,1.87,2,.55,3.38-17.47,5.58-35.19,6.8-52.94.07-.96-1.3-1.02-1.59-.21-4.76,13.3-8.92,26.78-11.82,40.62l1.91.26c.36-10.9,1.58-21.75,3.62-32.46.16-.84-1.1-1.54-1.5-.63-4.24,9.74-8.05,19.76-10.58,30.09l1.66.22c.5-6.32,1.01-12.65,1.52-18.97.06-.74-1.06-.72-1.14,0h0Z"/>
    <path d="m123.12,661.42c-.49,6.26-.81,12.56-1.55,18.8h1.45c.25-5.42.75-10.71,2.16-15.97,1.4-5.21,3.5-10.24,6.31-14.85l-1.17-.32c-.67,7.38-1.54,14.74-2.33,22.1s-1.58,14.74-2.53,22.08h2.21c-.31-6.54.12-13.13,1.37-19.57s2.94-13.03,6-18.79l-.96-.26c-.75,14.61-2.93,28.91-7.2,42.92l2.11.58c1.39-9.93,4.6-19.58,10.03-28.05l-1.78-.48c.32,4.77-.05,9.52-1.15,14.18l1.96.54c.56-3.15,1.84-6.09,3.86-8.57l-1.65-.21c.97,1.31,1.35,2.8.98,4.41-.31,1.33,1.74,1.89,2.04.56.48-2.12.1-4.28-1.21-6.03-.36-.48-1.18-.79-1.65-.21-2.24,2.78-3.75,5.99-4.34,9.52-.21,1.26,1.67,1.84,1.96.54,1.08-4.84,1.47-9.77,1.1-14.72-.07-.93-1.25-1.31-1.78-.48-5.5,8.73-9.26,18.45-10.54,28.73-.16,1.25,1.82,1.44,2.15.29,4.04-14.04,6.34-28.88,6.11-43.51,0-.47-.74-.75-.96-.26-2.76,6.16-5.43,12.19-6.9,18.82s-2.07,13.32-1.79,20.06c.06,1.44,2.08,1.4,2.21,0,.65-7.37,1.39-14.72,2.06-22.08s1.19-14.74,1.85-22.1c.06-.65-.87-.81-1.17-.32-5.64,9.27-9.43,20.49-8.83,31.46.05.93,1.44.94,1.45,0,.06-6.26.54-12.54.86-18.8.02-.49-.72-.48-.76,0h0Z"/>
    <path d="m145.15,711.17c-2.41,6.29-3.56,12.91-3.61,19.63,0,.85,1.33,1.33,1.71.46,3.72-8.37,5.48-17.27,7.27-26.19.19-.95-1.06-1.25-1.42-.39-3.15,7.55-5.17,15.65-6.57,23.69-.22,1.28,1.6,1.83,1.97.54,2.79-9.64,6.19-19.09,10.35-28.22l-1.51.19c1.84,1.52,1.06,4.24.54,6.21-.78,2.96-1.57,5.92-2.36,8.88-1.55,5.84-3.1,11.68-4.65,17.51l2.03.56c2.48-11.62,7.17-22.63,14.05-32.33l-1.65-.45c-.45,11.64-3.16,23.17-7.61,33.92l1.97.54c2.78-10.22,7.55-19.88,14.03-28.27l-1.51-.88c-2.12,11.42-4.93,22.82-8.16,33.98l2.12.58c2.37-10.53,6.3-20.45,12.94-29.07l-1.73-.47c-.08,7.59-1.05,15.15-3.04,22.47-.35,1.29,1.57,1.8,1.98.55.95-2.92,2.52-5.57,4.63-7.8h-1.53c.9.92,1.33,2.02,1.32,3.29-.01,1.4,2.17,1.4,2.18,0,.01-1.85-.67-3.51-1.97-4.82-.4-.41-1.13-.42-1.53,0-2.37,2.52-4.09,5.47-5.09,8.78l1.98.55c1.85-7.55,2.88-15.25,2.91-23.02,0-1-1.21-1.16-1.73-.47-6.52,8.57-11.65,18.72-13.46,29.42-.23,1.37,1.77,1.98,2.12.58,2.86-11.32,5.37-22.66,7.79-34.08.17-.8-.9-1.64-1.51-.88-6.93,8.51-11.96,18.39-14.72,29.01-.34,1.31,1.49,1.74,1.97.54,4.41-11.01,6.78-22.63,7.4-34.46.05-.96-1.18-1.09-1.65-.45-7.08,9.7-12.15,20.88-14.56,32.66-.27,1.32,1.69,1.89,2.03.56,1.67-6.49,3.33-12.99,5-19.48.76-2.97,1.74-5.97,2.24-9,.35-2.14.34-4.52-1.45-6.04-.43-.36-1.22-.41-1.51.19-4.35,9.23-7.98,18.8-10.66,28.65l1.97.54c1.29-8.15,3.5-15.99,6.02-23.84l-1.45-.2c-1.01,8.88-4.24,17.42-7.5,25.68l1.8.24c-.23-6.56.89-13.09,3.12-19.26.31-.85-1.02-1.19-1.34-.37h0Z"/>
    <path d="m768.91,440.81c.14,8.26-1.01,16.48-3.38,24.4-.96,3.22-1.91,7.73-4.82,9.82-.48.35-1.4.83-2.01.58-.55-.23-.58-.95-.46-1.5.3-1.34,1.65-2.53,3-2.72,3.33-.45,5.71,3.56,6.97,6.03,1.49,2.91,2.58,6.01,3.29,9.2,1.41,6.3,1.32,12.94-.14,19.22-1.66,7.12-5.08,13.79-10.1,19.13h1.71c-2.05-1.79-1.85-5.42.54-6.85l-1.65-.43c6.11,10.65,8.63,22.84,7.78,35.06-.1,1.4,2.02,1.36,2.16,0,1.33-12.51-1.64-25.38-7.86-36.28-.32-.56-1.09-.76-1.65-.43-3.66,2.18-4.28,7.81-1.03,10.64.48.42,1.24.5,1.71,0,10.48-11.21,14.21-28.02,9.94-42.72-1.04-3.59-2.49-7.35-4.71-10.39-1.94-2.66-5.33-5.28-8.74-3.64-1.38.67-2.55,1.93-3.02,3.4-.39,1.23-.23,3.02.92,3.83,1.22.86,3.18.22,4.26-.56,1.45-1.04,2.46-2.65,3.18-4.27,2.08-4.71,3.19-10.08,4.02-15.14.89-5.41,1.25-10.91,1.13-16.39-.01-.67-1.05-.67-1.04,0h0Z"/>
    <path d="m439.54,574.13c3.81-1.51,7.5-3.4,11.22-5.12s7.61-3.51,11.39-5.32c.95-.46.12-1.82-.82-1.4-3.75,1.7-7.48,3.46-11.2,5.21s-7.54,3.36-11.15,5.31c-.7.38-.22,1.63.56,1.32h0Z"/>
    <path d="m455.25,613.1c4.85,3.95,10.75,7.06,17.04,7.67.92.09,1.06-1.34.21-1.58-5.73-1.64-11.21-3.69-15.96-7.39-.91-.71-2.21.54-1.29,1.29h0Z"/>
    <path d="m452.26,664.86c2.71,6.55,7.42,12.1,13.48,15.79,1.11.68,2.13-1.08,1.02-1.74-5.73-3.42-10.22-8.62-12.83-14.75-.4-.94-2.07-.25-1.67.7h0Z"/>
    <path d="m437.04,545.86c3.54-4.52,7.07-9.05,10.54-13.61.52-.68-.66-1.6-1.19-.92-3.53,4.44-7,8.92-10.47,13.41-.62.8.49,1.93,1.13,1.13h0Z"/>
    <path d="m889.65,771.44c-3.07,21.2-4.61,42.62-4.57,64.04.04,21.29,1.75,42.59,4.92,63.64.45,2.95.87,5.92,1.44,8.85.39,2,1.06,4.16,2.75,5.46,1.47,1.12,3.35,1.07,4.84,0,1.37-.98,2.09-2.73,1.08-4.23-.3-.45-.94-.71-1.43-.38-8.83,5.92-15.18,15.2-17.58,25.56-2.43,10.49-.48,21.6,5.09,30.79,3.12,5.15,7.26,9.54,12.28,12.87,1.14.76,2.16-1.05,1.06-1.82-8.23-5.78-14.13-14.64-16.34-24.44-2.23-9.86-.28-20.28,4.96-28.89,2.95-4.85,6.9-9.07,11.6-12.27l-1.43-.38c.84,1.22-1.4,2.26-2.39,1.85-1.75-.72-2.24-3.22-2.56-4.84-.92-4.78-1.63-9.61-2.32-14.43-1.4-9.78-2.46-19.6-3.19-29.45-1.45-19.53-1.63-39.18-.52-58.74.63-11.07,1.69-22.11,3.15-33.1.06-.46-.75-.57-.82-.11h0Z"/>
    <path d="m1144.18,994.99c7.42,14.02,7.43,31.33.3,45.46-.5.99.99,1.87,1.5.88,7.53-14.57,7.15-32.62-.69-46.99-.4-.73-1.5-.08-1.11.65h0Z"/>
    <path d="m1179.87,1032.5c-1.83,4.53-3.67,9.05-5.5,13.58-.33.83,1.01,1.18,1.34.37,1.85-4.52,3.68-9.05,5.51-13.57.34-.84-1.02-1.2-1.35-.37h0Z"/>
    <path d="m433.01,1024.36c1.99,11.96-.97,24.41-7.95,34.29-.71,1,.93,1.93,1.64.96,7.42-10.17,10.15-23.33,7.6-35.61-.18-.86-1.44-.48-1.3.36h0Z"/>
    <path d="m170.87,953.61c-2.84,18.27-.75,37.3,6.12,54.48,1.95,4.87,4.27,9.57,6.97,14.07.54.9,1.95.09,1.41-.83-9.18-15.71-14.27-33.7-14.43-51.91-.04-5.19.31-10.37,1.06-15.5.11-.74-1.02-1.07-1.14-.31h0Z"/>
    <path d="m154.19,1011.01c1.81,5.44,3.64,10.88,5.49,16.31.24.69,1.33.4,1.1-.3-1.77-5.45-3.57-10.9-5.39-16.34-.25-.75-1.45-.43-1.2.33h0Z"/>
  </g>
</svg>