<svg id="Group_20258" data-name="Group 20258" xmlns="http://www.w3.org/2000/svg" xmlns:xlink="http://www.w3.org/1999/xlink" width="241.108" height="215.579" viewBox="0 0 241.108 215.579">
  <defs>
    <clipPath id="clip-path">
      <rect id="Rectangle_8794" data-name="Rectangle 8794" width="241.108" height="215.579" fill="none"/>
    </clipPath>
  </defs>
  <g id="Group_20257" data-name="Group 20257" clip-path="url(#clip-path)">
    <path id="Path_1475" data-name="Path 1475" d="M550.323,6.2c.256-1.955.477-3.914.7-5.872L550.816.6a4.594,4.594,0,0,1,2.266.359c.705.259,1.4.554,2.084.861a41.657,41.657,0,0,1,3.972,2.043V3.311c-1.442.679-2.876,1.367-4.355,1.966-1.438.582-2.939,1.016-4.363,1.625-.376.161-.1.718.268.635a27.283,27.283,0,0,0,4.475-1.631,44.487,44.487,0,0,0,4.3-2.041.324.324,0,0,0,0-.555,41.634,41.634,0,0,0-4.4-2.2c-1.372-.586-2.866-1.312-4.4-1.056a.29.29,0,0,0-.209.275c-.2,1.957-.4,3.913-.562,5.872-.024.28.4.267.43,0" transform="translate(-371.928 0)"/>
    <path id="Path_1476" data-name="Path 1476" d="M552.556,1.226c-.682,1.072-1.391,2.127-2.1,3.181a.351.351,0,0,0,.549.424c.839-.943,1.616-1.937,2.362-2.956l-.482-.281c-.827,1.618-1.637,3.245-2.494,4.847a.346.346,0,0,0,.6.349,44.126,44.126,0,0,1,3.652-4.816l-.437-.337c-1.177,1.879-2.348,3.763-3.535,5.637-.261.411.359.74.637.372a32.722,32.722,0,0,1,4.575-5.285L555.415,2c-1.074,1.691-2.144,3.386-3.229,5.069-.223.346.312.775.58.447a38.616,38.616,0,0,1,3.4-3.776l-.563-.328a10.072,10.072,0,0,1-1.488,2.565c-.272.342.185.83.492.492a21.945,21.945,0,0,1,2.528-2.424l-.516-.3-.266.874c-.08.263.171.435.4.4.74-.106,1.479-.223,2.219-.334.43-.065.25-.727-.181-.657-.737.12-1.475.235-2.212.361l.4.4.231-.884a.311.311,0,0,0-.516-.3,21.048,21.048,0,0,0-2.584,2.368l.492.492a11.012,11.012,0,0,0,1.647-2.878c.128-.331-.338-.543-.563-.328a32.4,32.4,0,0,0-3.5,3.806l.637.373c1.025-1.72,2.066-3.43,3.1-5.143.183-.3-.219-.567-.465-.359a32.589,32.589,0,0,0-4.793,5.332l.637.372c1.117-1.915,2.251-3.82,3.378-5.729.157-.265-.223-.578-.437-.337a36.716,36.716,0,0,0-3.856,4.86l.6.349c.766-1.65,1.581-3.279,2.379-4.915.129-.264-.224-.6-.438-.338-.783.952-1.6,1.878-2.418,2.8l.55.424c.6-1.115,1.21-2.231,1.843-3.331a.2.2,0,0,0-.347-.2" transform="translate(-372.233 -0.765)"/>
    <path id="Path_1477" data-name="Path 1477" d="M150.24,325.434c.648,17.34.584,34.744,1.907,52q1.7,22.209,2.3,44.455c.05,1.88.08,3.759.135,5.639.073,2.518.682,3.12-2.147,4.11-2.937,1.028-6.361.427-9.4.259-2.414-.134-26.172.839-26.257-.636-2.053-35.337-1.944-70.478-6.171-105.787a2.5,2.5,0,0,1,.578-2.389,4.347,4.347,0,0,1,1.68-.713c6.74-1.784,13.438-2.036,20.489-1.711,4.4.2,11.981-1.273,15.507,1.26,1.2.864,1.327,2.256,1.373,3.509" transform="translate(-74.775 -216.72)" fill="#edff36"/>
    <path id="Path_1478" data-name="Path 1478" d="M370.9,193.823c.648,24.043.584,48.175,1.907,72.106q1.7,30.794,2.3,61.64c.05,2.606.08,5.213.134,7.819.073,3.491.682,4.326-2.147,5.7-2.937,1.425-6.361.592-9.4.359-2.414-.185-26.172,1.163-26.257-.882-2.053-49-1.944-97.722-6.171-146.68a4.48,4.48,0,0,1,.578-3.312,3.847,3.847,0,0,1,1.68-.989c6.74-2.474,13.438-2.823,20.489-2.373,4.4.281,11.981-1.765,15.507,1.747,1.2,1.2,1.327,3.128,1.374,4.866" transform="translate(-224.023 -126.392)" fill="#edff36"/>
    <path id="Path_1479" data-name="Path 1479" d="M603.378,65.652c.648,30.571.585,61.255,1.907,91.683q1.7,39.155,2.3,78.376c.05,3.313.08,6.628.134,9.941.073,4.439.682,5.5-2.147,7.246-2.937,1.812-6.361.753-9.4.456-2.414-.236-26.172,1.479-26.257-1.121-2.053-62.3-1.944-124.254-6.171-186.5-.1-1.464-.157-3.115.578-4.211a3.784,3.784,0,0,1,1.68-1.257c6.74-3.145,13.438-3.59,20.489-3.017C590.9,57.6,598.479,55,602,59.466c1.2,1.523,1.327,3.977,1.374,6.187" transform="translate(-381.262 -38.425)" fill="#edff36"/>
    <path id="Path_1480" data-name="Path 1480" d="M238.489,397.053a5.354,5.354,0,1,1-5.689-5,5.354,5.354,0,0,1,5.689,5" transform="translate(-154.07 -265.165)" fill="#fff"/>
    <path id="Path_1481" data-name="Path 1481" d="M236.623,395.79a4.75,4.75,0,1,1-5.084-4.392,4.823,4.823,0,0,1,5.084,4.392c.081.767,1.292.775,1.21,0a5.958,5.958,0,1,0-5.6,6.294,6.048,6.048,0,0,0,5.6-6.294.605.605,0,0,0-1.21,0" transform="translate(-152.809 -263.903)"/>
    <path id="Path_1482" data-name="Path 1482" d="M246.588,396.455a2.042,2.042,0,0,1-1.818,2.511,2.65,2.65,0,0,1-1.686-.374,2.931,2.931,0,0,1-.888-1.037,2.007,2.007,0,0,1-.083-1.009,2.73,2.73,0,0,1,.23-.927,1.967,1.967,0,0,1,1.194-.893,2.316,2.316,0,0,1,1.8.007,2.45,2.45,0,0,1,1.251,1.721" transform="translate(-163.74 -266.858)" fill="#161616"/>
    <path id="Path_1483" data-name="Path 1483" d="M245.048,394.966a1.131,1.131,0,0,1-.24.885c-.046.065-.086.131-.128.2a.753.753,0,0,1-.092.128,1.889,1.889,0,0,1-.146.151c.006-.006-.126.106-.065.059.041-.032-.078.053-.094.064-.068.048-.134.1-.206.139-.032.019-.066.038-.1.055.009-.005-.161.071-.087.041s-.109.036-.1.031c-.039.012-.079.023-.119.034s-.082.02-.124.028c-.006,0-.2.027-.1.017a2.685,2.685,0,0,1-.341.014c-.047,0-.094,0-.141-.007-.118,0-.082-.005-.049,0a2.28,2.28,0,0,1-.353-.075,1.458,1.458,0,0,1-.249-.088,2.01,2.01,0,0,1-.757-.7.693.693,0,0,1-.158-.4,2.784,2.784,0,0,1,.033-.617,1.94,1.94,0,0,1,.189-.583c.085-.167-.035.028.034-.052.036-.042.077-.078.115-.118.011-.011.1-.08.018-.02a1.913,1.913,0,0,1,.168-.109c.039-.022.078-.043.118-.064-.011.005.188-.082.1-.048s.115-.039.1-.035l.124-.039a2.7,2.7,0,0,1,.617-.118c.05,0,.1,0,.149,0,.008,0,.243.017.094,0a1.367,1.367,0,0,1,.142.028c.028.007.212.067.092.017a1.914,1.914,0,0,1,.312.185c.179.12-.05-.06.036.03.047.049.1.091.152.139s.076.083.116.123c.116.118-.062-.1.042.049.064.089.124.18.18.274s.114.182.164.276c0,0,.091.181.045.084-.035-.073.046.128.053.151a.7.7,0,0,0,.762.5.688.688,0,0,0,.6-.683,2.761,2.761,0,0,0-2.5-2.642,3.779,3.779,0,0,0-1.9.431,2.366,2.366,0,0,0-1.226,1.348,4.326,4.326,0,0,0-.172.954,2.619,2.619,0,0,0,.08,1.1,3.019,3.019,0,0,0,.992,1.32,3.1,3.1,0,0,0,3.4.24,2.194,2.194,0,0,0,.965-1.306,1.87,1.87,0,0,0,0-.776c-.04-.244-.055-.492-.105-.734-.061-.3-.486-.163-.447.124" transform="translate(-162.424 -265.308)"/>
    <path id="Path_1484" data-name="Path 1484" d="M241.018,404.556c.491-.622.049-1.487-.246-2.082-.549-1.108-1.785-.2-1.968.683-.225,1.082,1.345,2.5,2.214,1.4" transform="translate(-161.504 -271.874)" fill="#fff"/>
    <path id="Path_1485" data-name="Path 1485" d="M175.754,401.118a5.354,5.354,0,1,1-5.689-5,5.354,5.354,0,0,1,5.689,5" transform="translate(-111.639 -267.915)" fill="#fff"/>
    <path id="Path_1486" data-name="Path 1486" d="M173.888,399.855a4.75,4.75,0,1,1-5.084-4.392,4.823,4.823,0,0,1,5.084,4.392c.081.767,1.292.775,1.21,0a5.958,5.958,0,1,0-5.6,6.294,6.048,6.048,0,0,0,5.6-6.294.605.605,0,0,0-1.21,0" transform="translate(-110.378 -266.653)"/>
    <path id="Path_1487" data-name="Path 1487" d="M183.854,400.52a2.042,2.042,0,0,1-1.818,2.511,2.652,2.652,0,0,1-1.686-.374,2.934,2.934,0,0,1-.887-1.037,2.011,2.011,0,0,1-.083-1.009,2.739,2.739,0,0,1,.23-.927,1.965,1.965,0,0,1,1.194-.893,2.316,2.316,0,0,1,1.8.007,2.451,2.451,0,0,1,1.251,1.721" transform="translate(-121.309 -269.608)" fill="#161616"/>
    <path id="Path_1488" data-name="Path 1488" d="M182.314,399.03a1.132,1.132,0,0,1-.239.885c-.046.065-.086.131-.128.2a.763.763,0,0,1-.092.128,1.9,1.9,0,0,1-.146.151c.006-.006-.126.106-.065.059.041-.032-.078.053-.094.064-.068.048-.134.1-.206.139-.032.019-.066.038-.1.055.01-.005-.161.071-.087.041s-.109.035-.1.031c-.039.012-.079.024-.119.034s-.082.02-.124.028c-.005,0-.2.027-.1.017a2.663,2.663,0,0,1-.341.014c-.047,0-.094,0-.141-.007-.118,0-.082-.005-.049,0a2.278,2.278,0,0,1-.353-.075,1.437,1.437,0,0,1-.249-.088,2.009,2.009,0,0,1-.757-.7.691.691,0,0,1-.158-.4,2.788,2.788,0,0,1,.033-.618,1.938,1.938,0,0,1,.189-.583c.085-.167-.035.028.034-.052.036-.042.077-.078.115-.118.011-.012.1-.08.018-.02a1.761,1.761,0,0,1,.168-.109c.039-.023.078-.044.118-.064-.011.005.188-.082.1-.048s.115-.039.1-.035c.041-.014.082-.027.124-.039a2.737,2.737,0,0,1,.617-.119c.05,0,.1,0,.149,0,.008,0,.243.017.094,0a1.345,1.345,0,0,1,.142.028c.028.007.212.068.092.017a1.9,1.9,0,0,1,.312.184c.179.12-.05-.06.036.03.047.05.1.091.152.139s.076.083.116.123c.116.118-.062-.1.042.049.064.089.124.18.18.274s.114.182.164.276c0,0,.091.181.045.084-.035-.074.046.127.053.15a.7.7,0,0,0,.762.5.688.688,0,0,0,.6-.683,2.761,2.761,0,0,0-2.5-2.642,3.779,3.779,0,0,0-1.9.431,2.366,2.366,0,0,0-1.226,1.348,4.323,4.323,0,0,0-.172.953,2.619,2.619,0,0,0,.08,1.1,3.017,3.017,0,0,0,.992,1.319,3.1,3.1,0,0,0,3.4.24,2.193,2.193,0,0,0,.965-1.306,1.87,1.87,0,0,0,0-.776c-.04-.244-.055-.491-.105-.734-.061-.3-.486-.163-.447.123" transform="translate(-119.992 -268.056)"/>
    <path id="Path_1489" data-name="Path 1489" d="M178.283,408.62c.491-.622.049-1.487-.246-2.082-.549-1.108-1.785-.2-1.968.683-.225,1.082,1.345,2.5,2.214,1.4" transform="translate(-119.073 -274.623)" fill="#fff"/>
    <path id="Path_1490" data-name="Path 1490" d="M213.6,371.147c-4.792-3.436-13.149-3.387-15.868,2.754-1.283,2.9-.264,6.056.5,8.944q1.625,6.129,3.707,12.122l.423-.745a27.354,27.354,0,0,1-4.7.38.617.617,0,0,0-.587.77,12.338,12.338,0,0,1,.292,2.452l.772-.588c-4.246-.784-10.366,1.7-9.988,6.907.451,6.221,8.967,1.1,11.326-.526l-.9-.364a21.116,21.116,0,0,1,1.161,4.712c.094.759,1.3.771,1.206,0a22.153,22.153,0,0,0-1.19-5.036.617.617,0,0,0-.9-.364c-1.7,1.167-9.7,6.25-9.5,1.114.166-4.114,5.02-5.9,8.448-5.266a.619.619,0,0,0,.772-.588,13.929,13.929,0,0,0-.338-2.775l-.586.77a29.359,29.359,0,0,0,5.021-.428.609.609,0,0,0,.423-.745q-1.621-4.676-2.982-9.435c-.785-2.765-2.04-5.915-1.826-8.827.532-7.231,10.193-7.78,14.848-4.465.47.334.914-.439.451-.772" transform="translate(-127.252 -249.481)"/>
    <path id="Path_1491" data-name="Path 1491" d="M344.593,236.855c2.246-1.351,5.581-2.185,8.14-1.229,2.637.986,3.256,4.988,3.526,7.412.654,5.863-.506,12.045-1.206,17.86a.607.607,0,0,0,.448.589,18.3,18.3,0,0,0,5.024.04c.756-.1.771-1.3,0-1.206a17.533,17.533,0,0,1-4.7-.012l.448.589c.457-3.781.93-7.572,1.21-11.371a27.242,27.242,0,0,0-.839-10.456c-.708-2.17-1.775-4.153-4.149-4.7a11.351,11.351,0,0,0-8.355,1.713.447.447,0,0,0,.451.772" transform="translate(-232.622 -158.366)"/>
    <path id="Path_1492" data-name="Path 1492" d="M156.141,375.808a11.15,11.15,0,0,1,12.887.631c.6.472,1.458-.357.852-.852a11.5,11.5,0,0,0-14.191-.55c-.454.332-.051,1.077.451.772" transform="translate(-105.169 -252.181)"/>
    <path id="Path_1493" data-name="Path 1493" d="M203.991,459.415a5.02,5.02,0,0,0-.11,4.443,3.209,3.209,0,0,0,3.374,1.69c.481-.1.275-.827-.2-.734a2.621,2.621,0,0,1-2.657-1.4,4.779,4.779,0,0,1-.049-3.849c.072-.2-.265-.351-.354-.149" transform="translate(-137.578 -310.667)"/>
    <path id="Path_1494" data-name="Path 1494" d="M193.968,459.31c-.823,1.033-1.615,2.093-2.336,3.2A20.2,20.2,0,0,0,189.694,466c-.136.346.423.572.6.251.305-.563.55-1.161.841-1.732s.6-1.134.923-1.69a28.2,28.2,0,0,1,2.177-3.253c.146-.187-.114-.453-.264-.264" transform="translate(-128.288 -310.618)"/>
    <path id="Path_1495" data-name="Path 1495" d="M192.839,464.3a23.7,23.7,0,0,0-1.3,2.169c-.194.366-.374.739-.55,1.114a6.414,6.414,0,0,0-.49,1.173c-.068.285.349.491.492.207.19-.373.3-.8.451-1.189s.319-.751.5-1.118a19.1,19.1,0,0,1,1.229-2.163c.135-.207-.194-.4-.331-.193" transform="translate(-128.844 -313.976)"/>
    <path id="Path_1496" data-name="Path 1496" d="M195.082,462.105a51.84,51.84,0,0,0-3.23,6.219c-.159.381.45.609.651.274a6.344,6.344,0,0,0,.435-.8c.109-.26-.259-.4-.43-.251a5.819,5.819,0,0,0-.563.615l.595.346a44.778,44.778,0,0,1,2.825-6.244.163.163,0,0,0-.282-.165" transform="translate(-129.744 -312.499)"/>
    <path id="Path_1497" data-name="Path 1497" d="M197.025,465.058a38.412,38.412,0,0,0-2.636,5.469c-.117.314.331.545.548.319a3.421,3.421,0,0,0,.813-1.408c.105-.35-.4-.467-.533-.147a3.412,3.412,0,0,1-.744,1.091l.548.319a38.793,38.793,0,0,1,2.273-5.486c.093-.177-.17-.333-.269-.158" transform="translate(-131.465 -314.497)"/>
    <path id="Path_1498" data-name="Path 1498" d="M199.336,469.542a16.07,16.07,0,0,0-1.723,3.694.377.377,0,0,0,.547.421,1.506,1.506,0,0,0,.767-1.056.315.315,0,0,0-.606-.167.951.951,0,0,1-.537.58l.547.421a13.218,13.218,0,0,1,1.29-3.725.166.166,0,0,0-.286-.167" transform="translate(-133.646 -317.529)"/>
    <path id="Path_1499" data-name="Path 1499" d="M201.955,470a9.659,9.659,0,0,0-.881,1.686,7.363,7.363,0,0,0-.524,1.846c-.034.3.335.437.559.321a1.083,1.083,0,0,0,.536-.621.318.318,0,0,0-.185-.377.326.326,0,0,0-.4.131.5.5,0,0,1-.239.188l.457.457c.072-.295.11-.6.183-.893s.153-.567.249-.844a10.456,10.456,0,0,1,.709-1.622.27.27,0,0,0-.465-.272" transform="translate(-135.643 -317.807)"/>
    <path id="Path_1500" data-name="Path 1500" d="M204.526,473.08a11.092,11.092,0,0,0-.8,1.945c-.095.315-.292.757,0,1.022a.4.4,0,0,0,.561-.034.361.361,0,0,0-.072-.555.3.3,0,0,0-.39.078.308.308,0,0,0,.024.4l.014.017-.079-.135,0,.019v-.164l-.007.019.08-.137c.02-.011.039-.023.059-.036h.171l.034.016.117.117a.16.16,0,0,0,.01.049.388.388,0,0,1,0-.07c0,.016.015-.082.015-.086.018-.111.039-.221.061-.331q.067-.329.156-.653a8.691,8.691,0,0,1,.45-1.244.244.244,0,0,0-.085-.323.239.239,0,0,0-.323.085" transform="translate(-137.692 -319.897)"/>
    <path id="Path_1501" data-name="Path 1501" d="M207.774,476.081a1.88,1.88,0,0,0-.057.586,1.231,1.231,0,0,0,.054.312c.007.022.015.044.024.065a.434.434,0,0,0,.09.143.547.547,0,0,0,.126.1.2.2,0,0,0,.288-.117,1.1,1.1,0,0,0,.025-.166.63.63,0,0,0-.022-.182c-.017-.088-.037-.176-.049-.264l.01.073a1.671,1.671,0,0,1-.013-.234c0-.038,0-.075,0-.113a.258.258,0,0,1,.005-.051c-.005.039-.006.045,0,.016,0-.012,0-.023.005-.034a.276.276,0,0,0-.026-.2.253.253,0,0,0-.462.06" transform="translate(-140.49 -321.881)"/>
    <path id="Path_1502" data-name="Path 1502" d="M210.444,478.288a.524.524,0,0,0-.163.179.6.6,0,0,0-.065.243.534.534,0,0,0,.006.1.445.445,0,0,0,.021.1.532.532,0,0,0,.132.213.244.244,0,0,0,.165.069.238.238,0,0,0,.165-.069.234.234,0,0,0,.069-.165.23.23,0,0,0-.069-.166.285.285,0,0,1-.041-.043l.036.047a.34.34,0,0,1-.035-.061l.023.055a.339.339,0,0,1-.023-.086c0,.02.005.04.008.061a.377.377,0,0,1,0-.089l-.008.06a.344.344,0,0,1,.023-.086l-.023.054a.307.307,0,0,1,.039-.066l-.035.045a.3.3,0,0,1,.042-.042.22.22,0,0,0,.065-.157.23.23,0,0,0-.048-.135.212.212,0,0,0-.116-.08.215.215,0,0,0-.171.022" transform="translate(-142.182 -323.477)"/>
    <path id="Path_1503" data-name="Path 1503" d="M205.017,465.2a2.564,2.564,0,0,1,1.107-1.368,1.963,1.963,0,0,1,1.621-.291c.18.07.343.21.256.418-.122.289-.5.375-.768.44a5.14,5.14,0,0,0-2.023.832,2.6,2.6,0,0,0-.735.863c-.182.361-.359.857-.064,1.2a.322.322,0,0,0,.451,0,1.081,1.081,0,0,0,.227-.525,1.729,1.729,0,0,1,.217-.465,2.161,2.161,0,0,1,.79-.7,4.5,4.5,0,0,1,1.08-.4,2.486,2.486,0,0,0,1.154-.506,1.088,1.088,0,0,0,.335-1.088,1.073,1.073,0,0,0-.7-.664,2.469,2.469,0,0,0-1.975.319,3.043,3.043,0,0,0-1.4,1.818.222.222,0,0,0,.429.118" transform="translate(-138.149 -313.059)"/>
    <path id="Path_1504" data-name="Path 1504" d="M206.1,466.008a5.933,5.933,0,0,0-.453.834c-.068.154-.13.31-.184.469a2.014,2.014,0,0,0-.095.51.241.241,0,0,0,.211.239.246.246,0,0,0,.267-.174c.1-.286.162-.581.262-.866a4.074,4.074,0,0,1,.379-.785.225.225,0,0,0-.388-.227" transform="translate(-138.902 -315.117)"/>
    <path id="Path_1505" data-name="Path 1505" d="M208.963,464.977c-.233.325-.465.65-.7.971a.536.536,0,0,0-.135.329.33.33,0,0,0,.637.139.293.293,0,0,0-.192-.4.268.268,0,0,0-.206.488l-.039-.031-.069-.119a.23.23,0,0,1,.1-.255q.192-.1.34.188a.121.121,0,0,1-.017.074c.034-.081.039-.093.016-.037,0-.017.036-.067.045-.082l.035-.065c.061-.112.122-.223.185-.334l.37-.653a.213.213,0,0,0-.075-.288.216.216,0,0,0-.288.075" transform="translate(-140.768 -314.425)"/>
    <path id="Path_1506" data-name="Path 1506" d="M210.664,465c-.028.142-.061.281-.1.421l-.054.209a1.334,1.334,0,0,0-.033.268.256.256,0,0,0,.5.068c.01-.037.021-.075.03-.112a.872.872,0,0,0,.019-.154q.006-.107.013-.215c.009-.144.021-.286.038-.429a.21.21,0,0,0-.062-.151.219.219,0,0,0-.122-.059.211.211,0,0,0-.233.152" transform="translate(-142.361 -314.408)"/>
    <path id="Path_1507" data-name="Path 1507" d="M212.563,465.3a1.792,1.792,0,0,0,1.072.278.227.227,0,1,0,0-.454,1.855,1.855,0,0,1-.239,0l-.068-.006c-.052,0,.039.007-.008,0s-.084-.014-.127-.024c-.078-.018-.153-.043-.23-.066-.038-.011-.076-.023-.113-.036l-.056-.021c-.021-.009-.021-.008,0,0l-.032-.014a.2.2,0,0,0-.2.343" transform="translate(-143.705 -314.462)"/>
    <path id="Path_1508" data-name="Path 1508" d="M179.864,472.926a3.181,3.181,0,0,0-.459,2.241,3.632,3.632,0,0,0,.974,2.111c.293.3.733-.148.458-.458a3.39,3.39,0,0,1-.806-1.738,3.274,3.274,0,0,1,0-.916,7.683,7.683,0,0,1,.279-.983c.065-.237-.273-.475-.442-.258" transform="translate(-121.322 -319.813)"/>
    <path id="Path_1509" data-name="Path 1509" d="M96.019,293.924c-2.73-.855-5.578,1.009-6.563,3.63-.652,1.737-.044,3.693.582,5.339.933,2.457,2.174,4.788,3.021,7.28s1.33,5.127,1.956,7.674c.643,2.617,1.218,5.244,1.708,7.894a39.6,39.6,0,0,1,.924,7.116c0,1.551-.116,3.306.763,4.667.312.483,1.264.352,1.189-.322a6.732,6.732,0,0,1,.5-2.037c.18-.676.361-1.345.483-2.034.313-1.756.924-3.373,1.313-5.1a2.947,2.947,0,0,0-.751-2.793,8.5,8.5,0,0,1-2.4-4.8c-.184-1.874.539-4.957,3.017-4.656,1.705.207,2.45,2.316,2.936,3.709a36.58,36.58,0,0,1,1.385,5.334.667.667,0,0,0,1.3-.176c-.212-3.283-.3-6.571-.232-9.861.055-2.763-.117-6.114,1.489-8.517,1.887-2.823,6.388-3.312,9.482-3.343a30.33,30.33,0,0,1,9.495,1.66c4.37,1.4,10.124,2.3,12.961-2.318a5.784,5.784,0,0,0,.489-5.5c-.987-2-3.134-2.94-5.168-3.519l-.182,1.346c1.773.084,3.653,1.228,5.348.189a3.582,3.582,0,0,0,1.54-3.149c-.04-3.687-4.132-4.9-7.089-5.432a38.968,38.968,0,0,0-14.1.057c-4.741.9-9.037,3.3-13.8,4.105l.389,1.412a2.133,2.133,0,0,0,1.495-2.67,2.842,2.842,0,0,0-3.3-1.683c-1.9.337-3.967,1.963-5.506,3.072a8.17,8.17,0,0,0-3.273,3.923l.892-.506a15.406,15.406,0,0,0-2.422-.3c-.928-.04-.925,1.4,0,1.442a13.022,13.022,0,0,1,2.036.257.746.746,0,0,0,.892-.506c.6-1.746,2.264-2.868,3.753-3.814.716-.455,1.451-.879,2.178-1.313a9.145,9.145,0,0,1,.924-.545,1.619,1.619,0,0,1,1.53-.206q1.121.014.407,1.438c-.927.249-.523,1.565.389,1.412,3.436-.579,6.6-1.989,9.883-3.1a33.823,33.823,0,0,1,11.35-1.691,36.651,36.651,0,0,1,5.918.555,10.783,10.783,0,0,1,4.669,1.611c1.18.887,2,2.7.96,4.04-1.1,1.406-3.559.1-5.059.032a.689.689,0,0,0-.182,1.346c2.664.755,5.363,2.429,4.493,5.606-.755,2.754-3.39,4.156-6.1,4.26-2.991.115-5.742-1.194-8.582-1.911a27.584,27.584,0,0,0-8.118-.918c-4.586.232-9.514,1.56-10.815,6.491a30.354,30.354,0,0,0-.615,7.306c-.04,3.084.053,6.167.256,9.244l1.3-.176a32.915,32.915,0,0,0-1.786-6.393,6.035,6.035,0,0,0-2.583-3.3c-3-1.489-5.358,1.659-5.56,4.343A8.663,8.663,0,0,0,98.539,324a20.494,20.494,0,0,0,1.518,1.975c1.065,1.464.281,2.584-.153,4.1-.4,1.406-.549,2.852-.917,4.263a9.135,9.135,0,0,0-.663,2.865l1.189-.322c-.85-1.307-.589-3.151-.612-4.639a33.053,33.053,0,0,0-.723-5.286c-.789-4.388-1.877-8.69-2.958-13.011a40.936,40.936,0,0,0-1.849-6c-.808-1.928-1.769-3.8-2.492-5.76s-1.04-3.884.366-5.607c1.191-1.459,2.594-2.317,4.52-1.727.592.182.843-.741.255-.925" transform="translate(-60.315 -193.165)"/>
    <path id="Path_1510" data-name="Path 1510" d="M101.447,299.02a18.729,18.729,0,0,0-2.6,5.138c-.081.272.3.514.493.287q1.308-1.516,2.517-3.111c.839-1.109,1.61-2.275,2.494-3.349.219-.266-.148-.649-.384-.384a17.212,17.212,0,0,0-3.509,6.279.334.334,0,0,0,.607.256,35.546,35.546,0,0,1,5.722-7.826l-.34-.339a58.922,58.922,0,0,0-6.323,9.753.31.31,0,0,0,.535.313c1.059-1.527,2.132-3.046,3.164-4.591.164-.245-.218-.451-.388-.227-1.125,1.486-2.212,3-3.312,4.5l.535.313a79.567,79.567,0,0,1,6.165-9.775c.167-.224-.188-.475-.377-.291a41.532,41.532,0,0,0-5.956,7.831l.607.256a20.548,20.548,0,0,1,3.295-6.126l-.47-.274A23.018,23.018,0,0,1,101.548,301q-1.263,1.557-2.627,3.027l.493.287a24.721,24.721,0,0,1,1-2.678,17.488,17.488,0,0,1,1.374-2.419c.142-.21-.2-.4-.339-.2" transform="translate(-66.848 -200.14)"/>
    <path id="Path_1511" data-name="Path 1511" d="M106.455,298.483a56.539,56.539,0,0,0-9.508,12.861c-.159.3.268.686.5.387,1.833-2.353,3.69-4.687,5.546-7.021s3.663-4.71,5.557-7.01l-.37-.285A140.331,140.331,0,0,0,97.553,313c-.2.343.3.77.568.438q3.077-3.87,6.131-7.761,1.517-1.928,3.031-3.858c1.027-1.307,2.01-2.652,3.069-3.933l-.309-.239q-5.192,7.244-10.152,14.658a7.645,7.645,0,0,0-1.693,4,.362.362,0,0,0,.669.181q5.205-6.96,10.392-13.934c.988-1.337,1.949-2.693,2.959-4.014.154-.2-.158-.383-.325-.25a14.886,14.886,0,0,0-2.728,3.164c-.925,1.3-1.823,2.627-2.719,3.952q-2.663,3.94-5.211,7.957c-.955,1.5-1.893,3.019-2.844,4.527-.268.426.381.784.664.388,1.868-2.6,3.677-5.244,5.6-7.806,1.938-2.579,3.928-5.124,6-7.6.248-.3-.178-.727-.428-.428-2.073,2.481-4.111,4.988-6.081,7.552s-3.963,5.182-5.756,7.894l.664.388c3.133-5.384,6.545-10.62,10.039-15.776a18.318,18.318,0,0,1,3.091-3.92l-.325-.251c-1.732,2.327-3.545,4.6-5.309,6.9s-3.523,4.61-5.279,6.918l-3.025,3.975.669.181a7.073,7.073,0,0,1,1.511-3.6q1.17-1.8,2.359-3.588,2.4-3.61,4.833-7.2c.923-1.36,1.851-2.715,2.764-4.081.122-.183-.171-.416-.309-.239-1.014,1.311-2.108,2.563-3.155,3.847q-1.547,1.9-3.093,3.8-3.115,3.832-6.217,7.675l.568.438c2.931-5.576,6.746-10.611,10.411-15.711.154-.215-.206-.5-.37-.285-1.824,2.353-3.741,4.64-5.605,6.962S98.885,308.975,97,311.28l.5.387a57.714,57.714,0,0,1,9.1-13.036c.092-.1-.054-.244-.147-.147" transform="translate(-65.548 -201.078)"/>
    <path id="Path_1512" data-name="Path 1512" d="M118.8,303.813a194.589,194.589,0,0,0-11.016,16.77c-.944,1.611-1.928,3.225-2.769,4.893-.214.424.408.8.641.374.807-1.464,1.536-2.973,2.335-4.442s1.624-2.924,2.468-4.368q2.529-4.329,5.3-8.515,1.554-2.342,3.188-4.629c.062-.087-.081-.168-.143-.083" transform="translate(-70.998 -205.464)"/>
    <path id="Path_1513" data-name="Path 1513" d="M121.8,301.578a137.27,137.27,0,0,0-12.251,19.46c-.993,1.923-1.91,3.88-2.85,5.829a.36.36,0,0,0,.62.363c2.157-3.4,4.32-6.786,6.59-10.112q3.358-4.922,6.891-9.719c1.365-1.853,2.716-3.727,4.2-5.49l-.327-.327c-1.235,1.477-2.368,3.05-3.5,4.6q-1.733,2.372-3.386,4.8-3.264,4.793-6.211,9.792-1.683,2.853-3.265,5.765a.389.389,0,0,0,.608.469,11.289,11.289,0,0,0,2.715-3.878q1.194-2.32,2.608-4.514a67.71,67.71,0,0,1,6.409-8.359c1.323-1.483,2.715-2.9,4.138-4.291l-.415-.414a140.455,140.455,0,0,0-10.437,14.776c-.89,1.451-1.747,2.922-2.588,4.4-.21.37.321.823.611.471,2.332-2.826,4.539-5.752,6.863-8.584l-.507-.391q-2.68,4.206-4.933,8.664a.381.381,0,0,0,.6.46,45.841,45.841,0,0,0,4.115-4.388l-.556-.429c-.712,1.65-1.417,3.3-2.152,4.941a.4.4,0,0,0,.235.577,1.067,1.067,0,0,1,.8,1.132c-.072.5.7.72.77.212a1.849,1.849,0,0,0-1.357-2.1l.274.483c.665-1.636,1.358-3.26,2.046-4.886.14-.331-.274-.771-.556-.429a47.765,47.765,0,0,1-4.152,4.353l.6.46q2.2-4.477,4.835-8.721c.188-.3-.274-.683-.507-.391-2.283,2.86-4.681,5.625-6.957,8.491l.611.471a129.54,129.54,0,0,1,9.61-15.05q1.537-2.085,3.158-4.106c.231-.288-.137-.682-.415-.414a68.242,68.242,0,0,0-12.944,16.337c-.875,1.615-1.6,3.378-3.058,4.572l.608.469A173.173,173.173,0,0,1,121.11,307.2c1.278-1.8,2.636-3.542,3.92-5.336.173-.243-.228-.474-.4-.234-1.173,1.634-2.429,3.207-3.642,4.812s-2.412,3.224-3.6,4.853q-3.552,4.885-6.924,9.9c-1.268,1.883-2.549,3.763-3.772,5.676l.657.277a108.434,108.434,0,0,1,5.137-10.363q2.746-4.973,5.906-9.7c1.2-1.8,2.459-3.562,3.753-5.3.157-.21-.2-.412-.351-.205" transform="translate(-72.137 -203.919)"/>
    <path id="Path_1514" data-name="Path 1514" d="M118.04,356.486c-.556,1.227-1.128,2.446-1.693,3.669-.411.89-1.245,2.2-.587,3.161a.317.317,0,0,0,.547-.32,1.686,1.686,0,0,1,.054-1.447c.2-.537.443-1.06.667-1.587.461-1.086.915-2.175,1.384-3.258.108-.25-.257-.471-.372-.217" transform="translate(-78.131 -241.039)"/>
    <path id="Path_1515" data-name="Path 1515" d="M121.482,372.321a10.154,10.154,0,0,0-.647,2.638,6.022,6.022,0,0,0,.194,2.706.226.226,0,0,0,.441-.06c-.007-.87-.155-1.725-.111-2.6a9.856,9.856,0,0,1,.474-2.589c.074-.226-.268-.311-.351-.1" transform="translate(-81.686 -251.741)"/>
    <path id="Path_1516" data-name="Path 1516" d="M123.231,388.385a12.016,12.016,0,0,0-.686,1.959,7.662,7.662,0,0,0-.288,2.064.222.222,0,0,0,.444,0c.08-.664.131-1.328.272-1.984a10.655,10.655,0,0,1,.6-1.894c.083-.2-.258-.341-.346-.146" transform="translate(-82.689 -262.628)"/>
    <path id="Path_1517" data-name="Path 1517" d="M125.35,392.836a6.611,6.611,0,0,0-1.235,3.569.291.291,0,0,0,.435.249,4.076,4.076,0,0,0,1.553-2.442.241.241,0,0,0-.439-.185,10.328,10.328,0,0,0-1.37,5.472.317.317,0,0,0,.585.159,31.184,31.184,0,0,0,1.837-3.131l-.531-.224c-.263,1.136-.56,2.265-.84,3.4-.14.566-.279,1.132-.423,1.7a10.6,10.6,0,0,0-.359,1.629c-.032.349.451.349.562.076a11.337,11.337,0,0,0,.439-1.694c.127-.542.258-1.083.386-1.625.264-1.109.514-2.222.795-3.327a.292.292,0,0,0-.53-.224c-.6,1.053-1.229,2.084-1.877,3.108l.585.158a9.576,9.576,0,0,1,1.157-5.23l-.439-.185a3.834,3.834,0,0,1-1.44,2.116l.493.2a6.19,6.19,0,0,1,1.037-3.347c.158-.239-.217-.448-.38-.222" transform="translate(-83.947 -265.635)"/>
    <path id="Path_1518" data-name="Path 1518" d="M149.382,299.984A84.662,84.662,0,0,0,139,314.692a.31.31,0,0,0,.11.42,1.051,1.051,0,0,0,.984-.015.268.268,0,0,0-.206-.488.533.533,0,0,1-.468-.027l.11.42c1.474-2.584,2.984-5.132,4.674-7.583a89.218,89.218,0,0,1,5.477-7.137c.174-.2-.119-.5-.3-.3" transform="translate(-93.988 -202.852)"/>
    <path id="Path_1519" data-name="Path 1519" d="M153.909,289.953a189.978,189.978,0,0,0-12.914,14.79c-.236.3.157.732.435.435q7.063-7.531,14.084-15.1c1.32-1.416,2.638-2.834,3.968-4.241l-.42-.42c-4.235,4.708-8.441,9.448-12.46,14.342q-1.712,2.084-3.37,4.211c-.274.352.174.846.507.506,4.848-4.948,9.887-9.695,15.183-14.161,1.492-1.259,3-2.5,4.537-3.7l-.373-.373q-6.35,5.617-12.273,11.7-1.686,1.732-3.326,3.507a.369.369,0,0,0,.521.521c4.867-4.094,9.819-8.1,14.9-11.928q2.155-1.627,4.335-3.221l-.394-.51c-4.741,4.366-9.431,8.784-14,13.332-.3.3.11.872.464.6,4.393-3.364,8.856-6.631,13.281-9.951,1.266-.95,2.541-1.881,3.841-2.783l-.329-.427c-4.694,4.387-9.549,8.582-14.492,12.685-.4.33.167.869.562.562,4.367-3.4,8.881-6.642,13.495-9.7,1.322-.877,2.653-1.736,4.01-2.557l-.348-.451q-7.547,6.779-15.092,13.561c-.348.314.115.934.507.658,5.036-3.55,9.97-7.246,15.037-10.75l-.45-.583c-4.311,3.978-8.55,8.038-12.821,12.059-.351.331.11.952.522.677,3.884-2.588,7.724-5.249,11.573-7.889l-.493-.639a81.948,81.948,0,0,0-7.785,7.5c-.319.351.1,1,.535.693,2.8-1.967,5.556-4.006,8.367-5.961l-.486-.63-5.685,6a.464.464,0,0,0,.56.725,34.971,34.971,0,0,0,5.891-3.377l-.614-.614a24.445,24.445,0,0,1-3.513,4.047c-.319.3.012.926.442.76a24.382,24.382,0,0,1,3.784-1.1l-.559-.56a2.605,2.605,0,0,1-1.548,1.584c-.527.193-.3,1.043.234.848a3.586,3.586,0,0,0,2.192-2.19c.127-.352-.249-.62-.56-.56a22.6,22.6,0,0,0-3.784,1.1l.443.76a25.51,25.51,0,0,0,3.645-4.237c.249-.362-.25-.87-.614-.614a37.4,37.4,0,0,1-5.9,3.354l.56.725,5.6-6.084c.293-.318-.1-.908-.486-.63-2.78,1.995-5.619,3.908-8.407,5.892l.535.693a78.269,78.269,0,0,1,7.736-7.547c.351-.3-.11-.9-.493-.639-3.872,2.6-7.76,5.191-11.6,7.847l.522.677c4.247-4.045,8.53-8.056,12.736-12.144.294-.285-.1-.837-.45-.583-4.972,3.633-10.081,7.078-15.085,10.668l.507.658q7.469-6.856,14.906-13.747a.288.288,0,0,0-.348-.451c-4.779,2.975-9.508,5.992-14.033,9.347q-1.889,1.4-3.744,2.846l.562.562c4.936-4.093,9.691-8.42,14.315-12.862.217-.209-.073-.61-.329-.427-2.248,1.606-4.538,3.15-6.781,4.764s-4.482,3.234-6.686,4.9q-1.89,1.43-3.767,2.878l.464.6c4.55-4.561,9.168-9.06,13.916-13.414.266-.244-.092-.73-.394-.51q-7.754,5.646-15.211,11.687c-1.418,1.151-2.819,2.322-4.214,3.5l.521.521c3.827-4.162,7.771-8.21,11.893-12.081q1.761-1.654,3.559-3.27c.258-.232-.114-.58-.373-.373-5.428,4.313-10.694,8.8-15.695,13.6q-2.113,2.03-4.159,4.127l.563.434c3.868-5.013,8-9.819,12.174-14.574q1.756-2,3.514-3.994c.251-.285-.159-.7-.42-.42-4.667,5.059-9.4,10.06-14.1,15.086q-1.984,2.12-3.965,4.243l.435.435c2-2.591,4.025-5.18,6.159-7.667s4.336-4.911,6.6-7.281c.174-.182-.1-.46-.277-.277" transform="translate(-95.315 -192.981)"/>
    <path id="Path_1520" data-name="Path 1520" d="M241.333,303.546a9.548,9.548,0,0,0-.824,1.34,11.565,11.565,0,0,0-.62,1.471c-.125.37.46.529.584.161a20.345,20.345,0,0,1,1.175-2.788.182.182,0,0,0-.314-.184" transform="translate(-162.241 -205.252)"/>
    <path id="Path_1521" data-name="Path 1521" d="M414.116,231.407a7.776,7.776,0,0,0-11.283,2.294c-.411.7.619,1.272,1.073.628a7.135,7.135,0,0,1,9.749-2.134c.516.3.926-.449.461-.788" transform="translate(-272.398 -155.501)"/>
    <path id="Path_1522" data-name="Path 1522" d="M410.667,254.936a13.16,13.16,0,0,0,7.255-.253c.738-.244.414-1.423-.322-1.167a12.113,12.113,0,0,1-6.674.481c-.61-.133-.871.8-.259.939" transform="translate(-277.525 -171.445)"/>
    <path id="Path_1523" data-name="Path 1523" d="M348.275,255.554a6.951,6.951,0,0,0,6.134.57c.716-.271.417-1.426-.32-1.162a6.771,6.771,0,0,1-5.32-.253.49.49,0,0,0-.494.845" transform="translate(-235.399 -172.238)"/>
    <path id="Path_1524" data-name="Path 1524" d="M368.532,360.629a41.008,41.008,0,0,1,13.811-1.183c.772.063.755-1.119,0-1.2a34.339,34.339,0,0,0-14.051,1.508.452.452,0,0,0,.24.871" transform="translate(-248.886 -242.191)"/>
    <path id="Path_1525" data-name="Path 1525" d="M384.638,372.575a14.8,14.8,0,0,0,2.5-.58.58.58,0,0,0-.308-1.117,14.723,14.723,0,0,0-2.445.78.5.5,0,0,0,.248.916" transform="translate(-259.827 -250.835)"/>
    <path id="Path_1526" data-name="Path 1526" d="M357.546,149.86a5.106,5.106,0,0,1,6,2.957,7.786,7.786,0,0,1,.669,3.475c-.015.736-.349,5.058-2.307,3.784-.506-.329-.985.213-.914.7.9,6.172-5.066,10.865-5.187,16.968l1.249-.169c-.788-5.236,1.494-10.575-.757-15.618a.646.646,0,0,0-.872-.229c-2.857,1.53-5.413-1.078-7.181-3.029a.649.649,0,0,0-.9,0c-3.745,3.327-8.665.2-11.982-2.115a.643.643,0,0,0-.874.229c-2.12,4.105-7.3,2.284-10.556.925-.409-.171-.789.251-.81.617a5.229,5.229,0,0,1-5.178,4.908.65.65,0,0,0-.641.641q.063,7.186.126,14.371l1.2-.324a40.852,40.852,0,0,1-2.6-5.11c-.976-2.019-2.427-4.127-1.366-6.43a.656.656,0,0,0-.23-.879,3,3,0,0,1-.876-4.54.655.655,0,0,0,0-.908c-3.275-3.187-3.021-10.346,1.685-12.1a.692.692,0,0,0,.47-.828c-.794-3.417.291-7.612,3.6-9.337,2.931-1.53,7.156-.26,8.28,2.965.2.566,1.173.709,1.3,0a5.5,5.5,0,0,1,10.96.364c.059.724,1.161.982,1.343.182.538-2.364,2.242-4.632,4.763-5.061a4.554,4.554,0,0,1,5.275,4.219.693.693,0,0,0,1.035.594,4.637,4.637,0,1,1,5.481,7.477c-.689.548.284,1.5.966.966a5.995,5.995,0,0,0-7.141-9.631l1.035.594a5.936,5.936,0,0,0-5.964-5.655c-3.424.02-6.056,2.989-6.769,6.132l1.344.182a6.85,6.85,0,0,0-13.624-.721h1.3c-1.33-3.821-5.965-5.563-9.64-4.056-4.275,1.753-5.8,6.947-4.83,11.143l.471-.828c-5.637,2.106-6.286,10.372-2.236,14.312v-.908a4.3,4.3,0,0,0,1.137,6.558l-.23-.879a6.569,6.569,0,0,0,.377,5.818,56.841,56.841,0,0,0,3.586,7.018.647.647,0,0,0,1.2-.324q-.064-7.186-.127-14.371l-.64.64a6.54,6.54,0,0,0,6.458-6.189l-.81.618c3.829,1.6,9.582,3.17,12-1.514l-.874.229c3.881,2.7,9.285,5.685,13.529,1.913h-.9c2.216,2.445,5.3,5.064,8.726,3.228l-.872-.229c2.143,4.8-.127,10.283.631,15.313.11.728,1.236.523,1.249-.169.123-6.259,6.069-10.812,5.114-17.3l-.914.7c3.866,2.507,4.373-5.022,3.934-7.045-.776-3.574-4.229-6.405-7.946-5.234a.513.513,0,0,0,.273.989" transform="translate(-209.712 -91.009)"/>
    <path id="Path_1527" data-name="Path 1527" d="M313.54,172.214A29.1,29.1,0,0,0,307.7,180.1c-.127.264.23.607.44.34,1.385-1.766,2.8-3.513,4.132-5.318.1-.14-.127-.316-.241-.186-1.469,1.668-2.865,3.4-4.286,5.108l.44.339a36.139,36.139,0,0,1,2.433-4.168,27.684,27.684,0,0,1,3.154-3.768.163.163,0,0,0-.231-.231" transform="translate(-208.099 -116.448)"/>
    <path id="Path_1528" data-name="Path 1528" d="M321.242,147.7l1.406-1.672-.214-.165c-3.068,4.052-6.124,8.127-9.089,12.256-.191.265.251.611.456.352,4.2-5.282,8.379-10.581,12.622-15.827l-.309-.309q-4.987,6.362-9.654,12.966-1.342,1.89-2.659,3.8c-.219.316.293.719.538.415,3.52-4.352,7.155-8.6,11.03-12.639q1.636-1.707,3.318-3.369a.242.242,0,0,0-.342-.342c-2.062,2.094-4.132,4.155-6.063,6.373q-2.868,3.293-5.45,6.823-1.473,2.013-2.847,4.1a.355.355,0,0,0,.554.428c4.419-4.761,8.93-9.438,13.579-13.975,1.315-1.283,2.632-2.565,3.98-3.814l-.4-.4a176.57,176.57,0,0,0-13.674,15.686q-1.793,2.32-3.51,4.7c-.245.338.305.763.58.448,5.091-5.832,10.338-11.505,15.86-16.933,1.56-1.534,3.151-3.037,4.754-4.526l-.334-.334c-5.608,6.06-10.954,12.348-16.192,18.728-1.482,1.8-2.931,3.638-4.435,5.425-.312.371.223.909.535.535a200.949,200.949,0,0,1,18.044-18.963q2.712-2.506,5.512-4.916l-.451-.451c-6.129,6.444-12.282,12.855-17.766,19.871q-2.287,2.926-4.41,5.975c-.24.346.3.767.585.451,2.933-3.307,5.8-6.667,8.8-9.916s6.069-6.413,9.287-9.43q2.71-2.54,5.583-4.9l-.33-.33c-1.667,1.654-3.424,3.217-5.093,4.871q-2.475,2.453-4.886,4.969-4.826,5.031-9.446,10.253-2.62,2.949-5.193,5.939a.386.386,0,0,0,.545.546q11.7-11.134,23.264-22.425,3.241-3.156,6.5-6.3l-.419-.419q-8.189,7.864-15.614,16.475-2.088,2.424-4.111,4.905c-.285.351.214.856.5.5,4.774-5.878,9.793-11.551,15.1-16.955q2.242-2.284,4.545-4.507c.275-.265-.144-.684-.419-.419-3.879,3.737-7.81,7.419-11.7,11.145l-11.667,11.177q-3.267,3.13-6.521,6.272l.545.546c6.021-7.116,12.222-14.089,18.781-20.715,1.843-1.862,3.666-3.789,5.622-5.534.229-.2-.1-.512-.33-.33A153.361,153.361,0,0,0,321.2,162.282c-1.655,1.85-3.309,3.7-4.932,5.579l.585.451a177.137,177.137,0,0,1,16.817-20.342c1.707-1.824,3.421-3.643,5.167-5.429.292-.3-.141-.711-.451-.451A186.083,186.083,0,0,0,319.585,160.3q-2.47,2.748-4.833,5.588l.594.458c2.516-3.267,5.137-6.461,7.739-9.659s5.216-6.337,7.921-9.425q2.31-2.636,4.706-5.194a.236.236,0,0,0-.334-.334q-8.573,7.819-16.444,16.363-2.222,2.417-4.36,4.907l.58.448a173.016,173.016,0,0,1,12.934-16.082q1.968-2.171,4.008-4.276a.28.28,0,0,0-.4-.4c-4.738,4.451-9.413,8.95-13.9,13.651q-1.9,1.994-3.757,4.034l.555.428a101.87,101.87,0,0,1,10.68-13.771c1.109-1.2,2.22-2.416,3.412-3.536l-.342-.342q-6.026,5.834-11.481,12.22c-1.022,1.2-2.032,2.409-3.009,3.645l.539.415c3-4.444,6.088-8.836,9.294-13.135.923-1.237,1.841-2.477,2.77-3.709.148-.2-.188-.459-.343-.265-4.205,5.271-8.475,10.49-12.724,15.725l.456.352c3-4.089,5.925-8.248,8.822-12.411.087-.126-.119-.288-.214-.165l-1.344,1.734c-.071.092.053.223.13.13" transform="translate(-211.904 -95.482)"/>
    <path id="Path_1529" data-name="Path 1529" d="M374.022,143.653q-6.4,6.524-12.614,13.236c-1.179,1.271-2.357,2.543-3.5,3.846-.249.283.162.7.416.416a236.008,236.008,0,0,1,17.618-17.682c1.732-1.566,3.477-3.12,5.282-4.6l-.33-.33A133.77,133.77,0,0,0,364.868,155.2q-2.033,2.492-3.958,5.068c-.253.339.306.767.586.452,2.652-2.98,5.364-5.9,8.267-8.637q4.321-4.079,9.008-7.745,2.685-2.1,5.484-4.047l-.321-.416c-2.986,2.858-5.96,5.725-8.882,8.649-2.866,2.868-5.748,5.738-8.5,8.721a17.991,17.991,0,0,0-3.48,4.934c-.153.357.269.786.584.451A145.013,145.013,0,0,1,381.4,146.7q2.7-2.065,5.489-4.012l-.361-.468c-5.333,4.408-10.375,9.154-15.35,13.958q-2.117,2.045-4.221,4.1c-.332.325.17.823.508.508a169.354,169.354,0,0,1,17.418-14.125q2.556-1.814,5.2-3.5l-.358-.464q-7.2,6.669-14.41,13.334c-1.378,1.275-2.767,2.538-4.14,3.82-.311.291.111.869.466.6q7.057-5.284,14.443-10.112c1.409-.92,2.825-1.83,4.259-2.711l-.39-.506c-4.486,3.753-8.869,7.628-13.181,11.578q-1.848,1.693-3.667,3.417c-.307.293.1.85.463.6,3.926-2.71,7.82-5.468,11.752-8.17.319-.219.017-.744-.306-.522-3.929,2.7-7.9,5.343-11.832,8.033l.462.6c4.253-4.014,8.551-7.974,12.965-11.812q1.89-1.644,3.8-3.267c.279-.238-.083-.7-.39-.506-4.981,3.122-9.9,6.321-14.687,9.741q-2.053,1.468-4.077,2.975l.465.6c4.794-4.452,9.543-8.954,14.316-13.429l4.109-3.851a.3.3,0,0,0-.358-.464c-3.174,2.047-6.323,4.143-9.356,6.4q-4.47,3.32-8.693,6.952-2.432,2.093-4.777,4.282l.508.508c4.933-4.852,9.832-9.735,15.016-14.322q2.2-1.95,4.469-3.826c.259-.214-.083-.662-.361-.468A158.252,158.252,0,0,0,368,157.354c-1.641,1.563-3.269,3.14-4.863,4.751l.584.45a18.26,18.26,0,0,1,3.065-4.491c1.305-1.463,2.682-2.864,4.041-4.277q4.215-4.382,8.532-8.664c1.644-1.631,3.283-3.268,4.952-4.874.211-.2-.07-.591-.321-.416a135.341,135.341,0,0,0-18.347,15.4c-1.6,1.607-3.177,3.248-4.673,4.955l.586.452a147.743,147.743,0,0,1,14.978-17.3c1.535-1.522,3.108-3,4.692-4.476.221-.206-.106-.527-.33-.33-3.121,2.755-6.258,5.485-9.293,8.336s-6,5.767-8.9,8.76q-2.433,2.519-4.8,5.1l.416.416c2.043-2.264,4.047-4.562,6.094-6.823s4.136-4.48,6.238-6.687q1.794-1.884,3.612-3.744c.155-.159-.088-.4-.244-.244" transform="translate(-242.024 -93.661)"/>
    <path id="Path_1530" data-name="Path 1530" d="M426.615,178.54a101.024,101.024,0,0,0-13.534,11.02c-.318.306.159.776.482.482a77.469,77.469,0,0,1,10.016-7.808c.29-.187.026-.647-.272-.465a58.609,58.609,0,0,0-10.227,7.792l.482.482a98.266,98.266,0,0,1,13.159-11.318c.109-.079.007-.262-.107-.184" transform="translate(-279.323 -120.745)"/>
    <path id="Path_1531" data-name="Path 1531" d="M436.542,176.547q-6.607,5.538-13.315,10.963c-.312.252.1.78.43.557,2.436-1.63,4.879-3.248,7.3-4.894q1.8-1.224,3.6-2.454c.6-.412,1.209-.809,1.793-1.24.606-.447,1.2-.916,1.837-1.325.227-.146.017-.509-.212-.363a68.413,68.413,0,0,0-12.693,10.4.367.367,0,0,0,.443.574q3.326-1.977,6.607-4.026c2.187-1.366,4.313-2.837,6.528-4.158l-.208-.356a73.689,73.689,0,0,0-11.177,8.915c-.29.278.1.809.439.568,1.834-1.29,3.694-2.551,5.58-3.765q1.416-.911,2.849-1.793c.954-.585,1.894-1.211,2.884-1.734L438.99,182c-2.714,2.084-5.269,4.366-7.764,6.707a.37.37,0,0,0,.358.614,12.143,12.143,0,0,0,3.1-1.66c.276-.2.028-.644-.27-.461a18.292,18.292,0,0,1-3.023,1.412l.358.614c2.39-2.415,4.942-4.655,7.534-6.851.21-.178-.06-.512-.29-.376-.965.571-1.974,1.067-2.947,1.628s-1.936,1.134-2.889,1.725q-2.862,1.775-5.6,3.728l.438.568a80.346,80.346,0,0,1,10.873-9.07c.214-.151.016-.5-.208-.356-2.152,1.415-4.421,2.66-6.635,3.974s-4.438,2.627-6.66,3.935l.443.574c1.877-1.952,3.8-3.84,5.866-5.6a79.287,79.287,0,0,1,6.523-4.954l-.212-.363c-1.187.826-2.462,1.54-3.674,2.33q-1.857,1.212-3.7,2.44c-2.444,1.617-4.871,3.261-7.3,4.894l.429.557q6.476-5.668,13.065-11.214c.175-.148-.077-.4-.251-.251" transform="translate(-286.18 -119.38)"/>
    <path id="Path_1532" data-name="Path 1532" d="M455.159,203.7q-1.9,1.378-3.731,2.856c-1.244,1.007-2.414,2.106-3.658,3.11-.321.259.088.733.426.552.572-.306,1.111-.7,1.657-1.047.57-.365,1.143-.726,1.714-1.09.552-.352,1.095-.717,1.638-1.083a14.021,14.021,0,0,1,1.718-1.084l-.167-.286a33.5,33.5,0,0,0-2.923,2.454c-.979.86-1.947,1.736-2.941,2.578a.369.369,0,0,0,.356.612,20.506,20.506,0,0,0,3.552-1.85.284.284,0,0,0-.286-.49c-1.157.622-2.357,1.122-3.548,1.67l.444.575c.918-.888,1.867-1.746,2.8-2.618a33.719,33.719,0,0,0,2.745-2.673c.113-.133-.036-.375-.2-.26a15.43,15.43,0,0,1-1.719.942c-.6.313-1.2.63-1.784.97-.566.327-1.126.662-1.686,1-.575.345-1.184.673-1.724,1.072l.426.552a42.238,42.238,0,0,1,3.418-3.256q1.759-1.57,3.6-3.041c.094-.074-.031-.238-.129-.167" transform="translate(-302.777 -137.762)"/>
    <path id="Path_1533" data-name="Path 1533" d="M457.528,218.416a14.112,14.112,0,0,0-4.153,4.643.335.335,0,0,0,.374.486,8.6,8.6,0,0,0,2.763-1.664l-.367-.475a41.446,41.446,0,0,0-2.706,3.87.34.34,0,0,0,.38.494c.537-.169.186.895.128,1.107-.114.409-.235.817-.354,1.224l-.715,2.446a.3.3,0,0,0,.57.157c.35-1.225.686-2.455,1.052-3.676a1.986,1.986,0,0,0,.11-1.474.813.813,0,0,0-.969-.433l.38.494a29.737,29.737,0,0,1,2.553-3.782c.189-.241-.068-.706-.367-.475a9.5,9.5,0,0,1-2.633,1.548l.374.486a13.676,13.676,0,0,1,3.779-4.721c.143-.114-.047-.363-.2-.256" transform="translate(-306.302 -147.711)"/>
    <path id="Path_1534" data-name="Path 1534" d="M330.047,143.42a103.25,103.25,0,0,0-7.116,8.514l.531.31c1.884-2.927,3.765-5.856,5.667-8.771.133-.2-.147-.365-.31-.239a18.946,18.946,0,0,0-2.8,2.949c-.962,1.148-1.924,2.295-2.9,3.433l.445.444a25.271,25.271,0,0,0,2.943-4.6c.124-.242-.2-.53-.4-.306a54.2,54.2,0,0,0-4.417,5.575c-.187.275.26.534.445.26a42.793,42.793,0,0,1,4.328-5.479l-.4-.306a34.661,34.661,0,0,1-3,4.473c-.216.28.273.662.494.381q1.367-1.74,2.755-3.464a16.816,16.816,0,0,1,2.736-3.053l-.27-.27c-1.94,2.9-3.9,5.776-5.856,8.66-.224.331.3.626.531.31a104.189,104.189,0,0,1,6.829-8.581c.148-.165-.093-.408-.244-.244" transform="translate(-217.555 -96.848)"/>
    <path id="Path_1535" data-name="Path 1535" d="M328.906,218.757q-1.154,1.238-2.268,2.512c-.74.847-1.512,1.679-2.2,2.567-.131.168-.019.52.242.416l.517-.206c.279-.111.166-.565-.127-.461l-.522.187.242.416c.725-.867,1.4-1.775,2.132-2.637s1.474-1.711,2.231-2.55c.148-.164-.092-.407-.244-.244" transform="translate(-219.399 -147.923)"/>
    <path id="Path_1536" data-name="Path 1536" d="M330.874,208.189q-2.276,2.268-4.488,4.6-1.094,1.149-2.166,2.319c-.713.777-1.448,1.544-2.087,2.384-.193.253.219.555.434.335.739-.756,1.4-1.59,2.094-2.386s1.4-1.589,2.111-2.374q2.133-2.354,4.382-4.6a.2.2,0,0,0-.281-.281" transform="translate(-217.846 -140.773)"/>
    <path id="Path_1537" data-name="Path 1537" d="M330.527,209.77c-1.787,1.672-3.511,3.392-5.127,5.231-1.6,1.819-3.084,3.727-4.512,5.682-.233.319.256.645.523.4.865-.781,1.694-1.606,2.5-2.445s1.554-1.741,2.349-2.6l-.316-.316a38.579,38.579,0,0,0-3.77,5.7.291.291,0,0,0,.455.351,21.793,21.793,0,0,1,2.6-2.015l-.358-.275a11,11,0,0,1-1.715,3.29.312.312,0,0,0,.268.467c.573-.021.4.747.312,1.088a.3.3,0,0,0,.282.37c.2.012.405.017.608.024l-.276-.277c.063.542.124,1.084.2,1.624.042.3.57.235.539-.073-.053-.518-.12-1.035-.185-1.551a.288.288,0,0,0-.277-.277c-.2-.019-.4-.04-.608-.056l.282.37a1.83,1.83,0,0,0,.016-1.325.918.918,0,0,0-.892-.539l.268.467a12.877,12.877,0,0,0,1.649-3.474.246.246,0,0,0-.358-.275,15.941,15.941,0,0,0-2.768,2.026l.455.351a37.314,37.314,0,0,1,3.585-5.681c.17-.22-.117-.534-.316-.316-.781.86-1.651,1.653-2.481,2.465s-1.685,1.613-2.526,2.421l.523.4a66.92,66.92,0,0,1,9.277-11.035c.141-.135-.072-.347-.214-.214" transform="translate(-216.997 -141.852)"/>
    <path id="Path_1538" data-name="Path 1538" d="M414.426,256.682a8.952,8.952,0,0,0-.162,1.4.515.515,0,0,0,1.008.136,8.9,8.9,0,0,0,.189-1.4c.058-.585-.947-.728-1.035-.14" transform="translate(-280.194 -173.357)"/>
    <path id="Path_1539" data-name="Path 1539" d="M422.7,257.235a4.612,4.612,0,0,0,.24,1.134.528.528,0,0,0,.576.376.517.517,0,0,0,.455-.515,4.607,4.607,0,0,0-.268-1.13.518.518,0,0,0-.56-.366.506.506,0,0,0-.443.5" transform="translate(-285.896 -173.641)"/>
    <path id="Path_1540" data-name="Path 1540" d="M432.622,255.7l.14.562a.492.492,0,0,0,.6.34.5.5,0,0,0,.34-.6l-.14-.562a.487.487,0,0,0-.939.259" transform="translate(-292.6 -172.53)"/>
    <path id="Path_1541" data-name="Path 1541" d="M650.793,148.081a7.867,7.867,0,0,1-4.227,2.271,5.566,5.566,0,0,1-5.67-2.816,5.3,5.3,0,0,1,1.209-6.167,6.455,6.455,0,0,1,2.838-1.378,6.808,6.808,0,0,1,4.908.616,4.834,4.834,0,0,1,2.46,4.153,5.043,5.043,0,0,1-1.518,3.32" transform="translate(-433.135 -94.552)" fill="#fff"/>
    <path id="Path_1542" data-name="Path 1542" d="M649.144,146.342c-1.972,1.772-4.8,2.778-7.237,1.331a4.49,4.49,0,0,1-1.418-6.35c1.4-2.134,4.681-2.778,6.976-1.9a4.079,4.079,0,0,1,1.544,6.781c-.581.657.363,1.619.969.969a5.338,5.338,0,0,0-.639-8.227,7.476,7.476,0,0,0-9.6,1.229,5.8,5.8,0,0,0,.84,8.114c3.021,2.362,6.764,1.273,9.266-1.252.451-.455-.228-1.122-.7-.7" transform="translate(-431.835 -93.162)"/>
    <path id="Path_1543" data-name="Path 1543" d="M585.09,151.863a7.866,7.866,0,0,1-4.227,2.271,5.567,5.567,0,0,1-5.671-2.816,5.3,5.3,0,0,1,1.209-6.167,6.454,6.454,0,0,1,2.838-1.378,6.808,6.808,0,0,1,4.908.616,4.834,4.834,0,0,1,2.46,4.153,5.043,5.043,0,0,1-1.518,3.32" transform="translate(-388.696 -97.11)" fill="#fff"/>
    <path id="Path_1544" data-name="Path 1544" d="M583.442,150.123c-1.972,1.772-4.8,2.778-7.237,1.331a4.49,4.49,0,0,1-1.418-6.35c1.4-2.134,4.681-2.778,6.976-1.9a4.079,4.079,0,0,1,1.544,6.781c-.581.657.363,1.619.969.969a5.338,5.338,0,0,0-.639-8.227,7.476,7.476,0,0,0-9.6,1.229,5.8,5.8,0,0,0,.841,8.114c3.02,2.362,6.764,1.273,9.266-1.252.451-.455-.228-1.122-.7-.7" transform="translate(-387.396 -95.72)"/>
    <path id="Path_1545" data-name="Path 1545" d="M347.555,257.856l-.573,1.118a.539.539,0,0,0,.189.721.532.532,0,0,0,.721-.189l.544-1.134a.524.524,0,0,0-.183-.7.515.515,0,0,0-.7.183" transform="translate(-234.643 -174.236)"/>
    <path id="Path_1546" data-name="Path 1546" d="M354.852,260.773q0,.281,0,.562a.5.5,0,1,0,.993,0q0-.281,0-.562a.494.494,0,0,0-.988,0" transform="translate(-240.008 -176.044)"/>
    <path id="Path_1547" data-name="Path 1547" d="M578.151,132.272c2.882-.6,6.391-1.2,9,.59,2.414,1.656,3,5.118,3.236,7.827.489,5.713-.578,11.642-1.259,17.3a.606.606,0,0,0,.448.588,18.279,18.279,0,0,0,5.024.04c.756-.1.771-1.3,0-1.206a17.535,17.535,0,0,1-4.7-.012l.448.589c.807-6.674,2.376-14.116.681-20.758-.643-2.521-1.774-4.765-4.241-5.888-2.87-1.306-5.934-.564-8.871.064-.563.12-.324.978.238.862" transform="translate(-390.664 -88.35)"/>
    <path id="Path_1548" data-name="Path 1548" d="M649.036,129.782a7.776,7.776,0,0,0-11.283,2.294c-.411.7.619,1.272,1.074.628a7.135,7.135,0,0,1,9.748-2.134c.516.3.926-.449.461-.788" transform="translate(-431.29 -86.765)"/>
    <path id="Path_1549" data-name="Path 1549" d="M645.586,153.31a13.16,13.16,0,0,0,7.255-.253c.738-.244.414-1.423-.322-1.167a12.117,12.117,0,0,1-6.674.481c-.61-.134-.872.8-.259.939" transform="translate(-436.416 -102.709)"/>
    <path id="Path_1550" data-name="Path 1550" d="M583.2,153.929a6.951,6.951,0,0,0,6.134.57c.716-.271.417-1.426-.32-1.163a6.771,6.771,0,0,1-5.32-.253.49.49,0,0,0-.494.845" transform="translate(-394.29 -103.503)"/>
    <path id="Path_1551" data-name="Path 1551" d="M361.883,259.249l.541,1c.317.582,1.218.059.89-.52l-.558-.986a.506.506,0,0,0-.874.511" transform="translate(-244.72 -174.834)"/>
    <path id="Path_1552" data-name="Path 1552" d="M356.046,325.1a7.172,7.172,0,0,1,6,2.411,7.441,7.441,0,0,0,4.073,2.2c.861.137,2.506.311,3.057-.62a1.073,1.073,0,0,0-.648-1.6.51.51,0,0,0-.575.234,7.727,7.727,0,0,1-7.711,4.846c-3.343-.214-7.52-1.624-9.841-4.1a.645.645,0,0,0-.909,0,13.013,13.013,0,0,1-18.268,2.158l-.318,1.172a7.761,7.761,0,0,0,5.884-2.189,24.87,24.87,0,0,1,3.239-2.719A11.373,11.373,0,0,1,343.9,325.6a6.959,6.959,0,0,1,4.234.417c.6.3,1.177,1.1,1.883,1.131.818.035,1.648-.941,2.374-1.22a15.5,15.5,0,0,1,3.65-.673c.724-.092.765-1.222,0-1.168a17.45,17.45,0,0,0-3.291.459,7.655,7.655,0,0,0-1.27.453c-.378.178-1.065.848-1.457.854.054,0-.891-.674-.868-.66a6.272,6.272,0,0,0-1.423-.632,7.971,7.971,0,0,0-2.979-.283,12.177,12.177,0,0,0-6.234,2.178c-2.379,1.771-4.29,4.466-7.619,4.078-.7-.082-.74.847-.318,1.172a14.264,14.264,0,0,0,19.811-2.335h-.909a12.325,12.325,0,0,0,5.135,3.047,17.142,17.142,0,0,0,6.464,1.235,8.99,8.99,0,0,0,7.792-5.547l-.626.355a.907.907,0,0,1-1.031.331,5.735,5.735,0,0,1-1.326-.135,5.836,5.836,0,0,1-1.7-.654,26.785,26.785,0,0,1-2.8-2.411,7.418,7.418,0,0,0-5.345-1.345c-.537.044-.547.882,0,.846" transform="translate(-223.414 -219.203)"/>
    <path id="Path_1553" data-name="Path 1553" d="M342.124,340.881a17.021,17.021,0,0,1-1.258,1.3c-.447.41-.917.788-1.389,1.168-.141.113-.036.305.095.36a.549.549,0,0,0,.57-.13c.151-.141-.047-.406-.223-.29a.212.212,0,0,1-.232,0l.095.36a16.156,16.156,0,0,0,1.333-1.224c.426-.429.843-.865,1.237-1.324.134-.156-.09-.383-.227-.227" transform="translate(-229.565 -230.524)"/>
    <path id="Path_1554" data-name="Path 1554" d="M348.417,328.667a31.933,31.933,0,0,0-4.265,5.763c-.151.291.256.661.483.372a55.977,55.977,0,0,1,6.481-6.99l-.357-.357a71.614,71.614,0,0,0-5.8,7.118c-.217.315.235.576.488.376a31.1,31.1,0,0,0,3.4-3.838,26.18,26.18,0,0,1,3.96-3.552l-.344-.344c-1.89,2.491-3.934,4.835-5.988,7.19l.471.471a67.544,67.544,0,0,1,7.133-7.843l-.418-.173a3.849,3.849,0,0,1-1.086,2.076q-.779.988-1.59,1.951c-1.083,1.285-2.218,2.519-3.369,3.742l.437.437c2.395-2.748,5.038-5.251,7.615-7.824l-.327-.252c-2.085,2.71-4.324,5.311-6.625,7.841l.462.461a59.121,59.121,0,0,1,8.081-7.959l-.477-.368c-1.875,2.489-3.791,4.947-5.7,7.408-.259.333.157.79.478.478,1.3-1.272,2.585-2.566,3.874-3.852a.331.331,0,0,0-.468-.468c-1.3,1.278-2.6,2.549-3.884,3.842l.53.409c1.872-2.491,3.741-4.986,5.65-7.448a.3.3,0,0,0-.429-.43,52.319,52.319,0,0,0-8.113,7.928c-.263.321.189.784.462.461,2.223-2.637,4.36-5.338,6.49-8.05a.208.208,0,0,0-.294-.294,93.606,93.606,0,0,0-7.757,7.681c-.261.3.16.727.437.437,1.262-1.327,2.457-2.724,3.608-4.148.539-.667,1.07-1.342,1.585-2.028a3.79,3.79,0,0,0,.905-2.03.248.248,0,0,0-.418-.173,63.806,63.806,0,0,0-7.257,7.719c-.259.328.182.8.471.471,2.091-2.373,4.029-4.9,5.952-7.406.152-.2-.146-.487-.344-.344a27.165,27.165,0,0,0-3.94,3.451c-1.187,1.266-2.129,2.853-3.543,3.885l.425.425c1.807-2.417,3.608-4.825,5.625-7.075a.252.252,0,0,0-.357-.357,63.161,63.161,0,0,0-6.559,6.912l.483.372a39.789,39.789,0,0,1,3.989-5.819c.141-.178-.1-.433-.254-.254" transform="translate(-232.75 -220.916)"/>
    <path id="Path_1555" data-name="Path 1555" d="M373.379,329.354c-1.5,1.659-3.049,3.279-4.531,4.954-.276.312.166.765.461.461a38.96,38.96,0,0,1,7.081-6.2l-.312-.4c-.785.8-1.625,1.545-2.4,2.355s-1.523,1.646-2.217,2.525c-.26.33.167.794.474.474a42.443,42.443,0,0,1,7.358-6.1l-.341-.442c-1.407,1.506-2.884,2.947-4.287,4.456a.328.328,0,0,0,.464.464,27.978,27.978,0,0,1,6.281-4.835l-.29-.375c-1.355,1.318-2.688,2.663-3.961,4.06-.218.239.074.684.365.473a74.629,74.629,0,0,1,6.564-4.167l-.224-.384a33.47,33.47,0,0,0-5.268,4.321c-.231.234.07.651.359.465a29.356,29.356,0,0,1,7.112-3.846l-.242-.416a25.982,25.982,0,0,1-5.667,4.148l.421.546a15.107,15.107,0,0,1,6.533-3.359l-.262-.451a21.583,21.583,0,0,1-6.206,4.18l.351.6c1.918-1.005,3.837-2.007,5.788-2.946.221-.106.064-.493-.169-.4a54.567,54.567,0,0,0-5.969,2.746c-.4.216-.048.791.351.6a23.976,23.976,0,0,0,6.237-4.4.272.272,0,0,0-.262-.451,15.314,15.314,0,0,0-6.881,3.388c-.3.265.085.732.421.546a25.44,25.44,0,0,0,5.668-4.4.251.251,0,0,0-.242-.416,28.9,28.9,0,0,0-7.278,3.814l.359.465a31.662,31.662,0,0,1,5.074-4.357.222.222,0,0,0-.224-.384,40.529,40.529,0,0,0-6.644,4.03l.365.473c1.268-1.4,2.548-2.8,3.873-4.148a.24.24,0,0,0-.29-.375,26.241,26.241,0,0,0-6.5,4.784l.464.464c1.431-1.484,2.793-3.035,4.221-4.522.216-.224-.063-.617-.34-.441a42.284,42.284,0,0,0-7.548,6.115l.474.474a35.2,35.2,0,0,1,4.508-4.99c.232-.2-.064-.53-.312-.4-2.85,1.451-5.128,3.874-7.282,6.184l.461.461c1.457-1.708,2.85-3.473,4.287-5.2.125-.149-.083-.366-.217-.217" transform="translate(-249.417 -220.914)"/>
    <path id="Path_1556" data-name="Path 1556" d="M415.237,336.64a28.019,28.019,0,0,1-2.377,1.561c-.828.484-1.687.87-2.554,1.274l.318.544a39.262,39.262,0,0,1,3.521-1.813c.6-.268,1.212-.514,1.827-.748a19.708,19.708,0,0,1,1.938-.695l-.283-.161c.062.21-.462.461-.588.544l-.663.441-1.26.838q-1.293.86-2.6,1.705a.359.359,0,0,0,.362.619,40.7,40.7,0,0,1,5.723-2.49l-.224-.531a34.2,34.2,0,0,0-4.044,2.506c-.407.291-.032.965.4.682a21.592,21.592,0,0,1,4.612-2.29l-.245-.421c-.719.56-1.46,1.1-2.162,1.68a.348.348,0,0,0,.337.578c.852-.306,1.713-.6,2.541-.966l-.455-.35-.172.162c-.3.069-.242.588.074.548a.787.787,0,0,0,.7-.546c.092-.224-.174-.441-.381-.381-.842.244-1.664.563-2.487.865l.337.578c.694-.582,1.353-1.21,2.029-1.813.2-.179-.016-.468-.245-.421a13.244,13.244,0,0,0-4.876,2.093l.479.621a40.53,40.53,0,0,1,3.859-2.624c.271-.164.1-.65-.224-.531a46.171,46.171,0,0,0-5.931,2.431l.362.619q1.549-1.13,3.114-2.237c.52-.37,1.043-.738,1.561-1.111.306-.22.662-.5.514-.922a.234.234,0,0,0-.283-.161c-.654.2-1.323.343-1.974.563-.629.213-1.246.454-1.856.713a26.086,26.086,0,0,0-3.652,1.879.315.315,0,0,0,.318.544,27.533,27.533,0,0,0,4.754-3.2c.1-.083-.034-.26-.141-.182" transform="translate(-277.414 -227.468)"/>
    <path id="Path_1557" data-name="Path 1557" d="M428.542,475.6c-.31,4.238,1.286,8.284,1.535,12.478a25.511,25.511,0,0,1-.7,6.433,32.389,32.389,0,0,0-.583,6.664c.028,2.3.18,4.592.294,6.886s.228,4.569.343,6.853.234,4.569.347,6.853a18.468,18.468,0,0,1-.261,5.148,6.852,6.852,0,0,1-1.092,2.508,5.959,5.959,0,0,1-2.2,1.751c-1.643.823-3.608,1.236-4.839,2.7-.262.312.159.753.455.454,1.244-1.253,2.968-1.714,4.515-2.465a6.423,6.423,0,0,0,3.265-3.381,12.855,12.855,0,0,0,.754-4.931c-.007-2.126-.179-4.257-.286-6.38-.234-4.641-.5-9.282-.707-13.925a38.733,38.733,0,0,1,.188-6.917,59.711,59.711,0,0,0,.955-6.572c.115-4.8-2.077-9.343-1.792-14.157.008-.125-.184-.124-.194,0" transform="translate(-284.957 -321.617)"/>
    <path id="Path_1558" data-name="Path 1558" d="M452.337,633.354a13.594,13.594,0,0,1-.592,2.4,11.437,11.437,0,0,1-1.135,2.213c-.184.284.26.534.449.262a9.475,9.475,0,0,0,1.164-2.3,8.639,8.639,0,0,0,.528-2.517c.008-.232-.371-.293-.413-.056" transform="translate(-304.747 -428.277)"/>
    <path id="Path_1559" data-name="Path 1559" d="M405.947,649.821c-.133.053-.269.091-.4.153s-.243.121-.364.181l-.68.339-1.408.7a.321.321,0,0,0,.325.555l1.375-.705.675-.346.338-.173c.121-.062.228-.144.344-.217a.268.268,0,0,0,.109-.333.265.265,0,0,0-.315-.155" transform="translate(-272.534 -439.507)"/>
    <path id="Path_1560" data-name="Path 1560" d="M354.923,637.9c.513.56,1.057,1.095,1.588,1.638l1.594,1.632c.217.222.559-.12.341-.341l-1.6-1.627c-.533-.542-1.056-1.1-1.606-1.62a.225.225,0,0,0-.317.318" transform="translate(-240.015 -431.195)"/>
    <path id="Path_1561" data-name="Path 1561" d="M135.546,580.824l.3,12.415c.05,2.017.084,4.036.15,6.053a11.653,11.653,0,0,0,1.051,5.172,4.8,4.8,0,0,0,3.815,2.756c.306.005.384-.48.074-.543a4.87,4.87,0,0,1-3.367-2.517,11.4,11.4,0,0,1-1.037-5.088c-.157-3.879-.281-7.759-.421-11.638q-.118-3.306-.238-6.611a.166.166,0,0,0-.331,0" transform="translate(-91.679 -392.741)"/>
    <path id="Path_1562" data-name="Path 1562" d="M156.892,636.3a5.926,5.926,0,0,0,3.405,5.182c.241.109.453-.244.21-.359a5.633,5.633,0,0,1-3.213-4.822.2.2,0,0,0-.4,0" transform="translate(-106.116 -430.239)"/>
    <path id="Path_1563" data-name="Path 1563" d="M611.478,154.052c1.868-2.456,5.737-3.053,7.912-.651.572.632,1.494-.3.933-.933-2.747-3.1-7.432-1.933-9.617,1.132-.338.474.431.9.772.451" transform="translate(-413.004 -101.891)"/>
    <path id="Path_1564" data-name="Path 1564" d="M676.505,153.111c1.111.056,2.22.136,3.331.192.792.04.771-1.15,0-1.219a18.349,18.349,0,0,0-3.331.025.5.5,0,0,0,0,1" transform="translate(-457.238 -102.821)"/>
    <path id="Path_1565" data-name="Path 1565" d="M563.056,160.315c1,.033,2,.07,3,.094a.586.586,0,0,0,0-1.172c-1,.024-2,.061-3,.094a.492.492,0,0,0,0,.983" transform="translate(-380.51 -107.703)"/>
    <path id="Path_1566" data-name="Path 1566" d="M555.519,53.315c7.8-.135,13.143,5.984,19.109,10.037,1.969,1.338,4.6,2.391,6.835,1.016a3.292,3.292,0,0,0,.8-5l-.75.972c1.548,1.125,3.319,2.334,5.336,2.074a3.634,3.634,0,0,0,3.2-2.7L588.945,60c2.944,3.052,7.843,1.284,8.872-2.625,1.237-4.7-2.768-8.2-6.936-9.168a77.468,77.468,0,0,0-18.51-1.617,93.716,93.716,0,0,0-18.479,2.053c-2.21.482-4.65,1.243-6.182,3.013-1.855,2.143-1.43,4.893-.823,7.437l.654-.858c-2.745-.054-4.355,2.755-4,5.261.549,3.859,4.621,6.319,4.467,10.354-.034.892,1.351.89,1.385,0,.1-2.642-1.358-4.666-2.746-6.776a8.83,8.83,0,0,1-1.789-4.116c-.092-1.612.916-3.395,2.682-3.367a.685.685,0,0,0,.654-.858c-.758-3.119-.786-5.925,2.36-7.577,2.175-1.141,4.786-1.478,7.177-1.886A96.4,96.4,0,0,1,575.783,47.9a89.494,89.494,0,0,1,8.966.613c2.824.339,6.19.522,8.711,1.976a5.958,5.958,0,0,1,3.107,6.544c-.8,2.956-4.415,4.363-6.686,2.035a.667.667,0,0,0-1.105.292c-.806,3.42-4.945,1.089-6.638-.087-.6-.417-1.2.474-.75.972,1.524,1.671-.432,3.488-2.146,3.586a6.559,6.559,0,0,1-3.82-1.329c-2.21-1.426-4.213-3.167-6.321-4.735-3.983-2.963-8.465-5.506-13.581-5.322a.435.435,0,0,0,0,.87" transform="translate(-367.6 -31.505)"/>
    <path id="Path_1567" data-name="Path 1567" d="M607.509,237.8a85.08,85.08,0,0,1,11.87-1.169.589.589,0,0,0,0-1.177,62.293,62.293,0,0,0-12.1,1.5c-.553.112-.317.949.232.843" transform="translate(-410.528 -159.256)"/>
    <path id="Path_1568" data-name="Path 1568" d="M620.359,254.351a3.8,3.8,0,0,0,3.658.052c.685-.345.079-1.395-.6-1.033a3.105,3.105,0,0,1-2.679.091c-.522-.2-.842.62-.375.89" transform="translate(-419.436 -171.32)"/>
    <path id="Path_1569" data-name="Path 1569" d="M639.5,221.258a3.278,3.278,0,0,1,.7,1.121.454.454,0,0,0,.875-.241,2.824,2.824,0,0,0-.9-1.551c-.448-.414-1.1.235-.672.672" transform="translate(-432.44 -149.107)"/>
    <path id="Path_1570" data-name="Path 1570" d="M648.025,220.211l.327.494a.468.468,0,0,0,.808-.472l-.331-.492a.466.466,0,1,0-.8.47" transform="translate(-438.257 -148.468)"/>
    <path id="Path_1571" data-name="Path 1571" d="M624.985,223.1c.111.657.2,1.321.355,1.969.159.673,1.108.371,1.012-.279s-.258-1.307-.4-1.957-1.078-.362-.971.268" transform="translate(-422.713 -150.472)"/>
    <path id="Path_1572" data-name="Path 1572" d="M611.978,220.694l-.344,1.64c-.148.706.945,1,1.08.3l.317-1.647c.131-.684-.908-.982-1.053-.29" transform="translate(-413.679 -149.004)"/>
    <path id="Path_1573" data-name="Path 1573" d="M598.794,223.484l-.162,1.479a.49.49,0,0,0,.487.487.5.5,0,0,0,.487-.487l.167-1.479a.493.493,0,0,0-.489-.489.5.5,0,0,0-.489.489" transform="translate(-404.892 -150.826)"/>
    <path id="Path_1574" data-name="Path 1574" d="M591.352,224.657a.329.329,0,0,0,0-.657.329.329,0,0,0,0,.657" transform="translate(-399.755 -151.506)"/>
    <path id="Path_1575" data-name="Path 1575" d="M655.417,217.819a.544.544,0,0,0,0-1.087.544.544,0,0,0,0,1.087" transform="translate(-442.947 -146.59)"/>
    <path id="Path_1576" data-name="Path 1576" d="M558.683,69.024q.326.683.635,1.373c.2.454.445.908.6,1.379a.246.246,0,0,0,.474-.131,7.71,7.71,0,0,0-.493-1.323c-.184-.439-.373-.872-.572-1.3-.1-.219-.463-.064-.389.164.146.447.3.89.46,1.332a7.775,7.775,0,0,0,.544,1.32l.424-.248c-.307-.4-.553-.864-.821-1.295s-.534-.871-.794-1.311c-.028-.048-.1-.006-.073.043" transform="translate(-377.871 -46.61)"/>
    <path id="Path_1577" data-name="Path 1577" d="M581.552,60.687a1.651,1.651,0,0,0,1.011,1.2.2.2,0,0,0,.247-.14,1.625,1.625,0,0,0-.029-.56,1.963,1.963,0,0,0-.168-.484c-.056-.112-.23-.033-.2.084a1.689,1.689,0,0,1,.059.433,1.741,1.741,0,0,1-.013.228c0-.03,0,.023,0,.027l-.009.046c-.008.04-.018.08-.025.12l.247-.14c-.049-.02.038.018-.009,0l-.035-.017-.075-.039a1.576,1.576,0,0,1-.143-.093c-.042-.03.032.027-.008-.006l-.03-.025c-.022-.018-.043-.038-.063-.057a1.471,1.471,0,0,1-.116-.125s-.031-.039-.013-.016-.009-.012-.012-.017c-.018-.025-.036-.051-.052-.077a1.424,1.424,0,0,1-.082-.149c-.006-.012-.011-.024-.016-.035s.013.034,0,0-.02-.053-.029-.08a1.391,1.391,0,0,1-.045-.173.2.2,0,0,0-.247-.14.206.206,0,0,0-.14.247" transform="translate(-393.338 -40.874)"/>
    <path id="Path_1578" data-name="Path 1578" d="M584,54.609a19.692,19.692,0,0,1,1.083,1.753c.117.219.5.069.409-.172a11.532,11.532,0,0,1-.843-3.073l-.341.092q1.519,1.993,3.038,3.987c.164.215.6.105.486-.205-.617-1.655-2.188-2.851-2.477-4.642l-.1.251c.267-.128.576.338.713.5l.544.647q.564.67,1.124,1.343c.76.912,1.5,1.841,2.285,2.735.2.226.507-.022.461-.269a5.073,5.073,0,0,0-1.206-2.4c-.117-.133-.354.045-.249.192a5.405,5.405,0,0,1,.922,2.357l.461-.269c-.883-1.069-1.814-2.1-2.722-3.148q-.672-.775-1.338-1.555c-.311-.362-.717-.765-1.221-.517a.228.228,0,0,0-.1.251c.253,1.791,1.735,3.041,2.392,4.665l.445-.259q-1.58-1.947-3.168-3.886a.185.185,0,0,0-.312.129,9.022,9.022,0,0,0,.8,3.245l.351-.271a19.713,19.713,0,0,1-1.334-1.56c-.045-.057-.141.017-.1.077" transform="translate(-394.99 -35.265)"/>
    <path id="Path_1579" data-name="Path 1579" d="M595.96,55.248c.955,1.388,1.895,2.787,2.853,4.173a24.373,24.373,0,0,0,2.771,3.715A.311.311,0,0,0,602.1,63c.149-.964-.588-1.752-1.1-2.492q-.921-1.328-1.853-2.649c-.153-.219-.511-.019-.363.212.512.8,1.022,1.6,1.538,2.4.245.378.491.754.734,1.133a1.963,1.963,0,0,1,.44,1.314l.526-.218a25.519,25.519,0,0,1-2.919-3.624c-.986-1.313-1.99-2.612-2.979-3.923-.072-.095-.234-.006-.163.1" transform="translate(-403.075 -37.276)"/>
    <path id="Path_1580" data-name="Path 1580" d="M598.088,48.84a62.226,62.226,0,0,0,8.865,11.838l.5-.5a25.738,25.738,0,0,1-4.3-5.518c-1.2-2-2.3-4.086-3.293-6.2l-.447.261c3.09,4.126,6.211,8.247,9.652,12.09q1.477,1.651,3.041,3.219c.275.275.79-.09.555-.428-3.48-4.981-7.082-9.876-10.57-14.853l-.374.374a13.726,13.726,0,0,1,2.759,3.208l2.744,3.746q2.744,3.746,5.479,7.5c.251.343.8.046.582-.34q-2.21-3.892-4.478-7.754c-1.514-2.57-3.076-5.119-4.534-7.721l-.371.217c3.613,5.22,7.218,10.455,10.921,15.611.226.315.752.017.527-.308-3.627-5.217-7.36-10.367-11.076-15.52-.159-.22-.515-.027-.371.217,1.509,2.574,2.919,5.21,4.373,7.815s2.934,5.2,4.429,7.782l.582-.34q-2.868-3.858-5.734-7.718l-2.863-3.862a12.933,12.933,0,0,0-2.691-3c-.219-.157-.529.155-.374.374,3.513,4.953,6.911,9.986,10.432,14.933l.555-.428a116.95,116.95,0,0,1-10.077-11.616c-.908-1.165-1.806-2.338-2.71-3.507-.189-.245-.528.067-.406.314,1.055,2.145,2.024,4.323,3.253,6.379a27.33,27.33,0,0,0,4.285,5.576.354.354,0,0,0,.5-.5c-1.672-1.77-3.311-3.558-4.819-5.473-1.524-1.933-2.956-3.945-4.305-6a.14.14,0,0,0-.241.141" transform="translate(-404.512 -32.239)"/>
    <path id="Path_1581" data-name="Path 1581" d="M623.66,49.419a112.906,112.906,0,0,0,9.38,15.07.342.342,0,0,0,.59-.345c-2.849-5.119-5.406-10.382-7.926-15.668l-.537.314c3.194,4.838,6.293,9.739,9.523,14.553a.338.338,0,0,0,.624-.169,1.375,1.375,0,0,0-.667-1.15,4.073,4.073,0,0,1-1.233-1.26A17.268,17.268,0,0,1,632.6,58.9l-.852-2.081-3.469-8.474-.554.234q4.07,6.655,8.121,13.321a.322.322,0,0,0,.555-.324,127.967,127.967,0,0,1-5.863-13l-.549.231c2.591,3.923,5.034,7.944,7.381,12.017l.571-.334a56.285,56.285,0,0,1-5.234-11.427l-.56.236c2.108,4.08,4.336,8.082,6.832,11.94a.316.316,0,0,0,.545-.319q-2.353-5.435-4.977-10.74l-.413.241c1.286,1.939,2.5,3.925,3.748,5.888l3.75,5.886a.313.313,0,0,0,.539-.315c-1.651-3.823-3.343-7.63-5.017-11.443l-.529.309c2.529,3.973,5.031,7.964,7.544,11.947a.347.347,0,0,0,.6-.35c-1.007-2.087-2.057-4.155-3.086-6.231a39.868,39.868,0,0,1-2.622-6.1l-.548.231a110.686,110.686,0,0,1,7.251,11.8l.578-.338c-1.268-2.169-2.553-4.329-3.834-6.49-1.158-1.954-2.5-3.923-2.9-6.2l-.541.228a112.565,112.565,0,0,1,7.615,12.464c.2.357.746.038.548-.32a77.114,77.114,0,0,1-5.259-11.459l-.462.269a54.077,54.077,0,0,1,6,10.378c.188.389.752.049.576-.337a88.739,88.739,0,0,1-3.876-9.711l-.576.243q2.6,4.432,4.8,9.084c.164.349.745.1.624-.263-.89-2.678-1.809-5.346-2.724-8.015l-.56.236a27.992,27.992,0,0,1,3.24,6.464.357.357,0,0,0,.687-.189q-.745-2.758-1.5-5.515l-.618.261c.71,1.337,1.408,2.68,2.11,4.02.176.335.754.1.62-.261a7.07,7.07,0,0,1-.437-2.541l-.584.242q1.043,1.157,2.085,2.313c.3.33.785-.159.488-.488q-1.043-1.155-2.089-2.309a.346.346,0,0,0-.584.242,7.62,7.62,0,0,0,.466,2.721l.621-.262c-.705-1.339-1.415-2.675-2.113-4.018a.34.34,0,0,0-.618.261q.727,2.763,1.46,5.524l.687-.189a29.729,29.729,0,0,0-3.4-6.584c-.184-.274-.674-.112-.56.236.878,2.68,1.754,5.361,2.657,8.034l.624-.263q-2.219-4.636-4.848-9.058c-.178-.3-.69-.105-.576.243a75.291,75.291,0,0,0,3.908,9.88l.576-.337a54.686,54.686,0,0,0-6.188-10.433c-.172-.213-.555.016-.462.269a80.691,80.691,0,0,0,5.244,11.633l.548-.32a122.746,122.746,0,0,0-7.653-12.442.3.3,0,0,0-.54.228c.378,2.281,1.687,4.269,2.83,6.231,1.292,2.217,2.582,4.435,3.893,6.641a.335.335,0,0,0,.578-.338,120.437,120.437,0,0,0-7.312-11.767c-.185-.264-.651-.114-.548.231a40.908,40.908,0,0,0,2.571,6.122c1.038,2.133,2.056,4.276,3.116,6.4l.6-.35c-2.539-3.968-5.09-7.928-7.613-11.907a.306.306,0,0,0-.529.309c1.667,3.817,3.316,7.643,5.006,11.45l.539-.315-3.811-5.851c-1.271-1.951-2.579-3.875-3.813-5.849a.239.239,0,0,0-.413.241q2.477,5.384,4.845,10.818l.545-.319a109.5,109.5,0,0,1-6.848-11.931c-.152-.314-.661-.094-.56.236a50.4,50.4,0,0,0,5.254,11.6.331.331,0,0,0,.571-.334c-2.373-4.06-4.87-8.043-7.433-11.986-.175-.27-.675-.1-.549.231A119.257,119.257,0,0,0,635.848,61.9l.555-.324q-4.068-6.656-8.152-13.3c-.171-.28-.689-.1-.554.234l3.4,8.326c.53,1.3,1.008,2.633,1.61,3.9a3.981,3.981,0,0,0,1,1.382c.326.271.973.566.938,1.059l.625-.169c-3.132-4.879-6.4-9.673-9.564-14.529a.311.311,0,0,0-.537.314c2.488,5.3,4.952,10.625,7.873,15.7l.59-.345A112.273,112.273,0,0,1,623.95,49.25c-.1-.191-.39-.022-.29.169" transform="translate(-421.808 -32.558)"/>
    <path id="Path_1582" data-name="Path 1582" d="M548.009,77.441q2.165,3.02,4.28,6.072a.253.253,0,0,0,.437-.255c-2.176-3.962-4.316-7.964-6.19-12.079l-.377.22a61.062,61.062,0,0,1,5.724,9.652c.169.357.671.045.523-.306l-2.392-5.66q-.582-1.377-1.177-2.748c-.431-1-.918-1.97-1.336-2.971l-.346.146c1.653,3.163,3.274,6.343,4.917,9.512.194.374.747.045.563-.329a61.844,61.844,0,0,1-4.33-11.1l-.48.2a38.845,38.845,0,0,1,4.017,7.927.337.337,0,0,0,.65-.179c-.914-3.677-1.949-7.325-2.949-10.981l-.49.135c.79,2.036,1.49,4.108,2.253,6.154.109.293.637.284.595-.081a52.124,52.124,0,0,0-1.572-7.994L549.8,63c.785,1.722,1.544,3.456,2.309,5.187.152.345.642.086.577-.243q-.674-3.4-1.349-6.8l-.519.219c.84,1.443,1.635,2.914,2.449,4.372a.292.292,0,0,0,.54-.146,11.878,11.878,0,0,0-.407-4.05.229.229,0,0,0-.442.122,12.713,12.713,0,0,1,.27,3.928l.54-.146c-.821-1.454-1.663-2.9-2.459-4.366-.164-.3-.569-.081-.519.219q.567,3.422,1.288,6.816l.577-.243c-.79-1.717-1.586-3.432-2.356-5.159-.135-.3-.609-.085-.527.222a56.44,56.44,0,0,1,1.522,7.841l.595-.081c-.77-2.047-1.6-4.071-2.347-6.128a.254.254,0,0,0-.49.135c.913,3.678,1.791,7.368,2.789,11.025l.65-.179a43.9,43.9,0,0,0-4.214-8.013.264.264,0,0,0-.48.2,56.373,56.373,0,0,0,4.273,11.295l.563-.329c-1.714-3.127-3.45-6.241-5.153-9.373-.12-.22-.419-.026-.327.191.412.974.757,1.979,1.157,2.958q.58,1.421,1.171,2.839l2.371,5.669.553-.233a65.639,65.639,0,0,0-5.869-9.567.219.219,0,0,0-.377.22c1.934,4.1,3.9,8.165,6.13,12.114l.437-.255q-2.268-2.958-4.484-5.953c-.1-.137-.335-.006-.233.136" transform="translate(-369.385 -41.21)"/>
    <path id="Path_1583" data-name="Path 1583" d="M566.021,57.522a11.036,11.036,0,0,0,.908,3.371.316.316,0,0,0,.585-.158,12.509,12.509,0,0,1,.013-1.683,8.625,8.625,0,0,1,.234-1.719l-.413-.056a10.53,10.53,0,0,0,.919,3.876.314.314,0,0,0,.569-.074,12.263,12.263,0,0,0,.243-3.982l-.614.083c.368,1.052.721,2.108,1.078,3.164a.308.308,0,0,0,.588,0,8.363,8.363,0,0,0,.374-2.631l-.444.184a3.051,3.051,0,0,1,.876,1.174.274.274,0,0,0,.243.139.626.626,0,0,0,.557-.35,5.185,5.185,0,0,1,.292-.647c.169.141.479-.045.33-.255a.479.479,0,0,0-.71-.087.8.8,0,0,0-.266.346c-.033.077-.106.427-.2.431l.243.139a3.429,3.429,0,0,0-.994-1.259.264.264,0,0,0-.444.184,9.893,9.893,0,0,1-.442,2.468h.588c-.357-1.055-.718-2.109-1.064-3.168-.1-.317-.642-.285-.614.083a14.781,14.781,0,0,1-.219,3.816l.569-.074a10.634,10.634,0,0,1-1.043-3.618.212.212,0,0,0-.406,0c-.089.591-.231,1.173-.313,1.766s-.116,1.164-.156,1.749l.616-.083a20.567,20.567,0,0,1-1.017-3.192c-.055-.256-.5-.2-.464.063" transform="translate(-382.836 -38.415)"/>
    <path id="Path_1584" data-name="Path 1584" d="M150.767,85.517a85.032,85.032,0,0,1,15.936-27.7A65.914,65.914,0,0,1,193.2,39.28a57.417,57.417,0,0,1,16.119-3.5q2.059-.136,4.125-.113.979.011,1.957.059c.472.023,1.317.252,1.735.022.192-.106.389-.477.531-.655q.281-.351.566-.7.6-.734,1.225-1.451,1.244-1.433,2.562-2.8A74.136,74.136,0,0,1,246.982,13.18,73.388,73.388,0,0,1,276.4,7.5c1.232.024,2.465.077,3.7.15.477.028.468-.7,0-.738a71.3,71.3,0,0,0-27.88,3.521A76.123,76.123,0,0,0,227.65,23.919a70.594,70.594,0,0,0-11.031,11.373l.3-.174a59.336,59.336,0,0,0-34.107,8.424,71.266,71.266,0,0,0-24.164,24.264,87.521,87.521,0,0,0-8.213,17.621c-.071.208.256.3.328.091" transform="translate(-101.745 -4.531)"/>
    <path id="Path_1585" data-name="Path 1585" d="M8.228,321.4c-.141.165.036.435.108.6.169.377.353.747.536,1.117.684,1.385,1.449,2.737,2.2,4.089,2.2,3.981,4.448,7.936,6.7,11.887,2.041,3.582,4.087,7.162,6.174,10.717.507.864,1.013,1.729,1.549,2.575a.945.945,0,0,1,.24.7,1.286,1.286,0,0,1-.408.563c-.4.4-.824.777-1.235,1.165l-1.257,1.185-.572.539-.229.216-.228.215q-.081.143-.122.025c-.175-.082-.353-.452-.467-.6l-.449-.587q-.491-.645-.976-1.295c-.644-.862-1.275-1.733-1.918-2.6-4.943-6.642-9.522-13.546-15.145-19.653Q1.671,331.1.574,330l.052.406a51.185,51.185,0,0,1,8-8.612c.365-.31-.169-.849-.528-.528a57.8,57.8,0,0,0-8.05,8.8.337.337,0,0,0,.052.406c6,6.026,10.866,13,15.815,19.877,1.241,1.724,2.482,3.448,3.76,5.146q.466.619.937,1.234c.243.317.5.823.895.965.423.151.738-.2,1.015-.463l1.258-1.184,1.144-1.077a11.058,11.058,0,0,0,1.181-1.162,1.447,1.447,0,0,0-.063-1.855c-.226-.352-.441-.71-.656-1.068-1.91-3.174-3.752-6.39-5.6-9.6q-3.574-6.2-7.1-12.428-1.355-2.386-2.705-4.774c-.465-.826-.979-1.638-1.4-2.488-.077-.159.01-.068-.062.029.127-.172-.158-.392-.3-.229" transform="translate(0 -217.226)"/>
    <path id="Path_1586" data-name="Path 1586" d="M74.255,440.279a4.516,4.516,0,0,0,4,1.8,4.616,4.616,0,0,0,3.653-2.322,4.272,4.272,0,0,0-.977-5.229,5.692,5.692,0,0,0-6.563-.347,3.132,3.132,0,0,0-1.576,2.916,6.373,6.373,0,0,0,1.291,3.285c.312.417,1.022.008.706-.413-.989-1.315-1.875-3.475-.436-4.784a4.948,4.948,0,0,1,5.748-.372,3.613,3.613,0,0,1,1.32,4.46,3.941,3.941,0,0,1-2.874,2.178,4.041,4.041,0,0,1-3.964-1.423c-.146-.182-.47.064-.327.252" transform="translate(-49.228 -293.073)"/>
    <path id="Path_1587" data-name="Path 1587" d="M5.659,330.322q-.229,1.973-.463,3.945c-.038.314.454.36.537.073a44.589,44.589,0,0,1,2.142-6.158l-.485-.2a43.62,43.62,0,0,0-.855,6.867.321.321,0,0,0,.627.085,64.591,64.591,0,0,1,2.368-8.472l-.514-.07A90.812,90.812,0,0,1,7.5,337.249l.656.181a83.979,83.979,0,0,1,3.4-12.972l-.625-.084c-.549,4.627-1.243,9.242-1.87,13.86-.06.443.571.653.694.191q1.543-5.834,2.963-11.706l-.543-.073c-.522,4.764-1.114,9.52-1.651,14.283-.045.4.639.5.712.1a70.218,70.218,0,0,1,2.685-10.392l-.507-.069c-.2,3.932-.584,7.861-.885,11.786-.031.407.585.466.695.094.964-3.29,1.754-6.629,2.708-9.921l-.516-.07c-.324,4.256-.751,8.51-1.363,12.734-.066.453.614.662.7.194a36.74,36.74,0,0,1,2.917-8.956l-.624-.169c-.15,3.455-.462,6.911-.7,10.361-.029.417.679.522.74.1a24.016,24.016,0,0,1,2.567-7.956l-.572-.155c-.025,1.813-.206,3.639-.367,5.445-.164,1.832-.363,3.662-.611,5.485-.064.467.6.69.732.2.71-2.685,1.261-5.628,2.931-7.917l-.413-.112q-.122,2.315-.4,4.617c-.191,1.561-.5,3.095-.778,4.64-.081.443.57.639.686.189A35.561,35.561,0,0,1,22.9,345.17l-.548-.148a46.9,46.9,0,0,1-.715,9.856l.684.093a25.886,25.886,0,0,1,1.754-7.883l-.55-.074a42.143,42.143,0,0,1-.7,8.481l.67.091c.064-.951.164-1.9.32-2.843a26.16,26.16,0,0,1,.5-2.762.227.227,0,0,0-.438-.121,27.293,27.293,0,0,0-.756,2.852,24.543,24.543,0,0,0-.308,2.874c-.018.377.611.475.67.091a60.513,60.513,0,0,0,.6-8.663c0-.34-.436-.348-.55-.074a25.365,25.365,0,0,0-1.911,8.032c-.027.387.614.481.684.093a44.5,44.5,0,0,0,.631-10.041c-.013-.265-.419-.434-.548-.148-.439.979-.9,1.943-1.258,2.955q-.553,1.546-.965,3.136l.686.189c.289-1.542.455-3.113.617-4.673q.247-2.38.32-4.773a.224.224,0,0,0-.413-.112,17.234,17.234,0,0,0-2.019,3.754,34.4,34.4,0,0,0-1.261,4.186l.745.1c.208-1.832.391-3.667.532-5.506s.186-3.685.315-5.525a.309.309,0,0,0-.572-.155,22.307,22.307,0,0,0-2.776,8.166H17.1c.2-3.451.33-6.916.62-10.361a.338.338,0,0,0-.624-.169,29.7,29.7,0,0,0-3.041,9.1l.716.1c.487-4.269.9-8.542,1.172-12.831.019-.3-.438-.35-.516-.07-.909,3.305-1.984,6.565-2.884,9.873l.695.094c.225-3.926.366-7.868.695-11.786.026-.311-.411-.32-.507-.069a55.883,55.883,0,0,0-2.886,10.336l.712.1c.507-4.759.958-9.525,1.479-14.283.035-.316-.462-.366-.543-.073q-1.613,5.814-3.123,11.662l.706.1c.593-4.622,1.119-9.259,1.789-13.871a.318.318,0,0,0-.614-.169A70.865,70.865,0,0,0,7.5,337.249c-.073.427.578.614.656.181a97.365,97.365,0,0,0,1.386-11.042c.021-.31-.42-.333-.514-.069a64.145,64.145,0,0,0-2.479,8.441l.627.085a44.079,44.079,0,0,1,.728-6.726c.05-.272-.358-.5-.485-.2a38.343,38.343,0,0,0-2.212,6.28l.537.073q.139-1.973.285-3.945c.018-.24-.342-.231-.369,0" transform="translate(-3.513 -219.186)"/>
    <path id="Path_1588" data-name="Path 1588" d="M63.872,403.878c-.109,1.279-.163,2.578-.354,3.847l.461.062a13.559,13.559,0,0,1,1.74-6.374l-.379-.1c-.136,1.508-.336,3.013-.506,4.518-.173,1.527-.339,3.054-.551,4.576l.71.1a17.554,17.554,0,0,1,.257-4.041,13.153,13.153,0,0,1,1.194-3.906l-.31-.084a39.318,39.318,0,0,1-1.564,8.892l.693.191a14.55,14.55,0,0,1,2.059-5.811l-.584-.158A9.883,9.883,0,0,1,66.5,408.5l.643.177a3.862,3.862,0,0,1,.774-1.726l-.541-.07a.986.986,0,0,1,.19.819c-.093.437.58.623.67.185a1.658,1.658,0,0,0-.266-1.351.348.348,0,0,0-.54-.07A4.429,4.429,0,0,0,66.5,408.5c-.07.415.551.6.643.177a10.711,10.711,0,0,0,.225-3.093.316.316,0,0,0-.584-.158,14.77,14.77,0,0,0-2.224,6.032c-.05.411.6.474.706.1a30.159,30.159,0,0,0,1.2-9.083c-.005-.149-.241-.246-.31-.084A23.5,23.5,0,0,0,64.67,406.3a16.005,16.005,0,0,0-.4,4.2.362.362,0,0,0,.723,0c.237-3.063.478-6.131.754-9.19.019-.21-.281-.264-.379-.1a11.588,11.588,0,0,0-1.858,6.579c.02.3.475.3.469,0-.028-1.3.084-2.61.139-3.909.007-.16-.233-.156-.246,0" transform="translate(-42.943 -271.3)"/>
    <path id="Path_1589" data-name="Path 1589" d="M77.089,436.2a12.021,12.021,0,0,0-.78,4.1c-.006.28.427.423.553.149a26.937,26.937,0,0,0,1.5-5.477c.057-.25-.321-.444-.437-.184a21.932,21.932,0,0,0-1.427,4.973.336.336,0,0,0,.647.179,47.6,47.6,0,0,1,2.131-5.846l-.49.063c.377.325.161.91.051,1.316l-.48,1.784-.959,3.567.667.184a18.494,18.494,0,0,1,2.889-6.7l-.534-.145a20.137,20.137,0,0,1-1.6,7.021l.646.178a17.553,17.553,0,0,1,2.92-5.9l-.536-.226a64.339,64.339,0,0,1-1.722,7.058l.695.192a15.022,15.022,0,0,1,2.61-5.964l-.514-.213a18.472,18.472,0,0,1-.643,4.641.338.338,0,0,0,.651.18,4.3,4.3,0,0,1,.936-1.564h-.5a.822.822,0,0,1,.236.593.357.357,0,0,0,.714,0,1.561,1.561,0,0,0-.448-1.1.359.359,0,0,0-.5,0,4.751,4.751,0,0,0-1.085,1.886l.651.18a21.08,21.08,0,0,0,.594-4.821.3.3,0,0,0-.561-.151,14.377,14.377,0,0,0-2.832,6.137c-.076.449.584.65.695.192.571-2.359,1.073-4.724,1.593-7.094.057-.261-.29-.528-.49-.285a15.654,15.654,0,0,0-3.105,6.075.335.335,0,0,0,.646.178,23.246,23.246,0,0,0,1.524-7.2c.018-.311-.382-.352-.534-.145a17.416,17.416,0,0,0-3.061,6.81c-.088.432.557.619.667.184l1.065-4.2a17.593,17.593,0,0,0,.439-1.834,1.337,1.337,0,0,0-.342-1.253.315.315,0,0,0-.49.063,34.481,34.481,0,0,0-2.239,5.982l.647.179a37.849,37.849,0,0,1,1.217-4.968l-.469-.064a20.876,20.876,0,0,1-1.576,5.312l.584.079a10.565,10.565,0,0,1,.619-3.985c.1-.275-.33-.384-.433-.119" transform="translate(-51.613 -293.292)"/>
    <path id="Path_1590" data-name="Path 1590" d="M473.946,267.554a16.379,16.379,0,0,1-.681,4.9,4.466,4.466,0,0,1-.919,2.041c-.065.06-.315.266-.419.192s-.009-.245.029-.315a.626.626,0,0,1,.815-.276,2.708,2.708,0,0,1,1.164,1.508,8.03,8.03,0,0,1,.552,1.821,8.913,8.913,0,0,1-.14,3.775,8.568,8.568,0,0,1-2.034,3.756h.559a.765.765,0,0,1,.083-1.2l-.541-.142a12.9,12.9,0,0,1,1.613,7.218c-.027.463.658.443.709,0a12.7,12.7,0,0,0-1.64-7.617.4.4,0,0,0-.54-.142,1.56,1.56,0,0,0-.243,2.44.4.4,0,0,0,.559,0,9.522,9.522,0,0,0,2.017-9.233,6.54,6.54,0,0,0-1.057-2.145,1.533,1.533,0,0,0-1.979-.557c-.48.306-.892,1.142-.349,1.6.6.5,1.374-.321,1.629-.8a10.941,10.941,0,0,0,.911-3.286,19.41,19.41,0,0,0,.239-3.538.168.168,0,0,0-.336,0" transform="translate(-318.734 -180.855)"/>
    <path id="Path_1591" data-name="Path 1591" d="M267.6,348.273c.806-.289,1.581-.706,2.359-1.063s1.585-.725,2.368-1.107c.307-.15.039-.588-.265-.453-.783.348-1.556.716-2.33,1.083s-1.58.685-2.312,1.113c-.222.13-.076.52.18.428" transform="translate(-180.796 -233.768)"/>
    <path id="Path_1592" data-name="Path 1592" d="M277.8,377.757a6.363,6.363,0,0,0,3.619,1.614c.305.014.336-.42.069-.511-.577-.2-1.171-.375-1.729-.62a7.776,7.776,0,0,1-1.6-.948c-.264-.2-.616.25-.358.464" transform="translate(-187.836 -255.154)"/>
    <path id="Path_1593" data-name="Path 1593" d="M275.947,411.169a7.089,7.089,0,0,0,2.844,3.361c.364.223.7-.355.334-.572a6.453,6.453,0,0,1-2.638-3.017c-.13-.3-.667-.083-.54.228" transform="translate(-186.628 -277.848)"/>
    <path id="Path_1594" data-name="Path 1594" d="M265.784,328.859c.742-.945,1.481-1.891,2.2-2.852.166-.221-.211-.515-.386-.3-.753.936-1.488,1.886-2.221,2.837-.177.229.224.542.4.312" transform="translate(-179.464 -220.247)"/>
    <path id="Path_1595" data-name="Path 1595" d="M552.869,480.112a90.588,90.588,0,0,0,.1,27.207c.125.8.138,2.2,1.049,2.568.683.276,1.627-.456,1.18-1.177a.348.348,0,0,0-.47-.123A8.974,8.974,0,0,0,551,514.013a8.789,8.789,0,0,0,1.065,6.449,8.5,8.5,0,0,0,2.618,2.738c.376.248.7-.341.348-.6a8.4,8.4,0,0,1-3.523-6.723,8.283,8.283,0,0,1,3.567-6.7l-.47-.123c.065.1-.14.216-.238.221-.162.008-.272-.138-.349-.262a3.574,3.574,0,0,1-.319-1.25q-.254-1.47-.461-2.948-.417-2.995-.63-6.014a94.267,94.267,0,0,1-.1-11.935q.187-3.371.625-6.721c.019-.149-.242-.186-.265-.036" transform="translate(-372.534 -324.666)"/>
    <path id="Path_1596" data-name="Path 1596" d="M720.668,623.461a10.4,10.4,0,0,1,.04,9.367c-.16.322.319.607.486.284a10.614,10.614,0,0,0-.167-9.861c-.129-.236-.483-.027-.359.21" transform="translate(-487.418 -421.475)"/>
    <path id="Path_1597" data-name="Path 1597" d="M741.2,647.687q-.572,1.412-1.142,2.824a.226.226,0,0,0,.157.276.23.23,0,0,0,.276-.157c.385-.94.765-1.882,1.147-2.823a.228.228,0,0,0-.158-.279.233.233,0,0,0-.279.159" transform="translate(-500.543 -437.96)"/>
    <path id="Path_1598" data-name="Path 1598" d="M260.075,642.366a9.793,9.793,0,0,1-1.677,7.053c-.232.332.305.634.539.315a9.381,9.381,0,0,0,1.557-7.483c-.06-.278-.461-.155-.419.116" transform="translate(-174.733 -434.289)"/>
    <path id="Path_1599" data-name="Path 1599" d="M94.726,597.065a21.515,21.515,0,0,0,2.708,14.323.265.265,0,0,0,.457-.267,21.818,21.818,0,0,1-2.8-13.954c.034-.24-.331-.347-.369-.1" transform="translate(-63.89 -403.74)"/>
    <path id="Path_1600" data-name="Path 1600" d="M84.527,633.841q.564,1.7,1.147,3.39c.077.222.429.13.356-.1q-.546-1.7-1.116-3.4c-.082-.244-.469-.14-.387.107" transform="translate(-57.164 -428.542)"/>
  </g>
</svg>
