<?xml version="1.0" encoding="UTF-8"?>
<svg id="Layer_1" data-name="Layer 1" xmlns="http://www.w3.org/2000/svg" viewBox="0 0 1204.44 907.44">
  <defs>
    <style>
      .cls-1 {
        fill: #edff36;
      }

      .cls-2 {
        fill: #fff;
      }

      .cls-3 {
        fill: #161616;
      }
    </style>
  </defs>
  <g>
    <path class="cls-2" d="m210.4,310.67c13.94-16.45,27.89-32.91,41.83-49.36.81-.96,1.67-2.06,1.55-3.31-.1-1-.8-1.81-1.47-2.55-10.39-11.51-20.78-23.01-31.17-34.52,22.63-22.07,52.66-37.09,80-52.56,15.93-9.01,32-17.76,48.22-26.24,8.11-4.24,16.26-8.38,24.42-12.53,5.38-2.73,12.03-8.59,17.89-9.57-3.79,31.71-17.97,65.4-29.24,95.19-5.97,15.79-12.43,31.39-19.36,46.78-6.16,13.67-12.03,32-21.69,43.32-12.35-5.57-23.94-13.03-36.37-18.62-12.8,17.18-24.74,35-35.74,53.38-3.18-2.4-38.73-28.88-38.86-29.42Z"/>
    <path d="m211.5,311.77c7.23-8.43,14.47-16.85,21.67-25.31,3.6-4.23,7.2-8.46,10.79-12.7,3.39-3.99,7.39-7.87,10.31-12.21,1.29-1.91,1.66-3.73.52-5.84-2.14-3.96-6.64-7.56-9.65-10.91-7.56-8.4-15.12-16.8-22.69-25.21v2.63c23.08-22.18,52.04-36.61,79.67-52.17,15.38-8.66,30.86-17.11,46.5-25.3,8.1-4.25,16.25-8.41,24.4-12.58,6.33-3.24,12.13-8.68,19.17-10.24l-2.51-1.92c-4.22,33.53-17.95,65.16-29.92,96.47-6.25,16.36-13.36,32.3-20.25,48.4-5.67,13.25-10.36,27.64-19.69,38.88l2.66-.34c-12.38-5.71-23.94-13.01-36.32-18.71-1.23-.57-2.34-.26-3.14.82-12.83,17.18-24.74,34.98-35.78,53.36l3.2-.84c-6.57-4.94-13.17-9.84-19.74-14.78-4.12-3.09-8.23-6.19-12.34-9.3-1.44-1.09-2.89-2.18-4.32-3.3-.4-.32-2.15-1.9-1.65-1.18-1.68-2.41-5.67-.11-3.97,2.32,1.3,1.85,3.7,3.19,5.47,4.54,4.24,3.27,8.51,6.49,12.79,9.71,7.13,5.36,14.28,10.68,21.41,16.03,1.02.77,2.61.15,3.2-.84,11.04-18.37,22.97-36.17,35.71-53.4l-3.14.82c12.42,5.64,24.02,12.87,36.42,18.53.82.38,2.01.45,2.66-.34,9.06-10.99,13.91-24.61,19.3-37.61,6.9-16.64,14.33-33.03,20.78-49.87,12.36-32.26,26.33-64.83,30.64-99.38.17-1.36-1.4-2.16-2.51-1.92-6.7,1.49-11.89,6.24-17.77,9.46-8.21,4.5-16.73,8.47-25.03,12.81-16.21,8.49-32.26,17.28-48.2,26.27-27.92,15.76-57.06,30.44-80.32,52.94-.75.72-.67,1.9,0,2.63,6.5,7.18,13.01,14.36,19.51,21.54,3.04,3.35,6.07,6.7,9.11,10.05,1.67,1.85,3.53,3.42,2.53,6.22-.7,1.96-3.7,4.38-5.06,5.99-12.23,14.48-24.44,28.99-36.61,43.53-1.27,1.52.89,3.73,2.2,2.2Z"/>
  </g>
  <path d="m218.66,303.88c.74,4.86,1.32,9.75,2.14,14.6.05.3.41.55.71.54,1.52-.06,1.71-1.6,1.71-2.82,0-2.29-.07-4.58-.12-6.86-.12-4.74-.26-9.47-.23-14.22l-.66.09c1.75,9.06,3.91,18.03,5.82,27.06.2.93,1.67.72,1.65-.22-.32-11.57-1.24-23.14-1.99-34.69l-1.11.15c3.44,13.99,6.13,28.16,9.63,42.14.23.92,1.71.74,1.67-.23-.42-10.19-1.4-20.37-3.2-30.41-.07-.38-.73-.3-.69.09,1.25,10.07,2.06,20.17,2.18,30.32l1.67-.23c-3.1-14.06-7.01-27.94-10.18-41.99-.14-.62-1.14-.49-1.11.15.4,11.56.63,23.15,1.45,34.69l1.65-.22c-2.29-8.92-4.34-17.91-6.79-26.79-.1-.36-.66-.29-.66.09.02,3.84-.05,7.68-.17,11.52-.03,1.01,0,10.9-.51,10.91l.71.54c-.72-4.85-1.67-9.67-2.46-14.51-.12-.72-1.21-.41-1.1.3h0Z"/>
  <path d="m235.11,283.82c2.46,17.61,5.38,35.19,9.32,52.53.23,1.01,1.86.8,1.81-.25-.41-8.53-1.08-17.05-1.61-25.57s-1.05-16.88-1.53-25.32c-.28-4.88-.55-9.76-.82-14.65l-1.46.2c3.33,20.11,6.63,40.22,9.9,60.34l1.99-.55c-3.75-18.07-5.46-36.44-4.75-54.89.2-5.2.59-10.4,1.16-15.57h-1.8c2.13,20.51,5.16,40.96,9.54,61.12.25,1.14,2.06.88,2.03-.27-.7-27.28-1.4-54.6-4.04-81.78-.74-7.61-1.71-15.19-2.77-22.76l-1.75.48c3.48,22.98,6.96,45.95,10.43,68.93.98,6.51,1.96,13.01,2.94,19.52.19,1.25,2.28.96,2.21-.3-.74-12.75-1.38-25.51-1.67-38.28-.29-12.77-.26-25.54-.17-38.32.05-7.3.19-14.59.53-21.89h-1.58c1.69,25.09,3.48,50.18,5.22,75.27.5,7.15.99,14.29,1.49,21.44.1,1.39,2.2,1.43,2.19,0-.05-16.78-.26-33.57.05-50.35.31-16.76,1.01-33.52,2.54-50.21.87-9.51,2.02-19,3.49-28.44l-1.95-.26c1.13,29.19,2.14,58.39,3.21,87.58.3,8.23.59,16.47.89,24.7.05,1.51,2.33,1.52,2.35,0,.44-30.57.74-61.21,4.56-91.59,1.08-8.56,2.4-17.08,4.08-25.55l-2.04-.28c.08,30.31-.16,60.63,1.84,90.9.56,8.54,1.26,17.08,2.21,25.58.18,1.6,2.46,1.67,2.55,0,1.74-31.46,3.5-62.97,7.6-94.23,1.17-8.97,2.57-17.9,4.21-26.8l-1.97-.27c-.77,31.36-1.25,62.7-.83,94.06.12,8.79.25,17.59.5,26.37.05,1.64,2.6,1.64,2.55,0-.89-31.35-1.26-62.7-.81-94.06.13-8.79.29-17.58.59-26.37.04-1.11-1.75-1.39-1.97-.27-6.08,31.23-8.9,62.93-10.87,94.65-.56,8.97-1.06,17.94-1.56,26.92h2.55c-3.39-30.15-4.29-60.45-4.49-90.77-.06-8.57-.08-17.14-.04-25.71,0-1.14-1.8-1.45-2.04-.28-6.19,30.08-7.89,60.82-8.58,91.46-.2,8.74-.31,17.49-.4,26.23h2.35c-1.18-29.19-2.33-58.39-3.5-87.58-.33-8.23-.66-16.47-.97-24.7-.04-1.06-1.76-1.42-1.95-.26-2.62,16.64-4.22,33.43-5.15,50.24-.93,16.84-1.22,33.7-1.3,50.56-.04,9.58,0,19.16.08,28.74h2.19c-1.9-25.09-3.8-50.18-5.7-75.27-.54-7.15-1.08-14.29-1.64-21.44-.08-1-1.54-1.03-1.58,0-.46,12.77-.98,25.53-1.03,38.31s.18,25.55.62,38.31c.25,7.29.58,14.59,1.04,21.87l2.21-.3c-3.59-22.95-7.18-45.89-10.75-68.84-1.01-6.5-2.02-13-3.04-19.49-.18-1.16-1.91-.66-1.75.48,3.86,26.84,5.09,54.04,5.9,81.12.23,7.65.41,15.29.6,22.94l2.03-.27c-4.33-20-7.73-40.19-9.72-60.57-.11-1.17-1.67-1.15-1.8,0-2.12,18.41-1.89,37.04.64,55.4.72,5.24,1.63,10.45,2.77,15.61.29,1.31,2.22.74,1.99-.55-3.52-20.06-7-40.12-10.45-60.19-.14-.83-1.52-.64-1.46.2,1.03,16.96,2.02,33.92,2.83,50.89.23,4.88.44,9.77.77,14.65l1.81-.25c-4.27-17.24-8.08-34.57-10.84-52.12-.03-.17-.29-.1-.26.07h0Z"/>
  <path d="m310.91,164.22c1.06,18.18,2.07,36.35,3.02,54.54.95,18.18,1.85,36.37,2.69,54.55.48,10.3.85,20.6,1.42,30.9h2.14c-1.89-18.47-2.69-36.99-2.4-55.55.29-18.46,1.58-36.9,3.92-55.21,1.34-10.45,3.01-20.85,5.06-31.19l-1.68-.23c.58,32.55,1.38,65.1,2.07,97.65.2,9.13.39,18.27.59,27.4.03,1.47,2.07,1.4,2.24,0,1.07-9.32.75-18.73.33-28.08s-.72-18.55-.59-27.85c.26-18.54,1.9-37.07,4.9-55.36,1.69-10.3,3.82-20.53,6.35-30.66l-1.68-.23c.5,16.79.7,33.6.7,50.4,0,16.8-.22,33.6-.65,50.4-.24,9.48-.55,18.96-.93,28.43h2.34c-1.1-16.57-1.39-33.18-.68-49.77.71-16.65,2.31-33.26,4.88-49.73,1.44-9.23,3.15-18.44,5.22-27.55l-1.92-.26c.91,26.02,1.08,52.07.51,78.11-.16,7.3-.38,14.59-.65,21.88h2.44c-.12-28.3,1.4-56.57,4.75-84.68.96-8.08,2.08-16.13,3.34-24.17l-1.92-.26c.21,11.4-.14,22.83-.47,34.23s-.81,22.81-1.47,34.2c-.37,6.44-.78,12.88-1.23,19.31h2.43c-.68-24.22,1.24-48.52,5.65-72.34,1.23-6.66,2.67-13.28,4.3-19.85l-1.94-.26c.91,19.12.65,38.33-.38,57.44-.3,5.44-.67,10.88-1.11,16.31h2.38c-.25-20.95,1.04-41.93,4.8-62.56,1.05-5.79,2.27-11.54,3.64-17.27l-1.65-.22c1.29,19.43.5,39.03-2.04,58.33h2.31c1.6-18.28,4.07-36.5,7.93-54.44h-2.19c1.21,8.32,1.51,16.7,1.16,25.09-.06,1.39,2.02,1.63,2.39.32,2.44-8.62,4.4-17.36,5.88-26.19h-2.01c.25.85.51,1.69.76,2.54.37,1.26,2.35.73,1.98-.54-.25-.85-.48-1.7-.72-2.55-.26-.93-1.82-1.05-2.01,0-1.6,8.8-3.67,17.52-6.21,26.1l2.39.32c.45-8.58-.11-17.21-1.41-25.7-.17-1.11-1.97-1.05-2.19,0-3.77,18.18-6.64,36.53-8.05,55.05-.11,1.5,2.14,1.44,2.31,0,2.33-19.38,2.7-38.87,1.41-58.33-.06-.9-1.42-1.2-1.65-.22-4.88,20.43-7.93,41.4-8.92,62.39-.28,5.96-.39,11.92-.28,17.89.03,1.55,2.26,1.51,2.38,0,1.43-19.1,1.97-38.27,1.6-57.42-.1-5.45-.3-10.89-.5-16.34-.04-1.09-1.66-1.38-1.94-.26-6.08,23.53-9.6,47.65-10.41,71.93-.23,6.93-.24,13.86-.05,20.79.04,1.57,2.32,1.55,2.43,0,1.6-22.76,2.44-45.58,2.66-68.39.06-6.45-.04-12.9.04-19.35.01-1.07-1.74-1.37-1.92-.26-4.65,28.18-7.45,56.64-8.34,85.19-.25,8.06-.36,16.12-.29,24.18.01,1.57,2.38,1.57,2.44,0,.85-26.03.97-52.07.35-78.11-.17-7.3-.41-14.59-.7-21.88-.04-1.06-1.67-1.38-1.92-.26-3.6,16.23-6.42,32.6-8.25,49.12-1.85,16.66-2.75,33.42-2.67,50.19.04,9.43.37,18.86,1.05,28.26.11,1.49,2.29,1.52,2.34,0,.57-16.79.94-33.59,1.08-50.39.15-16.8.08-33.6-.2-50.4-.16-9.48-.38-18.96-.62-28.44-.02-.95-1.44-1.19-1.68-.23-4.58,17.98-7.83,36.29-9.73,54.74-1.9,18.5-2.34,37.08-1.6,55.66.43,10.67.92,21.36-.26,32h2.24c-.82-32.55-1.65-65.1-2.47-97.65-.23-9.13-.45-18.27-.72-27.4-.03-.92-1.49-1.21-1.68-.23-3.4,18.22-5.93,36.6-7.42,55.08-1.5,18.56-1.97,37.21-1.41,55.82.32,10.52.86,21.02,1.76,31.51.12,1.35,2.19,1.39,2.14,0-.71-18.2-1.89-36.38-2.94-54.56-1.05-18.19-2.15-36.37-3.31-54.55-.66-10.29-1.33-20.59-2.02-30.88-.04-.64-1.04-.65-1,0h0Z"/>
  <path d="m250.73,199.43c2.03,17.18,3.85,34.38,5.54,51.6.48,4.86.93,9.72,1.37,14.59l1.78-.48c-6.65-15.17-7.3-31.97-9.07-48.2-.49-4.52-1.04-9.04-1.78-13.53-.06-.34-.51-.48-.78-.32-1.29.8-1.58,2.22-1.55,3.65.04,2.29.43,4.6.66,6.87.51,5.02,1.02,10.04,1.53,15.06,1.03,10.12,1.94,20.25,2.93,30.36l1.7-.23c-3.5-17.83-7.47-35.57-11.03-53.39-.16-.78-1.45-.61-1.39.19.94,13.39,2.15,26.78,2.87,40.18l2.04-.28c-1.85-11.77-5.3-23.03-9.69-34.09-.29-.74-1.67-.75-1.54.21,1.1,8.28,1.3,16.56.86,24.89h1.94c-.81-6.62-2.72-13.05-5.8-18.97-.45-.87-1.76-.43-1.78.48-.07,3.01-.15,6.02-.23,9.04-.03,1.17,1.78,1.17,1.82,0,.11-3.01.2-6.02.32-9.04l-1.78.48c2.83,5.66,4.74,11.72,5.51,18,.15,1.22,1.88,1.28,1.94,0,.44-8.37-.09-16.81-1.27-25.1l-1.51.42c4.47,10.92,7.36,22.58,9.2,34.22.18,1.15,2.17.89,2.04-.28-1.41-13.37-2.35-26.79-3.54-40.18l-1.39.19c3.69,17.8,6.97,35.68,10.72,53.47.2.94,1.81.75,1.7-.23-1.06-9.46-2.2-18.92-3.23-28.39-.51-4.69-1.02-9.38-1.53-14.07-.25-2.3-.5-4.61-.75-6.91-.17-1.6-.96-4.61.75-5.66l-.78-.32c2.62,16.28,2.23,32.94,5.98,49.06,1.04,4.48,2.38,8.88,4.14,13.13.37.89,2.02.92,1.88-.25-2.01-17.22-4.07-34.44-6.31-51.63-.63-4.85-1.27-9.71-1.91-14.56-.05-.37-.64-.38-.59,0h0Z"/>
  <path d="m667.63,542.43c11.03,56.01,23.59,112.75,25.11,169.99.75,28.27.02,56.68,3.8,84.77,1.4,10.42,3.41,20.79,8.51,30.09,3.76,6.85,8.36,13.21,12.43,19.88,3.61,5.92,7.79,12.69,8.34,19.78.68,8.73-6.97,12.57-14.42,14.28-21.49,4.92-44.54,5.16-66.47,3.9-7.18-.41-14.74-.81-21.65-2.97-5.02-1.57-4.85-3.02-5.45-8.29-.79-7.06-1.61-14.12-2.46-21.17-3.25-27.07-6.91-54.09-11.13-81.03-9.67-61.79-22.03-123.29-39.33-183.42-.68-2.36-4.34-1.37-3.69,1.02,15.55,56.63,27.95,114.04,37.4,172,4.85,29.75,9.02,59.6,12.67,89.52.86,7.05,1.69,14.11,2.5,21.17.38,3.33-.17,7.97,2.22,10.65,3.83,4.29,12.24,4.7,17.48,5.34,20.21,2.47,41.13,2.01,61.28-.42,13.33-1.61,37.53-3.45,34.34-22.67-2.48-14.97-14.6-27.11-21.55-40.1s-7.95-27.29-9.21-41.08c-1.36-14.9-1.7-29.87-1.95-44.83-.27-16.29-.41-32.6-1.58-48.86s-3.67-32.89-6.24-49.21c-5.22-33.17-11.78-66.12-18.35-99.04-.34-1.72-2.97-.99-2.63.73h0Z"/>
  <path d="m461.38,539.54c-25.6,52.21-52.78,104.66-69.2,160.65-8.06,27.48-14.74,55.58-26.29,81.88-4.57,10.39-10.28,19.13-18.57,26.85-6.5,6.05-13.45,11.72-19.26,18.46-4.17,4.83-8.57,10.93-8.08,17.66.56,7.75,7.67,12.73,14,15.92,20.04,10.08,42.19,16.54,64.13,20.93,7.37,1.47,15.36,3.16,22.91,2.5,8.9-.78,9.37-8.79,12.27-16.16,10.69-27.17,21.8-54.17,33.48-80.94,25.99-59.57,55.11-117.66,87.81-173.84,1.24-2.13-2.04-4.04-3.3-1.93-28.23,47.18-53,96.37-75.72,146.42-10.91,24.03-21.31,48.29-31.31,72.71-5.21,12.73-10.32,25.5-15.33,38.3-1.52,3.89-2.19,10.65-6.88,11.5-3.44.62-7.22.16-10.66-.22-18.9-2.11-38.02-7.58-55.76-14.15-6.2-2.3-12.37-4.76-18.35-7.59-4.51-2.14-9.62-4.79-12.24-9.25-4.01-6.82,1.11-14.2,5.54-19.36,5.55-6.47,12.16-11.96,18.39-17.74,7.02-6.52,12.68-13.51,16.98-22.15,11.72-23.52,18.23-49.58,25.28-74.76,3.98-14.2,8.03-28.39,12.97-42.29,5.52-15.53,12.18-30.69,18.84-45.76,12.86-29.08,26.78-57.68,40.71-86.26.77-1.57-1.58-2.96-2.36-1.38h0Z"/>
  <g>
    <path class="cls-2" d="m908.91,51.71c14.7.49,31.7,2.19,39.85,14.44,6.1,9.17,4.96,21.18,3.59,32.11-8.33,66.28-16.66,132.56-24.99,198.84-4.22,33.57-8.44,67.14-12.66,100.71-1.38,10.96.05,29.48-7.82,37.98-7.65,8.26-24.33,9.2-33.76,4.68-10.58-5.08-17.74-15.53-21.69-26.58"/>
    <path d="m908.91,53.15c12.4,1.08,27.57,1.52,36.43,11.66,10.25,11.73,5.41,30.41,3.64,44.27-4.45,34.78-8.87,69.56-13.28,104.34-4.37,34.47-8.74,68.94-13.09,103.42-4.01,31.72-9.01,63.49-11.23,95.39-.46,6.66-1,14.39-4.8,20.13s-11.83,8.15-18.63,8.42c-17.24.67-28.58-12.5-34.31-27.51-1.04-2.72-5.43-1.58-4.42,1.22,4.53,12.56,13.15,25.34,26.53,29.51,10.61,3.3,25.44,1.78,33.14-6.99s6.93-23.47,7.7-34.62c1.27-18.34,4.43-36.7,6.71-54.94,9.73-77.81,19.46-155.62,29.07-233.45,1.97-15.92,7.69-37-3.49-50.85-9.27-11.48-26.28-13.1-39.99-12.89-1.88.03-1.83,2.73,0,2.88h0Z"/>
  </g>
  <g>
    <path class="cls-2" d="m894.42,445.16c4.13,10.02,4.14,21.16-4.19,30.01-4.45,4.73-10.62,7.4-15.9,11.18-5.67,4.06-10.28,9.4-14.94,14.59-32.03,35.75-64.88,70.86-99.46,104.16-34.27,33-64.17,65.46-114.17,67.52-146.02,6-292.2,7.98-438.32,5.94-9.45-.13-19.22-.35-27.81-4.3-13.3-6.12-21.12-19.84-28.08-32.72-3.25-6.01-6.58-13.06-4.02-19.4,2.04-5.06,7.23-8,12.06-10.55,50.05-26.43,100.23-52.38,150.84-77.74,32.79-16.43,65.71-32.92,100.48-44.6,130.57-43.86,271.74-12.66,402.24-54.22,13.1-4.17,25.85-9.42,39.14-12.97,9.64-2.58,17.33-3.68,25.7,2.36,6.71,4.83,13,12.4,16.44,20.75Z"/>
    <path d="m893.1,445.53c5.38,13.93,1.42,26.29-11.27,34.29-4.9,3.09-9.7,5.91-13.96,9.88-4.81,4.47-9.05,9.55-13.45,14.42-18.87,20.92-37.99,41.61-57.6,61.84-18.28,18.85-37.04,37.26-56.08,55.35-15.96,15.17-32.83,29.98-52.95,39.39-23.44,10.97-48.56,10.46-73.88,11.36-29.21,1.04-58.42,1.89-87.64,2.65-58.44,1.52-116.89,2.39-175.34,2.61-29.23.11-58.46.07-87.68-.13-14.28-.1-28.56-.24-42.84-.41-13.36-.16-28.84,1.39-41.12-4.86-10.64-5.42-17.39-15.91-23.08-26-3.16-5.61-7.66-12.23-7.6-18.9.07-7.91,7.7-11.44,13.74-14.63,25.58-13.53,51.24-26.9,76.97-40.16,25.66-13.22,51.39-26.29,77.2-39.22s50.69-25.22,77.09-35.42c50.58-19.52,104.1-27.5,157.94-31.24,53.68-3.73,107.61-3.79,161.16-9.48,26.22-2.79,52.35-6.91,77.92-13.44,13.21-3.37,26.14-7.52,38.99-12.06,5.89-2.08,11.79-4.16,17.77-5.97,6.03-1.81,12.57-3.97,18.93-3.49,12.37.93,21.98,13.7,26.53,24.18.94,2.16,4.11.29,3.17-1.85-4.28-9.84-12.3-20.37-22.6-24.45s-23.07.63-33.29,4c-13.6,4.48-26.95,9.54-40.75,13.41-13.53,3.79-27.25,6.89-41.08,9.41-56.1,10.26-113.31,11.14-170.12,13.8-55.65,2.61-111.79,6.98-165.42,23.04-55.73,16.68-107.52,45.56-159.12,71.88-26.94,13.75-53.8,27.66-80.59,41.71-6.41,3.36-12.82,6.73-19.22,10.1-5.26,2.77-11.4,5.32-15.39,9.91-7.93,9.11-1.29,20.69,3.6,29.49,5.27,9.49,11.26,19.12,20.18,25.61,10.31,7.51,22.9,8.18,35.21,8.38,30.55.48,61.11.68,91.67.76,61.11.16,122.23-.41,183.33-1.68,30.55-.63,61.1-1.44,91.64-2.47,15.27-.51,30.54-1.07,45.81-1.68,13.55-.53,27.38-.35,40.77-2.65,46.82-8.02,80.7-46.86,112.84-78.59,20.96-20.69,41.3-42.01,61.24-63.68,9.86-10.71,19.49-21.61,29.27-32.38,4.58-5.05,9.39-9.52,15.18-13.16,5.22-3.28,10.51-6.31,14.24-11.38,6.35-8.62,6.11-19.21,2.31-28.83-.64-1.62-3.29-.93-2.65.73Z"/>
  </g>
  <g>
    <path class="cls-2" d="m872.67,422.97c-1.55,1.71-3.42,3.12-5.68,4.1-9,3.91-25.54.73-35.25.65-19.5-.17-39.01-.8-58.51-.8-77.27,0-154.54,0-231.8,0-35.04,0-70.08,0-105.13,0-18.62,0-66.19,8.7-75.1-12.74-1.82-4.38-1.43-9.33-.83-14.04,8.65-67.48,18.67-135.27,27.26-202.97,4.53-35.67,9.06-71.35,13.58-107.02,1.56-12.28.33-31.43,9.64-40.29,13.55-12.9,39.75-3.83,56.04-3.83,31.7,0,63.41,0,95.11,0h298.01c13.92,0,27.97-1.85,41.87-.22,20.06,2.35,21.59,3.94,20.55,21.71-1.91,32.45-8.11,65.17-12.2,97.41-9.66,76.12-19.32,152.23-28.98,228.35-1.14,8.96-1.8,22.21-8.58,29.69Z"/>
    <path d="m871.3,421.59c-8.57,8.74-23.71,5.14-34.64,4.4-14.56-.98-29.33-.63-43.92-.85-31.8-.49-63.63-.17-95.44-.17-63.2,0-126.39,0-189.59,0-15.87,0-31.74,0-47.6,0-11.19,0-22.4-.31-33.57.43-16.86,1.12-36.47,4.12-52.62-2.33-3.63-1.45-7.12-3.6-9.39-6.86-4.1-5.87-2.55-13.41-1.7-20.02,2.09-16.23,4.26-32.46,6.46-48.68,4.19-30.89,8.51-61.76,12.69-92.65,4.21-31.11,8.18-62.24,12.13-93.38,3.68-29.03,7.7-58.02,10.34-87.16,1.02-11.29,3.46-23.47,15.44-27.65,10.52-3.67,22.55-1.33,33.29.07,13.11,1.7,26.28,1.21,39.48,1.21,15.85,0,31.7,0,47.56,0,62.75,0,125.51,0,188.26,0h95.62c15.13,0,30.31.37,45.43-.22,13.89-.55,27.86-1.47,41.59,1.35,2.89.59,6.41,1.3,8.18,3.92s1.49,6.69,1.41,9.75c-.36,14.62-2.24,29.29-4.16,43.78-4.07,30.64-8.62,61.19-12.51,91.85-8,62.99-15.99,125.99-23.99,188.98-1.42,11.17-1.13,25.18-8.76,34.22-1.6,1.9,1.13,4.66,2.75,2.75,7.03-8.32,7.76-19.5,9-29.87,1.93-16.16,4.09-32.29,6.14-48.44,4.16-32.81,8.33-65.62,12.49-98.43s8.05-66.48,12.8-99.61c2.26-15.77,4.73-31.51,6.71-47.31,1.71-13.64,4.14-28.06,3.38-41.84-.32-5.89-2.4-10.26-8.17-12.36-10.88-3.96-24.13-3.53-35.45-3.12-32.9,1.18-65.85.72-98.77.72-66.13,0-132.26,0-198.38,0-33.03,0-66.05,0-99.08,0-7.08,0-14.23.31-21.3-.12-5.75-.35-11.44-1.3-17.15-1.99-10.24-1.24-21.82-2.34-31.33,2.61s-12.41,14.42-13.76,24.13c-1.82,13.01-2.52,26.22-4.18,39.27-4.19,33.02-8.33,66.04-12.58,99.04-4.3,33.38-8.91,66.72-13.5,100.06-2.26,16.42-4.51,32.83-6.73,49.25-2.11,15.69-5.06,31.56-6.15,47.36-1.44,20.83,18.38,25.96,35.32,26.76,9.54.45,19.1-.19,28.62-.85,10.74-.75,21.4-.75,32.16-.75,66.39,0,132.79,0,199.18,0,33.31,0,66.61,0,99.92,0,30.57,0,61.41-.55,91.91,1.69,10.01.73,21.3,1.54,28.89-6.21,1.75-1.79-.99-4.54-2.75-2.75Z"/>
  </g>
  <path class="cls-1" d="m846.53,384.84c-1.37,1.42-3.03,2.6-5.04,3.42-7.98,3.26-22.65.61-31.26.54-17.3-.14-34.6-.67-51.9-.67-68.54,0-137.08,0-205.61,0-31.08,0-62.17,0-93.25,0-16.51,0-58.71,7.25-66.61-10.63-1.61-3.65-1.27-7.78-.73-11.71,7.68-56.28,16.56-112.83,24.18-169.29,4.02-29.75,8.03-59.51,12.05-89.26,1.38-10.24.3-26.22,8.55-33.61,12.02-10.76,35.26-3.19,49.71-3.19,28.12,0,56.24,0,84.37,0h264.34c12.35,0,24.81-1.54,37.14-.18,17.8,1.96,19.15,3.28,18.22,18.11-1.69,27.06-7.2,54.36-10.82,81.25-8.57,63.49-17.14,126.97-25.71,190.46-1.01,7.47-1.59,18.52-7.61,24.76Z"/>
  <g>
    <path class="cls-2" d="m666.57,613.48c-26.9,10.28-60.84,10.39-89.33,12.26-33.04,2.17-66.16,2.72-99.27,2.74-64.93.02-129.92-2.1-194.79,1.51-33.63,1.87-67.69,5.29-101.21.21-8.4-1.27-16.76-3.04-24.88-5.57-8.11-2.52-13.39-3.02-9.67-10.89,5.18-10.95,23.9-17.37,32.53-25.49,9.33-8.78,18.58-17.65,27.87-26.48,22.47-21.35,44.94-42.7,67.41-64.05,19.38-18.41,36.57-39.07,57.4-55.94,10.71-8.67,22.37-16.54,35.32-21.44,13.88-5.25,25.73-3.94,40.12-3.94,38.31,0,76.62,0,114.93,0,47.48,0,94.96,0,142.44,0,43.27,0,86.53,0,129.8,0,25.16,0,52.7-2.52,76.53,6.62.83.32,1.74.72,2.12,1.53.69,1.46-.72,2.99-1.99,4-40.78,32.21-77.56,68.59-115.26,104.42-19.6,18.62-39.2,37.25-58.8,55.87-7.91,7.51-15.59,16.58-25.2,21.85-1.98,1.09-4.01,2.01-6.08,2.81Z"/>
    <path d="m666.05,611.6c-22.58,8.43-46.99,9.86-70.83,11.17-25.84,1.42-51.64,2.93-77.52,3.42-54.99,1.03-109.98-.62-164.98-.18-27.09.22-54.16,1.05-81.2,2.73-26.89,1.67-53.96,3.6-80.84.65-12.64-1.39-24.94-4.06-37.07-7.83-1.91-.59-4.81-1.09-5.46-3.37-.57-1.99,1.87-5.34,3.08-6.87,3.07-3.89,7.41-6.73,11.56-9.34,7.81-4.92,15.29-9.28,22.03-15.65,9.59-9.06,19.11-18.18,28.68-27.27,20.08-19.08,40.16-38.16,60.24-57.24,17.74-16.86,33.82-35.45,52.12-51.73,18.81-16.73,40.22-31.48,66.22-31.88s54.28.13,81.39.13c54.43,0,108.86,0,163.3,0,54.55,0,109.12.54,163.67-.03,12.37-.13,24.77-.63,37.13.08,6.26.36,12.52,1.01,18.67,2.23,2.84.57,5.67,1.24,8.45,2.05,1.08.32,2.29.6,3.31,1.04,2.64,1.14,4.37,1.92,1.8,4.04-20.26,16.72-40.17,33.68-59.43,51.55s-37.69,35.74-56.52,53.64c-19.91,18.92-40.14,37.56-59.74,56.81-8.58,8.43-16.65,17.28-28.06,21.86-2.29.92-1.29,4.68,1.03,3.75,11.03-4.42,19.12-12.23,27.4-20.5,9.96-9.95,20.35-19.49,30.55-29.18,20.41-19.39,40.79-38.81,61.17-58.24,19.89-18.97,39.92-37.81,60.75-55.75,5.03-4.33,10.11-8.61,15.24-12.83,2.69-2.21,5.39-4.4,8.12-6.58,1.78-1.42,4.28-2.87,5.21-5.05,1.27-2.99-.55-4.88-3.22-6.09-6.21-2.81-13.52-4.15-20.2-5.16-25.19-3.81-51.43-1.52-76.82-1.52-29.29,0-58.58,0-87.87,0-57.45,0-114.89,0-172.34,0-28.4,0-56.8,0-85.21,0-13.7,0-27.52-.62-41.2-.04-12.26.52-23.51,4.19-34.23,10.06-22.09,12.08-40.07,30.5-57.39,48.44-19.09,19.79-39.12,38.56-59.05,57.5-10.52,9.99-21.04,19.99-31.55,29.98-9.75,9.27-19.11,19.45-29.54,27.94-7.31,5.95-16.24,9.59-23.57,15.55-4.17,3.39-12.16,11.5-8.03,17.46,1.83,2.65,5.69,3.47,8.54,4.34,6.16,1.87,12.33,3.57,18.64,4.82,13.35,2.66,26.96,3.88,40.56,4.2,28.05.66,56.05-2.24,84.05-3.47,57.95-2.53,115.96-.94,173.93-.83,28.8.05,57.62-.25,86.39-1.61,25.21-1.19,50.81-1.92,75.83-5.37,11.53-1.59,22.92-4,33.85-8.08,2.32-.87,1.32-4.63-1.03-3.75Z"/>
  </g>
  <g>
    <path class="cls-2" d="m709.76,537.68c30.53-29.01,60.32-58.47,93.34-84.55,1.03-.81,2.17-2.05,1.61-3.24-.31-.65-1.04-.98-1.72-1.24-19.3-7.4-41.6-5.36-61.98-5.36-35.04,0-70.07,0-105.11,0-38.45,0-76.9,0-115.35,0-31.02,0-62.04,0-93.06,0-21.67,0-45.09-.39-61.58,15.15-15.91,14.99-31.81,29.99-47.72,44.99-8.69,8.19-21.01,16.67-26.61,27.49-2.04,3.94-2.05,9.29,1.17,12.35,1.68,1.6,3.97,2.35,6.2,3,44.18,12.87,93.36,3.11,138.49,5.06,50.45,2.17,103.18-5.17,153.65-7.7,28.39-1.42,56.78-2.85,85.17-4.27,5.34-.27,29.4,2.23,33.49-1.68Z"/>
    <path d="m711.14,539.05c28.61-27.2,56.77-54.96,87.46-79.85,3.02-2.45,12.36-8.03,5.88-12s-16.05-4.64-23.33-5.37c-18.81-1.89-38.1-.49-56.98-.49-83.05,0-166.1,0-249.14,0-19.65,0-39.33-.28-58.98.05-14.97.25-30.82,1.61-43.82,9.74-7.48,4.68-13.59,11.5-19.97,17.51-7.47,7.04-14.94,14.09-22.41,21.13-6.91,6.51-13.75,13.07-20.94,19.26-5.85,5.04-11.76,10.15-16.26,16.48-3.38,4.75-6.15,10.97-3.11,16.64,3.37,6.3,13.14,7.26,19.33,8.58,17.86,3.81,36.22,4.48,54.42,4.18,19.11-.32,38.19-1.74,57.3-1.91s39.24.94,58.92.18c40.57-1.56,80.96-6.09,121.51-8.13,20.47-1.03,40.93-2.05,61.4-3.08,6.86-.34,13.66-.83,20.53-.53,5.77.25,11.56.56,17.33.28,3.63-.18,7.92-.3,10.87-2.69,1.95-1.57-.82-4.31-2.75-2.75-3.09,2.5-10.08,1.67-13.74,1.65-5.1-.03-10.19-.37-15.28-.52-7.61-.22-15.3.59-22.9.97-9.57.48-19.15.96-28.72,1.44-37.89,1.9-75.64,4.69-113.47,7.45-18.6,1.35-37.24,2.42-55.89,2.48-17.73.06-35.39-.9-53.13-.28-34.88,1.23-72.61,5.75-106.45-5.31-20.26-6.62,11.34-30.94,18.06-36.92,14.26-12.68,27.87-26.18,41.75-39.27,6.3-5.94,12.25-12.19,20.13-16.01,7.1-3.44,14.96-5.1,22.76-5.92,16.43-1.72,33.26-.83,49.75-.83,77.42,0,154.83,0,232.25,0,19.17,0,38.34.05,57.51,0,17.15-.05,34.71-1.51,51.58,2.32,1.96.45,3.9.96,5.81,1.56,1.24.39,2.4.34,2.88,1.72.56,1.62-.05.92-1.04,2.08-3.09,3.6-8.01,6.46-11.67,9.52-6.97,5.82-13.82,11.79-20.58,17.84-13.53,12.12-26.72,24.62-39.86,37.17-6.58,6.29-13.16,12.59-19.76,18.86-1.82,1.73.93,4.47,2.75,2.75Z"/>
  </g>
  <path d="m671.32,626.81c2.82,13.77,2.63,27.82.14,41.62-.41,2.27,3.08,3.23,3.47.96,2.49-14.47,1.85-28.92-1.21-43.24-.33-1.57-2.72-.9-2.4.66h0Z"/>
  <path d="m368.35,468.85c106.45-6.31,212.82,4.68,319.29,3.43,29.95-.35,60.03-1.48,89.82-4.78,2.47-.27,2.54-4.17,0-3.93-53.37,4.91-106.75,5.56-160.3,4.21-52.93-1.34-105.83-4.04-158.78-4.34-30.04-.17-60.07.55-90.03,2.74-1.7.12-1.73,2.77,0,2.67h0Z"/>
  <path d="m336.6,494.38c13.67-.32,26.99,2.58,40.43,4.62,12.72,1.93,25.56,2.85,38.42,3.16,27.21.66,54.46-.99,81.66-1.69,54.21-1.4,108.45-1.65,162.67-.8,31.08.48,62.15,1.36,93.21,2.59,2.8.11,2.8-4.25,0-4.36-54.85-2.15-109.74-3.19-164.63-2.95-27.11.12-54.23.53-81.34,1.22-26.93.69-53.87,2.24-80.81,2.26-15.48.01-30.99-.63-46.34-2.78-14.41-2.01-28.64-5.14-43.28-4.48-2.05.09-2.07,3.25,0,3.2h0Z"/>
  <path d="m306.05,522.88c105.96,1.18,211.93,1.53,317.9,1.98,29.99.13,59.98.26,89.97.37,2.64,0,2.64-4.09,0-4.1-105.97-.39-211.94-.83-317.9-.88-29.99-.01-59.98.14-89.97.25-1.53,0-1.54,2.37,0,2.38h0Z"/>
  <path d="m421.27,445.39c-5.85,5.28-10.34,12.08-11.31,20.03-.24,1.94,2.84,2.25,3.34.45,1.93-6.99,4.69-13.33,10.11-18.33,1.44-1.33-.7-3.45-2.15-2.15h0Z"/>
  <path d="m473.62,442.36c-3.06,5.43-5.36,11.18-6.73,17.26-.55,2.44,3.21,3.48,3.75,1.03,1.28-5.79,3.21-11.3,5.97-16.55,1.03-1.97-1.89-3.7-2.99-1.75h0Z"/>
  <path d="m548.3,445.57c-5.06,6.01-8.7,12.77-10.76,20.36-.63,2.33,3.02,3.33,3.62,1,1.83-7.15,4.97-13.7,9.47-19.56,1.02-1.32-1.24-3.08-2.32-1.79h0Z"/>
  <path d="m642.82,446.66c-4.04,6.06-7.39,12.5-9.86,19.35-.82,2.26,2.81,3.26,3.6.99,2.3-6.62,5.2-12.85,8.95-18.78,1.08-1.71-1.58-3.23-2.69-1.57h0Z"/>
  <path d="m717.84,446.67c-4.64,6.24-8.37,13.05-10.89,20.41-.76,2.24,2.75,3.18,3.53.97,2.49-7.11,5.77-13.62,10.22-19.71,1.26-1.73-1.6-3.36-2.86-1.67h0Z"/>
  <path d="m766.61,449.92c-1.59,3.69-3.62,7.13-6.14,10.26-1.15,1.43.88,3.47,2.03,2.03,2.66-3.34,4.86-6.94,6.54-10.87.7-1.64-1.71-3.08-2.43-1.42h0Z"/>
  <path d="m665.11,475.78c-4.51,4.49-8.19,10.52-9.88,16.68-.67,2.43,2.78,3.23,3.67,1.01,2.29-5.65,4.9-10.41,8.69-15.21,1.36-1.72-.83-4.12-2.48-2.48h0Z"/>
  <path d="m569.16,469.04c-4.59,6.82-9.12,13.67-13.52,20.62-1.26,1.99,1.9,3.83,3.16,1.85,4.4-6.94,8.66-13.95,12.86-21,.97-1.62-1.47-3-2.5-1.46h0Z"/>
  <path d="m485.48,475.25c-2.49,5.27-5.03,10.52-7.42,15.84-.78,1.73,1.74,3.26,2.58,1.51,2.54-5.25,4.93-10.57,7.38-15.86.79-1.71-1.73-3.21-2.54-1.49h0Z"/>
  <path d="m425.24,469.47c-4.28,5.42-8.6,10.8-12.79,16.29-1.12,1.47,1.41,3.44,2.57,1.99,4.31-5.39,8.48-10.9,12.69-16.36,1.08-1.41-1.37-3.32-2.48-1.91h0Z"/>
  <path d="m387.03,501.3c1.97,5.75,1.33,11.12-1.95,16.23-1.17,1.82,1.59,3.28,2.83,1.65,4.09-5.36,4.54-12.95,1.28-18.8-.64-1.15-2.61-.38-2.16.91h0Z"/>
  <path d="m503.45,501.68c-4.06,5.44-6.84,11.5-7.89,18.22-.34,2.15,2.94,3.1,3.31.91,1.08-6.42,3.34-12.34,7.18-17.62,1.14-1.57-1.45-3.05-2.6-1.52h0Z"/>
  <path d="m611.3,499.58c-3.11,7.07-6.29,14.11-9.17,21.28-.7,1.74,2.28,3.01,3.05,1.29,3.17-7.05,6.03-14.22,8.96-21.37.66-1.62-2.13-2.81-2.84-1.2h0Z"/>
  <path d="m692.3,504.09c-1.43,3.87-2.86,7.74-4.29,11.61-.75,2.02,2.51,2.92,3.24.89,1.39-3.88,2.77-7.76,4.16-11.64.7-1.96-2.39-2.78-3.1-.86h0Z"/>
  <path d="m346.84,524.79c-3.89,6.46-6.14,13.43-6.79,20.94-.21,2.45,3.63,2.45,3.83,0,.54-6.83,2.52-13.27,5.9-19.23,1.08-1.91-1.81-3.59-2.94-1.72h0Z"/>
  <path d="m410.34,524.85c-4.01,6.29-6.55,13.39-6.95,20.87-.12,2.38,3.4,2.29,3.64,0,.73-6.9,2.59-13.2,6.19-19.19,1.11-1.85-1.73-3.49-2.88-1.69h0Z"/>
  <path d="m476.11,524.97c-2.74,5.49-5.21,11.13-7.74,16.72-.96,2.11,2.2,3.94,3.12,1.82,2.5-5.77,5.08-11.53,7.37-17.38.62-1.58-1.99-2.67-2.75-1.16h0Z"/>
  <path d="m532.7,530.5c-1.12,4.56-2.23,9.13-3.35,13.69-.53,2.17,2.84,3.09,3.34.92,1.06-4.58,2.12-9.16,3.17-13.74.47-2.05-2.66-2.93-3.16-.87h0Z"/>
  <path d="m615.06,521.87c-3.46,3.29-4.92,7.98-3.93,12.64.49,2.28,3.74,1.26,3.43-.94-.49-3.41.53-6.81,2.83-9.37,1.41-1.57-.78-3.8-2.33-2.33h0Z"/>
  <path d="m660.67,525.85c-1.89,3.97-3.92,7.91-5.5,12.02-.72,1.87,2.3,3.1,3.22,1.36,1.99-3.76,3.55-7.74,5.24-11.65.86-1.98-2-3.75-2.96-1.73h0Z"/>
  <path d="m816.58,438.96c4.34,3.37,11.22,4.75,15.96,1.37,4.41-3.14,6.15-10.95,1.93-14.94-3.84-3.63-10.67-2.87-15.18-1.11-7.18,2.8-8.87,10.53-2.58,15.24,1.73,1.29,4.04-1.66,2.33-3.02-8.35-6.6,8.84-13.59,13.16-7.81,2.32,3.1-.08,8.21-3.31,9.53-3.56,1.45-7.27,0-10.43-1.7-1.48-.79-3.34,1.31-1.89,2.44Z"/>
  <path d="m388,562.28c-7.11,10.65-14.21,21.29-21.32,31.94-.65.97-.03,2.54,1.13,2.77,18.45,3.68,37.3,4.92,56.09,4.9,19.03-.02,38.07-2.34,57.09-1.44,16.67.8,33.42,2.58,49.73-2.11,3.1-.89,8.15-1.85,10.62-4.07,2.76-2.47,4.73-7.37,6.8-10.48,5.53-8.31,11.37-16.39,17.51-24.26,1.54-1.97-1.22-4.77-2.78-2.78-5.21,6.67-10.25,13.48-15.04,20.46-2.58,3.75-4.8,7.98-7.63,11.53-3.21,4.02-8.26,5.25-13.14,6.47-16.01,3.99-32.41,1.8-48.65,1.19-17.51-.66-35.05,1.47-52.57,1.58-19.14.13-38.17-1.2-57.02-4.63l1.13,2.77c6.92-10.76,13.83-21.52,20.75-32.27,1.09-1.69-1.58-3.23-2.69-1.57h0Z"/>
  <path d="m375.25,393.74c0,3.6,1.04,7.16,2.99,10.18.57.89,2.01.04,1.42-.83-1.91-2.76-3-6-3.1-9.36-.03-.84-1.31-.84-1.31,0h0Z"/>
  <path d="m387.97,401.83c.73,0,.73-1.14,0-1.14s-.73,1.14,0,1.14h0Z"/>
  <path d="m928.5,60.9c-2.27,1.74-4.53,3.47-6.8,5.21-.6.46.04,1.31.64.83,2.24-1.77,4.48-3.54,6.73-5.31.41-.33-.15-1.06-.57-.74h0Z"/>
  <path d="m936.02,61.97c-6.81,2.08-12.86,6.32-16.99,12.14-.5.71.45,1.5,1.13,1.13,3.53-1.93,7.1-3.77,10.72-5.53s7.4-3.8,11.29-5.07l-.38-.9c-4.43,2.33-8.55,5.45-12.52,8.49s-7.81,6.19-11.39,9.64c-.62.6.01,1.84.88,1.52,4.44-1.65,8.64-3.81,12.53-6.5.76-.53.06-1.77-.74-1.26-3.85,2.49-7.95,4.51-12.28,6.01l.88,1.52c3.58-3.37,7.18-6.67,11.02-9.74s8.1-5.84,12.1-8.83c.5-.37.08-1.13-.5-.85-3.68,1.79-7.62,3.1-11.36,4.76s-7.45,3.45-11.1,5.32l1.13,1.13c3.96-5.47,9.47-9.65,15.88-11.81.73-.24.43-1.38-.32-1.16h0Z"/>
  <path d="m946.71,70.94c-9.66,6.04-18.69,12.97-26.94,20.82-.49.46-.14,1.46.58,1.4,3.99-.35,7.77-1.8,10.96-4.23.71-.54.03-1.76-.71-1.22-3.03,2.21-6.51,3.5-10.25,3.81l.58,1.4c7.94-8.01,16.66-15.27,26.06-21.52.28-.19.02-.64-.27-.46h0Z"/>
  <path d="m951.33,80.06c-11.8,8.51-23.37,17.36-35.02,26.08-1.01.75-.04,2.47,1,1.72,8.21-5.93,16.58-11.49,25.24-16.75.61-.37.07-1.26-.55-.94-8.99,4.49-17.68,9.9-25.69,15.97l1.2,1.56c11.45-8.98,23.01-17.83,34.3-27.01.35-.29-.12-.9-.49-.63h0Z"/>
  <path d="m947.3,90.39c-10.67,8.55-21.28,17.18-31.97,25.69-.9.72.25,2.08,1.2,1.55,8.58-4.78,16.95-10.04,25.26-15.27.64-.41.07-1.39-.6-1.02-8.62,4.7-17.3,9.43-25.66,14.58l1.2,1.55c10.29-8.94,20.67-17.77,30.98-26.68.28-.25-.12-.64-.41-.41h0Z"/>
  <path d="m943.88,105.05c-5.59,3.79-10.95,7.92-16.04,12.36-5.15,4.5-10.21,9.29-14.68,14.47-.67.78.2,2.17,1.17,1.52,10.89-7.34,22.29-14.23,34.38-19.42l-.69-1.18c-14.02,9.9-26.75,21.51-37.99,34.48-.77.89.21,2.41,1.32,1.72,5.85-3.65,11.67-7.34,17.48-11.05,5.32-3.39,10.96-6.95,17.12-8.55l-.66-1.14c-7.03,5.74-13.89,11.69-20.55,17.86-3.3,3.06-6.55,6.16-9.76,9.31-2.59,2.55-6.66,5.48-6.67,9.49,0,.77.92,1.39,1.61.92,5.55-3.73,11.03-7.57,16.71-11.1s11.63-7.04,17.84-9.58l-.74-1.27c-11.11,9.6-21.73,19.75-31.96,30.29-.67.69,0,2.05.99,1.7,6.74-2.37,13.02-5.99,18.59-10.45.57-.45-.19-1.44-.78-1.01-5.66,4.04-11.81,7.14-18.35,9.5l.99,1.7c10.14-10.62,20.71-20.81,31.59-30.66.69-.63-.19-1.51-.92-1.19-6.22,2.71-12.21,5.67-18.03,9.17-5.8,3.48-11.45,7.21-17.01,11.05l1.61.92c-.02-2.1,1.59-3.63,2.95-5.03s2.87-2.93,4.33-4.37c3.07-3.06,6.18-6.09,9.34-9.06,6.25-5.9,12.64-11.64,19.18-17.22.53-.45-.04-1.31-.66-1.14-6.24,1.75-11.8,4.64-17.34,7.97-6.04,3.62-12.02,7.33-18,11.05l1.32,1.72c11-12.98,23.5-24.67,37.14-34.84.71-.53.12-1.56-.69-1.18-12,5.53-23.72,11.49-34.66,18.94l1.17,1.52c4.39-5.14,8.82-10.14,13.73-14.79s10.24-9.11,15.76-13.17c.14-.1,0-.34-.14-.24h0Z"/>
  <path d="m933.69,167.79c-10.64,8.87-20.88,18.23-30.79,27.91-.39.38-.35,1.18.18,1.43,2.19,1.02,4.04-.49,5.82-1.67,2.35-1.56,4.7-3.14,7.03-4.72,4.61-3.13,9.22-6.25,13.75-9.51.52-.38.06-1.22-.51-.88-4.27,2.56-8.47,5.23-12.66,7.92-2.1,1.34-4.2,2.67-6.28,4.03-.97.64-1.94,1.27-2.92,1.91s-2.27,1.76-3.52,1.25l.4,1.53c9.55-10.04,19.64-19.52,30.14-28.56.45-.38-.2-1.02-.64-.64h0Z"/>
  <path d="m934.71,179.34c-9.21,8.54-18.32,17.18-27.41,25.84-.73.7.25,2.05,1.11,1.44,2.17-1.55,4.3-3.16,6.44-4.74.82-.6.05-1.99-.81-1.39-2.19,1.52-4.39,3.01-6.55,4.55l1.11,1.44c8.81-8.94,17.6-17.91,26.28-26.98.1-.11-.05-.26-.16-.16h0Z"/>
  <path d="m937.42,185.82c-12.67,10.58-24.47,22.23-35,34.94-.76.92.56,2.25,1.32,1.32,10.44-12.8,21.93-24.72,34.52-35.43.58-.5-.26-1.32-.84-.84h0Z"/>
  <path d="m938.85,200.03c-12.43,12.28-25.26,24.17-38.4,35.7-.82.72.26,2.14,1.18,1.53,7.9-5.3,15.58-10.89,23-16.85.5-.4-.16-1.27-.69-.89-7.72,5.42-15.46,10.81-23.29,16.06l1.18,1.53c12.78-11.91,25.35-24.04,37.76-36.34.47-.47-.26-1.2-.73-.73h0Z"/>
  <path d="m934.54,213.6c-12.14,8.42-23.15,18.4-32.68,29.69-.66.78.18,2.09,1.15,1.49,5.51-3.43,10.93-6.99,16.37-10.52s10.75-7.3,16.27-10.7l-.72-.94c-12.31,9.74-23.7,20.89-33.62,33.06-.8.98.43,2.24,1.4,1.4,4.66-4.07,9.62-7.74,14.8-11.11,2.53-1.64,5.11-3.22,7.7-4.77,2.77-1.66,5.58-3.04,8.55-4.3l-.51-.88c-12.21,12.49-24.43,24.97-36.59,37.5-.82.84.28,2.44,1.3,1.69,10.58-7.76,22.03-14.61,34.19-19.59l-.87-1.5c-11.86,11.44-23.72,22.89-35.6,34.32-.94.9.25,2.32,1.35,1.75,10.6-5.53,21.1-11.26,31.62-16.93l-1.13-1.46c-10.74,11.28-21.77,22.31-32.65,33.46-.94.97.24,2.39,1.4,1.81,9.38-4.66,18.58-9.67,27.95-14.33l-1.09-1.41c-10.92,11.28-21.8,22.61-32.76,33.85-.84.86.26,2.4,1.32,1.7,4.96-3.24,9.9-6.53,15.09-9.41s10.63-5.58,16.38-7.09l-.72-1.23c-9.77,11.28-20.03,22.12-30.76,32.49-.87.84.25,2.31,1.3,1.68,10.34-6.23,20.95-11.72,32.31-15.85l-.84-1.44c-11.42,12.6-23.67,24.5-36.24,35.95-.92.84.27,2.39,1.33,1.72,9.65-6.05,19.67-11.42,30.24-15.69l-1.1-1.43c-9.17,11.97-19.54,23.06-30.46,33.44-1.12,1.07.53,2.65,1.68,1.68,6.52-5.52,14.19-9.46,22.38-11.86l-1.08-1.85c-9.3,11.84-19.05,23.35-28.59,35-.86,1.05.19,2.36,1.41,1.83,6.95-3.03,13.21-7.15,18.99-12.03,1.01-.85-.45-2.3-1.45-1.45-5.6,4.73-12.02,8.52-18.71,11.47l1.41,1.83c9.48-11.7,18.79-23.57,28.51-35.08.69-.82.05-2.14-1.08-1.85-8.68,2.21-16.65,6.53-23.47,12.32l1.68,1.68c11.01-10.5,20.97-21.95,30.31-33.94.51-.66.07-2.04-.95-1.63-10.7,4.29-21.13,9.42-30.83,15.67l1.33,1.72c12.45-11.62,24.28-23.84,35.9-36.28.55-.59.02-1.73-.84-1.44-11.45,3.96-22.75,9.06-32.94,15.66l1.3,1.68c10.58-10.54,20.68-21.54,30.28-32.97.45-.54.04-1.44-.72-1.23-5.79,1.61-11.3,3.74-16.6,6.58s-10.49,6.14-15.57,9.46l1.32,1.7c10.79-11.41,21.67-22.74,32.5-34.11.72-.76-.18-1.87-1.09-1.41-9.35,4.74-18.87,9.14-28.21,13.89l1.4,1.81c10.78-11.26,21.42-22.65,32.34-33.78.76-.77-.2-1.95-1.13-1.46-10.62,5.51-21.26,10.97-31.81,16.61l1.35,1.75c11.75-11.55,23.52-23.09,35.29-34.63.6-.58-.01-1.85-.87-1.5-12.37,5.09-24.12,11.37-34.8,19.46l1.3,1.69c11.97-12.73,23.88-25.51,35.81-38.28.43-.46-.11-1.06-.63-.82-5.78,2.59-11.58,5.19-16.98,8.52s-10.34,7.1-15.06,11.21l1.4,1.4c10-12.23,20.98-23.44,33.07-33.61.52-.43-.16-1.31-.72-.94-5.41,3.56-11.06,6.78-16.55,10.22-5.5,3.44-11.01,6.85-16.45,10.4l1.15,1.49c9.24-11.41,19.94-21.58,31.83-30.19.5-.36.03-1.2-.49-.84h0Z"/>
  <path d="m902.07,397.92c-7.98,7.35-15.91,14.74-24,21.97l1.5,1.5c4.76-4.44,9.87-8.48,15.34-12.01s11.25-6.84,17.31-9.06l-.86-.35c.59,1.34-1.82,2.98-2.63,3.72-1.12,1.03-2.24,2.05-3.36,3.07-2.3,2.1-4.62,4.18-6.96,6.24-4.69,4.11-9.46,8.12-14.31,12.03l1.68,1.68c8.13-7.03,16.53-14.93,26.92-18.43l-.86-1.48c-7.13,7.01-14.25,14.02-21.37,21.03-.91.89.26,2.44,1.37,1.77,5.17-3.11,10.18-6.49,15.34-9.63l-1.27-1.27c-3.29,4.89-7.19,9.33-11.75,13.08-1,.82.27,2.29,1.33,1.73,2.98-1.58,6.09-2.79,9.38-3.59l-1.05-1.37c-1.28,2.56-2.36,5.19-3.07,7.97-.13.51.17,1.05.68,1.2,1.03.29,1.99.17,2.88-.43s.12-1.93-.84-1.44c-.58.29-.97.23-1.52,0l.68,1.2c.62-2.63,1.51-5.17,2.81-7.54.41-.74-.26-1.53-1.05-1.37-3.48.7-6.84,1.86-9.99,3.49l1.33,1.73c4.44-4.11,8.45-8.65,11.79-13.7.52-.78-.5-1.74-1.27-1.27-5.14,3.17-10.42,6.09-15.54,9.28l1.37,1.77c7.01-7.12,14.03-14.24,21.03-21.37.59-.6,0-1.79-.86-1.48-5.34,1.9-10.27,4.44-14.9,7.71s-8.99,6.97-13.23,10.75c-1.15,1.03.52,2.65,1.68,1.68,5.38-4.51,10.67-9.13,15.83-13.88,2.58-2.38,5.15-4.77,7.66-7.23,1.61-1.58,4.66-3.79,3.4-6.39-.13-.27-.57-.47-.86-.35-3.06,1.25-6.13,2.39-9.12,3.83-3.04,1.46-6,3.08-8.86,4.86-5.68,3.54-10.98,7.67-15.76,12.35-.98.95.53,2.45,1.5,1.5,7.7-7.62,15.57-15.08,23.39-22.58.58-.56-.29-1.42-.88-.88h0Z"/>
  <path d="m844.58,487.98c-.5-2.95-1.05-6.89-3.33-9.09-1.53-1.47-3.53-1.26-5.32-.43-2.75,1.28-5.08,3.49-7.29,5.51-3.95,3.61-7.88,7.24-11.73,10.96-4.56,4.41-9,8.92-13.19,13.68-.45.52-.32,1.41.42,1.59,1.78.43,3.4,1.28,4.69,2.59,1.21,1.23,1.93,2.93,3.46,3.83,2.79,1.63,6.12-.35,8.33-2.09,3.26-2.57,6.25-5.45,9.4-8.14s6.14-5.48,9.09-8.34c1.55-1.5,3.3-2.97,4.62-4.68s1.31-3.45.98-5.44c-.14-.84-1.41-.48-1.27.35.24,1.45.29,2.85-.59,4.1-.63.9-1.51,1.66-2.28,2.43-1.68,1.67-3.39,3.32-5.11,4.95-3.4,3.21-6.85,6.34-10.45,9.31-1.8,1.48-3.59,3.01-5.46,4.39-1.56,1.15-3.72,2.55-5.74,1.89-1.9-.62-2.81-3.14-4.25-4.42s-3.09-2.12-4.91-2.58l.42,1.59c6.78-7.54,14.09-14.57,21.47-21.52,2.58-2.43,5.13-5,7.91-7.21,1.32-1.04,3.42-2.69,5.22-1.87,1.04.48,1.68,1.63,2.14,2.62.92,1.96,1.37,4.15,1.78,6.26.12.65,1.09.37.98-.27Z"/>
  <path d="m857.24,464.17c-.98-.66-2.16-1.08-3.35-.87-1.02.18-1.86.84-2.45,1.66-1.29,1.76-1.39,4.28-.52,6.23s2.97,3.65,5.2,3.17c1.88-.41,3.21-2.28,3.64-4.07.26-1.09.24-2.32-.14-3.38-.43-1.2-1.24-2.16-2.34-2.8-.36-.21-.85-.08-1.06.28-.23.39-.06.82.28,1.06.13.09.24.18.42.36.08.08.15.15.23.23.04.04.08.09.12.13.12.13-.06-.11.04.05.11.17.22.34.32.52.04.08.08.16.12.24,0,0,.09.21.04.08-.05-.12.03.08.04.11.06.17.11.35.15.53.02.11.04.21.06.32-.04-.24,0,.06.01.14.01.19.02.39,0,.58,0,.09,0,.17-.02.26,0,.05-.01.11-.02.16,0,.09.04-.22,0,0-.07.39-.16.77-.3,1.15-.02.04-.13.32-.07.18s-.06.13-.08.17c-.09.19-.19.37-.3.54-.04.07-.09.13-.14.2-.15.22.1-.1-.05.07-.12.14-.24.28-.38.41-.07.07-.14.13-.21.19-.11.1.17-.11-.03.02-.16.1-.32.19-.48.28-.13.07.21-.07-.02,0-.09.03-.17.06-.26.08-.07.02-.14.03-.21.05-.18.05.19,0,.07,0-.04,0-.09,0-.14.01-.09,0-.18,0-.28,0-.04,0-.07,0-.11,0-.17,0,.09,0,.09.01,0,.01-.53-.14-.57-.15-.15-.04.03.01.06.03-.05-.02-.1-.04-.15-.07-.09-.04-.18-.09-.26-.14-.08-.05-.16-.1-.23-.15-.05-.03-.1-.07-.15-.11-.05-.04-.04-.03.05.04-.03-.02-.06-.05-.09-.07-.18-.17-.37-.33-.53-.52-.09-.1-.18-.2-.27-.31-.03-.03-.1-.14.01.02-.04-.06-.09-.12-.13-.18-.12-.18-.23-.37-.33-.57-.02-.04-.04-.09-.06-.13-.1-.21.05.12,0-.01-.04-.11-.08-.23-.12-.34-.07-.21-.12-.42-.16-.63-.01-.06-.05-.38-.03-.15-.01-.12-.02-.24-.03-.36-.01-.21-.01-.43,0-.64,0-.11.02-.21.03-.32,0-.05.03-.21,0-.01.01-.07.02-.14.04-.21.04-.2.09-.41.15-.6.03-.09.06-.17.09-.26.02-.04.03-.08.05-.13.07-.18-.06.12.02-.04.11-.21.21-.43.35-.63.02-.04.05-.07.07-.1.11-.17-.11.12.02-.03.07-.08.14-.16.21-.23s.15-.14.22-.21c.14-.14-.1.07,0,0,.05-.04.1-.07.15-.1.09-.06.19-.11.29-.17.04-.02.07-.03.11-.05-.19.09,0,0,.03,0,.1-.03.2-.06.3-.08.04,0,.08-.01.12-.02.18-.04-.13,0,.04,0,.12,0,.24-.02.36-.02.06,0,.11,0,.17,0,.04,0,.24.03.07,0,.58.09,1.01.28,1.51.56.79.46,1.46-.71.71-1.22Z"/>
  <path d="m383.64,585.23c10.5.81,20.97,1.67,31.49,2.17s21.01.83,31.53,1.02c20.94.37,41.89.21,62.82-.46,5.87-.19,11.75-.42,17.62-.69s11.93-.45,17.86-1.01c1.24-.12,1.29-2.01,0-1.97-5.29.15-10.58.56-15.87.81s-10.42.47-15.63.66c-10.51.38-21.02.63-31.53.75-20.95.24-41.89-.09-62.82-.76-11.82-.38-23.66-.71-35.46-1.36-.55-.03-.54.81,0,.85h0Z"/>
  <path d="m444.79,589.79c-1.21,1.33-2.28,2.83-3.03,4.46s-1.25,3.47-1.49,5.32c-.06.46.44.87.87.87.52,0,.8-.4.87-.87.42-3.24,1.78-6.45,3.76-9.04.42-.55-.5-1.26-.97-.75h0Z"/>
  <path d="m819.57,431.33c-.46,1.43-.25,2.99.41,4.31s1.86,2.33,3.34,2.67c.35.08.72-.11.82-.47.11-.39-.13-.68-.47-.82-.51-.22-.87-.52-1.26-.91-.21-.21-.43-.42-.61-.65.07.09-.02-.03-.04-.06-.05-.07-.09-.13-.14-.2-.08-.13-.16-.25-.23-.38-.06-.12-.12-.24-.18-.37-.07-.16,0,.05-.04-.11-.03-.08-.06-.15-.08-.23-.04-.13-.08-.26-.11-.39-.02-.08-.04-.16-.05-.24,0-.03-.04-.25-.02-.11-.09-.63-.04-1.1.11-1.64.27-.94-1.15-1.32-1.45-.4h0Z"/>
  <path d="m666.32,643.1c-.07,4.56-.49,9.1-1.2,13.61s-1.8,8.69-2.78,13.04c-.24,1.05,1.3,1.48,1.61.44,2.58-8.66,3.18-18.1,3.25-27.09,0-.57-.87-.57-.88,0h0Z"/>
  <path d="m658.87,652.99c-.36,2.39-.81,4.75-1.37,7.1s-1.29,4.65-1.88,6.99c-.25.97,1.18,1.36,1.49.41.75-2.28,1.22-4.68,1.68-7.04s.86-4.76,1.2-7.15c.1-.72-1-1.04-1.11-.31h0Z"/>
  <path d="m650.44,659.09c-.66,1.79-1.33,3.58-2.02,5.36-.11.28.12.6.38.67.3.08.58-.1.67-.38.61-1.81,1.23-3.61,1.86-5.4.08-.24-.09-.51-.32-.57-.26-.07-.48.09-.57.32h0Z"/>
  <path d="m637.39,664.7c.22,0,.23-.35,0-.35s-.23.35,0,.35h0Z"/>
  <path d="m634.71,665.27c.95,0,.95-1.47,0-1.47s-.95,1.47,0,1.47h0Z"/>
  <path d="m683.57,648.51c-.68,1.47-1.53,3.15-1.14,4.82.27,1.18,1.11,2.27,2.33,2.56,1.53.37,3.32-.78,4.67-1.37,1.92-.83,3.83-1.68,5.71-2.61,7.42-3.66,14.62-7.82,21.58-12.29.71-.46.05-1.6-.67-1.14-5.68,3.63-11.52,6.98-17.56,9.98-2.98,1.48-5.98,2.93-8.99,4.34-1.32.62-3.86,2.42-5.2,1.35-1.65-1.32-.77-3.7-.08-5.27.19-.43-.44-.81-.64-.38h0Z"/>
  <path d="m737.43,619.45c.89-.67,1.79-1.34,2.68-2.01.22-.17.36-.47.19-.73-.14-.22-.49-.37-.73-.19-.89.67-1.79,1.34-2.68,2.01-.22.17-.36.47-.19.73.14.22.49.37.73.19h0Z"/>
  <path d="m156.36,634.15c4.13,7.42,8.44,14.74,12.95,21.93,3.18,5.06,6.87,12.37,13.66,12.78.61.04.95-.59.85-1.11-1.72-8.75-3.45-17.5-5.17-26.25l-1.55.65c4.69,9.74,10,19.16,15.99,28.16.34.51,1.28.68,1.58,0,2.29-5.28,3.58-10.91,3.88-16.66l-1.52.41c1.17,2.65,3.8,4.26,6.58,4.8,3.42.67,6.82-.26,10.1-1.17,7.81-2.18,15.64-2.22,23.34.47.86.3,1.2-1.03.37-1.35-6.7-2.52-14.1-2.99-21.07-1.42-3.5.79-6.98,2.23-10.62,2.12-2.98-.09-6.07-1.41-7.3-4.28-.35-.81-1.47-.3-1.52.41-.37,5.44-1.69,10.73-3.83,15.74h1.58c-6.03-8.96-11.45-18.34-16.11-28.09-.44-.91-1.72-.24-1.55.65,1.7,8.76,3.4,17.51,5.11,26.27l.85-1.11c-3.09-.2-5.47-2.2-7.4-4.47-2.32-2.73-4.18-5.88-6.13-8.87-4.29-6.57-8.45-13.23-12.45-19.98-.24-.4-.86-.04-.63.37h0Z"/>
  <path d="m270.47,656.18c4.27-.9,8.52-1.81,12.77-2.8.81-.19.46-1.38-.34-1.23-4.29.82-8.56,1.7-12.82,2.61-.93.2-.53,1.61.39,1.42h0Z"/>
  <path d="m420.57,59.03c-2.44,1.88-4.41,4.31-5.68,7.12s-2.17,6.02-1.41,8.96c.2.79,1.22.52,1.31-.18.17-1.36.21-2.74.44-4.09s.64-2.77,1.21-4.06c1.13-2.57,2.85-4.82,5.04-6.59.65-.52-.23-1.68-.9-1.17h0Z"/>
  <path d="m425.4,61.85c-1.01,2.82-2.04,5.62-2.94,8.47-.12.39.14.82.52.92.43.12.77-.15.92-.52,1.1-2.78,2.07-5.61,3.05-8.44.14-.41-.16-.89-.57-1-.45-.12-.85.15-1,.57h0Z"/>
  <path d="m904.12,66.76c3.71,4.5,5.06,10.76,3.94,16.45-.14.69.87.99,1.07.29,1.81-6.19.12-12.85-4.02-17.73-.58-.69-1.55.3-.99.99h0Z"/>
  <g>
    <path class="cls-3" d="m657.56,56.1c-4.25,2.62-3.21,9.16.59,11.88,4.81,3.44,9.1-4.55,7.36-8.87-1.2-2.99-5.2-4.7-7.95-3Z"/>
    <path d="m657.35,55.73c-.29.17-.55.37-.83.56-.33.23-.62.38-.88.7-.44.55-.78,1.15-1.04,1.8-.5,1.3-.56,2.73-.34,4.09.45,2.74,2.21,5.7,4.99,6.59s5.04-1.09,6.27-3.29c1.32-2.35,1.86-5.48.61-7.97-1.59-3.17-5.92-4.82-9.06-2.95-1.06.64-.1,2.3.97,1.66,2.03-1.2,4.75-.23,6.07,1.59s.98,4.16.18,6.05c-.68,1.59-2.11,3.57-4.05,3.38-2.12-.21-3.79-2.62-4.4-4.47-.39-1.2-.49-2.53-.19-3.76.15-.61.4-1.18.75-1.7.4-.59.79-1.13,1.38-1.54.45-.31.05-1.03-.44-.75Z"/>
  </g>
  <path d="m554.97,129.03c8.93-.34,17.89-.79,26.81-.13s19.93,1.91,26.38,8.58c13.16,13.61,5.26,36.37-1.3,51.07-4.09,9.16-9.12,17.84-13.46,26.88-3.58,7.45-9.06,17.18-8.18,25.76.56,5.45,5.7,8.36,10.34,10.2,7.96,3.16,16.68,3.47,25.14,3.72l-2.13-2.8c-2.75,13.34-6.95,26.33-9.74,39.67-.25,1.22.35,2.38,1.56,2.75,14.11,4.4,27.55,8.35,42.37,4.94,16.28-3.75,30.97-12.72,45.14-21.22,2.47-1.48.22-5.35-2.26-3.87-13.35,8.01-27.03,16.37-42.24,20.32-14.67,3.81-27.81-.12-41.82-4.49l1.56,2.75c2.79-13.33,6.96-26.33,9.68-39.68.29-1.42-.62-2.75-2.13-2.8-8.37-.23-17.22-.39-24.97-3.94-6.38-2.93-6.91-6.4-5.28-12.44,2.74-10.15,8.03-19.64,12.84-28.92,5.65-10.9,11.13-22.24,14-34.24,3.08-12.87,2.62-29.89-9.02-38.6-6.38-4.77-14.95-6.16-22.67-6.98-10.17-1.09-20.43-.51-30.61.19-2.08.14-2.13,3.36,0,3.28h0Z"/>
  <path d="m334.24,840.27c33.13.93,64.3,14.64,87.93,37.73,1.85,1.81,4.67-1,2.84-2.84-23.8-23.97-57.1-37.49-90.78-37.76-1.85-.01-1.84,2.82,0,2.87h0Z"/>
  <path d="m328.28,846.22c2.98,5.61,6.55,11.06,10.96,15.66.64.67,1.95-.02,1.61-.94-2.25-6.21-4.55-12.39-6.86-18.58l-1.42.83c6.89,7.16,12.84,15.35,18.02,23.82.61.99,2.4.35,1.96-.82-3.3-8.77-7.06-17.36-10.35-26.14l-1.49.63c6.33,9.96,12.73,19.86,19.03,29.83.64,1.01,2.45.38,2.01-.85-3.53-9.97-7.47-19.79-11.08-29.74l-1.75.74c7.22,10.62,14.43,21.24,21.62,31.89.71,1.05,2.55.43,2.14-.9-2.81-9.17-5.74-18.31-8.62-27.47l-2.17.91c3.26,5.33,6.52,10.66,9.77,16,2.72,4.47,5.21,9.78,9.73,12.71.91.59,2.02-.38,1.77-1.36-2.17-8.66-4.35-17.32-6.55-25.97l-2.19.92c5.29,9.09,10.72,18.1,16.34,26.99.63,1,2.37.66,2.32-.63-.3-7.08-1.57-14.08-3.81-20.8l-2.16.91c3.18,7.22,7.09,14.08,11.72,20.47.84,1.16,2.46.44,2.25-.95-.91-5.96-1.81-11.93-2.74-17.89l-2.28.96c3.52,6.68,7,13.38,10.49,20.07.57,1.1,2.37.59,2.33-.63-.1-2.97-.2-5.94-.31-8.91l-2.32.63c1.83,3.03,3.65,6.06,5.47,9.09.33.56,1.09.77,1.65.43,1.66-.99,4.29-.37,5.07,1.52.55,1.33,2.74.75,2.18-.6-1.36-3.29-5.31-4.87-8.47-3.01l1.65.43c-1.81-3.04-3.61-6.08-5.41-9.13-.61-1.04-2.36-.63-2.32.63.09,2.97.19,5.94.3,8.91l2.33-.63c-3.51-6.69-7.02-13.37-10.5-20.07-.7-1.35-2.47-.33-2.28.96.9,5.96,1.84,11.92,2.77,17.88l2.25-.95c-4.64-6.38-8.61-13.21-11.8-20.42-.54-1.23-2.56-.35-2.16.91,2.07,6.55,3.29,13.31,3.61,20.17l2.32-.63c-5.66-8.87-11.15-17.84-16.41-26.95-.69-1.19-2.52-.39-2.19.92,2.17,8.66,4.34,17.32,6.53,25.98l1.77-1.36c-2.12-1.37-3.64-3.38-4.99-5.47-1.52-2.37-2.96-4.8-4.43-7.2-3.09-5.05-6.18-10.1-9.26-15.15-.68-1.12-2.58-.4-2.17.91,2.88,9.15,5.7,18.33,8.65,27.46l2.14-.9c-7.35-10.54-14.67-21.11-21.98-31.67-.57-.83-2.16-.35-1.75.74,3.69,9.91,7.04,19.94,10.8,29.81l2.01-.85c-6.55-9.82-13-19.71-19.53-29.54-.48-.72-1.85-.28-1.49.63,3.45,8.69,6.42,17.57,9.85,26.27l1.96-.82c-5.46-8.61-11.8-16.43-18.67-23.94-.56-.61-1.7.02-1.42.83,2.19,6.22,4.38,12.44,6.63,18.64l1.61-.94c-4.36-4.55-8.3-9.33-11.4-14.83-.34-.6-1.24-.07-.92.54h0Z"/>
  <path d="m367.75,797.64c11.55,2.58,15.81,14.31,18.07,24.65.15.7.79,1.3,1.47,1.47,18.88,4.91,35.12,12.88,51.3,23.66,1.98,1.32,4.47-1.81,2.58-3.34-14.91-12.02-34.05-20.5-52.75-24.39l1.47,1.47c-3.1-11.41-8.34-24-21.37-26.31-1.8-.32-2.6,2.37-.77,2.78h0Z"/>
  <path d="m376.7,773.88c13.69,2.7,26.78,11.41,38.77,18.26,5.89,3.37,11.71,6.86,17.45,10.49s11.83,7.27,15.46,13.3c1.2,1.99,4.16.24,3.11-1.82-2.74-5.33-7.29-8.84-12.23-12.04-6.63-4.29-13.46-8.3-20.34-12.18s-14.08-7.68-21.29-11.22c-6.5-3.19-12.96-6.41-20.17-7.57-1.79-.29-2.6,2.41-.76,2.77h0Z"/>
  <path d="m695.51,808.87c-6.05-.17-12.85.24-16.88,5.45-1.17,1.51-1.97,3.24-2.2,5.14-.51,4.14,2.82,7.86.51,11.89-3.95,6.89-18.1,7.18-24.88,7.65-9.21.64-18.33-.12-27.42-1.62-2.26-.37-3.28,2.98-.96,3.5,15.12,3.37,33.35,3.87,48.17-1.33,5.03-1.77,9.97-5.74,9.86-11.57-.08-4.39-3.23-8.06.55-12.05,3.35-3.53,8.74-3.62,13.26-3.66,2.19-.02,2.19-3.34,0-3.4h0Z"/>
  <path d="m611.55,795.4c26.75,6.23,54.4,6.78,81.08-.21,2.37-.62,1.37-4.25-1.01-3.67-26,6.29-53.2,7.37-79.36,1.34-1.65-.38-2.36,2.16-.7,2.55h0Z"/>
  <path d="m624.54,873.33c3.69.59,7.34,1.35,11.04,1.88s7.22.94,10.85,1.29c7.46.72,14.96,1.05,22.45,1.14,3.75.04,7.49-.01,11.24-.13,3.38-.11,6.8-.24,10.12-.95,2.48-.53,6.13-1.41,7.46-3.83.63-1.14.59-2.48.71-3.74.15-1.61.44-3.21.83-4.78.83-3.36,2.21-6.56,4.07-9.48s4.25-5.37,6.76-7.8c.64-.62-.2-1.77-.97-1.25-4.7,3.16-8.15,8.36-10.26,13.54-1.07,2.63-1.79,5.38-2.14,8.2-.16,1.33.08,3.08-.43,4.31-.58,1.41-3.08,2-4.41,2.41-3.2.97-6.55,1.24-9.88,1.39-3.63.16-7.27.23-10.91.25-7.25.04-14.49-.14-21.72-.62-4.06-.27-8.11-.59-12.16-.96s-8.38-.69-12.52-1.34c-.31-.05-.44.42-.13.47h0Z"/>
  <path d="m692.46,830.43c2.09-2.18,4.86-3.56,7.81-4.17.43-.09.67-.59.56-.99-.12-.45-.56-.63-.99-.56-3.23.54-6.13,2.38-8.2,4.89-.47.57.3,1.38.83.83h0Z"/>
  <path d="m698.35,837.21c1.2-2.71,3.65-4.55,6.45-5.36.37-.11.59-.5.49-.87-.11-.4-.49-.55-.87-.49-3.35.49-6.1,3.11-7.33,6.19-.28.71.93,1.23,1.25.53h0Z"/>
  <path d="m702.07,840.27c.76-.38,1.52-.76,2.29-1.13.3-.15.41-.6.23-.87-.2-.31-.55-.39-.87-.23-.76.38-1.52.77-2.28,1.15-.29.15-.4.59-.23.86.2.3.55.38.86.23h0Z"/>
  <path d="m710.1,819.31c1.1-4.7,3.79-9.03,7.71-11.89.34-.25,1.02-.89,1.38-1.01.06-.19.07-.14.04.12-.02.12-.04.23-.08.34-.08.29-.2.58-.31.86-.47,1.21-1.05,2.39-1.69,3.52-1.28,2.25-2.9,4.46-4.87,6.16-.88.76.26,2.21,1.24,1.6,2.78-1.72,6.56-4.66,9.74-1.98,1.31,1.1,1.34,2.77.26,4.07-1.33,1.6-3.62,2.01-5.49,2.65-1.01.34-.93,2.13.27,1.98,2.67-.34,5.38-1.13,7.06-3.4,1.42-1.91,1.49-4.46-.09-6.29-3.62-4.2-9.49-1.43-12.99,1.37l1.44,1.44c2.24-2.44,4.26-4.92,5.72-7.92.63-1.29,1.55-2.93,1.59-4.4.03-1.3-.96-2.29-2.28-1.79s-2.47,1.62-3.46,2.53c-1.13,1.04-2.14,2.21-3.03,3.46-1.75,2.46-2.93,5.25-3.47,8.22-.15.84,1.1,1.22,1.3.36h0Z"/>
  <path d="m343.24,798.66c3.5.89,6.29,3.09,8.7,5.71.61.67,1.72-.19,1.25-.97-1.04-1.71-2.47-3.03-4.19-4.05s-3.49-1.68-5.39-2.02c-.86-.15-1.24,1.11-.37,1.33h0Z"/>
  <path d="m337.7,803.9c3.44,0,6.4,2.43,7.84,5.45.22.46.87.57,1.28.33.48-.28.54-.81.33-1.28-1.6-3.63-5.6-5.63-9.45-5.6-.7,0-.7,1.09,0,1.09h0Z"/>
  <path d="m334.53,809.46c1.13.58,2.27,1.16,3.4,1.74.31.16.73.09.9-.24.16-.3.09-.74-.24-.9-1.15-.56-2.29-1.12-3.44-1.68-.29-.14-.69-.09-.85.22-.15.28-.09.69.22.85h0Z"/>
  <path d="m332.15,796.37c-2.45-.87-4.56-2.59-5.89-4.83-.28-.47-.64-1.03-.68-1.6-.09-1.19,1.27-.08,1.64.23,1.22,1.04,2.4,2.15,3.57,3.24.85.79,1.94-.2,1.52-1.17-.84-1.97-1.54-3.99-2.04-6.07-.24-1-.45-2.01-.61-3.03-.09-.56-.16-1.11-.21-1.67-.04-.37.03-.84-.05-1.2-.01-.06.09-.19.06-.25-.29-.03-.36.01-.2.13.06.05.11.11.15.18.2.45.54.88.78,1.32.48.87.92,1.76,1.31,2.67.82,1.94,1.41,3.98,1.8,6.04.24,1.24,2.12.71,1.89-.52-.37-1.92-3.69-14.22-7.04-11.25-.71.63-.77,1.67-.7,2.55.1,1.38.29,2.77.56,4.13.53,2.74,1.43,5.43,2.64,7.94l1.33-1.33c-.91-.69-1.81-1.4-2.72-2.1-.82-.63-1.63-1.48-2.63-1.81-1.77-.58-2.81,1.02-2.37,2.61s1.71,3.1,2.9,4.17c1.36,1.22,2.96,2.12,4.71,2.66.68.21.95-.82.29-1.05h0Z"/>
  <path d="m348.36,817c4.92,1.55,9.07,5.14,11.33,9.78.55,1.13.95,2.31,1.27,3.52.36,1.35.66,2.67,1.56,3.78,1.59,1.96,4.02,2.78,6.35,3.47,1.12.33,1.59-1.4.48-1.74-2.62-.8-5.03-1.68-6.15-4.38-.51-1.22-.79-2.52-1.31-3.74-.48-1.14-1.06-2.23-1.74-3.25-2.71-4.06-6.82-7.08-11.54-8.36-.61-.16-.85.75-.26.94h0Z"/>
  <path d="m605.54,691.45c16.95,3.35,35.13,7.21,47.66,20.07,5.35,5.49,9.42,12.46,10.42,20.15.54,4.18-.1,8.37.16,12.56s1.61,7.63,4.47,10.68c1.69,1.8,3.48,3.47,4.96,5.46,1.4,1.87,2.6,3.89,3.58,6,2.08,4.45,3.15,9.33,3.18,14.24,0,.77,1.2.77,1.2,0,0-8.44-3.08-16.73-8.62-23.1-1.47-1.69-3.19-3.15-4.57-4.91s-2.21-4.02-2.51-6.32c-.55-4.32.2-8.69-.13-13.03-1.22-16.37-14.89-28.44-29.17-34.36-9.75-4.04-20.2-5.95-30.53-7.89-.3-.06-.44.41-.13.47h0Z"/>
  <path d="m426.78,773.84c5.6-1.29,10.69-4.5,14.3-8.97,3.92-4.87,5.4-10.74,5.95-16.86.63-7.02.33-14.1,2.98-20.77,2.34-5.89,5.88-11.44,4.19-18.01-1.86-7.27-7.79-12.23-13.63-16.42-.52-.37-1.01.49-.5.85,5.22,3.7,10.6,8,12.93,14.18,1.14,3.03,1.53,6.41.57,9.54s-2.96,5.71-4.41,8.58c-2.79,5.54-2.88,12.06-3.21,18.12s-.94,12.53-4.34,17.96-8.82,9.45-15.05,11.03c-.5.13-.29.89.21.78h0Z"/>
  <path d="m650.2,688.21c8.91,5.6,16.52,13.19,22.52,21.82.5.72,1.68.03,1.18-.69-6.18-8.83-14.19-16.08-23.34-21.74-.39-.24-.75.37-.36.62h0Z"/>
  <path d="m674.25,685.28c.48,1.44.95,2.89,1.43,4.33.11.32.43.53.77.43.31-.09.54-.45.43-.77-.49-1.44-.97-2.88-1.46-4.32-.1-.31-.42-.51-.75-.42-.3.08-.53.43-.42.75h0Z"/>
  <path d="m462.33,692.48c.9,3.86,1.81,7.72,2.74,11.57.21.87,1.57.5,1.35-.37-1-3.83-2.02-7.66-3.05-11.49-.18-.67-1.2-.39-1.04.29h0Z"/>
  <path d="m481.06,695.21c-.02,3.37-.07,6.73.11,10.09.03.6.89.6.93,0,.18-3.36.12-6.72.11-10.09,0-.73-1.13-.73-1.14,0h0Z"/>
  <path d="m387.3,759.01c3.52,4.85,7.98,8.89,13.16,11.92.97.57,1.86-.95.88-1.51-4.95-2.81-9.34-6.62-12.81-11.13-.55-.71-1.78-.03-1.23.72h0Z"/>
  <path d="m620.75,299.33c.45,6.91,2.29,13.97,4.08,20.64.64,2.4,4.31,1.39,3.72-1.03-1.62-6.65-2.65-13.47-4.39-20.07-.49-1.85-3.54-1.53-3.41.46h0Z"/>
  <g>
    <path class="cls-2" d="m878.76,474.79c29.87,21.29,46.59,53.1,81.84,68.11,24.08,10.25,52.23,10.53,76.5.75,39.45-15.9,60.7-52.41,58.37-94.26-1.65-29.71-17.58-57.02-40.11-75.94-3.75,4.8-11.15,5.09-16.78,2.76-9.6-3.98-17.41-16.31-19.3-26.32-.8-4.25.28-9.15,3.76-11.72-.3-2.85-.61-5.76.07-8.54.68-2.78,2.53-5.45,5.27-6.29,1.86-.57,4.23-.42,5.32-2.04.61-.92.57-2.1.68-3.2.32-3.26,2.31-6.32,5.15-7.94,6.05-3.46,10.25-6.02,5.63-13.36-4.27-6.78-11.34-11.84-15.56-19.07-1.24-2.12-2.41-4.4-2.44-6.85-.03-2.45,1.42-5.09,3.81-5.62,1.64-.37,3.32.29,4.87.96,29.46,12.69,56.67,32.43,82.11,51.61,14.82,11.18,27.9,24.65,38.77,39.69,21.95,30.35,35.05,67.33,35.35,104.9.54,67.13-39.99,133.07-100.39,162.36-108.41,52.58-204.9-19.25-284.14-88.46"/>
    <path d="m878.02,476.05c21.53,15.61,37.07,37.7,57.97,54.02,22.12,17.27,49.88,25.26,77.8,21.48,24.9-3.37,48.5-16.1,63.95-36.06,14.36-18.54,20.75-42.09,19.59-65.38-1.51-30.54-17.68-58.39-40.67-77.96-.72-.62-1.9-.79-2.6,0-5.76,6.46-15.35,3.34-20.97-1.63-5.45-4.81-9.5-11.59-11.43-18.58-1.01-3.66-1.24-7.6,1.1-10.81.64-.88,1.71-1.43,2.07-2.48.51-1.49-.33-4-.27-5.64.12-3.3,1.16-6.51,4.47-7.84,1.16-.46,2.43-.46,3.58-.93,2.21-.9,2.99-2.3,3.47-4.54.96-4.47,2.23-6.59,6.13-8.96,1.97-1.19,4.16-2.53,5.47-4.48,2.92-4.36.09-9.22-2.64-12.87-4.32-5.76-10.23-10.3-13.84-16.6-.91-1.59-2.45-4-2.18-5.91.9-6.45,7.35-2.44,9.95-1.25,4.08,1.86,8.1,3.84,12.06,5.92,14.95,7.86,29.12,17.12,42.88,26.89,13.77,9.78,27.73,19.64,39.87,31.42,23.38,22.67,40.77,51.5,49.71,82.83,16.35,57.29.83,119.4-38.04,164.14-39.76,45.76-101.78,68.29-161.57,57.2-60.22-11.17-111.97-49.63-157.74-88.26-5.79-4.89-11.53-9.84-17.24-14.83-1.86-1.62-4.58,1.09-2.72,2.72,48.89,42.65,103,86.92,167.58,102.13,62.98,14.84,129.84-6.26,172.9-54.62,41.83-46.97,58.03-113.16,39.25-173.57-10.29-33.11-29.85-63.38-55.86-86.32-13.42-11.83-28.4-22.24-43.17-32.3s-31.41-20.17-48.47-27.68c-4.72-2.08-10.36-3.4-12.61,2.64s3.35,13.02,7.1,17.35,16.58,14.44,10.49,20.17c-2.37,2.24-5.65,3.12-7.84,5.62s-2.09,6.03-4.17,8.48-5.52,2.25-7.73,4.87c-2.01,2.38-2.73,5.52-2.81,8.57-.06,2.57.29,3.49-.93,5.64-.54.95-1.21,1.78-1.63,2.81-1.1,2.62-1.29,5.48-.88,8.27,1.75,12.02,11.39,26.49,23.84,29.23,5.61,1.24,11.49.19,15.41-4.21h-2.6c20.42,17.37,35.61,41.39,39.02,68.31,2.85,22.46-1.92,46.1-14.43,65.07-13.68,20.74-36.12,34.61-60.38,39.23-27.91,5.32-56.56-1.9-79.13-18.95-21.65-16.36-37.54-39-59.64-54.88-1.53-1.1-2.98,1.43-1.47,2.52h0Z"/>
  </g>
  <g>
    <path class="cls-2" d="m336.81,421.1c-14.97-.58-29.23,3.42-44.15,2.19-20.87-1.72-43.15-4.1-63.33-9.82-28.24-8.01-52.99-25.36-74.66-45.17-28.84-26.36-54.09-62.82-48.77-103.94,4.69-36.22,35.14-65.83,69.54-75.27,18.58-5.09,39.09-4.88,57.45,1.05,20.9,6.76,31.65,21.72,47.27,35.79,10.96,9.88,34.87,23.9,50.04,17.98.97-.38,1.95-.87,2.61-1.68,2.14-2.61-.02-6.43-2.14-9.05,2.75.48,5.68.95,8.26-.12,2.58-1.07,4.45-4.31,3.06-6.73-.98-1.7-3.38-3.01-2.81-4.89,3.83.89,8.14-1.33,9.64-4.96,1.5-3.63.02-8.25-3.32-10.32,3.89-.89,7.42-3.22,9.77-6.44.8-1.1,1.48-2.36,1.47-3.72-.06-5.28-8.9-5.37-11.32-10.06,4.19-1.12,7.4-5.21,7.5-9.54.1-4.34-2.93-8.56-7.07-9.87-1.91-.6-3.95-.63-5.9-1.1-3.21-.78-5.99-2.74-8.65-4.69-9.65-7.06-18.2-14.64-26.82-22.89-20.69-19.79-46.7-33.98-74.74-39.99-31.87-6.83-66.18-6.39-97.31,3.77-171.59,55.97-146,286.49-6.76,363.2,39.92,21.99,85.62,31.36,130.98,35.84"/>
    <path d="m336.81,419.64c-11.71-.33-23.22,1.93-34.9,2.3-11.23.36-22.7-1.3-33.83-2.68-22.63-2.82-44.9-7.62-65.24-18.24-18.97-9.9-36.12-23.35-51.46-38.19-14.19-13.72-26.81-29.47-35.14-47.47-8.48-18.34-11.87-39.27-6.96-59.08,4.46-18.01,15.39-33.88,29.48-45.76,31.22-26.33,82.58-33.22,115.62-6.31,8.28,6.74,15.42,14.75,23.28,21.95,6.65,6.09,14.24,11.21,22.38,15.1,7.82,3.73,16.82,6.85,25.6,5.68,2.96-.39,6.87-1.2,8.77-3.77,2.63-3.55.09-7.96-2.14-10.92l-2.1,2.73c4.54.75,10.05,1.31,12.94-3.13.9-1.38,1.41-3.04,1.11-4.69-.38-2.07-3.22-3.77-3.18-5.72l-2.36,1.8c11.31,1.62,16.94-11.82,7.75-18.69l-.45,3.41c5.25-1.46,13.51-6.33,12.5-12.89-.91-5.88-8.69-5.71-11.46-10.07l-1.12,2.75c5.58-1.92,9.66-7.17,8.73-13.28-.49-3.18-2.32-6.09-4.89-7.98-3.56-2.62-8.02-2.02-11.92-3.8-8.69-3.95-16.55-11.99-23.59-18.32-6.95-6.26-13.53-12.86-20.93-18.61-29.67-23.09-66.02-33.77-103.36-34.33-56.2-.83-113.01,24.67-146.47,70.46-26.78,36.64-36.37,83.33-31.95,128.03,4.61,46.75,23.73,91.98,54.06,127.86,15.51,18.34,34.04,34.16,54.8,46.27,33.08,19.31,70.72,29.5,108.37,35.13,9.27,1.39,18.57,2.5,27.89,3.43,2.46.25,2.44-3.6,0-3.84-63.11-6.31-127.46-22.9-174.06-68.33-32.11-31.3-54.17-72.5-63.48-116.29-8.96-42.14-5.96-87.66,13.28-126.62,20.92-42.36,59.91-72.14,104.88-85.4,36-10.61,77.31-9.48,112.56,3.57,16.7,6.19,32.34,15.4,45.94,26.88,7.02,5.92,13.44,12.51,20.4,18.51,6.14,5.29,13,11.93,20.51,15.17,3.7,1.6,8.39,1.02,11.53,3.79,5.08,4.47,2.62,12.07-3.3,14.11-1.09.38-1.8,1.67-1.12,2.75,1.76,2.76,4.4,4,7.22,5.48,7.9,4.13-.7,10.52-6.01,12-1.68.47-1.68,2.49-.45,3.41,5.73,4.29,2.24,12.88-4.88,11.87-1.19-.17-2.34.47-2.36,1.8-.03,1.52.39,2.04,1.01,3.36.68,1.43,1.87,3.84,1.27,5.56-.84,2.4-6.83,1.29-8.42,1.03-1.38-.23-3.19,1.29-2.1,2.73,1.87,2.47,1.88,2.06.64,5.43-1.16,3.13-.68,3.02-3.37,3.53-1.84.35-3.73.42-5.6.34-4.79-.21-9.53-1.57-13.98-3.29-8.5-3.28-16.66-8.22-23.63-14.08-14.3-12.05-25.64-27.42-43.17-35.18-35.85-15.87-80.21-5.51-108.11,20.92-12.76,12.09-22.5,27.69-26.41,44.92-4.23,18.65-1.58,38.19,5.68,55.73,7.36,17.76,19.01,33.51,32.29,47.29,14.07,14.59,30.13,27.8,47.45,38.36,21.17,12.9,44.12,19.68,68.55,23.19,12.19,1.75,24.67,3.39,36.98,3.74,13.54.39,26.88-2.8,40.43-2.47,1.88.05,1.87-2.86,0-2.91h0Z"/>
  </g>
  <path d="m1043.83,366.16c3.98,2.34,7.45,5.26,10.73,8.5,1.68,1.66,4.13-.83,2.58-2.58-3.26-3.66-7.27-6.56-11.59-8.86-1.93-1.03-3.61,1.82-1.72,2.94h0Z"/>
  <path d="m1089.13,348.22c.94-2.13,1.64-4.32,2.77-6.38s2.55-4.16,4.12-6.03c3.07-3.64,6.85-6.64,10.94-9.06.72-.43.09-1.47-.65-1.11-4.47,2.17-8.28,5.43-11.38,9.31-1.49,1.86-2.82,3.86-3.94,5.96s-2.34,4.54-2.79,6.91c-.1.52.68.96.93.39h0Z"/>
  <path d="m1076.3,359.69c.73,0,.73-1.14,0-1.14s-.73,1.14,0,1.14h0Z"/>
  <path d="m325.63,174.36c6.51,5.43,13.16,10.68,20.03,15.63,1.88,1.36,3.73-1.8,1.82-3.12-6.74-4.67-13.33-9.51-19.72-14.65-1.49-1.2-3.64.88-2.14,2.14h0Z"/>
  <path d="m334.23,200.78c4.07,4.01,9.02,7.27,14.74,8.2,2.06.34,2.93-2.5.88-3.18-4.94-1.64-9.63-3.59-13.6-7.04-1.37-1.19-3.34.71-2.02,2.02h0Z"/>
  <path d="m326.86,212.88c3.48,3.96,7.26,7.4,11.72,10.22,2.11,1.34,4.04-1.99,1.95-3.34-4.09-2.65-7.98-5.69-11.32-9.24-1.48-1.58-3.77.76-2.36,2.36h0Z"/>
  <path d="m319.35,226.55c2.33,3,5.1,5.48,8.26,7.58,2.08,1.39,4.08-2.01,1.96-3.36-2.9-1.84-5.49-4.11-7.79-6.65-1.52-1.68-3.74.73-2.43,2.43h0Z"/>
  <path d="m255.95,191.23c0-6.31,2.54-12.48,6.99-16.95.63-.63-.35-1.61-.98-.98-4.69,4.75-7.31,11.26-7.2,17.93.01.76,1.18.76,1.18,0h0Z"/>
  <path d="m271.78,160.08c.8,0,.8-1.24,0-1.24s-.8,1.24,0,1.24h0Z"/>
  <path d="m279.39,434.35c-3.71,7.08-7.43,14.17-11.75,20.89-4.04,6.29-8.61,12.88-14.67,17.4-2.98,2.22-6.36,3.71-10.04,4.29-4.17.66-8.42.51-12.6,1.05s-8.11,1.45-12.2,1.92-8.3.21-12.45-.68c-7.22-1.55-16.02-3.98-22.11,1.75-.6.56.3,1.45.9.9,5.97-5.4,14.65-2.72,21.58-1.36,4.03.79,7.99.95,12.08.49s8.27-1.41,12.44-1.93,8.07-.32,12.08-.83c3.58-.46,6.86-1.63,9.86-3.64,5.99-4.02,10.49-10.15,14.47-16.06,5.07-7.52,9.26-15.57,13.43-23.6.35-.67-.66-1.26-1.01-.59h0Z"/>
  <path d="m279.02,472.89c4.6-6.08,6.8-13.47,10.77-19.91,3.61-5.84,9.39-10.94,16.62-10.7.86.03.81-1.2,0-1.31-7.11-.91-13.28,4.52-16.94,10.06-4.47,6.76-6.25,14.92-11.05,21.5-.27.37.34.7.6.35h0Z"/>
  <path d="m313.95,435.54l2.7-.69c.9-.23,1.78-.53,2.67-.8.38-.12.62-.51.51-.9s-.51-.59-.9-.51c-.91.19-1.83.36-2.73.6l-2.69.71c-.43.11-.69.58-.57,1.01s.58.68,1.01.57h0Z"/>
  <path d="m797.67,534.24c3.36,5.99,6.81,11.94,9.95,18.05l1.11-1.11c-3.93-2.22-7.88-4.38-11.84-6.55-.63-.34-1.5.23-1.26.97,1.35,4.16,2.69,8.32,4.04,12.48l.83-1.09c-3.03-.19-5.96-1.34-8.27-3.32-.47-.4-1.16-.25-1.35.36-.39,1.21-.78,2.42-1.17,3.62-.31.96,1.19,1.36,1.51.42.41-1.2.81-2.41,1.22-3.61l-1.35.36c2.67,2.34,5.87,3.69,9.42,3.9.55.03,1-.58.83-1.09-1.35-4.16-2.7-8.32-4.05-12.48l-1.26.97c3.95,2.17,7.91,4.34,11.89,6.47.69.37,1.55-.39,1.11-1.11-3.63-5.83-6.98-11.84-10.4-17.79-.36-.62-1.31-.06-.96.56h0Z"/>
  <path d="m786.08,825.23c6.46-18.71,13.24-38.08,25.87-53.65,3.49-4.3,7.42-8.28,11.8-11.69l-1.03-.6c-4.51,22.25-8.68,44.57-13.06,66.84-1.24,6.28-2.55,12.55-3.75,18.83-.25,1.33,1.61,1.86,2.03.56,5.15-15.83,16.94-29.15,31.77-36.62,4.21-2.12,8.66-3.75,13.25-4.84l-1-1.73c-10.59,12-20.03,25-28.1,38.82-2.3,3.93-4.49,7.93-6.57,11.98-.63,1.22.83,2.28,1.84,1.42,14.08-11.82,30.66-20.77,48.37-25.73l-1.25-2.14c-9.75,9.99-19.37,20.11-29.04,30.17-.99,1.03.05,2.39,1.29,2.21,4.43-.62,8.99-.36,13.32.75,2.03.52,4.02,1.2,5.91,2.09,1.56.73,3.24,1.84,3.98,3.47.87,1.92-.96,2.7-2.6,2.93-2.14.29-4.34.34-6.49.34-4.77,0-9.51-.57-14.15-1.66-1.68-.39-2.39,2.13-.71,2.59,8.39,2.31,15.07,9.86,16.11,18.54l.4-.96c-.82.83-2.35.8-3.03-.22-.95-1.42-3.27-.09-2.31,1.35.84,1.25,2.09,2.01,3.6,2.13,1.29.1,3.17-.38,3.85-1.62.63-1.16-.3-3.69-.65-4.87-.49-1.64-1.17-3.24-1.99-4.74-3.22-5.89-8.78-10.43-15.27-12.2l-.71,2.59c4.33,1.01,8.76,1.61,13.21,1.72,2.2.06,4.41,0,6.61-.18,1.79-.14,3.77-.24,5.27-1.34,2.93-2.14,1.71-5.79-.49-7.94-2.71-2.64-6.88-3.9-10.47-4.75-4.64-1.09-9.38-1.25-14.09-.58l1.29,2.21c9.66-10.07,19.39-20.09,28.98-30.23.85-.9.02-2.51-1.25-2.14-14.06,4.18-27.41,10.45-39.43,18.87-3.43,2.4-6.73,4.96-9.92,7.67l1.84,1.42c7.17-14.18,15.72-27.67,25.52-40.18,2.77-3.53,5.63-6.98,8.58-10.35.67-.77.03-1.97-1-1.73-16.79,3.98-31.55,15-40.49,29.73-2.51,4.14-4.53,8.56-6.02,13.16l2.03.56c4.26-22.31,8.3-44.67,12.47-67,1.18-6.3,2.37-12.6,3.5-18.9.11-.63-.55-1-1.03-.6-15.67,12.74-24.74,31.05-31.72,49.61-2.04,5.43-3.93,10.91-5.79,16.4-.15.45.56.65.72.2h0Z"/>
  <path d="m772.68,864.96c2.54-1.15,5.02-2.46,7.52-3.7,1.13-.57,2.39-1.39,3.67-1.55,1.14-.15,1.71.58,1.95,1.6s.2,2.23.16,3.32c-.05,1.26-.18,2.52-.42,3.76-.48,2.51-1.34,4.95-2.33,7.3-.44,1.06,1.28,1.73,1.83.77,1.51-2.64,2.34-5.52,2.74-8.53.2-1.5.28-3,.23-4.51-.04-1.22-.12-2.5-.66-3.62s-1.49-1.86-2.71-1.97c-1.38-.12-2.66.56-3.84,1.19-2.95,1.58-5.96,3.04-8.87,4.7-.81.46-.1,1.6.72,1.23h0Z"/>
  <path d="m528.02,875.52c-7.87-4.91-16.2-9.02-24.81-12.45v1.83c14-4.36,29.44-2.15,41.43,6.4.88.63,2.14-.62,1.5-1.5-11.57-16.1-23.93-31.63-36.87-46.64l.25.96c.51-1.68,2.45-2.43,4.09-2.24,2.14.25,3.99,1.77,5.6,3.07,3.35,2.71,6.6,5.55,9.75,8.49,6.24,5.84,12.08,12.12,17.45,18.78,3.11,3.85,5.95,7.89,8.69,12.02.91,1.36,2.86.19,2.18-1.27-6.37-13.52-8.8-28.62-6.34-43.43.69-4.16,1.73-8.23,3.08-12.23l-2.03.26c8.62,13.28,10.82,29.06,13.03,44.4.17,1.16,2.11,1.13,2.31,0,1.22-6.73,4.16-13.04,8.62-18.24l-1.17.31c2.4.79,3.16,3.46,3.68,5.67.62,2.6.93,5.3,2.01,7.77,1.17,2.68,3.28,4.36,6.25,4.59,2.16.16,4.49-.44,6.36.99,1.41,1.08,2.28,2.97,1.98,4.75-.25,1.44,1.96,2.06,2.21.61.51-2.96-.7-5.96-3.24-7.63-1.45-.96-3.15-1.15-4.85-1.13s-3.4.21-4.78-.81c-1.63-1.19-2.19-3.43-2.63-5.29-.54-2.26-.83-4.6-1.63-6.79-.85-2.34-2.27-4.26-4.7-5.06-.38-.12-.91,0-1.17.31-4.72,5.51-7.94,12.15-9.23,19.3h2.31c-2.22-15.4-4.81-31.58-13.43-44.88-.55-.84-1.69-.63-2.03.26-5.41,14.35-5.77,30.56-1.55,45.26,1.21,4.2,2.77,8.36,4.77,12.25l2.18-1.27c-9.65-13.77-21.04-26.4-33.95-37.19-2.81-2.35-6.01-5.61-9.87-5.86-1.48-.09-3.02.34-4.19,1.25-.91.71-2.18,2.23-1.39,3.38,1.28,1.87,3.01,3.55,4.47,5.29s2.95,3.55,4.41,5.34c2.93,3.57,5.82,7.17,8.67,10.8,6.44,8.18,12.7,16.51,18.82,24.92l1.5-1.5c-12.25-8.63-28.82-11.26-43.05-6.34-.91.31-.89,1.51,0,1.83,8.58,3.11,16.8,7.13,24.6,11.85.79.48,1.5-.75.72-1.23h0Z"/>
  <g>
    <g>
      <circle class="cls-2" cx="709.34" cy="193" r="27.29"/>
      <path d="m734.69,193c-.35,13.83-11.27,25.31-25.35,25.35-13.79.03-25.38-11.56-25.35-25.35.03-13.82,11.51-25.35,25.35-25.35,14.08,0,25,11.54,25.35,25.35.06,2.5,3.95,2.51,3.89,0-.3-12.04-7.36-22.85-18.71-27.26s-25.05-.97-32.95,8.53c-17.17,20.65,1.43,52.25,27.78,47.46,13.93-2.53,23.54-14.83,23.89-28.73.06-2.5-3.82-2.5-3.89,0Z"/>
    </g>
    <g>
      <path class="cls-3" d="m709.13,193.31c.69,5.86-2.77,11.84-10.07,12.18-2.81.13-6.2-.71-8.45-2.46-1.55-1.21-3.52-3.73-4.17-5.57-.58-1.64-.39-3.45-.09-5.16.28-1.61.66-3.23,1.48-4.64,1.31-2.27,3.92-3.52,6.37-4.15,3.05-.78,6.49-1.04,9.15.63,3.47,2.18,5.38,5.65,5.8,9.16Z"/>
      <path d="m708.39,193.31c.16,1.85-.15,3.4-1.13,4.99-.86,1.4-1.76,2.62-3.15,3.54-3.28,2.16-7.62,2.25-11.09.39-1.74-.93-3.07-2.49-4.07-4.16-1.21-2.02-.94-4.22-.43-6.44s1.5-3.96,3.61-5.04c1.81-.93,4.03-1.34,6.06-1.36,2.42-.01,4.26.96,5.89,2.72,1.49,1.62,2.49,3.79,2.95,5.94.51,2.41,4.45,1.9,4.32-.59-.15-3.05-1.11-5.74-3.05-8.11s-4.61-4.07-7.63-4.48c-5.6-.78-12.9,1.54-15.19,7.12-1.14,2.78-1.83,6.41-1.16,9.38.58,2.58,2.53,5.13,4.48,6.84,4.1,3.61,10.64,4.41,15.55,2.09,2.3-1.09,4.02-3.07,5.02-5.39s.83-5.11.53-7.45c-.12-.92-1.57-.97-1.49,0Z"/>
    </g>
    <path class="cls-2" d="m713.77,195.43c2.7-3,.74-7.55-.56-10.67-2.43-5.82-9.01-1.59-10.24,2.83-1.5,5.43,6.02,13.16,10.8,7.84Z"/>
    <path d="m749.21,142.89c-1.87-1.62-3.56-3.43-5.58-4.88s-4.05-2.71-6.22-3.82c-4.36-2.23-8.96-3.93-13.75-4.94-9.83-2.08-20.14-1.58-29.71,1.49-5.45,1.75-10.64,4.26-15.35,7.52-2.03,1.4-.12,4.73,1.95,3.33,7.86-5.33,16.98-8.69,26.46-9.53,9.19-.81,18.48.79,26.99,4.36,2.42,1.02,4.79,2.21,7.07,3.51s4.79,2.57,6.83,4.28c.9.75,2.22-.52,1.31-1.31h0Z"/>
  </g>
  <g>
    <g>
      <circle class="cls-2" cx="558.86" cy="193" r="27.29"/>
      <path d="m584.21,193c-.35,13.83-11.27,25.31-25.35,25.35-13.79.03-25.38-11.56-25.35-25.35.03-13.82,11.51-25.35,25.35-25.35,14.08,0,25,11.54,25.35,25.35.06,2.5,3.95,2.51,3.89,0-.3-12.04-7.36-22.85-18.71-27.26s-25.05-.97-32.95,8.53c-17.17,20.65,1.43,52.25,27.78,47.46,13.93-2.53,23.54-14.83,23.89-28.73.06-2.5-3.82-2.5-3.89,0Z"/>
    </g>
    <g>
      <path class="cls-3" d="m558.65,193.31c.69,5.86-2.77,11.84-10.07,12.18-2.81.13-6.2-.71-8.45-2.46-1.55-1.21-3.52-3.73-4.17-5.57-.58-1.64-.39-3.45-.09-5.16.28-1.61.66-3.23,1.48-4.64,1.31-2.27,3.92-3.52,6.37-4.15,3.05-.78,6.49-1.04,9.15.63,3.47,2.18,5.38,5.65,5.8,9.16Z"/>
      <path d="m557.9,193.31c.16,1.85-.15,3.4-1.13,4.99-.86,1.4-1.76,2.62-3.15,3.54-3.28,2.16-7.62,2.25-11.09.39-1.74-.93-3.07-2.49-4.07-4.16-1.21-2.02-.94-4.22-.43-6.44s1.5-3.96,3.61-5.04c1.81-.93,4.03-1.34,6.06-1.36,2.42-.01,4.26.96,5.89,2.72,1.49,1.62,2.49,3.79,2.95,5.94.51,2.41,4.45,1.9,4.32-.59-.15-3.05-1.11-5.74-3.05-8.11s-4.61-4.07-7.63-4.48c-5.6-.78-12.9,1.54-15.19,7.12-1.14,2.78-1.83,6.41-1.16,9.38.58,2.58,2.53,5.13,4.48,6.84,4.1,3.61,10.64,4.41,15.55,2.09,2.3-1.09,4.02-3.07,5.02-5.39s.83-5.11.53-7.45c-.12-.92-1.57-.97-1.49,0Z"/>
    </g>
    <path class="cls-2" d="m563.28,195.43c2.7-3,.74-7.55-.56-10.67-2.43-5.82-9.01-1.59-10.24,2.83-1.5,5.43,6.02,13.16,10.8,7.84Z"/>
  </g>
  <path d="m635.06,226.94c4.98,3.32,5.91,9.87,3.1,14.89-1.25,2.24,1.9,3.92,3.36,1.96,4.79-6.43,2.02-16.04-4.65-19.93-2-1.17-3.7,1.82-1.8,3.08h0Z"/>
  <path d="m693.39,261.69c-2.01,8.36,1.56,17.06,9.05,21.37,2.16,1.24,4.11-2.09,1.95-3.34-6.01-3.51-9.29-10.29-7.93-17.18.39-1.99-2.59-2.86-3.07-.85h0Z"/>
  <path class="cls-2" d="m744.97,269.59c4.27,10.06,13.75,16.8,24.44,18.53s21.39-.76,29.4-7.6c9.66-8.24,12.1-21.83,8.14-33.6-2.65-7.88-7.81-14.81-14.38-19.86-3.57-2.75-7.61-5.05-11.94-6.35-4.89-1.47-9.68-1.12-14.48.49-4.32,1.45-8.95,3.06-12.57,5.9s-5.83,6.97-7.81,11c-3.83,7.81-5.03,17.18-3.08,25.68.47,2.05,1.16,4.04,2.02,5.96.38.84,1.85.23,1.5-.63-3.16-7.81-3.08-16.78-.62-24.77,1.21-3.95,3.14-7.79,5.42-11.23,2.57-3.88,6.2-6.18,10.45-7.89s9.09-3.68,13.95-3.36c4.54.31,8.88,2.26,12.69,4.64,6.66,4.16,12.13,10.27,15.43,17.41,5.06,10.92,4.39,24.59-4.28,33.48-6.8,6.97-16.98,9.97-26.55,9.32-9.97-.68-19.65-5.5-25-14.15-.7-1.12-1.31-2.29-1.86-3.5-.27-.6-1.13-.08-.88.51Z"/>
  <path class="cls-2" d="m474.41,274.27c4.27,10.06,13.75,16.8,24.44,18.53s21.39-.76,29.4-7.6c9.66-8.24,12.1-21.83,8.14-33.6-2.65-7.88-7.81-14.81-14.38-19.86-3.57-2.75-7.61-5.05-11.94-6.35-4.89-1.47-9.68-1.12-14.48.49-4.32,1.45-8.95,3.06-12.57,5.9-3.6,2.82-5.83,6.97-7.81,11-3.83,7.81-5.03,17.18-3.08,25.68.47,2.05,1.16,4.04,2.02,5.96.38.84,1.85.23,1.5-.63-3.16-7.81-3.08-16.78-.62-24.77,1.21-3.95,3.14-7.79,5.42-11.23,2.57-3.88,6.2-6.18,10.45-7.89s9.09-3.68,13.95-3.36c4.54.31,8.88,2.26,12.69,4.64,6.66,4.16,12.13,10.27,15.43,17.41,5.06,10.92,4.39,24.59-4.28,33.48-6.8,6.97-16.98,9.97-26.55,9.32-9.97-.68-19.65-5.5-25-14.15-.7-1.12-1.31-2.29-1.86-3.5-.27-.6-1.13-.08-.88.51Z"/>
  <path d="m21.77,412.15c2.59,6.76,6.54,12.94,11.64,18.09,4.49,4.53,11.4,10.53,18.33,8.26,3.17-1.04,5.76-3.63,5.96-7.06.03-.46-.4-.81-.82-.82-4.65-.17-8.02,4.19-8.48,8.5-.6,5.65,3.35,10.65,6.87,14.61,7.49,8.42,16.7,15.31,26.85,20.21,5.68,2.74,11.63,4.84,17.77,6.26,1.38.32,1.97-1.8.59-2.12-9.88-2.33-19.32-6.4-27.78-12.01-4.3-2.85-8.35-6.1-12.06-9.69s-7.76-7.53-9.62-12.36c-.98-2.56-1.17-5.32.09-7.82,1.13-2.25,3.17-3.99,5.78-3.91l-.82-.82c-.2,3.95-4.48,6.24-8.08,5.95-4.24-.34-7.93-3.12-11.03-5.81-6.16-5.35-10.96-12.17-13.94-19.77-.3-.76-1.54-.44-1.24.34h0Z"/>
  <path d="m46.74,469.52c4.48,3.47,8.96,6.94,13.45,10.41.79.61,1.65-.48.85-1.1-4.5-3.44-9.01-6.88-13.51-10.33-.58-.44-1.36.56-.78,1.01h0Z"/>
  <path d="m294.24,843.32c-4.91-10.22-3.25-23.36,3.82-32.18.75-.93-.57-2.26-1.32-1.32-7.72,9.65-9.01,23.08-3.55,34.11.35.7,1.38.09,1.05-.61h0Z"/>
  <path d="m271.87,825.84c-.62-5.8,1.19-11.69,5.02-16.1.58-.67-.39-1.65-.98-.98-4.05,4.66-6.03,10.93-5.34,17.08.09.81,1.38.83,1.29,0h0Z"/>
  <path d="m1019.39,680.58c13.96,4.73,29.37,4.69,43.25-.29,12.74-4.57,23.65-13.27,31.27-24.43,4.23-6.19,7.36-13.1,9.24-20.36.16-.61-.3-1.25-.95-1.24-5.28.06-9.29,4.62-10.13,9.6-.95,5.66,2.43,10.75,7.28,13.43,12.41,6.85,26.39-2.63,35.27-11.07,2.56-2.43,4.91-5.05,7.07-7.84s4.22-5.57,5.31-8.86c.88-2.64,1-6.06-1.01-8.24-1.41-1.53-3.69-2.13-5.71-1.87s-3.76,1.41-4.1,3.45c-.38,2.25,1.58,4.94,3.04,6.48,3.7,3.92,9.56,5.59,14.81,4.63,6.77-1.24,12.21-6.52,15.42-12.38,3.91-7.14,5.25-15.84,5.53-23.89.04-1.14-1.83-1.44-2.03-.27-1.1,6.31-1.49,12.71-3.7,18.78-1.81,4.98-4.9,9.74-9.33,12.76-4.07,2.78-8.94,3.78-13.66,2.21-2.16-.72-4.16-1.96-5.69-3.65-.95-1.05-3.08-3.72-1.85-5.12,1.01-1.15,3.11-1.02,4.38-.48,2.19.94,2.55,3.51,2.11,5.63-.58,2.84-2.26,5.31-3.93,7.62-1.78,2.47-3.74,4.81-5.83,7.02-4.14,4.37-8.86,8.33-14.09,11.33-4.85,2.78-10.63,4.78-16.27,3.63-5.15-1.05-10.7-4.84-11.13-10.53-.36-4.81,3.05-10.32,8.24-10.41l-.95-1.24c-3.14,12.46-10.19,23.8-19.84,32.27-10.49,9.21-23.85,14.55-37.76,15.44-8.14.52-16.27-.47-24-3.08-.62-.21-.89.77-.27.98h0Z"/>
  <path d="m1139.3,678.44c9.88-.16,19.25-6.07,23.54-14.99.54-1.13-1.13-2.12-1.69-.99-4.09,8.25-12.63,13.98-21.85,14.48-.96.05-.97,1.52,0,1.5h0Z"/>
  <path d="m1003.68,231.78c2.4,5.98,5.5,11.65,9.3,16.85.71.97,2.35.02,1.63-.95-3.78-5.03-6.94-10.52-9.36-16.33-.39-.95-1.96-.55-1.57.43h0Z"/>
  <path d="m1040.89,228.96c-3.22,5.03-3.73,11.74-2.09,17.38.38,1.31,2.45.75,2.05-.56-.81-2.63-1.09-5.36-.84-8.1s1.13-5.35,2.31-7.88c.45-.95-.85-1.74-1.43-.84h0Z"/>
  <path d="m982.7,262.31c4.47.32,8.85,1.3,13.15,2.54,1.13.33,1.59-1.39.48-1.76-4.39-1.48-9.01-2.17-13.63-2.46-1.08-.07-1.07,1.59,0,1.67h0Z"/>
  <path d="m984.76,288.33l10.37.03c1.02,0,1.02-1.58,0-1.58l-10.37.03c-.98,0-.98,1.52,0,1.52h0Z"/>
  <path d="m927.22,20.55c2.16.53,4.36.8,6.52,1.38s4.46,1.37,6.59,2.3c4.11,1.8,7.96,4.2,11.44,7.03,7.01,5.71,12.54,13.28,15.62,21.79,1.73,4.77,2.7,9.78,2.75,14.86.01,1.27,1.97,1.27,1.97,0,.04-18.92-12.43-36.75-29.51-44.46-2.41-1.09-4.9-2-7.46-2.64s-5.24-1.23-7.81-1.07c-.44.03-.58.69-.11.81h0Z"/>
  <path d="m967.34,18.9c6.64,5.88,11.97,13.1,15.75,21.12.45.95,1.83.12,1.4-.82-3.74-8.2-9.25-15.49-16.04-21.41-.76-.66-1.88.44-1.12,1.12h0Z"/>
  <path d="m324.48,75c-.76,7.81-.25,15.66,1.7,23.27.29,1.14,2.01.66,1.76-.48-1.67-7.47-2.29-15.15-1.66-22.78.09-1.15-1.68-1.13-1.79,0h0Z"/>
  <path d="m361.77,66.15c-.76,7.66-1.44,15.33-2.12,22.99-.11,1.24,1.84,1.24,1.94,0,.62-7.66,1.24-15.33,1.79-22.99.07-1.04-1.51-1.02-1.61,0h0Z"/>
  <path d="m283.97,80.7c2.82,6.27,7.1,11.83,12.46,16.14.87.7,2.11-.54,1.23-1.23-5.3-4.18-9.56-9.54-12.43-15.65-.4-.86-1.66-.11-1.27.74h0Z"/>
  <path d="m381.16,85.39c-.6,2.36-1.19,4.72-1.79,7.07-.28,1.11,1.44,1.58,1.71.47.58-2.36,1.17-4.72,1.75-7.09.27-1.08-1.39-1.54-1.67-.46h0Z"/>
  <path d="m230.95,491.86c.44,0,.44-.68,0-.68s-.44.68,0,.68h0Z"/>
  <path d="m221.71,479.67c7.7,7.1,15.37,14.24,23.13,21.28.72.66,1.8-.42,1.07-1.07-7.79-7.02-15.67-13.94-23.51-20.9-.47-.41-1.15.26-.69.69h0Z"/>
  <path d="m232.53,482.14c6.09,7.21,12.79,13.91,20.08,19.91.87.71,2.12-.52,1.25-1.25-7.29-6-14.17-12.48-20.49-19.49-.51-.56-1.31.26-.83.83h0Z"/>
  <path d="m238.34,478.38c3.53,4.72,7.22,9.31,11.14,13.7s8.01,8.95,12.57,12.78c.84.71,2-.4,1.22-1.22-4.07-4.27-8.39-8.28-12.38-12.64s-7.81-8.83-11.45-13.47c-.49-.62-1.59.21-1.11.86h0Z"/>
  <path d="m246.1,476.21c2.82,4.7,5.8,9.34,9.05,13.76s6.51,8.71,10.27,12.56c.75.77,1.85-.37,1.17-1.17-3.51-4.15-7.13-8.17-10.42-12.51-3.23-4.27-6.29-8.64-9.09-13.21-.38-.62-1.36-.06-.98.57h0Z"/>
  <path d="m252.74,474c3.47,6.63,7.28,13.1,11.46,19.3,1.02,1.52,2.07,3.02,3.14,4.51.96,1.33,1.86,2.86,3.02,4.02.73.73,1.91,1.21,2.78.41.78-.72.75-1.87-.13-2.45s-1.62.79-.8,1.36c-1.26-.88-2.1-2.15-3.04-3.37-.84-1.09-1.66-2.2-2.48-3.31-1.63-2.22-3.2-4.48-4.73-6.77-3.05-4.59-5.85-9.32-8.42-14.19-.28-.54-1.09-.06-.81.48h0Z"/>
  <path d="m256.3,465.01c2.57,5.2,5.42,10.27,8.58,15.13,1.54,2.37,3.15,4.69,4.84,6.95s3.4,4.74,5.51,6.69c.56.51,1.57-.16,1.1-.85-1.55-2.25-3.46-4.25-5.16-6.4-1.85-2.35-3.62-4.76-5.31-7.23-3.24-4.74-6.13-9.68-8.68-14.82-.29-.59-1.17-.07-.88.51h0Z"/>
  <path d="m263.91,460.51c1.88,4.86,4.04,9.62,6.48,14.23s5.02,9.27,8.29,13.28c.49.6,1.48-.18,1.07-.83-2.72-4.32-5.69-8.42-8.18-12.89s-4.73-9.24-6.62-14.09c-.25-.64-1.29-.36-1.04.29h0Z"/>
  <path d="m269.42,458.45c4.63,8.8,9.38,17.63,14.71,26.04.55.87,1.93.08,1.39-.81-5.2-8.52-10.41-16.99-15.14-25.79-.34-.63-1.29-.07-.96.56h0Z"/>
  <path d="m270.57,442.76c1.94,6.52,4.39,12.91,7.33,19.05s6.23,12.3,10.45,17.6c.61.76,1.87-.23,1.35-1.04-3.64-5.64-7.39-11.09-10.45-17.08s-5.62-12.33-7.62-18.82c-.21-.67-1.26-.39-1.05.29h0Z"/>
  <path d="m274.92,439.46c2.04,5.56,4.42,11.02,7.15,16.28,2.7,5.23,5.68,10.56,9.31,15.21.34.43,1.05.24,1.29-.17.79-1.33.64-2.79-.31-3.98-.43-.54-1.22.15-.92.71.46.85.36,1.67-.2,2.44h1.42c-3.22-4.86-6.56-9.56-9.38-14.67-2.86-5.18-5.31-10.55-7.37-16.1-.23-.63-1.24-.36-1.01.28h0Z"/>
  <path d="m275.12,429.5c3.07,6.35,6.26,12.64,9.61,18.85,1.65,3.07,3.34,6.12,5.07,9.15s3.49,6.24,5.51,9.17c.6.87,1.98.11,1.44-.84-1.72-3.03-3.68-5.93-5.49-8.9s-3.67-6.11-5.44-9.21c-3.5-6.13-6.8-12.35-9.89-18.69-.27-.54-1.08-.07-.81.48h0Z"/>
  <path d="m283.93,429.41c2.23,6.18,4.95,12.19,8.11,17.94s6.62,11.53,11,16.35c.54.59,1.59-.19,1.12-.86-1.85-2.64-3.86-5.15-5.69-7.8s-3.55-5.38-5.15-8.18c-3.26-5.68-6-11.62-8.23-17.77-.26-.72-1.42-.41-1.16.32h0Z"/>
  <path d="m291.79,430.5c1.85,5.84,4.37,11.51,7.5,16.78,1.55,2.62,3.28,5.13,5.14,7.54s3.85,5.01,6.29,6.9c.75.58,1.63-.29,1.04-1.04-1.81-2.31-3.96-4.35-5.82-6.63s-3.74-4.9-5.38-7.5c-3.24-5.11-5.82-10.58-7.72-16.33-.22-.66-1.27-.38-1.05.29h0Z"/>
  <path d="m301.6,432.92c4.43,7.82,9.86,15.32,16.4,21.51.68.64,1.69-.36,1.03-1.03-6.27-6.44-11.89-13.29-16.41-21.08-.38-.66-1.4-.07-1.02.6h0Z"/>
  <path d="m311.7,428.42c2.57,5.79,6.18,11.58,10.94,15.82.54.49,1.32-.27.81-.81-2.22-2.32-4.41-4.63-6.29-7.25s-3.43-5.31-4.74-8.19c-.22-.49-.94-.06-.72.42h0Z"/>
  <path d="m322.74,429.45c1,4.31,3.09,8.6,6.19,11.8.56.58,1.38-.27.87-.87-2.82-3.31-4.93-6.98-5.97-11.23-.17-.7-1.25-.41-1.08.3h0Z"/>
  <path d="m331.98,427.53l-1.11-.02c-.18,0-.38.08-.51.21s-.22.33-.21.51.07.38.21.51.32.21.51.21l1.11-.02c.18,0,.37-.08.5-.21.12-.12.21-.32.21-.5s-.07-.37-.21-.5-.31-.2-.5-.21h0Z"/>
  <path d="m340.86,426.47c.59,0,.59-.91,0-.91s-.59.91,0,.91h0Z"/>
  <path d="m450.79,686.21c18.82,2.42,38.25,2.2,56.88-1.52.94-.19.54-1.6-.4-1.43-18.71,3.27-37.59,4.22-56.49,1.98-.62-.07-.61.89,0,.97h0Z"/>
  <path d="m447.44,695.46c9.35.42,18.73.33,28.07-.26,4.63-.29,9.25-.71,13.85-1.26s9.26-1.02,13.72-2.28c.79-.22.67-1.55-.2-1.48-4.62.39-9.17,1.34-13.76,1.96s-9.22,1.12-13.85,1.49c-9.26.74-18.55.93-27.83.64-.76-.02-.76,1.15,0,1.18h0Z"/>
  <path d="m450.73,694.94c16.45,6.38,35.49,8.12,52.61,3.41,1.14-.31.66-2.04-.49-1.77-8.58,2-17.28,3.08-26.11,2.69-8.81-.39-17.49-2.17-25.76-5.24-.58-.22-.82.7-.25.92h0Z"/>
  <path d="m458.48,704.78c6.48.88,12.97,1.63,19.52,1.85s13.23.38,19.66-.65c.88-.14.65-1.52-.21-1.52-6.49.02-12.95.62-19.45.55s-12.97-.29-19.41-1.02c-.45-.05-.56.73-.11.79h0Z"/>
  <path d="m457.24,711c4.89.95,9.75,2.01,14.63,3.01s9.56,2.17,14.41,2.74c.92.11,1.07-1.35.21-1.58-4.71-1.27-9.62-1.95-14.43-2.8s-9.66-1.68-14.48-2.6c-.8-.15-1.15,1.07-.34,1.23h0Z"/>
  <path d="m456.17,720.79c7.25,2.53,14.64,5.21,22.17,6.77,1.13.23,1.61-1.43.48-1.74-3.72-1.03-7.5-1.85-11.23-2.86s-7.42-2.13-11.08-3.38c-.77-.26-1.1.95-.33,1.21h0Z"/>
  <path d="m454.92,730.73c5.52,3.38,11.01,6.82,16.55,10.16.8.49,1.54-.78.74-1.26-5.57-3.3-11.19-6.51-16.78-9.77-.56-.33-1.06.53-.51.87h0Z"/>
  <path d="m453.75,740.82c3.32,2.25,6.63,4.49,9.95,6.74.72.49,1.4-.68.68-1.17-3.33-2.22-6.66-4.45-9.98-6.67-.69-.46-1.32.64-.64,1.1h0Z"/>
  <path d="m455.22,757.58c.92,0,.92-1.43,0-1.43s-.92,1.43,0,1.43h0Z"/>
  <path d="m451.38,768.1c.42,1.1.84,2.19,1.26,3.29.09.23.31.39.56.32.23-.06.39-.32.32-.56l-1-3.36c-.09-.3-.42-.51-.73-.41-.28.09-.53.42-.41.73h0Z"/>
  <path d="m603.82,675.36c22.21,4.45,45.17,3.08,66.63-4.23,6-2.05,11.84-4.53,17.45-7.49,1.11-.58.13-2.25-.98-1.68-19.77,10.16-41.72,15.05-63.93,14.47-6.35-.17-12.67-.8-18.92-1.98-.59-.11-.85.79-.25.91h0Z"/>
  <path d="m620.63,681.74c15.98-1.35,31.79-4.67,46.96-9.87,4.24-1.46,8.41-3.12,12.52-4.91,1.14-.5.16-2.17-.98-1.68-14.38,6.25-29.42,10.92-44.87,13.6-4.52.78-9.06,1.4-13.62,1.85-.63.06-.65,1.06,0,1h0Z"/>
  <path d="m619.41,683.93c18.79,2.9,38.06,1.25,56-5.12,5-1.78,10.02-3.81,14.54-6.6.93-.57.12-1.86-.84-1.43-4.25,1.9-8.44,3.94-12.79,5.61s-8.68,3.03-13.14,4.14c-8.98,2.24-18.24,3.41-27.5,3.44-5.35.02-10.68-.35-15.97-1.13-.72-.11-1.03.99-.3,1.1h0Z"/>
  <path d="m635.26,689.95c9.42-1.27,18.73-3.11,27.91-5.55s18.12-5.23,26.74-8.94c.93-.4.26-2.01-.7-1.65-8.82,3.31-17.63,6.53-26.72,9.06s-18.26,4.52-27.54,6.02c-.7.11-.39,1.15.29,1.05h0Z"/>
  <path d="m648.4,693.1c6.14-.3,12.27-1.06,18.3-2.29,6.01-1.23,12.05-2.85,17.67-5.32.84-.37.24-1.78-.63-1.48-5.7,1.96-11.34,3.93-17.23,5.27-5.96,1.36-12.01,2.2-18.12,2.53-.83.05-.83,1.33,0,1.29h0Z"/>
  <path d="m656.31,699.65c8.17-2.51,16.33-5.01,24.43-7.71,1.04-.35.6-1.99-.46-1.65-8.15,2.57-16.24,5.35-24.32,8.12-.78.27-.46,1.49.34,1.24h0Z"/>
  <path d="m666.31,704.1c4.45-1.09,8.91-2.12,13.31-3.37.86-.24.5-1.53-.37-1.33-4.47,1-8.88,2.22-13.31,3.39-.85.22-.49,1.53.36,1.32h0Z"/>
  <path d="m672.13,709.85c1.6-.88,3.36-1.46,5.18-1.7s3.6-.04,5.4.21c.72.1,1.03-.88.31-1.11-1.87-.6-3.94-.56-5.86-.26s-3.84.98-5.54,1.97c-.58.33-.06,1.21.52.89h0Z"/>
  <path d="m672.82,717.4c1.47.13,2.96.08,4.44.1s2.96.03,4.44.04c.82,0,.82-1.28,0-1.28l-4.44.04c-1.48.01-2.97-.03-4.44.1-.64.06-.64.95,0,1h0Z"/>
  <path d="m677.26,726.36c.74,0,1.48,0,2.22,0,.31,0,.61-.27.59-.59s-.26-.59-.59-.59c-.74,0-1.48,0-2.22,0-.31,0-.6.27-.58.58s.26.58.58.58h0Z"/>
  <path d="m687.25,735.17c.65,0,.66-1.02,0-1.02s-.66,1.02,0,1.02h0Z"/>
  <path d="m687.25,736.64c1.11,0,1.12-1.73,0-1.73s-1.12,1.73,0,1.73h0Z"/>
</svg>