<svg id="Group_20268" data-name="Group 20268" xmlns="http://www.w3.org/2000/svg" xmlns:xlink="http://www.w3.org/1999/xlink" width="262.083" height="193.323" viewBox="0 0 262.083 193.323">
  <defs>
    <clipPath id="clip-path">
      <rect id="Rectangle_8799" data-name="Rectangle 8799" width="262.083" height="193.323" fill="none"/>
    </clipPath>
  </defs>
  <g id="Group_20267" data-name="Group 20267" clip-path="url(#clip-path)">
    <path id="Path_2115" data-name="Path 2115" d="M166.4,127.436l9.259-10.928a.792.792,0,0,0,.018-1.3l-6.9-7.641c5.009-4.885,11.657-8.21,17.708-11.634q5.289-2.991,10.673-5.809c1.795-.939,3.6-1.856,5.407-2.773,1.19-.6,2.664-1.9,3.961-2.118-.84,7.02-3.978,14.477-6.473,21.073q-1.983,5.242-4.286,10.356c-1.363,3.025-2.662,7.084-4.8,9.59-2.734-1.233-5.3-2.885-8.052-4.122A141.385,141.385,0,0,0,175,133.949c-.7-.53-8.574-6.393-8.6-6.513" transform="translate(-122.059 -62.522)" fill="#fff"/>
    <path id="Path_2116" data-name="Path 2116" d="M164.9,126.28c1.613-1.876,3.23-3.749,4.833-5.634l2.406-2.828a19.7,19.7,0,0,0,2.262-2.691c.848-1.491-1.178-2.816-2.072-3.81l-4.991-5.55v.706C172.509,101.517,179,98.3,185.18,94.819q5.074-2.857,10.233-5.56c1.72-.9,3.447-1.785,5.175-2.669,1.419-.726,2.714-1.929,4.286-2.29l-.675-.514c-.936,7.358-3.936,14.29-6.559,21.165-1.379,3.615-2.934,7.143-4.469,10.693-1.287,2.976-2.323,6.209-4.416,8.744l.714-.092c-2.738-1.268-5.3-2.879-8.039-4.145a.641.641,0,0,0-.843.221,141.938,141.938,0,0,0-7.923,11.811l.859-.225c-1.443-1.083-2.891-2.16-4.334-3.244q-1.339-1.005-2.675-2.015c-.342-.258-.686-.515-1.023-.779-.087-.069-.5-.443-.353-.245-.471-.628-1.542-.014-1.065.623a6.628,6.628,0,0,0,1.318,1.1c.9.7,1.813,1.383,2.724,2.068,1.589,1.2,3.185,2.382,4.775,3.576a.634.634,0,0,0,.859-.225q3.669-6.1,7.9-11.823l-.843.221c2.748,1.25,5.321,2.843,8.065,4.1a.605.605,0,0,0,.714-.092c2.016-2.465,3.1-5.488,4.305-8.4,1.536-3.708,3.188-7.356,4.622-11.107,2.725-7.128,5.789-14.3,6.749-21.932.046-.363-.376-.584-.675-.514a14.583,14.583,0,0,0-3.783,2.01c-1.708.976-3.52,1.787-5.265,2.7q-5.5,2.863-10.9,5.928c-6.26,3.537-12.794,6.82-18.014,11.863a.509.509,0,0,0,0,.706l4.149,4.575,1.9,2.1c.5.548.947.716.685,1.469a4.731,4.731,0,0,1-1.034,1.529q-4.022,4.766-8.02,9.551c-.339.406.236.994.587.587" transform="translate(-120.263 -61.072)"/>
    <path id="Path_2117" data-name="Path 2117" d="M173.167,227.495c.163,1.076.284,2.162.467,3.235a.2.2,0,0,0,.189.144c.27-.018.383-.227.409-.479a12.471,12.471,0,0,0-.028-1.6c-.029-1.084-.072-2.164-.066-3.249l-.176.024c.372,2.008.853,4,1.266,6a.224.224,0,0,0,.439-.059c-.06-2.561-.28-5.123-.454-7.678l-.3.04c.754,3.1,1.335,6.24,2.119,9.331a.228.228,0,0,0,.446-.06,48.671,48.671,0,0,0-.732-6.736c-.019-.1-.2-.08-.183.025a62.038,62.038,0,0,1,.461,6.711l.446-.06c-.676-3.114-1.558-6.184-2.265-9.291a.152.152,0,0,0-.3.04c.08,2.557.116,5.126.31,7.678l.438-.059c-.516-1.972-.967-3.963-1.524-5.924a.09.09,0,0,0-.176.024c0,.841-.011,1.679-.044,2.52-.008.208-.033,2.41-.092,2.412l.189.144c-.156-1.073-.375-2.14-.552-3.211-.032-.193-.321-.11-.293.081" transform="translate(-127.021 -164.076)"/>
    <path id="Path_2118" data-name="Path 2118" d="M186.9,147.58c.539,3.9,1.164,7.8,2.03,11.639a.247.247,0,0,0,.483-.065c-.112-2.419-.31-4.836-.461-7.254s-.293-4.835-.423-7.254l-.39.053q1.1,6.678,2.176,13.361l.536-.148a50.477,50.477,0,0,1-.8-15.585h-.48a125.183,125.183,0,0,0,2.1,13.543.28.28,0,0,0,.548-.074c-.157-6.048-.314-12.1-.9-18.127-.164-1.679-.382-3.353-.615-5.024l-.466.128q1.151,7.623,2.295,15.246.326,2.169.651,4.338c.051.338.616.259.6-.081-.163-2.838-.31-5.676-.375-8.519-.065-2.82-.055-5.639-.045-8.46.006-1.61.035-3.215.111-4.823h-.421c.367,5.551.76,11.1,1.142,16.651q.164,2.379.327,4.757a.3.3,0,0,0,.593,0c-.016-7.425-.108-14.852.569-22.255.193-2.1.445-4.2.772-6.291l-.526-.071c.251,6.468.471,12.937.7,19.406q.1,2.725.194,5.45a.317.317,0,0,0,.634,0,184.732,184.732,0,0,1,1.006-20.26c.238-1.9.529-3.782.9-5.656l-.552-.075c.023,6.719-.039,13.437.4,20.146.124,1.883.294,3.761.485,5.638a.344.344,0,0,0,.688,0c.387-6.988.779-13.988,1.685-20.932q.383-2.935.915-5.847l-.533-.072c-.164,6.942-.281,13.88-.192,20.825.025,1.945.052,3.891.108,5.836a.344.344,0,0,0,.688,0c-.2-6.941-.286-13.881-.191-20.825.027-1.946.062-3.891.131-5.835.011-.3-.474-.376-.534-.072a161.079,161.079,0,0,0-2.417,20.929c-.124,2-.236,4-.347,5.994h.688a174.345,174.345,0,0,1-1-20.117q-.02-2.833-.009-5.666c0-.309-.486-.391-.552-.075a112.514,112.514,0,0,0-1.907,20.245q-.066,2.91-.09,5.821h.634q-.4-9.7-.782-19.406-.109-2.725-.215-5.45c-.011-.286-.477-.383-.526-.071a148.031,148.031,0,0,0-1.435,22.331q-.016,3.179.018,6.357h.593q-.637-8.325-1.274-16.651-.182-2.379-.367-4.757a.21.21,0,0,0-.421,0c-.1,2.841-.229,5.681-.241,8.524q-.017,4.229.135,8.458c.055,1.607.125,3.214.228,4.819l.6-.081q-1.2-7.61-2.388-15.22-.339-2.165-.678-4.33c-.048-.308-.51-.175-.466.128a158.448,158.448,0,0,1,1.3,17.96c.05,1.688.09,3.376.13,5.064l.548-.074a116.928,116.928,0,0,1-2.16-13.395.24.24,0,0,0-.48,0,47.511,47.511,0,0,0,.748,15.733c.079.353.6.2.536-.148q-1.185-6.656-2.328-13.319c-.038-.22-.4-.17-.39.053q.223,3.626.414,7.254c.128,2.417.209,4.839.376,7.254l.483-.065c-.953-3.813-1.816-7.645-2.434-11.528-.007-.046-.077-.026-.07.019" transform="translate(-137.097 -88.607)"/>
    <path id="Path_2119" data-name="Path 2119" d="M249.805,98.469q.693,12.079,1.241,24.166c.1,2.274.177,4.55.308,6.822h.576a106.212,106.212,0,0,1,.326-24.566q.443-3.442,1.115-6.847l-.447-.06c.121,7.187.295,14.374.446,21.56q.064,3.061.128,6.122a.3.3,0,0,0,.6,0,39.281,39.281,0,0,0,.07-6.243c-.092-2.063-.161-4.125-.131-6.191a82.793,82.793,0,0,1,1.076-12.193q.56-3.42,1.4-6.785l-.448-.06c.226,7.435.193,14.882,0,22.318q-.083,3.145-.211,6.289h.632a100.4,100.4,0,0,1,.922-22.032c.317-2.037.691-4.07,1.148-6.081l-.511-.069q.293,8.612.1,17.231-.055,2.452-.149,4.9h.657a155.464,155.464,0,0,1,1.045-18.767q.315-2.665.729-5.316l-.513-.07c.05,2.509-.035,5.028-.108,7.536q-.111,3.8-.332,7.6-.125,2.145-.276,4.289h.654a76.862,76.862,0,0,1,1.231-15.942q.409-2.241.955-4.454l-.519-.07a125.416,125.416,0,0,1-.342,16.327h.641a72.708,72.708,0,0,1,1.035-13.8q.353-1.944.814-3.866l-.441-.06a65.586,65.586,0,0,1-.469,12.913h.624a98.43,98.43,0,0,1,1.753-12.037h-.592a30.158,30.158,0,0,1,.252,5.54.33.33,0,0,0,.645.087,53.657,53.657,0,0,0,1.293-5.8H266.2c.057.187.114.374.169.562a.277.277,0,0,0,.535-.147c-.055-.188-.106-.377-.159-.565-.071-.253-.492-.285-.545,0a55.99,55.99,0,0,1-1.382,5.776l.645.087a27.947,27.947,0,0,0-.317-5.7c-.046-.3-.533-.285-.592,0a95.543,95.543,0,0,0-1.785,12.2c-.03.406.577.39.624,0a70.153,70.153,0,0,0,.294-12.913c-.016-.241-.379-.319-.441-.06a75.255,75.255,0,0,0-1.989,13.766c-.066,1.338-.092,2.675-.067,4.014a.321.321,0,0,0,.641,0,148.98,148.98,0,0,0,.229-16.327.265.265,0,0,0-.519-.07,73.006,73.006,0,0,0-2.32,15.919q-.078,2.308-.012,4.618a.327.327,0,0,0,.654,0c.355-5.033.533-10.079.577-15.124.013-1.432-.013-2.865.006-4.3,0-.286-.464-.366-.513-.069a142.782,142.782,0,0,0-1.862,18.849c-.057,1.791-.083,3.583-.066,5.374a.329.329,0,0,0,.657,0q.276-8.613.068-17.232-.06-2.452-.159-4.9c-.011-.281-.445-.367-.511-.069a100.031,100.031,0,0,0-2.433,21.939c.007,2.105.08,4.211.233,6.311a.316.316,0,0,0,.632,0q.373-11.154.179-22.316-.055-3.145-.14-6.29a.23.23,0,0,0-.449-.061,85.469,85.469,0,0,0-2.518,24.508,47.082,47.082,0,0,1-.063,7.025h.6l-.558-21.56c-.053-2.041-.1-4.082-.164-6.122-.007-.245-.4-.323-.447-.06a115.611,115.611,0,0,0-1.956,24.552c.07,2.331.181,4.658.377,6.982.031.364.59.375.576,0-.149-4.042-.426-8.083-.662-12.12q-.353-6.026-.743-12.05-.221-3.409-.453-6.818c-.012-.17-.277-.172-.267,0" transform="translate(-183.238 -65.973)"/>
    <path id="Path_2120" data-name="Path 2120" d="M186.722,150.984c.568,4.875,1.078,9.761,1.5,14.651l.475-.128a23.222,23.222,0,0,1-1.613-6.8c-.259-2.283-.43-4.579-.8-6.848a.142.142,0,0,0-.207-.084.858.858,0,0,0-.356.774,14.289,14.289,0,0,0,.14,1.519l.339,3.37c.226,2.246.422,4.494.638,6.741l.453-.061c-.384-1.975-.791-3.945-1.192-5.917s-.889-3.923-1.256-5.9a.189.189,0,0,0-.37.05c.2,2.963.486,5.927.617,8.9l.552-.075a35.3,35.3,0,0,0-2.161-7.542c-.078-.2-.444-.2-.41.056a29.892,29.892,0,0,1,.183,5.51h.518a12.293,12.293,0,0,0-1.291-4.22.256.256,0,0,0-.474.128c-.014.667-.033,1.334-.05,2a.243.243,0,0,0,.486,0c.024-.667.046-1.334.073-2l-.474.128a12.34,12.34,0,0,1,1.212,3.963.259.259,0,0,0,.518,0,28.987,28.987,0,0,0-.291-5.566l-.4.111a34.187,34.187,0,0,1,2.022,7.58c.049.31.589.241.552-.075-.342-2.956-.533-5.932-.8-8.9l-.37.05c.435,1.964.75,3.956,1.152,5.928s.8,3.943,1.215,5.91c.053.25.483.2.453-.061-.236-2.071-.493-4.14-.719-6.212l-.333-3.04q-.087-.793-.174-1.586c-.039-.359-.237-1.08.145-1.324l-.207-.084c.738,4.6.418,9.387,2.221,13.771.1.237.538.245.5-.068-.588-4.895-1.2-9.786-1.853-14.672-.012-.087-.165-.067-.155.021" transform="translate(-133.466 -110.694)"/>
    <path id="Path_2121" data-name="Path 2121" d="M481.047,434.933c2.417,12.29,5.184,24.751,5.538,37.31.173,6.13,0,12.286.757,18.385a20.664,20.664,0,0,0,1.844,7.131c.774,1.483,1.764,2.849,2.647,4.267a12.261,12.261,0,0,1,2.045,4.468c.271,1.9-1.145,2.829-2.812,3.268-4.7,1.237-9.948,1.2-14.777.94a20.387,20.387,0,0,1-4.938-.656c-1.176-.367-1.07-.805-1.207-2.024q-.26-2.31-.538-4.619c-.714-5.938-1.516-11.867-2.441-17.776a324.089,324.089,0,0,0-8.711-40.594.51.51,0,0,0-.983.271,380.425,380.425,0,0,1,8.311,38.311q1.6,9.863,2.8,19.787.3,2.437.574,4.875c.081.709,0,1.522.535,2.062.9.9,2.692,1,3.867,1.142a56.773,56.773,0,0,0,13.671-.109c2.9-.357,8.143-.762,7.6-4.913-.435-3.341-3.168-6.1-4.731-8.95-1.479-2.7-1.8-5.923-2.085-8.939-.311-3.268-.4-6.553-.452-9.834-.066-3.808-.09-7.62-.376-11.42-.264-3.5-.791-6.99-1.336-10.46-1.163-7.408-2.63-14.764-4.1-22.116-.092-.46-.792-.265-.7.193" transform="translate(-335.55 -318.699)"/>
    <path id="Path_2122" data-name="Path 2122" d="M288.435,433.1c-5.669,11.553-11.687,23.159-15.326,35.547-1.827,6.22-3.311,12.619-6.007,18.541a17.134,17.134,0,0,1-4.089,5.676,47.11,47.11,0,0,0-4.191,4.038,5.628,5.628,0,0,0-1.71,3.908c.15,1.7,1.675,2.8,3.071,3.51a55.291,55.291,0,0,0,14.115,4.642,19.362,19.362,0,0,0,5.173.6c1.971-.148,2.079-1.6,2.737-3.271q3.544-9.02,7.4-17.914a385.791,385.791,0,0,1,19.587-38.839.51.51,0,0,0-.88-.515,312.7,312.7,0,0,0-16.672,32.2q-3.7,8.142-7.074,16.429-1.706,4.171-3.345,8.368c-.337.861-.49,2.316-1.51,2.5a8.539,8.539,0,0,1-2.458-.074,54.265,54.265,0,0,1-12.233-3.136,41.3,41.3,0,0,1-4.347-1.826,5.089,5.089,0,0,1-2.381-1.976c-.793-1.576.577-3.263,1.581-4.372,2.667-2.947,5.832-5,7.629-8.677,2.549-5.21,3.992-10.942,5.549-16.5a143.29,143.29,0,0,1,7.021-19.423c2.841-6.427,5.914-12.747,8.991-19.063.2-.419-.422-.789-.629-.367" transform="translate(-188.589 -317.552)"/>
    <path id="Path_2123" data-name="Path 2123" d="M711.637,28.478c3.255.108,7.018.484,8.821,3.2,1.35,2.03,1.1,4.688.794,7.107L715.721,82.8l-2.8,22.294c-.3,2.426.011,6.525-1.732,8.407-1.694,1.829-5.386,2.037-7.472,1.035a10.117,10.117,0,0,1-4.8-5.885" transform="translate(-512.67 -20.889)" fill="#fff"/>
    <path id="Path_2124" data-name="Path 2124" d="M709.894,27.781c2.728.267,6.093.343,8.031,2.6,2.342,2.734,1.061,7.264.651,10.458q-1.464,11.4-2.909,22.794-1.443,11.372-2.882,22.744c-.881,6.971-1.942,13.942-2.459,20.948a8.8,8.8,0,0,1-1.054,4.3,5.084,5.084,0,0,1-4.116,1.786c-3.722.1-6.144-2.779-7.391-6.012-.28-.726-1.457-.425-1.186.327.971,2.694,2.73,5.351,5.495,6.448a7.731,7.731,0,0,0,7.471-1c2.033-1.778,1.978-4.971,2.117-7.443.224-3.954.907-7.91,1.4-11.839q3.282-26.264,6.529-52.532c.443-3.611,1.775-8.457-.834-11.562-2.092-2.49-5.82-2.87-8.86-2.793a.385.385,0,0,0,0,.769" transform="translate(-510.927 -19.808)"/>
    <path id="Path_2125" data-name="Path 2125" d="M278.96,339.986a5.94,5.94,0,0,1-.926,6.644,22.287,22.287,0,0,1-3.521,2.476,21.258,21.258,0,0,0-3.306,3.23c-7.091,7.915-14.362,15.685-22.018,23.058-7.586,7.3-14.205,14.491-25.273,14.946q-48.484,1.993-97.029,1.314a15.109,15.109,0,0,1-6.155-.953c-2.944-1.356-4.675-4.392-6.216-7.244-.719-1.331-1.456-2.891-.89-4.294a5.234,5.234,0,0,1,2.669-2.335q16.62-8.775,33.39-17.209c7.258-3.638,14.545-7.288,22.242-9.874,28.9-9.71,60.153-2.8,89.041-12,2.9-.923,5.723-2.084,8.665-2.872,2.134-.571,3.836-.814,5.69.521a11.087,11.087,0,0,1,3.638,4.592" transform="translate(-83.2 -245.301)" fill="#fff"/>
    <path id="Path_2126" data-name="Path 2126" d="M277.216,338.731c1.215,3.182.232,5.847-2.654,7.627a26.98,26.98,0,0,0-5.906,5.282c-4.193,4.645-8.441,9.241-12.8,13.733-4,4.122-8.1,8.144-12.264,12.1-3.529,3.359-7.25,6.642-11.689,8.745-5.314,2.518-11.05,2.367-16.8,2.568q-9.54.333-19.082.57-19.35.5-38.709.573-9.546.036-19.092-.026-4.906-.033-9.811-.093c-2.979-.036-6.436.322-9.168-1.1-2.346-1.218-3.823-3.566-5.077-5.8-.689-1.229-1.7-2.712-1.579-4.173.138-1.669,1.736-2.364,3.042-3.055q8.3-4.389,16.65-8.69,8.566-4.416,17.184-8.733c5.554-2.782,11.129-5.549,16.921-7.808,11.293-4.4,23.243-6.21,35.28-7.047,11.749-.816,23.55-.84,35.272-2.057a123.932,123.932,0,0,0,17.122-2.881c2.887-.718,5.725-1.589,8.531-2.578,2.6-.916,5.611-2.374,8.416-2.335,2.889.04,5.079,2.912,6.141,5.324.253.576,1.1.078.845-.494a10.306,10.306,0,0,0-4.969-5.419c-2.36-.975-5.067.059-7.342.8-3.024.989-5.99,2.12-9.055,2.985-3.046.859-6.137,1.556-9.251,2.124-12.425,2.267-25.1,2.456-37.677,3.047-12.435.584-24.983,1.573-36.952,5.216-12.4,3.772-23.933,10.225-35.424,16.094q-8.942,4.567-17.833,9.235-2.2,1.152-4.388,2.309a8.223,8.223,0,0,0-2.889,2.041c-1.514,2-.188,4.385.848,6.266a17.5,17.5,0,0,0,4.481,5.788c2.191,1.646,4.851,1.895,7.505,1.948,6.688.134,13.381.155,20.071.174q20.55.061,41.1-.37,10.207-.211,20.41-.552,5.036-.171,10.07-.371a67.878,67.878,0,0,0,9.35-.632c10.359-1.869,17.888-10.54,25.012-17.587,4.693-4.642,9.247-9.424,13.711-14.287,2.214-2.412,4.34-4.914,6.591-7.292a16.916,16.916,0,0,1,3.429-2.732,8.7,8.7,0,0,0,2.741-2.368,6.612,6.612,0,0,0,.394-6.268c-.169-.433-.875-.248-.706.195" transform="translate(-81.808 -243.947)"/>
    <path id="Path_2127" data-name="Path 2127" d="M404.083,105.316a3.642,3.642,0,0,1-1.258.908c-1.992.866-5.654.163-7.8.144-4.317-.037-8.636-.177-12.952-.177H307.485c-4.121,0-14.652,1.925-16.624-2.821a6.082,6.082,0,0,1-.183-3.107c1.915-14.938,4.132-29.944,6.034-44.93q1.5-11.846,3.007-23.691c.345-2.719.074-6.959,2.134-8.919,3-2.855,8.8-.847,12.4-.847h87.024c3.082,0,6.192-.41,9.269-.048,4.442.521,4.78.872,4.548,4.806-.423,7.182-1.8,14.427-2.7,21.563l-6.415,50.548c-.252,1.983-.4,4.917-1.9,6.572" transform="translate(-213.137 -15.543)" fill="#fff"/>
    <path id="Path_2128" data-name="Path 2128" d="M402.314,103.5c-1.924,1.924-5.31,1.091-7.739.94-3.238-.2-6.519-.134-9.763-.182-6.846-.1-13.7-.035-20.544-.035h-41.79c-6.108,0-12.3-.306-18.4.086-3.717.239-7.915.878-11.509-.4a4.8,4.8,0,0,1-2.154-1.386c-.982-1.2-.735-2.8-.554-4.23.458-3.608.945-7.213,1.433-10.817.921-6.8,1.871-13.587,2.792-20.382.93-6.855,1.806-13.717,2.677-20.58.812-6.394,1.815-12.8,2.306-19.222.192-2.51.523-5.48,3.178-6.552,2.26-.913,4.968-.4,7.3-.1a65.722,65.722,0,0,0,8.569.3h72.748c3.515,0,7.042.084,10.555-.029a44.27,44.27,0,0,1,9.434.217,3.435,3.435,0,0,1,1.952.734,3.075,3.075,0,0,1,.422,2.071,80.139,80.139,0,0,1-.871,9.472c-.89,6.82-1.919,13.62-2.785,20.445l-5.279,41.6c-.328,2.578-.235,5.948-1.981,8.048-.423.509.305,1.246.732.732,1.55-1.864,1.735-4.3,2.011-6.617.432-3.62.917-7.235,1.376-10.852l2.807-22.115c.946-7.456,1.808-14.928,2.886-22.365.5-3.47,1.042-6.936,1.464-10.418.349-2.878.926-6.008.646-8.913a2.72,2.72,0,0,0-2.007-2.563c-2.576-.846-5.57-.729-8.23-.62-7.283.3-14.591.139-21.879.139H316.013a75.978,75.978,0,0,1-8.292-.532c-2.221-.24-4.768-.38-6.75.848-1.9,1.175-2.5,3.314-2.774,5.407-.378,2.913-.563,5.854-.934,8.773q-1.385,10.916-2.773,21.832c-.961,7.454-1.992,14.9-3.016,22.345q-.737,5.353-1.462,10.707c-.464,3.446-1.156,6.955-1.348,10.427-.248,4.487,4,5.678,7.686,5.886a50.854,50.854,0,0,0,6.387-.164c2.354-.163,4.687-.178,7.047-.178H376.17c6.729,0,13.528-.146,20.24.361,2.309.174,4.869.379,6.636-1.387a.518.518,0,0,0-.732-.732" transform="translate(-211.734 -14.098)"/>
    <path id="Path_2129" data-name="Path 2129" d="M417.669,112.066a3.231,3.231,0,0,1-1.116.757c-1.767.722-5.015.135-6.921.12-3.829-.031-7.66-.147-11.489-.147H331.986c-3.655,0-13,1.606-14.746-2.353a4.787,4.787,0,0,1-.163-2.592c1.7-12.459,3.666-24.976,5.353-37.475q1.333-9.88,2.667-19.76c.306-2.268.065-5.8,1.893-7.439,2.661-2.381,7.8-.707,11-.707h77.191a74.9,74.9,0,0,1,8.222-.041c3.94.435,4.24.727,4.034,4.009-.375,5.99-1.593,12.033-2.4,17.985l-5.691,42.161c-.223,1.654-.353,4.1-1.684,5.481" transform="translate(-232.511 -30.733)" fill="#edff36"/>
    <path id="Path_2130" data-name="Path 2130" d="M228.263,374.859c-5.956,2.276-13.469,2.3-19.773,2.715-7.314.48-14.646.6-21.974.605-14.373.005-28.759-.465-43.121.335-7.444.415-14.985,1.171-22.4.047a37.434,37.434,0,0,1-5.508-1.233c-1.8-.558-2.964-.669-2.14-2.411,1.146-2.425,5.29-3.844,7.2-5.643,2.065-1.944,4.113-3.908,6.169-5.862l14.922-14.179c4.289-4.076,8.094-8.65,12.707-12.383a28.924,28.924,0,0,1,7.819-4.746c3.072-1.163,5.7-.872,8.881-.872h85.707c5.57,0,11.667-.559,16.942,1.465a.79.79,0,0,1,.469.338c.153.323-.16.663-.44.884-9.027,7.131-17.169,15.184-25.515,23.114L235.188,369.4c-1.75,1.663-3.452,3.671-5.578,4.836a10.875,10.875,0,0,1-1.347.621" transform="translate(-82.942 -242.914)" fill="#fff"/>
    <path id="Path_2131" data-name="Path 2131" d="M226.641,372.725c-4.949,1.84-10.282,2.173-15.507,2.461-5.735.315-11.46.654-17.2.763-12.082.229-24.166-.128-36.249-.04-5.955.043-11.906.211-17.85.576-5.985.367-12.006.825-17.992.217a40.747,40.747,0,0,1-8.695-1.805c-.481-.159-1.009-.223-1.014-.862a2.8,2.8,0,0,1,.753-1.368,10.606,10.606,0,0,1,2.549-1.993,28.551,28.551,0,0,0,4.72-3.354c2.075-1.961,4.137-3.935,6.206-5.9l13.392-12.725c3.963-3.766,7.558-7.918,11.643-11.554,4.2-3.742,8.95-6.992,14.763-7.053,5.9-.063,11.809.03,17.71.03,24.173,0,48.361.248,72.532-.007,2.637-.028,5.276-.129,7.912,0a31.046,31.046,0,0,1,4.233.47c.6.114,1.2.249,1.785.413a5.072,5.072,0,0,1,.876.264.467.467,0,0,1,.548.405q.328.4-.277.568a21.573,21.573,0,0,1-3.1,2.525q-1.724,1.438-3.414,2.915-3.193,2.786-6.293,5.676-12.956,12.014-25.644,24.352c-1.97,1.916-3.783,3.966-6.387,5.027-.609.248-.343,1.25.275,1a18.653,18.653,0,0,0,6.074-4.529c2.223-2.223,4.543-4.352,6.822-6.517q6.808-6.469,13.6-12.952c4.392-4.187,8.814-8.344,13.414-12.3q1.7-1.465,3.438-2.89c.776-.637,2.522-1.548,2.873-2.546.649-1.85-3.482-2.254-4.545-2.445-5.573-1-11.421-.461-17.055-.461H174.062c-2.985,0-6.007-.157-8.988,0a17.011,17.011,0,0,0-7.165,2.084c-5.049,2.681-9.133,6.886-13.061,10.956-4.235,4.388-8.679,8.549-13.1,12.748q-3.534,3.358-7.069,6.717a84.964,84.964,0,0,1-6.567,6.175c-1.594,1.218-3.468,2.018-5.026,3.292-.945.773-2.607,2.484-1.84,3.85a2.3,2.3,0,0,0,1.338.9,33.447,33.447,0,0,0,4.258,1.165,50.6,50.6,0,0,0,8.9,1.026c6.361.212,12.712-.459,19.059-.741,12.878-.572,25.769-.216,38.653-.192,6.284.012,12.57-.052,18.848-.342,5.617-.26,11.322-.425,16.9-1.175a35.684,35.684,0,0,0,7.717-1.82c.619-.23.351-1.231-.275-1" transform="translate(-81.457 -241.279)"/>
    <path id="Path_2132" data-name="Path 2132" d="M325.553,374.509c6.758-6.422,13.352-12.943,20.662-18.717.227-.179.481-.455.357-.716a.64.64,0,0,0-.38-.274c-4.272-1.639-9.209-1.187-13.719-1.187h-69.4c-4.8,0-9.982-.087-13.631,3.354l-10.564,9.958c-1.924,1.813-4.652,3.691-5.89,6.086a2.354,2.354,0,0,0,.258,2.733,3.256,3.256,0,0,0,1.372.664c9.779,2.849,20.668.689,30.657,1.119,11.168.481,22.841-1.144,34.013-1.7l18.854-.945c1.181-.059,6.508.494,7.414-.371" transform="translate(-170.67 -259.342)" fill="#fff"/>
    <path id="Path_2133" data-name="Path 2133" d="M324.487,373.321c6.373-6.06,12.648-12.248,19.493-17.783.657-.531,2.432-1.557,1.366-2.553a4.879,4.879,0,0,0-1.97-.728,20.046,20.046,0,0,0-2.611-.507c-4.161-.546-8.448-.208-12.633-.208H272.2c-4.395,0-8.8-.067-13.19.013-3.3.06-6.8.375-9.663,2.172a29.8,29.8,0,0,0-4.35,3.81l-5.093,4.8c-1.473,1.389-2.931,2.793-4.466,4.113a22.938,22.938,0,0,0-3.6,3.589c-.8,1.082-1.5,2.477-.88,3.822.657,1.417,2.581,1.661,3.932,1.969a52.1,52.1,0,0,0,12.325,1.032c4.283-.063,8.557-.386,12.84-.426,4.382-.042,8.745.208,13.13.038,8.935-.346,17.832-1.345,26.762-1.792l13.878-.7c2.779-.139,5.556.11,8.325-.053a4.078,4.078,0,0,0,2.335-.615c.524-.411-.213-1.139-.732-.732-.694.544-2.265.346-3.084.338-1.172-.011-2.342-.111-3.513-.12-3.8-.031-7.651.363-11.449.553-8.217.412-16.4,1.015-24.608,1.617-4.07.3-8.148.538-12.23.566-3.984.027-7.951-.2-11.936-.067-3.967.136-7.933.4-11.9.361a38.479,38.479,0,0,1-11.71-1.48c-4.6-1.538,2.688-6.974,4.208-8.359,3.03-2.762,5.974-5.626,8.957-8.439a18.3,18.3,0,0,1,4.421-3.508,15.174,15.174,0,0,1,5.071-1.3,113.937,113.937,0,0,1,11.47-.173h50.9c4.685,0,9.372.051,14.056-.011,2.171-.029,4.346-.106,6.515.038a22.512,22.512,0,0,1,3.515.484q.558.127,1.1.291.329.1.652.209.521.365-.167.592a6.466,6.466,0,0,1-1.165.939q-.772.629-1.536,1.269-1.335,1.119-2.645,2.267-2.433,2.129-4.8,4.331c-3.413,3.16-6.754,6.4-10.124,9.6-.484.46.249,1.192.732.732" transform="translate(-169.238 -257.789)"/>
    <path id="Path_2134" data-name="Path 2134" d="M549.061,505.131a24.34,24.34,0,0,1,.006,9.177c-.109.6.822.86.925.255a25.434,25.434,0,0,0-.291-9.608c-.089-.418-.724-.24-.64.176" transform="translate(-402.743 -370.22)"/>
    <path id="Path_2135" data-name="Path 2135" d="M296.669,371.54c23.58-1.36,47.136,1.062,70.72.788a198.657,198.657,0,0,0,19.843-1.055c.663-.074.683-1.117,0-1.056a308.2,308.2,0,0,1-35.289.943c-11.8-.292-23.584-.892-35.385-.957-6.636-.036-13.27.132-19.889.625-.453.034-.46.739,0,.712" transform="translate(-217.362 -271.549)"/>
    <path id="Path_2136" data-name="Path 2136" d="M270.1,394.077a54.673,54.673,0,0,1,9.089,1.056,67.7,67.7,0,0,0,8.27.68c5.941.152,11.891-.2,17.829-.357q18.2-.471,36.412-.177,10.29.161,20.574.573c.752.03.751-1.14,0-1.169q-18.193-.712-36.407-.651-9.1.043-18.206.281c-5.965.156-11.934.5-17.9.5a73.042,73.042,0,0,1-10.057-.609c-3.2-.445-6.353-1.128-9.6-.982a.427.427,0,0,0,0,.854" transform="translate(-197.823 -288.424)"/>
    <path id="Path_2137" data-name="Path 2137" d="M245.015,418.112c23.456.3,46.914.378,70.372.478q9.958.043,19.917.083a.55.55,0,0,0,0-1.1q-35.185-.128-70.372-.178c-6.639,0-13.278.046-19.917.082a.318.318,0,0,0,0,.635" transform="translate(-179.499 -306.169)"/>
    <path id="Path_2138" data-name="Path 2138" d="M334.412,355.033a7.179,7.179,0,0,0-2.531,4.481c-.055.521.751.595.89.12a8.373,8.373,0,0,1,2.213-4.03c.384-.355-.187-.919-.572-.572" transform="translate(-243.44 -260.345)"/>
    <path id="Path_2139" data-name="Path 2139" d="M380.617,352.221a14,14,0,0,0-1.507,3.838c-.147.649.854.926,1,.275a14.69,14.69,0,0,1,1.3-3.648c.273-.524-.5-.984-.8-.466" transform="translate(-278.075 -258.195)"/>
    <path id="Path_2140" data-name="Path 2140" d="M440.209,355.157a11.678,11.678,0,0,0-2.416,4.531.5.5,0,0,0,.964.266,11.916,11.916,0,0,1,2.072-4.319c.269-.354-.33-.819-.62-.478" transform="translate(-321.116 -260.428)"/>
    <path id="Path_2141" data-name="Path 2141" d="M519.232,355.913a19.862,19.862,0,0,0-2.2,4.3c-.218.6.75.869.96.264a20.047,20.047,0,0,1,1.96-4.143c.286-.456-.421-.858-.716-.419" transform="translate(-379.229 -260.931)"/>
    <path id="Path_2142" data-name="Path 2142" d="M580.936,355.914a16.492,16.492,0,0,0-2.425,4.534c-.2.6.733.847.94.259a16.636,16.636,0,0,1,2.246-4.348c.336-.461-.427-.894-.762-.445" transform="translate(-424.33 -260.932)"/>
    <path id="Path_2143" data-name="Path 2143" d="M624.271,358.62a9.775,9.775,0,0,1-1.351,2.258c-.306.381.235.925.541.541A10.451,10.451,0,0,0,624.917,359c.186-.437-.455-.82-.646-.378" transform="translate(-456.859 -262.912)"/>
    <path id="Path_2144" data-name="Path 2144" d="M537.786,380.213a8.226,8.226,0,0,0-2.214,3.724c-.132.533.69.939.928.391a16.041,16.041,0,0,1,2.02-3.549c.331-.43-.366-.924-.734-.566" transform="translate(-392.844 -278.804)"/>
    <path id="Path_2145" data-name="Path 2145" d="M455.717,374.548c-1.024,1.5-2.033,3.018-3.007,4.555-.337.531.506,1.021.842.492.973-1.535,1.91-3.092,2.833-4.658.255-.433-.39-.8-.667-.39" transform="translate(-332.016 -274.609)"/>
    <path id="Path_2146" data-name="Path 2146" d="M390.063,379.635c-.551,1.166-1.117,2.327-1.643,3.505-.2.46.46.869.688.4.566-1.16,1.092-2.34,1.632-3.512.21-.454-.461-.854-.678-.4" transform="translate(-284.887 -278.322)"/>
    <path id="Path_2147" data-name="Path 2147" d="M336.649,374.967c-.952,1.2-1.916,2.4-2.844,3.619-.3.391.376.916.686.53.96-1.2,1.883-2.423,2.819-3.638.288-.375-.364-.884-.661-.51" transform="translate(-244.799 -274.95)"/>
    <path id="Path_2148" data-name="Path 2148" d="M311.55,400.935a3.985,3.985,0,0,1-.443,3.542c-.258.41.378.927.686.53a3.893,3.893,0,0,0,.334-4.315.317.317,0,0,0-.577.243" transform="translate(-228.16 -293.807)"/>
    <path id="Path_2149" data-name="Path 2149" d="M404.747,401.675a9.034,9.034,0,0,0-1.764,4.047c-.089.573.783.826.882.243a9.065,9.065,0,0,1,1.574-3.886c.3-.42-.387-.811-.691-.4" transform="translate(-295.593 -294.512)"/>
    <path id="Path_2150" data-name="Path 2150" d="M493.505,399.834c-.7,1.569-1.409,3.131-2.043,4.727-.184.465.6.8.813.343.71-1.563,1.339-3.161,1.987-4.75.176-.431-.568-.749-.758-.319" transform="translate(-360.479 -293.138)"/>
    <path id="Path_2151" data-name="Path 2151" d="M563.75,403.405l-.953,2.568c-.2.538.669.778.862.238l.918-2.578c.186-.523-.637-.74-.827-.228" transform="translate(-412.802 -295.693)"/>
    <path id="Path_2152" data-name="Path 2152" d="M275.3,420.726a10.651,10.651,0,0,0-1.522,4.675c-.056.652.968.652,1.019,0a10.146,10.146,0,0,1,1.285-4.218.453.453,0,0,0-.782-.457" transform="translate(-200.818 -308.452)"/>
    <path id="Path_2153" data-name="Path 2153" d="M327.967,420.807a9.479,9.479,0,0,0-1.555,4.658c-.03.635.9.607.971,0a10.185,10.185,0,0,1,1.352-4.209.445.445,0,0,0-.768-.449" transform="translate(-239.43 -308.518)"/>
    <path id="Path_2154" data-name="Path 2154" d="M382.029,420.966c-.617,1.208-1.163,2.46-1.725,3.694-.256.564.588,1.05.831.486.553-1.282,1.13-2.565,1.626-3.871.161-.424-.527-.711-.732-.309" transform="translate(-278.926 -308.646)"/>
    <path id="Path_2155" data-name="Path 2155" d="M431.775,425.282l-.746,3.03c-.142.577.757.823.889.245l.7-3.042c.126-.547-.708-.78-.843-.232" transform="translate(-316.158 -311.725)"/>
    <path id="Path_2156" data-name="Path 2156" d="M499.692,418.5a3.011,3.011,0,0,0-.894,2.872c.134.61.993.333.913-.252a2.5,2.5,0,0,1,.6-2,.439.439,0,0,0-.621-.621" transform="translate(-365.826 -306.883)"/>
    <path id="Path_2157" data-name="Path 2157" d="M536.737,421.549c-.425.884-.886,1.758-1.227,2.679-.186.5.606.823.858.362.45-.827.789-1.714,1.159-2.579.227-.528-.53-1-.789-.462" transform="translate(-392.788 -309.041)"/>
    <path id="Path_2158" data-name="Path 2158" d="M667.37,340.133a3.151,3.151,0,0,0,3.624.324,2.38,2.38,0,0,0,.452-3.443c-.875-.834-2.416-.664-3.45-.271a1.949,1.949,0,0,0-.591,3.538c.463.342,1.074-.44.62-.8-1.73-1.384,1.9-2.786,2.781-1.612a1.445,1.445,0,0,1-.692,1.98,2.682,2.682,0,0,1-2.242-.364c-.394-.2-.889.341-.5.651" transform="translate(-488.891 -246.77)"/>
    <path id="Path_2159" data-name="Path 2159" d="M300.491,448.523l-4.732,7.063a.506.506,0,0,0,.3.738,63.068,63.068,0,0,0,12.559,1.091c4.194-.009,8.387-.516,12.577-.313,3.62.176,7.263.556,10.81-.425a7.784,7.784,0,0,0,2.5-.93,10.4,10.4,0,0,0,1.472-2.229q1.873-2.828,3.961-5.5c.413-.53-.329-1.282-.746-.747-1.143,1.465-2.25,2.955-3.3,4.485-.557.809-1.043,1.692-1.639,2.47a4.924,4.924,0,0,1-2.985,1.544c-3.536.874-7.163.382-10.75.25-3.878-.143-7.762.331-11.643.354a68.661,68.661,0,0,1-12.547-1.017l.3.738,4.58-7.152c.29-.452-.421-.859-.716-.419" transform="translate(-216.894 -327.947)"/>
    <path id="Path_2160" data-name="Path 2160" d="M303.234,312.145a4.2,4.2,0,0,0,.66,2.273c.152.237.537.009.377-.221a3.822,3.822,0,0,1-.689-2.052.174.174,0,0,0-.348,0" transform="translate(-222.429 -228.842)"/>
    <path id="Path_2161" data-name="Path 2161" d="M313.5,318.588a.152.152,0,0,0,0-.3.152.152,0,0,0,0,.3" transform="translate(-229.854 -233.468)"/>
    <path id="Path_2162" data-name="Path 2162" d="M758.562,35.988l-1.507,1.151a.141.141,0,1,0,.172.223l1.487-1.177c.111-.087-.039-.284-.152-.2" transform="translate(-555.269 -26.382)"/>
    <path id="Path_2163" data-name="Path 2163" d="M757.852,36.886a7.191,7.191,0,0,0-3.785,2.694c-.134.189.121.4.3.3q1.169-.645,2.369-1.231a17.921,17.921,0,0,1,2.49-1.127l-.1-.239a18.658,18.658,0,0,0-2.777,1.869,28.34,28.34,0,0,0-2.533,2.135c-.165.16,0,.491.235.4a12.621,12.621,0,0,0,2.78-1.451c.2-.141.017-.472-.2-.335a12.624,12.624,0,0,1-2.713,1.32l.235.4c.8-.755,1.61-1.5,2.472-2.19s1.786-1.279,2.654-1.951c.123-.1-.034-.268-.159-.205-.43.216-.895.37-1.341.551-.394.161-.787.325-1.177.5-.832.366-1.651.76-2.461,1.171l.3.3a7.2,7.2,0,0,1,3.491-2.608c.193-.066.114-.368-.085-.308" transform="translate(-552.891 -27.051)"/>
    <path id="Path_2164" data-name="Path 2164" d="M761.394,44.389a37.556,37.556,0,0,0-5.984,4.593.22.22,0,0,0,.154.372,4.7,4.7,0,0,0,2.442-.945c.189-.144.009-.468-.19-.325a4.411,4.411,0,0,1-2.252.834l.154.372a37.052,37.052,0,0,1,5.748-4.779c.075-.05.007-.171-.072-.122" transform="translate(-554.065 -32.552)"/>
    <path id="Path_2165" data-name="Path 2165" d="M760.16,51.926c-2.623,1.867-5.179,3.83-7.766,5.747-.273.2-.012.665.27.463,1.824-1.305,3.668-2.546,5.575-3.727a.146.146,0,0,0-.147-.252,34.268,34.268,0,0,0-5.7,3.516l.325.421c2.524-2,5.085-3.954,7.571-6,.093-.077-.03-.239-.13-.168" transform="translate(-551.813 -38.076)"/>
    <path id="Path_2166" data-name="Path 2166" d="M758.786,60.53c-2.352,1.869-4.666,3.791-7.048,5.622a.266.266,0,0,0,.268.459c.958-.51,1.877-1.112,2.808-1.669s1.855-1.142,2.774-1.728a.158.158,0,0,0-.159-.272c-.96.515-1.918,1.034-2.863,1.576s-1.915,1.048-2.829,1.635l.322.417c2.242-2.017,4.561-3.951,6.835-5.931.076-.066-.033-.169-.109-.109" transform="translate(-551.33 -44.387)"/>
    <path id="Path_2167" data-name="Path 2167" d="M753.887,72.757a36.946,36.946,0,0,0-3.557,2.719,31.848,31.848,0,0,0-3.272,3.2c-.18.208.054.579.312.4a46.552,46.552,0,0,1,7.6-4.31l-.185-.316a47.01,47.01,0,0,0-8.432,7.621c-.21.241.058.651.358.464q1.925-1.2,3.833-2.432a13.648,13.648,0,0,1,3.808-1.922l-.177-.3q-2.367,1.926-4.611,3.994-1.108,1.024-2.186,2.081c-.573.561-1.41,1.18-1.419,2.061a.291.291,0,0,0,.435.249c1.228-.822,2.435-1.673,3.688-2.456a26.342,26.342,0,0,1,3.943-2.133l-.2-.339c-2.464,2.121-4.817,4.367-7.085,6.695-.182.187,0,.554.268.46a13.893,13.893,0,0,0,4.122-2.341c.151-.122-.049-.382-.208-.27a17.142,17.142,0,0,1-4.06,2.08l.268.46c2.239-2.356,4.579-4.611,6.982-6.8.183-.167-.05-.4-.245-.318a35.78,35.78,0,0,0-4,2.02c-1.285.767-2.538,1.59-3.768,2.441l.435.25a1.6,1.6,0,0,1,.608-1.05q.5-.519,1.015-1.03,1-1,2.026-1.973,2.075-1.965,4.245-3.827c.141-.121-.01-.351-.177-.3A16.093,16.093,0,0,0,750.39,79.6c-1.333.8-2.655,1.611-3.974,2.43l.358.464a49.98,49.98,0,0,1,8.2-7.723.183.183,0,0,0-.185-.316,53.537,53.537,0,0,0-7.679,4.181l.312.4a44.1,44.1,0,0,1,3.018-3.282,36.622,36.622,0,0,1,3.483-2.934c.037-.027,0-.09-.037-.063" transform="translate(-547.181 -53.364)"/>
    <path id="Path_2168" data-name="Path 2168" d="M748.191,124.775c-2.359,1.961-4.628,4.029-6.83,6.164a.245.245,0,0,0,.049.382c.47.215.837-.04,1.229-.3q.8-.531,1.592-1.072c1.041-.709,2.082-1.417,3.1-2.162.138-.1.017-.325-.137-.234-.95.559-1.88,1.146-2.81,1.738-.446.284-.894.566-1.338.854-.222.144-.443.289-.665.434s-.511.4-.783.3l.107.407a90.1,90.1,0,0,1,6.657-6.336c.119-.1-.053-.27-.172-.172" transform="translate(-543.754 -91.503)"/>
    <path id="Path_2169" data-name="Path 2169" d="M751.109,134.471c-2.051,1.878-4.075,3.783-6.094,5.7-.2.186.067.547.3.383.48-.345.95-.7,1.424-1.054.217-.161.014-.529-.216-.37-.485.334-.974.662-1.453,1l.3.383c1.945-1.986,3.882-3.978,5.792-6a.03.03,0,0,0-.043-.043" transform="translate(-546.435 -98.631)"/>
    <path id="Path_2170" data-name="Path 2170" d="M748.737,139.713a60.045,60.045,0,0,0-7.76,7.725c-.2.245.15.6.352.352a60.428,60.428,0,0,1,7.631-7.853c.155-.132-.068-.352-.223-.223" transform="translate(-543.479 -102.454)"/>
    <path id="Path_2171" data-name="Path 2171" d="M747.8,151.522c-2.752,2.716-5.591,5.356-8.517,7.885-.224.194.071.58.318.413,1.749-1.18,3.45-2.421,5.085-3.753.133-.108-.042-.336-.184-.238-1.715,1.188-3.431,2.377-5.167,3.537l.318.413q4.214-3.988,8.34-8.062a.138.138,0,0,0-.194-.195" transform="translate(-542.222 -111.115)"/>
    <path id="Path_2172" data-name="Path 2172" d="M735.949,162.833a37.346,37.346,0,0,0-7.256,6.558c-.178.21.048.564.31.4,1.221-.756,2.418-1.549,3.621-2.334s2.372-1.632,3.595-2.38l-.193-.25a47.626,47.626,0,0,0-7.458,7.3.267.267,0,0,0,.377.377,28.983,28.983,0,0,1,3.264-2.456,22.641,22.641,0,0,1,3.582-2.02l-.136-.233q-4.062,4.138-8.12,8.282c-.221.227.076.656.351.455a36.3,36.3,0,0,1,7.554-4.343l-.232-.4q-3.943,3.794-7.89,7.586c-.254.244.069.627.365.473,2.347-1.222,4.666-2.5,6.994-3.758l-.3-.39c-2.374,2.5-4.827,4.932-7.237,7.4a.313.313,0,0,0,.378.49c2.077-1.029,4.1-2.156,6.18-3.186l-.291-.377c-2.42,2.5-4.831,5-7.26,7.485-.226.232.069.648.355.46,1.095-.717,2.183-1.446,3.328-2.084a15.793,15.793,0,0,1,3.62-1.582l-.191-.328q-3.251,3.739-6.822,7.18a.291.291,0,0,0,.35.454,41.452,41.452,0,0,1,7.137-3.516l-.223-.383c-2.523,2.793-5.247,5.417-8.032,7.947a.3.3,0,0,0,.359.466,43.981,43.981,0,0,1,6.679-3.477l-.294-.382a62.136,62.136,0,0,1-6.745,7.384c-.3.288.143.716.454.453a13.628,13.628,0,0,1,4.926-2.614l-.291-.5c-2.049,2.627-4.217,5.169-6.329,7.747a.315.315,0,0,0,.38.493,17.121,17.121,0,0,0,4.211-2.677c.273-.23-.121-.621-.392-.392a17.19,17.19,0,0,1-4.135,2.527l.38.493c2.1-2.59,4.149-5.229,6.309-7.767a.3.3,0,0,0-.291-.5,13.018,13.018,0,0,0-5.221,2.738l.454.453a70.951,70.951,0,0,0,6.7-7.523c.139-.176.019-.543-.253-.435a39.407,39.407,0,0,0-6.84,3.467l.359.466c2.753-2.578,5.359-5.291,7.937-8.042.148-.157,0-.461-.223-.383a33.512,33.512,0,0,0-7.307,3.458l.35.454q3.505-3.506,6.691-7.311a.2.2,0,0,0-.191-.328,18.264,18.264,0,0,0-3.68,1.445c-1.189.633-2.331,1.357-3.46,2.093l.355.46c2.385-2.529,4.79-5.04,7.186-7.56a.241.241,0,0,0-.291-.377c-2.068,1.053-4.185,2.008-6.253,3.062l.378.49c2.383-2.494,4.729-5.029,7.148-7.487a.25.25,0,0,0-.3-.39c-2.352,1.217-4.714,2.414-7.047,3.667l.365.473q3.9-3.84,7.8-7.675c.158-.156,0-.493-.232-.4a34.038,34.038,0,0,0-7.72,4.3l.351.455q3.968-4.235,7.907-8.495a.14.14,0,0,0-.169-.219,33.109,33.109,0,0,0-3.776,1.874,25.5,25.5,0,0,0-3.339,2.479l.377.377a57.244,57.244,0,0,1,7.306-7.456c.137-.116-.042-.349-.193-.25-1.193.791-2.454,1.493-3.67,2.25s-2.443,1.51-3.643,2.3l.31.4a37.068,37.068,0,0,1,7.025-6.7c.132-.1.008-.319-.131-.224" transform="translate(-531.321 -119.424)"/>
    <path id="Path_2173" data-name="Path 2173" d="M725.995,315.879c-1.769,1.624-3.52,3.269-5.33,4.846l.4.4a24.807,24.807,0,0,1,3.386-2.65,19.364,19.364,0,0,1,3.815-2.017l-.25-.142c.128.313-.326.615-.528.8l-.754.685q-.777.707-1.568,1.4-1.559,1.361-3.175,2.655l.454.454c1.787-1.542,3.643-3.316,5.929-4.083l-.23-.4q-2.373,2.32-4.741,4.645a.306.306,0,0,0,.369.478c1.146-.687,2.247-1.448,3.389-2.142l-.338-.338a13.342,13.342,0,0,1-2.6,2.879c-.271.221.075.619.36.467a9.038,9.038,0,0,1,2.06-.8l-.28-.364a9.338,9.338,0,0,0-.686,1.773.263.263,0,0,0,.181.318.79.79,0,0,0,.668-.1.223.223,0,0,0-.225-.384.308.308,0,0,1-.306-.011l.181.319a6.476,6.476,0,0,1,.615-1.66.251.251,0,0,0-.28-.365,8.535,8.535,0,0,0-2.228.766l.36.467a17.083,17.083,0,0,0,2.608-3.05.249.249,0,0,0-.338-.338c-1.137.7-2.314,1.336-3.446,2.043l.369.478q2.325-2.368,4.645-4.741c.156-.16,0-.479-.23-.4a13.859,13.859,0,0,0-3.316,1.7A32.252,32.252,0,0,0,722,321.858c-.311.278.142.716.454.454q1.8-1.514,3.528-3.111c.56-.518,1.117-1.041,1.659-1.577.38-.376,1.031-.856.754-1.46a.2.2,0,0,0-.229-.093c-.686.283-1.379.53-2.05.851a20,20,0,0,0-1.947,1.062,20.327,20.327,0,0,0-3.5,2.741c-.263.258.146.667.4.4,1.684-1.708,3.433-3.353,5.161-5.016.155-.149-.078-.378-.234-.234" transform="translate(-528.561 -231.671)"/>
    <path id="Path_2174" data-name="Path 2174" d="M668.064,384.619c-.167-1-.542-2.768-1.934-2.138a6.531,6.531,0,0,0-1.6,1.188c-.884.8-1.762,1.609-2.62,2.438-1.017.983-2.008,1.99-2.94,3.054a.259.259,0,0,0,.113.428,2.258,2.258,0,0,1,1.332.951,1.216,1.216,0,0,0,1.006.6,2.275,2.275,0,0,0,1.242-.532c.453-.34.876-.728,1.3-1.1.9-.787,1.792-1.577,2.655-2.4a16.081,16.081,0,0,0,1.206-1.195,1.475,1.475,0,0,0,.281-1.3c-.036-.223-.376-.129-.339.094a1.121,1.121,0,0,1-.139.9,4.355,4.355,0,0,1-.487.519q-.556.554-1.127,1.093c-.747.706-1.5,1.4-2.3,2.048-.412.339-.822.691-1.256,1-.347.249-.852.571-1.29.358-.359-.175-.539-.662-.832-.928a2.645,2.645,0,0,0-1.119-.6l.113.428c1.486-1.644,3.081-3.181,4.69-4.7.579-.548,1.149-1.123,1.768-1.627.282-.23.744-.613,1.14-.453a1.09,1.09,0,0,1,.487.587,5.916,5.916,0,0,1,.388,1.365c.034.173.29.1.261-.072" transform="translate(-483.316 -280.461)"/>
    <path id="Path_2175" data-name="Path 2175" d="M699.446,370.431a1.047,1.047,0,0,0-.767-.2.914.914,0,0,0-.566.383,1.466,1.466,0,0,0-.119,1.42,1.133,1.133,0,0,0,1.2.722,1.223,1.223,0,0,0,.837-.931,1.371,1.371,0,0,0-.035-.77,1.2,1.2,0,0,0-.54-.64.206.206,0,1,0-.208.356c.045.033-.021-.018.006,0l.032.027.048.044c.017.017.034.034.049.053l.025.03c-.022-.026-.013-.019,0,0a1.18,1.18,0,0,1,.07.116c.009.017.017.036.027.053.024.043-.013-.04,0-.009,0,.014.01.027.015.041a1,1,0,0,1,.034.119s.012.071.013.071a.185.185,0,1,0,0-.022c0,.014,0,.029,0,.043a1.172,1.172,0,0,1,0,.129c0,.019,0,.038,0,.058s-.008.056,0,.009,0,.006,0,.016a1.521,1.521,0,0,1-.066.254c0,.012-.031.079-.013.035s-.01.021-.016.032a1.137,1.137,0,0,1-.067.119l-.03.045c-.037.055.033-.037,0,.006a1.23,1.23,0,0,1-.084.09l-.048.042c-.029.026.053-.035,0,0-.035.022-.07.041-.106.062s.063-.021.006,0c-.019.006-.038.013-.057.018l-.047.01c-.044.011.059,0,.027,0a.279.279,0,0,0-.03,0,.582.582,0,0,1-.061,0l-.025,0c-.039,0,.029,0,.031,0a1.2,1.2,0,0,0-.127-.034c-.039-.011.021.006.023.01s-.026-.012-.032-.015l-.058-.032-.052-.034c-.011-.007-.022-.016-.033-.023s.041.036,0,0-.081-.073-.119-.114c-.02-.022-.039-.045-.059-.068s0,.011.009.012a.214.214,0,0,1-.028-.04,1.089,1.089,0,0,1-.073-.126l-.014-.029c-.024-.048.013.04,0,.007s-.019-.05-.027-.076a1.275,1.275,0,0,1-.035-.139c0-.013,0-.026-.007-.039-.007-.037.006.015,0,.016s-.007-.074-.007-.079a1.338,1.338,0,0,1,0-.143c0-.023,0-.047.006-.07,0-.05,0,.008,0,.008s.008-.044.008-.046a1.3,1.3,0,0,1,.033-.134c.006-.019.012-.038.019-.057l.01-.028c.016-.046-.02.039,0,0a1.3,1.3,0,0,1,.077-.139c.005-.008.011-.015.016-.023.025-.041-.032.035,0,0,.015-.017.03-.035.046-.052s.033-.031.05-.047.04-.03.009-.008.01-.006.016-.01c.021-.014.042-.025.064-.037l.024-.011c-.046.027-.02.007,0,0s.043-.014.066-.019l.027-.006c.043-.012-.043,0,0,0,.027,0,.053,0,.08,0s.1.009.044,0a.892.892,0,0,1,.163.041l.034.012c.04.015-.013-.008.023.01s.072.036.107.056a.188.188,0,1,0,.19-.325" transform="translate(-511.9 -271.564)"/>
    <path id="Path_2176" data-name="Path 2176" d="M310.015,470.986c2.313.184,4.62.386,6.938.5q3.5.172,7.011.233,6.948.129,13.895-.1,1.951-.063,3.9-.153c1.32-.061,2.65-.094,3.965-.225.335-.033.35-.541,0-.534-2.313.048-4.627.239-6.94.323q-3.505.127-7.012.167c-4.633.052-9.264-.017-13.894-.159-2.62-.081-5.246-.141-7.864-.28-.147-.007-.144.215,0,.227" transform="translate(-227.323 -345.275)"/>
    <path id="Path_2177" data-name="Path 2177" d="M358.224,475.265a3.924,3.924,0,0,0-.685.989,4.043,4.043,0,0,0-.337,1.2.232.232,0,0,0,.231.231.236.236,0,0,0,.231-.231,4.312,4.312,0,0,1,.818-1.986c.112-.149-.132-.333-.257-.2" transform="translate(-262.015 -348.583)"/>
    <path id="Path_2178" data-name="Path 2178" d="M672.156,343.4a1.31,1.31,0,0,0,.092.983,1.109,1.109,0,0,0,.763.6.179.179,0,0,0,.21-.1.176.176,0,0,0-.073-.222,1.01,1.01,0,0,1-.171-.1s-.049-.039-.016-.011l-.04-.035c-.022-.02-.043-.041-.063-.062-.046-.048-.093-.093-.136-.144s.016.026-.009-.012l-.031-.045c-.018-.028-.036-.056-.052-.085s-.03-.059-.045-.088,0,.017,0-.007-.013-.034-.019-.051a1.552,1.552,0,0,1-.047-.192c-.005-.025,0,.034,0-.007,0-.018,0-.036,0-.054s0-.066,0-.1c0-.015,0-.03,0-.044,0-.058-.009.04,0-.017.007-.035.014-.07.024-.105a.2.2,0,1,0-.386-.107" transform="translate(-493 -251.782)"/>
    <path id="Path_2179" data-name="Path 2179" d="M542.572,519.442a20.882,20.882,0,0,1-.275,3.009c-.158.973-.413,1.919-.624,2.88a.223.223,0,0,0,.429.118,16.405,16.405,0,0,0,.538-2.952,29.467,29.467,0,0,0,.166-3.055.117.117,0,0,0-.234,0" transform="translate(-397.325 -380.939)"/>
    <path id="Path_2180" data-name="Path 2180" d="M536.826,527.632c-.08.529-.181,1.051-.308,1.57s-.294,1.027-.422,1.545a.206.206,0,0,0,.4.11,11.756,11.756,0,0,0,.367-1.56c.1-.525.187-1.054.261-1.583.027-.193-.267-.278-.3-.082" transform="translate(-393.233 -386.948)"/>
    <path id="Path_2181" data-name="Path 2181" d="M530.6,532.766q-.219.6-.452,1.185a.147.147,0,0,0,.1.179.149.149,0,0,0,.179-.1q.2-.6.409-1.2a.125.125,0,0,0-.086-.152.126.126,0,0,0-.152.086" transform="translate(-388.873 -390.729)"/>
    <path id="Path_2182" data-name="Path 2182" d="M520.974,537.474a.047.047,0,0,0,0-.093.047.047,0,0,0,0,.093" transform="translate(-382.113 -394.181)"/>
    <path id="Path_2183" data-name="Path 2183" d="M518.351,537.211a.2.2,0,0,0,0-.393.2.2,0,0,0,0,.393" transform="translate(-380.083 -393.768)"/>
    <path id="Path_2184" data-name="Path 2184" d="M558.678,517.978c-.234.5-.531,1.346.175,1.641.33.138.663-.061.963-.189.435-.186.871-.375,1.3-.58a46,46,0,0,0,4.93-2.8c.19-.122.014-.426-.177-.3a40.862,40.862,0,0,1-3.863,2.19q-.968.478-1.944.94c-.272.128-.766.473-1.065.394-.526-.139-.287-.863-.144-1.188.051-.115-.117-.216-.171-.1" transform="translate(-409.608 -378.287)"/>
    <path id="Path_2185" data-name="Path 2185" d="M603.664,498.233l.593-.445a.154.154,0,0,0,.065-.085.145.145,0,0,0-.014-.109.143.143,0,0,0-.194-.051l-.593.444a.157.157,0,0,0-.065.085.142.142,0,0,0,.208.16" transform="translate(-442.645 -364.944)"/>
    <path id="Path_2186" data-name="Path 2186" d="M121.416,511.954q1.364,2.466,2.852,4.858c.712,1.14,1.529,2.757,3.053,2.857a.237.237,0,0,0,.226-.3l-1.146-5.811-.413.174a52.021,52.021,0,0,0,3.538,6.234c.09.135.342.18.421,0a10.722,10.722,0,0,0,.861-3.709l-.4.109c.648,1.435,2.44,1.178,3.66.838a9.174,9.174,0,0,1,2.558-.395,8.361,8.361,0,0,1,2.665.475c.228.079.32-.276.1-.359a8.212,8.212,0,0,0-4.614-.332c-1.19.257-3.309,1.14-3.993-.447-.093-.216-.391-.081-.4.11a10.716,10.716,0,0,1-.847,3.463h.421a48.9,48.9,0,0,1-3.569-6.216c-.117-.244-.459-.063-.413.174L127.1,519.5l.226-.3a2.462,2.462,0,0,1-1.668-1.041,21.505,21.505,0,0,1-1.35-1.961q-1.4-2.144-2.72-4.343a.1.1,0,0,0-.168.1" transform="translate(-89.052 -375.423)"/>
    <path id="Path_2187" data-name="Path 2187" d="M215.656,528.11c.945-.2,1.887-.4,2.827-.624.215-.051.122-.367-.091-.328-.95.177-1.895.372-2.84.573-.247.052-.142.43.1.378" transform="translate(-158.009 -386.679)"/>
    <path id="Path_2188" data-name="Path 2188" d="M336.367,34.363a4.2,4.2,0,0,0-1.273,1.586,3.012,3.012,0,0,0-.309,2.011c.047.156.313.183.343,0,.051-.3.058-.612.108-.916a3.9,3.9,0,0,1,.255-.893,3.817,3.817,0,0,1,1.117-1.477c.173-.14-.061-.448-.24-.311" transform="translate(-245.518 -25.181)"/>
    <path id="Path_2189" data-name="Path 2189" d="M343.069,36.435c-.225.623-.455,1.243-.647,1.877a.2.2,0,1,0,.386.107c.249-.615.461-1.242.678-1.868a.219.219,0,0,0-.151-.266.221.221,0,0,0-.266.151" transform="translate(-251.168 -26.609)"/>
    <path id="Path_2190" data-name="Path 2190" d="M742.468,40.172a4.481,4.481,0,0,1,.87,3.613.148.148,0,0,0,.285.078,4.245,4.245,0,0,0-.892-3.955c-.156-.184-.414.08-.263.263" transform="translate(-544.583 -29.229)"/>
    <path id="Path_2191" data-name="Path 2191" d="M536.183,31.722a1.632,1.632,0,0,0,.13,2.629c1.066.762,2.014-1.006,1.629-1.964a1.285,1.285,0,0,0-1.759-.665" transform="translate(-392.855 -23.16)" fill="#161616"/>
    <path id="Path_2192" data-name="Path 2192" d="M535.635,30.922c-.066.038-.124.085-.188.126a.741.741,0,0,0-.2.151,1.494,1.494,0,0,0-.238.411,1.771,1.771,0,0,0-.077.922,1.842,1.842,0,0,0,1.124,1.487,1.281,1.281,0,0,0,1.434-.743,1.983,1.983,0,0,0,.137-1.806,1.53,1.53,0,0,0-2.064-.669.257.257,0,0,0,.259.444,1.022,1.022,0,0,1,1.294.35,1.34,1.34,0,0,1,.027,1.291,1.523,1.523,0,0,1-.377.544.624.624,0,0,1-.494.177.836.836,0,0,1-.27-.1,1.322,1.322,0,0,1-.283-.236,1.716,1.716,0,0,1-.382-.636,1.485,1.485,0,0,1-.031-.83,1.135,1.135,0,0,1,.17-.366c.044-.062.081-.12.12-.184a.831.831,0,0,1,.154-.13.115.115,0,0,0-.116-.2" transform="translate(-392.365 -22.46)"/>
    <path id="Path_2193" data-name="Path 2193" d="M451.478,90.083c4.363-.152,11.806-1.053,13.035,4.561.89,4.068-1.419,8.266-3.256,11.756-1.228,2.333-2.931,5.08-3.173,7.766-.332,3.692,5.5,3.78,7.942,3.854l-.571-.75c-.612,2.953-1.536,5.829-2.157,8.78a.616.616,0,0,0,.42.739c3.094.965,6.046,1.835,9.3,1.123,3.663-.8,6.974-2.834,10.15-4.739a.6.6,0,0,0-.607-1.037c-2.969,1.781-6.008,3.636-9.393,4.505-3.195.82-6.086-.061-9.133-1.011l.42.739c.62-2.951,1.536-5.83,2.141-8.785a.6.6,0,0,0-.571-.75,20.331,20.331,0,0,1-3.861-.342c-.909-.2-2.668-.6-2.926-1.664-.28-1.152.608-2.822,1.048-3.838,1.189-2.744,2.726-5.311,3.867-8.078,1.438-3.485,2.747-8.306-.084-11.508-1.282-1.451-3.283-1.907-5.122-2.162a35.584,35.584,0,0,0-7.47-.034c-.555.04-.567.893,0,.874" transform="translate(-330.86 -65.304)"/>
    <path id="Path_2194" data-name="Path 2194" d="M268.255,681.682a29.085,29.085,0,0,1,19.4,8.355.54.54,0,0,0,.764-.764,28.873,28.873,0,0,0-20.161-8.356.382.382,0,0,0,0,.765" transform="translate(-196.5 -499.469)"/>
    <path id="Path_2195" data-name="Path 2195" d="M264.2,684.146a15.555,15.555,0,0,0,2.415,3.486c.171.179.519,0,.43-.25-.5-1.375-1.009-2.743-1.524-4.111l-.378.22a30.473,30.473,0,0,1,3.972,5.271c.164.269.645.1.528-.223-.714-1.947-1.583-3.838-2.306-5.782l-.4.167c1.4,2.206,2.808,4.4,4.2,6.613.172.273.66.1.544-.229-.775-2.21-1.667-4.377-2.461-6.58l-.468.2q2.391,3.53,4.774,7.065c.192.285.688.116.578-.244-.619-2.032-1.269-4.054-1.907-6.081l-.585.247q1.089,1.782,2.176,3.564a8.115,8.115,0,0,0,2.161,2.813.329.329,0,0,0,.479-.368q-.72-2.876-1.45-5.75l-.592.249c1.173,2.012,2.371,4.008,3.615,5.976a.338.338,0,0,0,.625-.169,16.81,16.81,0,0,0-.848-4.62l-.584.246a24.837,24.837,0,0,0,2.592,4.533.334.334,0,0,0,.607-.256c-.2-1.32-.4-2.641-.606-3.96l-.615.259q1.169,2.218,2.323,4.444a.34.34,0,0,0,.629-.17c-.021-.658-.043-1.315-.069-1.973l-.626.17q.607,1.005,1.213,2.011a.331.331,0,0,0,.446.117.76.76,0,0,1,1.07.373c.153.361.679.05.527-.308a1.37,1.37,0,0,0-1.927-.628l.446.117q-.6-1.01-1.2-2.021a.339.339,0,0,0-.626.169c.019.658.042,1.315.066,1.973l.629-.171q-1.166-2.22-2.325-4.442c-.19-.365-.667-.09-.615.259.2,1.32.408,2.639.614,3.958l.607-.256a24.815,24.815,0,0,1-2.614-4.52c-.147-.332-.692-.1-.584.246a17.588,17.588,0,0,1,.793,4.451l.625-.169c-1.253-1.963-2.471-3.948-3.635-5.964a.325.325,0,0,0-.592.249q.718,2.876,1.446,5.75l.478-.368a3.84,3.84,0,0,1-1.095-1.209c-.335-.523-.652-1.059-.977-1.588q-1.023-1.669-2.042-3.341a.322.322,0,0,0-.585.247c.636,2.027,1.26,4.058,1.915,6.079l.578-.244q-2.446-3.5-4.878-7c-.154-.221-.577-.093-.468.2.82,2.191,1.543,4.418,2.382,6.6l.544-.229c-1.455-2.171-2.889-4.356-4.338-6.531-.127-.191-.492-.074-.4.167.767,1.922,1.39,3.9,2.166,5.82l.528-.223a38.554,38.554,0,0,0-4.151-5.3.228.228,0,0,0-.378.22c.482,1.378.964,2.756,1.464,4.128l.43-.25A16.526,16.526,0,0,1,264.44,684c-.09-.159-.33-.018-.245.143" transform="translate(-193.78 -500.669)"/>
    <path id="Path_2196" data-name="Path 2196" d="M296.281,646.31c2.538.6,3.427,3.136,3.921,5.42a.56.56,0,0,0,.4.4,37.492,37.492,0,0,1,11.332,5.229c.532.351,1.2-.484.691-.9a28.086,28.086,0,0,0-11.722-5.424l.4.4c-.712-2.565-1.9-5.33-4.808-5.86-.479-.087-.692.625-.2.741" transform="translate(-217.126 -473.534)"/>
    <path id="Path_2197" data-name="Path 2197" d="M303.723,626.579c3.041.633,5.929,2.544,8.6,4.076q1.963,1.126,3.874,2.339a9.8,9.8,0,0,1,3.343,2.873.48.48,0,0,0,.828-.484c-1.319-2.562-4.728-3.978-7.114-5.324-2.852-1.608-6.05-3.68-9.325-4.217-.476-.078-.691.636-.2.737" transform="translate(-222.585 -459.064)"/>
    <path id="Path_2198" data-name="Path 2198" d="M524.588,657.15a4.782,4.782,0,0,0-3.425.831c-1.064.931-.835,1.788-.657,3.018.371,2.562-3.821,2.684-5.483,2.8a27.05,27.05,0,0,1-6.1-.341c-.6-.094-.876.792-.257.932a20.169,20.169,0,0,0,10.707-.29,3.074,3.074,0,0,0,2.209-2.243c.148-.921-.58-1.829-.088-2.722.571-1.037,2.094-1.064,3.1-1.08a.453.453,0,0,0,0-.906" transform="translate(-372.859 -482.028)"/>
    <path id="Path_2199" data-name="Path 2199" d="M498.886,643.691a37.266,37.266,0,0,0,17.986-.021.508.508,0,0,0-.27-.979,38.481,38.481,0,0,1-17.529.321c-.441-.1-.629.576-.187.679" transform="translate(-365.759 -471.416)"/>
    <path id="Path_2200" data-name="Path 2200" d="M510.289,693.994c.814.129,1.619.309,2.435.431s1.629.22,2.447.3c1.647.162,3.306.236,4.961.257.827.011,1.655,0,2.483-.029a12.42,12.42,0,0,0,2.246-.214c.573-.125,1.375-.327,1.671-.892a2.285,2.285,0,0,0,.156-.857,7.246,7.246,0,0,1,.191-1.052,7.1,7.1,0,0,1,.869-2.022,10.26,10.26,0,0,1,1.5-1.75c.166-.167-.051-.468-.257-.333a6.453,6.453,0,0,0-2.243,2.892,7.1,7.1,0,0,0-.509,1.821c-.039.29-.042.581-.071.871-.046.463-.612.593-1,.709a16.268,16.268,0,0,1-4.519.359c-1.59.01-3.179-.023-4.766-.123-.912-.057-1.822-.129-2.733-.206-.943-.079-1.9-.137-2.831-.285-.082-.013-.116.112-.034.125" transform="translate(-374.274 -504.516)"/>
    <path id="Path_2201" data-name="Path 2201" d="M566.19,671.794a3.33,3.33,0,0,1,1.719-.906.217.217,0,0,0,.15-.264.219.219,0,0,0-.264-.15,3.023,3.023,0,0,0-1.825,1.1.161.161,0,0,0,0,.22.158.158,0,0,0,.22,0" transform="translate(-415.119 -491.805)"/>
    <path id="Path_2202" data-name="Path 2202" d="M570.892,676.821a1.976,1.976,0,0,1,.586-.753l.021-.016.045-.033q.055-.04.112-.075a2.152,2.152,0,0,1,.217-.12,3,3,0,0,1,.43-.174.188.188,0,0,0,.135-.206.186.186,0,0,0-.185-.163,1.772,1.772,0,0,0-.576.163,2.312,2.312,0,0,0-.474.317,2.338,2.338,0,0,0-.644.92c-.075.19.248.328.333.14" transform="translate(-418.51 -495.333)"/>
    <path id="Path_2203" data-name="Path 2203" d="M574.195,682.077l.506-.251a.171.171,0,0,0,.061-.233.174.174,0,0,0-.232-.061l-.5.254a.169.169,0,0,0-.06.23.172.172,0,0,0,.23.06" transform="translate(-420.999 -499.904)"/>
    <path id="Path_2204" data-name="Path 2204" d="M580.651,657.072a4.537,4.537,0,0,1,1.7-2.607q.078-.057.16-.111l.081-.053c.06-.012.071-.037.034-.076.009-.112-.033.054-.039.075a1.722,1.722,0,0,1-.07.19,5.677,5.677,0,0,1-.372.767,5.078,5.078,0,0,1-1.075,1.35c-.242.2.07.592.334.434.6-.359,1.407-1.017,2.094-.445a.556.556,0,0,1,.055.825,2.568,2.568,0,0,1-1.19.577c-.268.1-.255.571.073.536a2.183,2.183,0,0,0,1.61-.775,1.152,1.152,0,0,0-.029-1.457c-.819-.947-2.159-.343-2.947.3l.39.39a7.631,7.631,0,0,0,1.269-1.766,2.69,2.69,0,0,0,.356-.995.409.409,0,0,0-.556-.435,2.7,2.7,0,0,0-.782.571,4.874,4.874,0,0,0-.676.774,4.511,4.511,0,0,0-.765,1.83c-.039.224.292.325.347.1" transform="translate(-425.664 -479.555)"/>
    <path id="Path_2205" data-name="Path 2205" d="M276.352,648.105a3.262,3.262,0,0,1,1.05.49,3.539,3.539,0,0,1,.426.354c.144.139.294.272.432.416a.213.213,0,0,0,.334-.257,2.1,2.1,0,0,0-.4-.52,3.341,3.341,0,0,0-.535-.394,3.6,3.6,0,0,0-1.206-.443c-.229-.039-.331.293-.1.355" transform="translate(-202.613 -475.137)"/>
    <path id="Path_2206" data-name="Path 2206" d="M271.76,652.624a1.984,1.984,0,0,1,1.7,1.2.251.251,0,0,0,.34.089.255.255,0,0,0,.089-.34,2.27,2.27,0,0,0-2.128-1.243.146.146,0,0,0,0,.291" transform="translate(-199.239 -478.5)"/>
    <path id="Path_2207" data-name="Path 2207" d="M269.241,657.193l.753.388a.176.176,0,1,0,.178-.3l-.763-.37a.166.166,0,0,0-.167.286" transform="translate(-197.436 -481.841)"/>
    <path id="Path_2208" data-name="Path 2208" d="M262.579,635.8a2.468,2.468,0,0,1-1.283-1.061.848.848,0,0,1-.145-.338c-.017-.212.244.022.305.075.269.231.527.48.785.723.171.162.534,0,.431-.251a9.86,9.86,0,0,1-.46-1.362c-.054-.221-.1-.444-.14-.669-.019-.119-.036-.238-.049-.357a2.1,2.1,0,0,0-.018-.279c-.008-.031.015-.037,0-.046l-.115.017.019.02c0,.072.135.22.171.284a6.023,6.023,0,0,1,.306.623,6.661,6.661,0,0,1,.391,1.326c.064.335.575.193.511-.141-.086-.448-.852-3.233-1.635-2.508a.718.718,0,0,0-.17.6,7.945,7.945,0,0,0,.122.928,6.68,6.68,0,0,0,.593,1.767l.353-.353c-.2-.151-.4-.305-.605-.459a2.194,2.194,0,0,0-.593-.4c-.415-.135-.671.245-.566.62a2.151,2.151,0,0,0,.653.935,2.809,2.809,0,0,0,1.057.591c.182.055.252-.218.078-.281" transform="translate(-191.279 -463.392)"/>
    <path id="Path_2209" data-name="Path 2209" d="M280.731,663.589a4.093,4.093,0,0,1,2.755,2.933,2.079,2.079,0,0,0,.355.856,2.749,2.749,0,0,0,1.425.777.241.241,0,0,0,.128-.464,3.674,3.674,0,0,1-.812-.321,1.232,1.232,0,0,1-.515-.613c-.119-.272-.182-.565-.3-.839a4.3,4.3,0,0,0-.39-.723,4.542,4.542,0,0,0-2.578-1.855.13.13,0,0,0-.069.25" transform="translate(-205.856 -486.57)"/>
    <path id="Path_2210" data-name="Path 2210" d="M494.505,559.612c3.749.746,7.762,1.609,10.531,4.453a7.92,7.92,0,0,1,2.307,4.544c.1.905-.039,1.814.027,2.72a3.634,3.634,0,0,0,1,2.34,14.228,14.228,0,0,1,1.1,1.2,7.5,7.5,0,0,1,1.495,4.464.16.16,0,0,0,.32,0,7.88,7.88,0,0,0-1.847-5.055c-.317-.375-.691-.7-1-1.076a2.792,2.792,0,0,1-.609-1.42c-.137-.969.038-1.953-.033-2.927-.267-3.643-3.311-6.326-6.491-7.637a33.845,33.845,0,0,0-6.757-1.733c-.081-.015-.116.108-.034.125" transform="translate(-362.696 -410.396)"/>
    <path id="Path_2211" data-name="Path 2211" d="M345.8,578.881a5.774,5.774,0,0,0,3.151-1.951,6.687,6.687,0,0,0,1.355-3.772,16.308,16.308,0,0,1,.626-4.516c.51-1.323,1.318-2.6.954-4.068a6.869,6.869,0,0,0-3.026-3.668c-.137-.1-.27.13-.133.227a7.142,7.142,0,0,1,2.893,3.227,3.244,3.244,0,0,1,.056,2.126,17.944,17.944,0,0,1-1,1.865c-1.2,2.492-.116,5.505-1.636,7.91a5.554,5.554,0,0,1-3.3,2.413.107.107,0,0,0,.057.207" transform="translate(-253.552 -411.419)"/>
    <path id="Path_2212" data-name="Path 2212" d="M531.593,556.783a17.431,17.431,0,0,1,4.966,4.831c.133.191.449.009.314-.184a17.466,17.466,0,0,0-5.185-4.812c-.1-.064-.2.1-.1.164" transform="translate(-389.903 -408.282)"/>
    <path id="Path_2213" data-name="Path 2213" d="M551.6,554.251l.315.958a.166.166,0,1,0,.32-.088l-.323-.956a.162.162,0,0,0-.312.086" transform="translate(-404.606 -406.404)"/>
    <path id="Path_2214" data-name="Path 2214" d="M375.577,560.305c.2.855.395,1.711.6,2.564.056.232.42.134.359-.1-.222-.848-.452-1.695-.682-2.541a.144.144,0,0,0-.277.077" transform="translate(-275.491 -410.865)"/>
    <path id="Path_2215" data-name="Path 2215" d="M391.126,562.636l-.007,1.117c0,.374.011.743.035,1.117a.123.123,0,0,0,.247,0c.024-.374.038-.743.035-1.117s0-.745-.007-1.117a.152.152,0,0,0-.3,0" transform="translate(-286.895 -412.599)"/>
    <path id="Path_2216" data-name="Path 2216" d="M313.145,615.354a9.549,9.549,0,0,0,2.921,2.656.233.233,0,0,0,.234-.4,9.513,9.513,0,0,1-2.827-2.446c-.146-.189-.474-.009-.328.192" transform="translate(-229.672 -451.176)"/>
    <path id="Path_2217" data-name="Path 2217" d="M506.982,232.945a21.349,21.349,0,0,0,.9,4.591.514.514,0,0,0,.991-.273c-.347-1.468-.567-2.994-.98-4.441a.465.465,0,0,0-.91.123" transform="translate(-371.883 -170.541)"/>
    <path id="Path_2218" data-name="Path 2218" d="M678.216,252.2c6.611,4.712,10.313,11.754,18.117,15.078a22.383,22.383,0,0,0,16.935.165c8.733-3.52,13.436-11.6,12.922-20.866a24.129,24.129,0,0,0-8.88-16.81,3.206,3.206,0,0,1-3.714.611c-2.125-.882-3.854-3.61-4.272-5.827a2.627,2.627,0,0,1,.832-2.595,5.517,5.517,0,0,1,.016-1.891,1.873,1.873,0,0,1,1.166-1.392c.413-.127.937-.092,1.178-.451a1.505,1.505,0,0,0,.15-.708,2.324,2.324,0,0,1,1.141-1.758c1.339-.765,2.268-1.333,1.246-2.956-.945-1.5-2.51-2.62-3.445-4.221a3.179,3.179,0,0,1-.54-1.517,1.233,1.233,0,0,1,.845-1.245,1.8,1.8,0,0,1,1.078.212c6.521,2.808,12.545,7.178,18.176,11.423a41.372,41.372,0,0,1,8.583,8.786,39.539,39.539,0,0,1-14.4,59.162c-24,11.639-45.357-4.262-62.9-19.583" transform="translate(-485.923 -150.953)" fill="#fff"/>
    <path id="Path_2219" data-name="Path 2219" d="M676.564,251.331c4.785,3.482,8.238,8.4,12.9,12.021a22.962,22.962,0,0,0,17.177,4.713,21.712,21.712,0,0,0,14.275-8.07,21.946,21.946,0,0,0,4.3-14.622,24.787,24.787,0,0,0-9.02-17.156.5.5,0,0,0-.693,0c-1.4,1.514-3.56.589-4.8-.619a7.888,7.888,0,0,1-2.392-4.61,2.4,2.4,0,0,1,.47-1.651c.147-.214.31-.218.391-.454.284-.83-.386-1.917.426-2.672.523-.486,1.343-.274,1.807-.843.42-.516.216-1.264.589-1.823.631-.944,2.065-1.069,2.449-2.247.366-1.122-.565-2.242-1.238-3.041-.542-.645-1.156-1.225-1.7-1.866-.373-.44-1.582-1.814-1.4-2.532.376-1.482,2.627.044,3.33.388q1.286.629,2.539,1.323a91.835,91.835,0,0,1,9.279,6,65.887,65.887,0,0,1,8.558,6.944,41.459,41.459,0,0,1,10.552,18.482,39.315,39.315,0,0,1-9.01,35.849,38.36,38.36,0,0,1-35.887,12.094c-14.74-2.959-27.072-13.054-38.109-22.685-.494-.431-1.221.29-.724.724,10.888,9.5,22.949,19.359,37.352,22.681a39.446,39.446,0,0,0,38.473-12.541,40.26,40.26,0,0,0,8.17-38.774,42.508,42.508,0,0,0-12.611-18.872,103.7,103.7,0,0,0-9.808-7.237,55.1,55.1,0,0,0-10.546-5.885c-1.059-.408-2.207-.219-2.5,1.054-.311,1.357.824,2.744,1.639,3.691.549.638,1.161,1.22,1.7,1.866a4.2,4.2,0,0,1,.967,1.5c.168.825-.474,1.118-1.049,1.481a3.693,3.693,0,0,0-1.282,1.108,3.82,3.82,0,0,0-.345.777c-.206.567-.146.813-.724,1.1s-.99.318-1.408.89a3.4,3.4,0,0,0-.534,1.991c-.034,1.322-.99,2.2-.74,3.676.448,2.647,2.581,5.779,5.327,6.391a3.556,3.556,0,0,0,3.48-.959h-.693a24.329,24.329,0,0,1,8.535,14.513,21.371,21.371,0,0,1-3.189,15.04A20.58,20.58,0,0,1,707.527,267a22.2,22.2,0,0,1-17.845-4.572c-4.548-3.6-8-8.368-12.726-11.77-.407-.293-.792.38-.392.671" transform="translate(-484.468 -149.75)"/>
    <path id="Path_2220" data-name="Path 2220" d="M73.709,135.585c-3.314-.128-6.47.757-9.773.484A74.862,74.862,0,0,1,49.918,133.9c-6.251-1.773-11.731-5.615-16.527-10-6.383-5.835-11.974-13.906-10.8-23.008,1.038-8.019,7.779-14.573,15.393-16.662a22.543,22.543,0,0,1,12.717.233c4.627,1.5,7.006,4.809,10.463,7.923,2.427,2.187,7.718,5.29,11.077,3.98a1.366,1.366,0,0,0,.578-.372c.472-.577-.005-1.423-.475-2a3.3,3.3,0,0,0,1.827-.028,1.139,1.139,0,0,0,.678-1.49c-.217-.377-.747-.666-.622-1.082a1.855,1.855,0,0,0,1.4-3.382,3.731,3.731,0,0,0,2.163-1.426,1.419,1.419,0,0,0,.324-.823c-.013-1.168-1.969-1.189-2.506-2.227a2.238,2.238,0,0,0,.1-4.3c-.422-.134-.875-.139-1.305-.244a5.616,5.616,0,0,1-1.915-1.038,58.537,58.537,0,0,1-5.937-5.066A34.589,34.589,0,0,0,50,64.034a41.882,41.882,0,0,0-21.541.834c-37.985,12.39-32.32,63.418-1.5,80.4,8.838,4.869,18.953,6.943,28.995,7.934" transform="translate(-1.383 -46.226)" fill="#fff"/>
    <path id="Path_2221" data-name="Path 2221" d="M72.326,133.813c-2.538-.066-5.032.4-7.562.5a47.045,47.045,0,0,1-7.56-.577A42.014,42.014,0,0,1,42.5,129.58a49.875,49.875,0,0,1-11.368-8.531,34.992,34.992,0,0,1-7.764-10.743,18.594,18.594,0,0,1,5.783-23.15c7.262-5.68,18.5-6.575,25.642-.249,3.283,2.909,5.971,6.144,10.111,7.9a9.474,9.474,0,0,0,5.19.9c1.995-.347,2.511-1.725,1.3-3.345l-.56.729c1,.16,2.2.29,2.886-.628a1.615,1.615,0,0,0,.344-1.088c-.047-.533-.7-.887-.719-1.362l-.5.5A2.363,2.363,0,0,0,74.5,86.194q-.059.454-.119.909c1.175-.334,2.922-1.351,2.844-2.8-.079-1.46-1.9-1.407-2.565-2.412l-.3.732a2.832,2.832,0,0,0,2-2.951c-.185-1.568-1.4-2.175-2.776-2.472-2.26-.49-4.227-2.564-5.913-4.063-1.615-1.434-3.126-2.972-4.828-4.307A37.818,37.818,0,0,0,39.974,61.14c-12.485-.242-25.123,5.4-32.589,15.54C1.4,84.806-.748,95.188.225,105.123a52.188,52.188,0,0,0,11.92,28.31A47.053,47.053,0,0,0,24.3,143.742c7.327,4.294,15.674,6.561,24.02,7.815,2.077.312,4.163.561,6.253.771.655.066.65-.958,0-1.024-13.909-1.4-28.1-5.036-38.391-15.023A50.8,50.8,0,0,1,2.131,110.753C.12,101.527.7,91.539,4.808,82.948c4.437-9.269,12.706-15.835,22.4-18.979a40.53,40.53,0,0,1,24.9.162,34.257,34.257,0,0,1,10.546,5.827c3.014,2.436,5.584,5.512,8.921,7.544a10.02,10.02,0,0,0,2.4.78,1.756,1.756,0,0,1,.12,3.384.5.5,0,0,0-.3.733,3.6,3.6,0,0,0,1.5,1.178c.71.371,1.236.484.523,1.561a3.025,3.025,0,0,1-1.7,1.005.5.5,0,0,0-.119.909,1.382,1.382,0,0,1-1.147,2.456.5.5,0,0,0-.5.5c.013.261.145.456.166.674a1.594,1.594,0,0,0,.162.233q-.234,1.749-1.583,1.215c-.369-.059-.849.341-.56.728a1.1,1.1,0,0,1-.4,1.829,3.428,3.428,0,0,1-1.483.1,10.2,10.2,0,0,1-3.019-.742,18.628,18.628,0,0,1-5.285-3.2c-3.134-2.7-5.675-6.054-9.57-7.737C42.9,79.7,33.224,81.93,27.051,87.666A19.775,19.775,0,0,0,22.177,109.9c3.244,8.079,10.406,14.742,17.707,19.215a39.274,39.274,0,0,0,15.244,5.187,68.713,68.713,0,0,0,8.412.836c2.942.055,5.841-.617,8.786-.553a.389.389,0,0,0,0-.777" transform="translate(-0.001 -44.842)"/>
    <path id="Path_2222" data-name="Path 2222" d="M857.981,287.635a12.667,12.667,0,0,1,2.355,1.873c.452.44,1.1-.22.686-.686a8.992,8.992,0,0,0-2.584-1.969.453.453,0,0,0-.457.782" transform="translate(-629.187 -210.37)"/>
    <path id="Path_2223" data-name="Path 2223" d="M895.754,260.924c.219-.466.367-.955.617-1.41a8.1,8.1,0,0,1,.91-1.326,9.67,9.67,0,0,1,2.414-2,.172.172,0,0,0-.173-.3,7.24,7.24,0,0,0-2.527,2.064,8.529,8.529,0,0,0-.873,1.329,5.409,5.409,0,0,0-.615,1.537c-.022.138.177.255.248.1" transform="translate(-656.872 -187.687)"/>
    <path id="Path_2224" data-name="Path 2224" d="M885.3,283.58a.152.152,0,0,0,0-.3.152.152,0,0,0,0,.3" transform="translate(-649.282 -207.789)"/>
    <path id="Path_2225" data-name="Path 2225" d="M261.57,128.722c1.443,1.208,2.918,2.379,4.441,3.483.5.362,1-.479.486-.831-1.488-1.028-2.947-2.09-4.358-3.221-.4-.319-.97.234-.569.569" transform="translate(-191.767 -93.933)"/>
    <path id="Path_2226" data-name="Path 2226" d="M268.775,150.736a6.023,6.023,0,0,0,3.289,1.842.439.439,0,0,0,.233-.846,8.933,8.933,0,0,1-2.985-1.533c-.367-.315-.889.188-.538.538" transform="translate(-197.067 -110.101)"/>
    <path id="Path_2227" data-name="Path 2227" d="M262.624,160.449a11.561,11.561,0,0,0,2.6,2.285c.568.353,1.072-.527.521-.891a14.043,14.043,0,0,1-2.5-2.024c-.4-.42-1,.2-.629.629" transform="translate(-192.555 -117.129)"/>
    <path id="Path_2228" data-name="Path 2228" d="M256.2,171.7a7.888,7.888,0,0,0,1.91,1.792c.552.371,1.087-.537.523-.894a8.537,8.537,0,0,1-1.715-1.452c-.344-.374-1.037.136-.718.554" transform="translate(-187.871 -125.445)"/>
    <path id="Path_2229" data-name="Path 2229" d="M203.471,133.25a5.323,5.323,0,0,1,1.543-3.73c.167-.168-.094-.429-.26-.26a5.565,5.565,0,0,0-1.6,3.991.158.158,0,0,0,.315,0" transform="translate(-149.019 -94.775)"/>
    <path id="Path_2230" data-name="Path 2230" d="M216.95,117.695a.166.166,0,0,0,0-.332.166.166,0,0,0,0,.332" transform="translate(-159.02 -86.088)"/>
    <path id="Path_2231" data-name="Path 2231" d="M165.094,346.075c-.823,1.567-1.647,3.138-2.606,4.627a14.232,14.232,0,0,1-3.245,3.844,5.062,5.062,0,0,1-2.3.955c-.907.133-1.829.107-2.738.227s-1.8.323-2.7.425a8.486,8.486,0,0,1-2.822-.185c-1.579-.349-3.474-.823-4.8.42-.16.15.078.385.24.24,1.347-1.205,3.286-.572,4.842-.278a8.642,8.642,0,0,0,2.666.08c.927-.111,1.84-.319,2.767-.429.876-.1,1.763-.06,2.638-.176a4.972,4.972,0,0,0,2.212-.849,12.984,12.984,0,0,0,3.165-3.552,53.352,53.352,0,0,0,2.949-5.193c.092-.177-.176-.335-.269-.157" transform="translate(-105.502 -253.796)"/>
    <path id="Path_2232" data-name="Path 2232" d="M222.959,358.775c1.013-1.338,1.51-2.96,2.383-4.38a4.387,4.387,0,0,1,3.668-2.375c.231,0,.214-.319,0-.348-1.57-.21-2.937.987-3.753,2.2-1.006,1.5-1.391,3.332-2.459,4.8-.071.1.09.188.161.094" transform="translate(-163.415 -257.942)"/>
    <path id="Path_2233" data-name="Path 2233" d="M251.693,345.5l.6-.152c.2-.05.394-.12.59-.182a.194.194,0,1,0-.1-.374c-.2.041-.406.075-.6.128l-.6.159a.218.218,0,0,0,.116.421" transform="translate(-184.419 -252.912)"/>
    <path id="Path_2234" data-name="Path 2234" d="M649.252,428.765c.743,1.325,1.508,2.644,2.193,4l.3-.295c-.868-.493-1.744-.972-2.619-1.453a.232.232,0,0,0-.336.259l.894,2.762.222-.292a3.087,3.087,0,0,1-1.806-.722.219.219,0,0,0-.36.1l-.257.8c-.082.257.316.363.4.111l.271-.8-.36.1a3.456,3.456,0,0,0,2.111.877.232.232,0,0,0,.222-.292l-.9-2.761-.337.259c.875.48,1.75.962,2.632,1.429.182.1.416-.1.295-.3-.814-1.283-1.554-2.615-2.311-3.932a.148.148,0,0,0-.255.149" transform="translate(-474.932 -314.346)"/>
    <path id="Path_2235" data-name="Path 2235" d="M644.14,630.533c1.434-4.144,2.938-8.439,5.746-11.883a16.271,16.271,0,0,1,2.6-2.565l-.276-.161c-1.006,4.906-1.92,9.831-2.9,14.743-.279,1.406-.58,2.808-.85,4.216a.285.285,0,0,0,.55.152,14.04,14.04,0,0,1,7-8.068,13.534,13.534,0,0,1,2.935-1.074l-.271-.467a55.166,55.166,0,0,0-7.689,11.253.318.318,0,0,0,.5.384,28.772,28.772,0,0,1,10.684-5.677l-.336-.577c-2.162,2.207-4.288,4.451-6.431,6.677a.36.36,0,0,0,.347.6,7.586,7.586,0,0,1,2.84.147c.722.177,1.823.448,2.2,1.171.423.81-1.581.677-1.977.675a13.668,13.668,0,0,1-3.069-.365.362.362,0,0,0-.192.7,4.915,4.915,0,0,1,3.519,4.042l.107-.257a.382.382,0,0,1-.569-.034c-.26-.381-.884-.021-.622.363a1.109,1.109,0,0,0,1.705.186c.225-.267.033-.794-.051-1.1a5.532,5.532,0,0,0-.437-1.094,5.653,5.653,0,0,0-3.46-2.808l-.192.7a14.468,14.468,0,0,0,3.9.376,3.625,3.625,0,0,0,1.6-.268,1.019,1.019,0,0,0,.492-1.158c-.273-1.024-1.522-1.466-2.424-1.729a8.462,8.462,0,0,0-3.56-.235l.347.6c2.139-2.23,4.3-4.445,6.414-6.693a.348.348,0,0,0-.336-.577,30.187,30.187,0,0,0-10.949,5.894l.5.384a53.883,53.883,0,0,1,7.536-11.178.281.281,0,0,0-.271-.466,14.559,14.559,0,0,0-8.991,6.6,14.006,14.006,0,0,0-1.342,2.932l.55.152c.941-4.923,1.816-9.86,2.734-14.788.263-1.411.529-2.822.78-4.235a.166.166,0,0,0-.276-.16c-3.473,2.826-5.48,6.891-7.024,11.005-.45,1.2-.865,2.41-1.276,3.622-.041.121.15.173.191.053" transform="translate(-472.347 -451.709)"/>
    <path id="Path_2236" data-name="Path 2236" d="M632.758,699.618c.565-.25,1.114-.54,1.667-.814a2.64,2.64,0,0,1,.8-.336c.229-.025.328.124.374.327a3.964,3.964,0,0,1-.062,1.54,8.833,8.833,0,0,1-.512,1.617c-.117.29.344.466.5.209a4.966,4.966,0,0,0,.617-1.913,6.049,6.049,0,0,0,.049-1,2.029,2.029,0,0,0-.156-.825.784.784,0,0,0-.639-.454,1.6,1.6,0,0,0-.87.272c-.65.353-1.321.673-1.959,1.047-.216.126-.027.425.192.328" transform="translate(-463.931 -511.975)"/>
    <path id="Path_2237" data-name="Path 2237" d="M414.31,670.247a34.916,34.916,0,0,0-5.5-2.77v.488a10.439,10.439,0,0,1,9.133,1.422c.237.17.577-.169.406-.406-2.562-3.568-5.307-7-8.177-10.329l.068.257c.19-.6.955-.513,1.39-.278A8.362,8.362,0,0,1,413,659.679q1.383,1.174,2.657,2.469a37.625,37.625,0,0,1,4.583,5.66.34.34,0,0,0,.587-.343,16.4,16.4,0,0,1-.721-12.275l-.547.071c1.906,2.941,2.387,6.421,2.875,9.817.045.315.569.3.624,0a8.493,8.493,0,0,1,1.893-4.011l-.316.083c.51.17.664.75.775,1.219a9.761,9.761,0,0,0,.453,1.737,1.636,1.636,0,0,0,1.378,1.034c.456.042.972-.1,1.376.177a1.079,1.079,0,0,1,.468,1.025c-.06.387.527.559.6.164a1.7,1.7,0,0,0-1.219-1.961c-.5-.119-1.095.087-1.555-.161a1.141,1.141,0,0,1-.474-.589c-.463-1.095-.248-2.814-1.627-3.273a.318.318,0,0,0-.316.083,9.127,9.127,0,0,0-2.058,4.3h.624c-.492-3.413-1.076-7-2.982-9.947a.3.3,0,0,0-.547.072,16.1,16.1,0,0,0,.711,12.777l.587-.343a42.9,42.9,0,0,0-7.631-8.312,4.113,4.113,0,0,0-2.1-1.228,1.439,1.439,0,0,0-.957.272c-.207.155-.5.5-.371.775a3.1,3.1,0,0,0,.453.539q.246.292.491.585.49.586.973,1.177.968,1.182,1.913,2.382,2.181,2.77,4.249,5.626l.406-.406a10.809,10.809,0,0,0-9.567-1.4.256.256,0,0,0,0,.488,30.514,30.514,0,0,1,5.44,2.61c.21.127.4-.2.192-.328" transform="translate(-299.642 -480.323)"/>
    <path id="Path_2238" data-name="Path 2238" d="M570.287,129.228a6.041,6.041,0,1,1-6.041-6.041,6.041,6.041,0,0,1,6.041,6.041" transform="translate(-409.456 -90.36)" fill="#fff"/>
    <path id="Path_2239" data-name="Path 2239" d="M568.427,127.934a5.523,5.523,0,1,1-5.707-5.518,5.593,5.593,0,0,1,5.707,5.518c.02.665,1.056.668,1.036,0-.179-5.972-7.764-8.908-11.652-4.124-3.73,4.589.339,11.511,6.139,10.593a6.643,6.643,0,0,0,5.513-6.47c.02-.667-1.016-.666-1.036,0" transform="translate(-408.113 -89.067)"/>
    <path id="Path_2240" data-name="Path 2240" d="M566.637,139.772a2.3,2.3,0,0,1-2.23,2.7,3,3,0,0,1-1.871-.545,3.31,3.31,0,0,1-.923-1.232,2.267,2.267,0,0,1-.02-1.142,3.091,3.091,0,0,1,.327-1.026,2.217,2.217,0,0,1,1.409-.918,2.612,2.612,0,0,1,2.025.14,2.764,2.764,0,0,1,1.284,2.028" transform="translate(-411.894 -100.837)" fill="#161616"/>
    <path id="Path_2241" data-name="Path 2241" d="M564.938,138.04a1.554,1.554,0,0,1-.271,1.073,2.407,2.407,0,0,1-.687.741,2.257,2.257,0,0,1-3.23-.809,1.006,1.006,0,0,1-.181-.518,2.88,2.88,0,0,1,.1-.833,1.409,1.409,0,0,1,.757-1.05,2.964,2.964,0,0,1,1.287-.278c1,0,1.647.937,1.853,1.833a.6.6,0,0,0,1.168-.158,3.008,3.008,0,0,0-.7-1.88,2.816,2.816,0,0,0-1.759-1.02A3.3,3.3,0,0,0,559.8,136.8a3.807,3.807,0,0,0-.255,2.13,3.2,3.2,0,0,0,1.017,1.558,3.365,3.365,0,0,0,3.557.471,2.379,2.379,0,0,0,1.145-1.28,1.983,1.983,0,0,0,.115-.786,7.96,7.96,0,0,0-.043-.855c-.032-.246-.418-.259-.4,0" transform="translate(-410.393 -99.105)"/>
    <path id="Path_2242" data-name="Path 2242" d="M577.849,139.641c.6-.664.163-1.671-.125-2.362-.537-1.288-2-.352-2.266.626-.332,1.2,1.332,2.913,2.391,1.736" transform="translate(-422.08 -100.236)" fill="#fff"/>
    <path id="Path_2243" data-name="Path 2243" d="M570.251,94.859c-.414-.361-.774-.774-1.218-1.1a10.564,10.564,0,0,0-1.365-.855,12.173,12.173,0,0,0-3.083-1.122,12.937,12.937,0,0,0-6.6.316,12.59,12.59,0,0,0-3.441,1.689c-.533.376-.039,1.256.519.887a12.268,12.268,0,0,1,11.792-1.132,14.892,14.892,0,0,1,1.49.729,9.914,9.914,0,0,1,1.554.937c.241.2.591-.139.349-.349" transform="translate(-406.605 -67.116)"/>
    <path id="Path_2244" data-name="Path 2244" d="M445.279,129.228a6.041,6.041,0,1,1-6.041-6.041,6.041,6.041,0,0,1,6.041,6.041" transform="translate(-317.76 -90.36)" fill="#fff"/>
    <path id="Path_2245" data-name="Path 2245" d="M443.419,127.934a5.523,5.523,0,1,1-5.707-5.518,5.593,5.593,0,0,1,5.707,5.518c.02.665,1.056.668,1.036,0-.179-5.972-7.764-8.908-11.652-4.124-3.73,4.589.339,11.511,6.139,10.593a6.643,6.643,0,0,0,5.513-6.47c.02-.667-1.016-.666-1.036,0" transform="translate(-316.417 -89.067)"/>
    <path id="Path_2246" data-name="Path 2246" d="M441.629,139.772a2.3,2.3,0,0,1-2.23,2.7,3,3,0,0,1-1.871-.545,3.31,3.31,0,0,1-.923-1.232,2.267,2.267,0,0,1-.02-1.142,3.09,3.09,0,0,1,.327-1.026,2.217,2.217,0,0,1,1.409-.918,2.612,2.612,0,0,1,2.025.14,2.764,2.764,0,0,1,1.284,2.028" transform="translate(-320.198 -100.837)" fill="#161616"/>
    <path id="Path_2247" data-name="Path 2247" d="M439.93,138.04a1.553,1.553,0,0,1-.271,1.073,2.4,2.4,0,0,1-.687.741,2.257,2.257,0,0,1-3.23-.809,1,1,0,0,1-.181-.518,2.879,2.879,0,0,1,.1-.833,1.41,1.41,0,0,1,.757-1.05,2.965,2.965,0,0,1,1.287-.278c1,0,1.647.937,1.853,1.833a.6.6,0,0,0,1.168-.158,3.008,3.008,0,0,0-.7-1.88,2.816,2.816,0,0,0-1.759-1.02,3.3,3.3,0,0,0-3.476,1.661,3.808,3.808,0,0,0-.255,2.13,3.2,3.2,0,0,0,1.017,1.558,3.365,3.365,0,0,0,3.557.471,2.378,2.378,0,0,0,1.145-1.28,1.983,1.983,0,0,0,.115-.786,7.953,7.953,0,0,0-.043-.855c-.033-.246-.418-.259-.4,0" transform="translate(-318.697 -99.105)"/>
    <path id="Path_2248" data-name="Path 2248" d="M452.84,139.641c.6-.664.163-1.671-.125-2.362-.537-1.288-2-.352-2.266.626-.332,1.2,1.332,2.913,2.391,1.736" transform="translate(-330.383 -100.236)" fill="#fff"/>
    <path id="Path_2249" data-name="Path 2249" d="M518.409,171.853a2.413,2.413,0,0,1,.651,3.183c-.261.491.435,1.112.813.628a3.182,3.182,0,0,0-.984-4.631.476.476,0,0,0-.48.821" transform="translate(-380.104 -125.405)"/>
    <path id="Path_2250" data-name="Path 2250" d="M567,202a4.346,4.346,0,0,0,2.029,4.825.516.516,0,0,0,.521-.891,3.526,3.526,0,0,1-1.73-3.709c.1-.53-.687-.762-.819-.226" transform="translate(-415.815 -147.948)"/>
    <path id="Path_2251" data-name="Path 2251" d="M608.363,178.991a7.064,7.064,0,0,0,5.412,4.128,8.137,8.137,0,0,0,6.56-1.688,6.9,6.9,0,0,0,1.806-7.51,9.443,9.443,0,0,0-3.218-4.415,8.33,8.33,0,0,0-2.68-1.409,5.2,5.2,0,0,0-3.187.122,9.388,9.388,0,0,0-2.768,1.289,6.683,6.683,0,0,0-1.764,2.454,8.736,8.736,0,0,0-.693,5.726,7.2,7.2,0,0,0,.461,1.345c.1.223.491.062.4-.168a8.317,8.317,0,0,1-.119-5.475,9.648,9.648,0,0,1,1.208-2.483,4.751,4.751,0,0,1,2.336-1.726,7.075,7.075,0,0,1,2.953-.716,6.144,6.144,0,0,1,2.865,1.042,9.04,9.04,0,0,1,3.381,3.843,6.573,6.573,0,0,1-.976,7.353,7.514,7.514,0,0,1-5.845,2.025,6.966,6.966,0,0,1-5.482-3.1,6.88,6.88,0,0,1-.416-.778c-.073-.16-.3-.021-.234.137" transform="translate(-445.706 -123.159)" fill="#fff"/>
    <path id="Path_2252" data-name="Path 2252" d="M383.607,182.877a7.063,7.063,0,0,0,5.412,4.128,8.137,8.137,0,0,0,6.56-1.688,6.9,6.9,0,0,0,1.806-7.51,9.444,9.444,0,0,0-3.218-4.415,8.335,8.335,0,0,0-2.68-1.409,5.2,5.2,0,0,0-3.187.122,9.388,9.388,0,0,0-2.768,1.289,6.682,6.682,0,0,0-1.764,2.454,8.736,8.736,0,0,0-.693,5.726,7.2,7.2,0,0,0,.461,1.345c.1.223.491.062.4-.168a8.317,8.317,0,0,1-.119-5.475,9.652,9.652,0,0,1,1.208-2.483,4.751,4.751,0,0,1,2.336-1.726,7.075,7.075,0,0,1,2.953-.716,6.144,6.144,0,0,1,2.865,1.042,9.04,9.04,0,0,1,3.381,3.843,6.573,6.573,0,0,1-.976,7.353,7.514,7.514,0,0,1-5.845,2.025,6.966,6.966,0,0,1-5.482-3.1,6.887,6.887,0,0,1-.416-.778c-.073-.16-.3-.021-.234.137" transform="translate(-280.843 -126.01)" fill="#fff"/>
    <path id="Path_2253" data-name="Path 2253" d="M9.563,327.364a11.528,11.528,0,0,0,3.658,4.975,3.585,3.585,0,0,0,2.765.948,1.892,1.892,0,0,0,1.595-1.661.223.223,0,0,0-.219-.219,2.028,2.028,0,0,0-1.916,1.9,4.417,4.417,0,0,0,1.454,3.2,19.023,19.023,0,0,0,9.968,5.956c.373.086.531-.485.158-.573a19.089,19.089,0,0,1-6.108-2.634,18.857,18.857,0,0,1-2.627-2.092,9.019,9.019,0,0,1-2.129-2.64,2.154,2.154,0,0,1-.084-1.755,1.41,1.41,0,0,1,1.283-.929l-.219-.219a1.547,1.547,0,0,1-1.679,1.287,4.405,4.405,0,0,1-2.528-1.314,11.215,11.215,0,0,1-3.041-4.326c-.079-.2-.411-.116-.331.091" transform="translate(-7.006 -239.977)"/>
    <path id="Path_2254" data-name="Path 2254" d="M30.222,374.816l2.975,2.306a.185.185,0,1,0,.225-.292l-2.992-2.283c-.154-.118-.363.15-.208.27" transform="translate(-22.129 -274.716)"/>
    <path id="Path_2255" data-name="Path 2255" d="M233.3,665.337a6.915,6.915,0,0,1,.852-7.08c.2-.248-.152-.6-.352-.352a7.122,7.122,0,0,0-.779,7.595c.093.187.369.023.28-.163" transform="translate(-170.376 -482.526)"/>
    <path id="Path_2256" data-name="Path 2256" d="M216.543,660.922a4.665,4.665,0,0,1,1.105-3.542c.155-.178-.1-.44-.26-.26a4.984,4.984,0,0,0-1.189,3.8c.025.217.367.221.344,0" transform="translate(-158.565 -481.967)"/>
    <path id="Path_2257" data-name="Path 2257" d="M838.154,499.65a14.657,14.657,0,0,0,9.577-.048,14.3,14.3,0,0,0,6.957-5.416,14.492,14.492,0,0,0,2.061-4.525.269.269,0,0,0-.257-.337,2.491,2.491,0,0,0-2.289,2.151,2.943,2.943,0,0,0,1.571,3.006c2.792,1.611,5.986-.555,7.985-2.471a15.351,15.351,0,0,0,1.551-1.735,6.632,6.632,0,0,0,1.162-1.971,1.9,1.9,0,0,0-.242-1.834,1.54,1.54,0,0,0-1.273-.444,1.072,1.072,0,0,0-.983.731,1.9,1.9,0,0,0,.615,1.5,3.708,3.708,0,0,0,3.274,1.121,5.167,5.167,0,0,0,3.5-2.678,11.577,11.577,0,0,0,1.284-5.422c.006-.307-.489-.389-.548-.074a27.3,27.3,0,0,1-.791,4.058,5.79,5.79,0,0,1-2.016,2.851,3.359,3.359,0,0,1-2.982.541,2.93,2.93,0,0,1-1.243-.759c-.2-.206-.693-.794-.47-1.094.19-.256.657-.219.914-.113a1.019,1.019,0,0,1,.434,1.247,4.8,4.8,0,0,1-.893,1.671,15.168,15.168,0,0,1-1.249,1.494,13.889,13.889,0,0,1-3.012,2.441,5.308,5.308,0,0,1-3.628.854,2.859,2.859,0,0,1-2.445-2.269,2.042,2.042,0,0,1,1.771-2.272l-.256-.337a14.155,14.155,0,0,1-4.39,7.14,14,14,0,0,1-8.342,3.4,13.757,13.757,0,0,1-5.278-.675c-.166-.056-.236.206-.072.261" transform="translate(-614.736 -352.828)"/>
    <path id="Path_2258" data-name="Path 2258" d="M937.508,538.968a5.981,5.981,0,0,0,5.253-3.329c.146-.305-.305-.574-.458-.268a5.824,5.824,0,0,1-4.8,3.2.2.2,0,0,0,0,.4" transform="translate(-687.542 -392.608)"/>
    <path id="Path_2259" data-name="Path 2259" d="M825.207,177.392a17.164,17.164,0,0,0,2.058,3.742c.189.26.627,0,.433-.253a16.731,16.731,0,0,1-2.074-3.6c-.1-.252-.521-.146-.417.115" transform="translate(-605.295 -129.932)"/>
    <path id="Path_2260" data-name="Path 2260" d="M854.3,175.36a4.494,4.494,0,0,0-.642,1.886,4.954,4.954,0,0,0,.162,1.993c.1.355.664.2.554-.153a4.661,4.661,0,0,1-.19-1.778,5.2,5.2,0,0,1,.5-1.726.221.221,0,0,0-.381-.223" transform="translate(-626.15 -128.552)"/>
    <path id="Path_2261" data-name="Path 2261" d="M807.362,202.348a14.4,14.4,0,0,1,2.9.565.243.243,0,0,0,.129-.468,11.515,11.515,0,0,0-3.029-.541c-.287-.017-.284.424,0,.445" transform="translate(-592.061 -148.1)"/>
    <path id="Path_2262" data-name="Path 2262" d="M809.128,224.036l2.3.008a.21.21,0,0,0,0-.421l-2.3.008a.2.2,0,0,0,0,.4" transform="translate(-593.37 -164.032)"/>
    <path id="Path_2263" data-name="Path 2263" d="M761.631,2.044c.478.134.977.191,1.458.325a10.553,10.553,0,0,1,1.4.493,10.953,10.953,0,0,1,2.532,1.554A11.171,11.171,0,0,1,770.464,9.2a9.992,9.992,0,0,1,.623,3.314.267.267,0,0,0,.534,0,11.129,11.129,0,0,0-6.611-9.895,9.708,9.708,0,0,0-1.594-.558,5.571,5.571,0,0,0-1.757-.229.11.11,0,0,0-.029.215" transform="translate(-558.616 -1.334)"/>
    <path id="Path_2264" data-name="Path 2264" d="M794.913.352a14.532,14.532,0,0,1,3.48,4.668c.12.253.488.033.374-.219A14.009,14.009,0,0,0,795.21.055c-.2-.177-.5.117-.3.3" transform="translate(-583.036 0)"/>
    <path id="Path_2265" data-name="Path 2265" d="M260.8,47.2a14.546,14.546,0,0,0,.377,5.161.243.243,0,0,0,.468-.129,17.348,17.348,0,0,1-.368-5.032c.025-.308-.447-.3-.477,0" transform="translate(-191.246 -34.454)"/>
    <path id="Path_2266" data-name="Path 2266" d="M290.677,39.911c-.173,1.7-.327,3.393-.482,5.09-.031.336.5.337.526,0,.134-1.7.269-3.393.385-5.09.019-.278-.4-.27-.429,0" transform="translate(-212.864 -29.125)"/>
    <path id="Path_2267" data-name="Path 2267" d="M227.354,51.8a9.68,9.68,0,0,0,2.76,3.584c.232.187.563-.144.329-.329a9.613,9.613,0,0,1-2.75-3.453c-.108-.23-.441-.03-.339.2" transform="translate(-166.755 -37.776)"/>
    <path id="Path_2268" data-name="Path 2268" d="M307,55.953l-.4,1.566a.237.237,0,1,0,.456.126l.386-1.569a.231.231,0,0,0-.445-.123" transform="translate(-224.894 -40.919)"/>
    <path id="Path_2269" data-name="Path 2269" d="M183.23,393.675a.091.091,0,0,0,0-.182.091.091,0,0,0,0,.182" transform="translate(-134.339 -288.636)"/>
    <path id="Path_2270" data-name="Path 2270" d="M175.623,383.452c1.7,1.575,3.394,3.161,5.111,4.72.192.175.48-.112.286-.286-1.725-1.553-3.474-3.08-5.214-4.617-.124-.109-.306.069-.183.183" transform="translate(-128.793 -281.111)"/>
    <path id="Path_2271" data-name="Path 2271" d="M184.605,385.368a33.965,33.965,0,0,0,4.435,4.416c.232.191.565-.14.332-.332a43.2,43.2,0,0,1-4.546-4.3c-.136-.15-.347.069-.22.22" transform="translate(-135.383 -282.477)"/>
    <path id="Path_2272" data-name="Path 2272" d="M189.421,382.19c.78,1.047,1.6,2.067,2.464,3.043a25.667,25.667,0,0,0,2.784,2.83.231.231,0,0,0,.326-.326c-.889-.956-1.857-1.835-2.74-2.8s-1.732-1.952-2.539-2.976c-.131-.166-.423.056-.3.228" transform="translate(-138.921 -280.135)"/>
    <path id="Path_2273" data-name="Path 2273" d="M195.909,380.542c.624,1.042,1.28,2.071,2,3.051a24.709,24.709,0,0,0,2.274,2.789c.2.205.491-.1.312-.312-.769-.922-1.577-1.8-2.3-2.762a35.447,35.447,0,0,1-2.017-2.92.152.152,0,0,0-.262.153" transform="translate(-143.687 -278.971)"/>
    <path id="Path_2274" data-name="Path 2274" d="M201.46,378.8a46.115,46.115,0,0,0,2.6,4.382q.352.522.72,1.032a3.415,3.415,0,0,0,.688.86c.441.3.975-.305.516-.6-.229-.15-.431.21-.212.363a.416.416,0,0,0-.159-.2q-.068-.079-.131-.161c-.1-.119-.189-.239-.283-.36q-.3-.387-.592-.783-.544-.739-1.055-1.5a35.525,35.525,0,0,1-1.876-3.15c-.076-.143-.292-.016-.217.127" transform="translate(-147.764 -277.721)"/>
    <path id="Path_2275" data-name="Path 2275" d="M204.413,371.287a33.668,33.668,0,0,0,1.9,3.359q.508.786,1.065,1.538a9.33,9.33,0,0,0,1.223,1.483c.15.133.414-.039.292-.225-.33-.5-.76-.939-1.134-1.409q-.621-.781-1.186-1.605a26.892,26.892,0,0,1-1.926-3.277c-.078-.156-.311-.019-.234.137" transform="translate(-149.93 -272.196)"/>
    <path id="Path_2276" data-name="Path 2276" d="M210.739,367.622a29.893,29.893,0,0,0,1.433,3.158,16.616,16.616,0,0,0,1.838,2.948c.133.16.393-.047.286-.221-.588-.961-1.258-1.861-1.811-2.847a24.755,24.755,0,0,1-1.469-3.115c-.066-.17-.344-.1-.277.076" transform="translate(-154.574 -269.532)"/>
    <path id="Path_2277" data-name="Path 2277" d="M215.3,365.794c1.023,1.948,2.065,3.912,3.246,5.77.147.232.514.021.37-.216-1.147-1.889-2.312-3.755-3.361-5.7-.09-.168-.343-.019-.255.149" transform="translate(-157.911 -268.155)"/>
    <path id="Path_2278" data-name="Path 2278" d="M216.276,352.863a29.458,29.458,0,0,0,1.618,4.228A19.335,19.335,0,0,0,220.207,361c.164.2.5-.06.359-.277-.79-1.254-1.633-2.448-2.314-3.77a25.5,25.5,0,0,1-1.7-4.164.146.146,0,0,0-.281.078" transform="translate(-158.638 -258.701)"/>
    <path id="Path_2279" data-name="Path 2279" d="M219.885,350.143a32.239,32.239,0,0,0,1.579,3.613,20.37,20.37,0,0,0,2.061,3.378.22.22,0,0,0,.344-.044.786.786,0,0,0-.081-.919c-.117-.145-.318.04-.245.189a.454.454,0,0,1-.053.509h.379c-.7-1.078-1.451-2.107-2.077-3.235a26.142,26.142,0,0,1-1.639-3.564c-.062-.167-.331-.1-.269.074" transform="translate(-161.283 -256.714)"/>
    <path id="Path_2280" data-name="Path 2280" d="M220.059,341.832q1.019,2.109,2.12,4.178a38.653,38.653,0,0,0,2.335,4.058.223.223,0,0,0,.384-.224c-.377-.682-.824-1.327-1.231-1.992s-.806-1.337-1.195-2.013q-1.166-2.031-2.2-4.133c-.071-.145-.287-.018-.217.127" transform="translate(-161.408 -250.602)"/>
    <path id="Path_2281" data-name="Path 2281" d="M227.359,341.733a28.4,28.4,0,0,0,1.794,3.98,17.9,17.9,0,0,0,2.439,3.626c.145.155.422-.05.3-.23-.395-.579-.838-1.124-1.238-1.7q-.616-.89-1.158-1.828a24.932,24.932,0,0,1-1.828-3.933c-.07-.192-.378-.109-.308.085" transform="translate(-166.765 -250.526)"/>
    <path id="Path_2282" data-name="Path 2282" d="M233.9,342.682a18.111,18.111,0,0,0,1.684,3.772,16.391,16.391,0,0,0,1.139,1.667,7.576,7.576,0,0,0,1.406,1.518c.155.114.383-.114.269-.269-.383-.517-.862-.96-1.271-1.457a17.438,17.438,0,0,1-1.2-1.657,16.139,16.139,0,0,1-1.743-3.651c-.059-.177-.338-.1-.281.078" transform="translate(-171.568 -251.234)"/>
    <path id="Path_2283" data-name="Path 2283" d="M242.015,344.553a20.027,20.027,0,0,0,3.631,4.772.194.194,0,0,0,.275-.274,24.354,24.354,0,0,1-3.633-4.657.158.158,0,0,0-.272.159" transform="translate(-177.507 -252.564)"/>
    <path id="Path_2284" data-name="Path 2284" d="M250.464,340.983a11.926,11.926,0,0,0,1.044,1.884,8.54,8.54,0,0,0,1.377,1.626.152.152,0,0,0,.215-.215,16.333,16.333,0,0,1-1.39-1.6,10.437,10.437,0,0,1-1.052-1.811c-.059-.131-.249-.017-.192.112" transform="translate(-183.713 -249.994)"/>
    <path id="Path_2285" data-name="Path 2285" d="M259.615,341.789a5.561,5.561,0,0,0,1.375,2.624c.15.153.365-.072.232-.232a6.9,6.9,0,0,1-.812-1.154,5.632,5.632,0,0,1-.506-1.318c-.046-.187-.332-.108-.289.08" transform="translate(-190.43 -250.573)"/>
    <path id="Path_2286" data-name="Path 2286" d="M266.193,340.548l-.246,0a.2.2,0,0,0-.192.192.194.194,0,0,0,.056.136.2.2,0,0,0,.136.056l.246,0a.2.2,0,0,0,.133-.055.139.139,0,0,0,.039-.06.141.141,0,0,0,.016-.072.189.189,0,0,0-.055-.133.2.2,0,0,0-.133-.055" transform="translate(-194.938 -249.796)"/>
    <path id="Path_2287" data-name="Path 2287" d="M274.454,339.208a.121.121,0,0,0,0-.243.121.121,0,0,0,0,.243" transform="translate(-201.232 -248.638)"/>
    <path id="Path_2288" data-name="Path 2288" d="M365.752,553.689a38.9,38.9,0,0,0,12.6-.325c.252-.051.143-.425-.106-.382a43.445,43.445,0,0,1-12.495.448c-.166-.019-.163.238,0,.259" transform="translate(-268.197 -405.622)"/>
    <path id="Path_2289" data-name="Path 2289" d="M362.89,559.972a58.445,58.445,0,0,0,6.225-.047q1.552-.094,3.1-.275a17.154,17.154,0,0,0,3-.511c.208-.063.18-.409-.053-.394-1.013.066-2.01.28-3.015.42q-1.544.215-3.1.341a55.139,55.139,0,0,1-6.16.151c-.2-.006-.2.306,0,.315" transform="translate(-266.076 -409.851)"/>
    <path id="Path_2290" data-name="Path 2290" d="M365.785,562.195a18.853,18.853,0,0,0,11.663.773.245.245,0,0,0-.13-.472,21.762,21.762,0,0,1-5.768.6,18.732,18.732,0,0,1-5.7-1.148c-.155-.057-.219.187-.068.246" transform="translate(-268.249 -412.196)"/>
    <path id="Path_2291" data-name="Path 2291" d="M372.25,570.473a42.961,42.961,0,0,0,4.326.427,21.117,21.117,0,0,0,4.361-.146c.234-.041.171-.4-.055-.405-1.434-.019-2.869.131-4.307.121a41.836,41.836,0,0,1-4.3-.207c-.119-.013-.148.194-.029.21" transform="translate(-272.998 -418.3)"/>
    <path id="Path_2292" data-name="Path 2292" d="M371.085,575.348c1.084.212,2.162.451,3.244.677a31.482,31.482,0,0,0,3.191.6c.246.025.283-.357.057-.421a31.2,31.2,0,0,0-3.193-.621c-1.07-.188-2.141-.364-3.208-.567-.213-.04-.305.286-.09.328" transform="translate(-272.109 -421.788)"/>
    <path id="Path_2293" data-name="Path 2293" d="M370.221,583.477q1.211.424,2.433.818a22.665,22.665,0,0,0,2.47.692.241.241,0,0,0,.128-.464c-.823-.233-1.661-.408-2.488-.626s-1.644-.467-2.454-.743c-.205-.07-.292.253-.089.324" transform="translate(-271.481 -427.748)"/>
    <path id="Path_2294" data-name="Path 2294" d="M369.3,591.932c1.221.751,2.432,1.517,3.66,2.258a.194.194,0,0,0,.2-.335c-1.233-.73-2.481-1.434-3.72-2.153a.134.134,0,0,0-.135.231" transform="translate(-270.846 -434.012)"/>
    <path id="Path_2295" data-name="Path 2295" d="M368.285,600.132l2.2,1.492c.192.13.374-.183.182-.311l-2.211-1.475c-.183-.122-.352.171-.172.293" transform="translate(-270.089 -439.974)"/>
    <path id="Path_2296" data-name="Path 2296" d="M369.265,613.924a.19.19,0,0,0,0-.38.19.19,0,0,0,0,.38" transform="translate(-270.73 -450.048)"/>
    <path id="Path_2297" data-name="Path 2297" d="M366.463,623.068l.286.726a.121.121,0,0,0,.234-.065l-.215-.745a.158.158,0,0,0-.3.084" transform="translate(-268.803 -456.887)"/>
    <path id="Path_2298" data-name="Path 2298" d="M492.949,538.216a28.392,28.392,0,0,0,14.745-.905,26.206,26.206,0,0,0,3.895-1.672c.3-.157.035-.6-.261-.447a29.548,29.548,0,0,1-14.144,3.208,26.124,26.124,0,0,1-4.167-.426c-.157-.029-.226.21-.067.242" transform="translate(-361.523 -392.553)"/>
    <path id="Path_2299" data-name="Path 2299" d="M506.828,541.667a42.108,42.108,0,0,0,13.19-3.253c.309-.133.042-.588-.266-.454a43.306,43.306,0,0,1-12.924,3.44c-.168.017-.172.281,0,.267" transform="translate(-371.676 -394.588)"/>
    <path id="Path_2300" data-name="Path 2300" d="M505.839,545.537a25.565,25.565,0,0,0,12.4-1.108,15.761,15.761,0,0,0,3.238-1.479.221.221,0,0,0-.223-.381c-.944.406-1.867.859-2.828,1.229a25.14,25.14,0,0,1-2.89.916,25.477,25.477,0,0,1-6.118.774,23.427,23.427,0,0,1-3.5-.244c-.191-.028-.274.263-.081.293" transform="translate(-370.964 -397.971)"/>
    <path id="Path_2301" data-name="Path 2301" d="M518.822,548.719a49.879,49.879,0,0,0,6.171-1.207,40.971,40.971,0,0,0,5.982-1.994c.247-.108.07-.534-.185-.44-1.957.722-3.9,1.447-5.913,2.009a56.981,56.981,0,0,1-6.093,1.346c-.16.026-.124.308.039.286" transform="translate(-380.463 -399.817)"/>
    <path id="Path_2302" data-name="Path 2302" d="M529.789,555.643a26.953,26.953,0,0,0,4.06-.5,18.574,18.574,0,0,0,3.922-1.18c.223-.1.065-.473-.167-.4-1.261.422-2.5.867-3.8,1.167a23.689,23.689,0,0,1-4.011.568c-.22.012-.222.354,0,.344" transform="translate(-388.49 -406.045)"/>
    <path id="Path_2303" data-name="Path 2303" d="M536.266,560.915c1.809-.549,3.619-1.1,5.412-1.7.277-.093.161-.529-.122-.441-1.806.567-3.593,1.187-5.381,1.807-.207.072-.123.4.091.331" transform="translate(-393.209 -409.866)"/>
    <path id="Path_2304" data-name="Path 2304" d="M544.533,567.492c.985-.239,1.974-.462,2.947-.746a.184.184,0,0,0-.1-.355c-.99.215-1.966.491-2.946.75a.182.182,0,0,0,.1.351" transform="translate(-399.261 -415.457)"/>
    <path id="Path_2305" data-name="Path 2305" d="M549.439,573.273a3.234,3.234,0,0,1,1.155-.371,4.905,4.905,0,0,1,1.209.054c.18.023.2-.25.041-.3a2.807,2.807,0,0,0-1.312-.059,3.511,3.511,0,0,0-1.231.441.138.138,0,0,0,.139.237" transform="translate(-402.875 -419.975)"/>
    <path id="Path_2306" data-name="Path 2306" d="M550.182,580.721c.325.033.656.022.983.026l.983.011a.17.17,0,0,0,0-.34l-.983.011c-.327,0-.658-.008-.983.026a.134.134,0,0,0,0,.267" transform="translate(-403.476 -425.75)"/>
    <path id="Path_2307" data-name="Path 2307" d="M553.8,588.155l.492,0a.158.158,0,0,0,0-.316l-.492,0a.156.156,0,0,0,0,.312" transform="translate(-406.108 -431.195)"/>
    <path id="Path_2308" data-name="Path 2308" d="M562.165,595.575a.136.136,0,0,0,0-.271.136.136,0,0,0,0,.271" transform="translate(-412.264 -436.669)"/>
    <path id="Path_2309" data-name="Path 2309" d="M561.912,596.33a.231.231,0,0,0,0-.461.231.231,0,0,0,0,.461" transform="translate(-412.012 -437.083)"/>
  </g>
</svg>
