<svg id="Group_20256" data-name="Group 20256" xmlns="http://www.w3.org/2000/svg" xmlns:xlink="http://www.w3.org/1999/xlink" width="573.078" height="644.538" viewBox="0 0 573.078 644.538">
  <defs>
    <clipPath id="clip-path">
      <rect id="Rectangle_8793" data-name="Rectangle 8793" width="573.078" height="644.538" fill="none"/>
    </clipPath>
  </defs>
  <g id="Group_20255" data-name="Group 20255" clip-path="url(#clip-path)">
    <path id="Path_1257" data-name="Path 1257" d="M486.453,520.159c.327,15.969,1,31.961,2.714,47.848,1.223,11.327,6.968,26.135,2.717,36.667-8.035,19.9-38.173,26.266-56.5,29.742-33.13,6.283-66.759,11.392-100.445,9.841s-67.7-10.134-95.478-29.252c-15.329-10.548-5.2-60.985-5.325-77.309-.187-23.645-3.77-48.4-17.746-67.47-16.719-22.82-44.18-33.506-67.077-48.642C121.952,403.5,102.4,376.3,83.319,350.14c-20.73-28.418-37.884-59.3-53-91.013C18.936,235.25,8.6,210.632,3.416,184.7s-5-53.441,4.275-78.212c3.248-8.675,9.218-18.083,18.466-18.59,10.112-.554,17.13,9.711,21.3,18.939,20.159,44.593,25.153,96.158,53.122,136.317A314.645,314.645,0,0,1,59.409,123.77c-2.4-18.466-2.956-38.19,3.055-56.064,4.748-14.117,19.271-39.4,36.606-22.452,4.5,4.395,6.757,10.534,8.792,16.482,9.024,26.371,17.717,52.608,27.509,78.809,5.613,15.018,11.4,30.348,21.642,42.685-12.7-15.3-19.261-41.059-23.151-60.093-4.1-20.066-10.925-38.444-13.612-59.047-1.494-11.454-2.431-23.418,1.51-34.275S135.8,9.531,147.344,9.933c8.274.287,15.6,5.376,21.632,11.05,16.1,15.148,23.458,33.67,30.66,54.009A319.714,319.714,0,0,0,233,143.192a246.4,246.4,0,0,1-28.048-85.077c-2-14.694-1.242-32.537,11.3-40.452,9.563-6.035,22.7-3.313,31.625,3.638s14.478,17.277,19.347,27.484c9.644,20.22,17.622,41.24,28.212,60.981,11.923,22.224,28.253,45.154,44.2,64.576a253.675,253.675,0,0,0,59.3,52.672c9.525,6.085,22.6,11.358,31.345,4.2,3.99-3.265,5.888-8.349,8.26-12.927,9.6-18.527,29.8-36.806,46.794-48.471,14.5-9.953,31.645-17.429,49.178-16.068s34.99,13.571,38.04,30.891c3.22,18.283-9.287,35.088-19.219,50.771A221.53,221.53,0,0,0,520.419,329.5c-1.913,17.524-1.737,35.349-5.7,52.527-4.044,17.544-12.265,33.817-17.852,50.932-9.167,28.079-11.019,57.853-10.418,87.2" fill="#edff36"/>
    <path id="Path_1258" data-name="Path 1258" d="M116.138,271.016c-8.406-13.321-17.361-26.383-23.8-40.8a387.846,387.846,0,0,1-16.377-44.9c-9.5-31.084-18.13-63.587-15.263-96.381,1.47-16.821,5.545-40.4,24.432-45.884,3.033-.881,1.728-5.663-1.307-4.739C69.476,42.672,62.218,56.261,58.948,70c-4,16.825-4.28,34.395-2.37,51.521,3.856,34.571,14.708,69.375,27.981,101.436,7.454,18.008,17.99,33.564,28.709,49.739,1.173,1.77,4.02.145,2.87-1.678"/>
    <path id="Path_1259" data-name="Path 1259" d="M186.139,236.722a434.254,434.254,0,0,1-46.1-102.18,518.9,518.9,0,0,1-13.3-54.015c-3.489-18.134-10.769-42.364,2.581-58.1,1.863-2.2-1.23-5.385-3.2-3.2-9.838,10.9-9.771,25.859-7.784,39.589,2.277,15.736,5.411,31.4,9.145,46.85a461.162,461.162,0,0,0,29.64,86.181,413.854,413.854,0,0,0,25.78,46.769c1.285,2.031,4.517.166,3.236-1.892"/>
    <path id="Path_1260" data-name="Path 1260" d="M250.589,166.956a230.26,230.26,0,0,1-34.641-71.77,225.472,225.472,0,0,1-7.522-39.371c-1.082-11.084-4.772-35.572,11.9-36.7,2.82-.191,2.887-4.451,0-4.438-14.031.066-17.63,15.5-17.38,26.73a214.183,214.183,0,0,0,6.078,45.124,220.69,220.69,0,0,0,39.121,81.855c1.078,1.424,3.522.061,2.443-1.428"/>
    <path id="Path_1261" data-name="Path 1261" d="M112.822,308.592c23.147-25.648,55.44-42.137,85.983-57.262,2.67-1.322.326-5.33-2.338-4C165.756,262.668,133,279.607,110.234,306c-1.525,1.769,1,4.35,2.588,2.588"/>
    <path id="Path_1262" data-name="Path 1262" d="M198.3,358.7c33.513-43.067,81.718-71.716,132.62-89.661,13.286-4.684,26.8-8.7,40.438-12.219,12.649-3.261,25.733-5.443,38.056-9.841,10.826-3.865,20.338-9.623,26.84-19.284,6.858-10.189,11.351-21.062,19.724-30.279a138.462,138.462,0,0,1,71.775-41.837c3.1-.706,1.784-5.426-1.311-4.756a139.971,139.971,0,0,0-64.99,34.122c-8.524,7.882-16,16.605-21.576,26.808-2.837,5.187-5.433,10.568-8.94,15.353-4.076,5.562-9.59,9.475-15.75,12.481-12.388,6.043-26.43,8.179-39.689,11.507-13.663,3.43-27.207,7.359-40.535,11.924-26.571,9.1-52.406,20.745-76.021,36.025-24.137,15.618-45.7,34.828-63.126,57.739-1.078,1.417,1.382,3.336,2.485,1.918"/>
    <path id="Path_1263" data-name="Path 1263" d="M278.368,231.693c11.993,2.614,23.229-5.906,33.012-13.32,19.023-14.416,40.6-26.817,64.328-29.376,14.762-1.591,29,1.825,39.182,13,10.149,11.136,15.03,26.167,17.169,41.081A137.73,137.73,0,0,1,431,288.431c-2.819,14.716-7.763,25.995-.665,40.531a21.539,21.539,0,0,1,2.236,5.521,5.48,5.48,0,0,1-1.741,5.4c-1.445,1.051-3.4.988-5.174.791-11.319-1.254-21.893-6.064-32.244-10.81a39.663,39.663,0,0,1-9.32-5.344c-2.743-2.32-4.894-5.576-5.081-9.164a19.852,19.852,0,0,1,1.176-6.627c3.375-11.327,8.55-21.912,10.162-33.625,1.235-8.98.924-19.038-5.043-25.861-6.634-7.585-18.481-8.64-27.957-5.216-18.7,6.759-30.23,25.566-48.666,33.355-5.53,2.336-9.8,2.117-15.5,1.871-5.124-.222-9.876,2.16-14.74-.856" fill="#fff"/>
    <path id="Path_1264" data-name="Path 1264" d="M277.945,233.227c16.742,3.068,30.007-10.631,42.638-19.354,15.221-10.512,32.143-19.353,50.57-22.374,18.832-3.088,36.676,1.908,47.483,18.445,10.223,15.644,13.068,35.62,12.885,53.957a146.16,146.16,0,0,1-3.842,30.844c-1.715,7.591-3.609,15.3-2.654,23.14a37.737,37.737,0,0,0,3.235,11.191c.512,1.119,1.122,2.2,1.565,3.346,1.019,2.649,1.389,2.857-.955,4.838-2.185,1.846-2.153,1.61-4.734,1.245-1.692-.239-3.355-.555-5.02-.943-9.547-2.225-18.75-6.38-27.51-10.708-4.29-2.119-8.89-4.874-10.14-9.811-1.261-4.978,1.486-10.644,3.145-15.338,3.051-8.637,6.474-17.2,7.738-26.334,1.914-13.822-.959-29.57-16.081-34.12-16.187-4.87-30.94,5.652-42.609,15.6-7.016,5.981-13.833,12.369-22.039,16.72a29.125,29.125,0,0,1-14.4,3.638c-5.366-.049-12.843,1.822-17.745-.587-2.352-1.156-4.428,2.321-2.07,3.542,3.87,2,7.319,1.93,11.583,1.5,4.495-.457,8.995.216,13.484-.364,7.991-1.031,15.21-5.855,21.448-10.668,13.17-10.163,26.193-26.513,44.335-26.37,25.212.2,21.824,29.052,16.287,45.6-1.583,4.729-3.378,9.385-4.951,14.117-1.36,4.088-3.115,8.513-2.378,12.89,1.366,8.107,9.313,12,16.02,15.061,6.594,3.012,41.371,20.45,41.38,3.756,0-3.819-2.6-7.237-3.9-10.668a34.644,34.644,0,0,1-1.92-15.477c.87-9.645,4.073-18.994,5.34-28.605,4.2-31.847-.886-83.082-38.791-92.646-19.322-4.875-40.433,2.023-57.539,10.915a193.068,193.068,0,0,0-27.316,17.655c-9.1,6.893-19.5,15.425-31.7,13.3-2-.348-2.866,2.7-.846,3.069"/>
    <path id="Path_1265" data-name="Path 1265" d="M205.652,144.551c1.94-3.891,6.806-5.185,11.127-5.665A72.734,72.734,0,0,1,263.3,149.64c5.538,3.509,10.778,7.857,17.146,9.416a21.881,21.881,0,0,0,22.605-8.566c10.145-14.634,1.03-35.267,1.056-51.368.009-6.063,2.067-11.6,2.763-17.558,1.063-9.091.559-17.837,3.091-26.79,1.34-4.736,7.153-21.409,14.023-19.688,2.9.727,2.708,5.014,2.827,7.3a64.809,64.809,0,0,1,11.515-11.606c.936-.731,2.052-1.475,3.216-1.242,2.136.429,2.318,3.425,1.762,5.531a32.027,32.027,0,0,1-3.113,7.637c1.1-1.531,3.773-.715,4.584.987s.359,3.709-.128,5.531c1.315-.807,3.155.047,3.882,1.408a6.9,6.9,0,0,1,.325,4.524c-1.038,5.48-4.537,9.977-6.829,14.964-3.528,7.68-4.393,16.413-4.086,24.774.422,11.508,2.9,22.882,3.052,34.4.235,17.89-5.6,36.508-17.6,49.991-13.979,15.7-32.3,17.332-52.216,13.4-9.112-1.8-17.9-4.945-26.618-8.138" fill="#fff"/>
    <path id="Path_1266" data-name="Path 1266" d="M207.11,145.4c4.322-6.943,17.788-5.413,24.739-4.682a70.861,70.861,0,0,1,26.1,8.1c7.1,3.83,13.29,9.727,21.176,11.951a23.788,23.788,0,0,0,18.146-2.377c12.713-7.281,13.535-22.645,11.831-35.627-1-7.622-2.856-15.233-2.918-22.949-.04-4.851,1.265-9.441,2.137-14.169a109.445,109.445,0,0,0,1.349-13.081c.495-7.934,1.386-15.6,4.291-23.031a41,41,0,0,1,4.428-8.745c.68-.964,1.86-2.834,3.088-3.237,3.054-1,3.166,2.682,3.251,4.828.064,1.614,2.359,2.988,3.553,1.472a66.1,66.1,0,0,1,8.989-9.518c2.173-1.852,4-3.835,3.994.167-.005,2.3-1.881,5.194-2.921,7.121-1.22,2.261,1.513,4.034,3.357,2.589a3.957,3.957,0,0,1,.855,4.43,2.189,2.189,0,0,0,2.666,2.667c3.645-1.071-.2,8.441-.439,8.943-.949,1.991-2.116,3.871-3.148,5.818a47.642,47.642,0,0,0-4.411,11.443c-2.079,8.842-1.688,17.979-.746,26.94,1.947,18.536,4.07,36.035-2.935,53.894-6.189,15.776-18.138,29.576-35.315,32.966-18.127,3.578-36.209-3.1-53.1-8.846-2.656-.9-3.667,3.155-1.142,4.143,26.764,10.467,60.817,18.132,82.024-6.961,9.7-11.475,15.181-26,16.751-40.856,1.885-17.84-4.107-35.383-2.418-53.181a45.461,45.461,0,0,1,3.928-15.139c1.833-3.9,4.35-7.472,5.794-11.562,1.657-4.7,1.513-13.994-5.99-11.783L346.74,49.8c.715-2.944,1.249-6.473-1.339-8.7-2.161-1.862-4.65-1.552-6.719.1l3.356,2.59c1.94-3.672,7.073-14.065.316-16.168-2.627-.818-4.895,1.145-6.786,2.708A69.489,69.489,0,0,0,325.342,40.91l3.552,1.472c-.168-4.368-1.113-10.323-6.918-9.407-4.9.772-7.96,6.466-9.9,10.462a60.8,60.8,0,0,0-5.6,17.908c-.665,4.609-.839,9.264-1.145,13.9a142.261,142.261,0,0,1-2.445,16.236c-3.127,17.2,7.02,35.012,1.459,51.855-3.318,10.048-13.689,16.448-24.146,13.556-9.265-2.563-16.71-10.237-25.527-14.057a75.379,75.379,0,0,0-28.68-6.234c-7.387-.122-17.513-.062-21.8,7.093-1.12,1.871,1.769,3.546,2.916,1.7"/>
    <path id="Path_1267" data-name="Path 1267" d="M199.919,144.834c14.4-10.384,38.6-9.034,54.37-2.51,5.417,2.24,10.371,5.459,15.671,7.963,10.963,5.18,23.432,9.318,31.389-2.471,6.115-9.061,6.035-20.921,4.3-31.714s-4.9-21.528-4.173-32.435c.857-12.812,19.256-9.843,27.557-7.193,6.336,2.023,12.223,6.753,13.743,13.228a3.771,3.771,0,0,1,.084,1.816c-.306,1.155-1.464,1.825-2.331,2.649-3.808,3.623-1.86,10.138-1.351,14.642.771,6.812,1.724,13.61,1.814,20.478.235,17.89-5.6,36.507-17.6,49.99-13.978,15.7-32.3,17.333-52.216,13.4-9.112-1.8-17.9-4.944-26.617-8.138" fill="#fff"/>
    <path id="Path_1268" data-name="Path 1268" d="M200.771,146.292c11.086-7.467,25.588-8.325,38.447-6.136a64.464,64.464,0,0,1,18.045,5.74c5.987,2.99,11.7,6.437,17.956,8.857,9.52,3.681,20.177,4.231,26.962-4.612,7.9-10.3,7.253-24.286,5.178-36.391-1.4-8.187-3.53-16.306-3.848-24.643-.23-6.042.417-11.05,7.048-12.455,8.861-1.878,26.128,1.423,29.274,11.247,1.189,3.712-1.388,4.543-2.745,7.461a15.037,15.037,0,0,0-.879,7.791c.632,6.858,1.878,13.646,2.352,20.531,1.018,14.775-1.611,29.767-8.842,42.8C322.1,180.226,309.941,190.3,293.99,191.95c-16.973,1.758-33.062-4.208-48.864-9.482-2.669-.891-3.653,3.144-1.142,4.143,25.435,10.111,58.553,17.916,79.892-4.584,10.158-10.711,16.236-24.988,18.393-39.484a92.914,92.914,0,0,0,.35-22.586c-.392-4.107-.859-8.225-1.415-12.313-.473-3.475-1.7-7.624.2-10.829,1.121-1.893,3.278-2.958,3.629-5.3.441-2.927-1.447-6.321-3.1-8.564-3.392-4.61-8.477-7.436-13.9-8.972-7.494-2.122-18.872-4.032-25.189,1.869-3.9,3.645-3.734,9.221-3.478,14.161.437,8.4,2.548,16.583,3.977,24.846,2.264,13.1,2.412,39.767-17.192,38.481-8.5-.558-16.419-5.376-23.739-9.283a70.789,70.789,0,0,0-21.428-7.585c-14.085-2.433-29.9-1.571-41.912,6.905-1.754,1.237-.115,4.141,1.7,2.916"/>
    <path id="Path_1269" data-name="Path 1269" d="M334.477,48.22c-.438,1.854-.792,3.9.134,5.669a4.571,4.571,0,0,0,4.4,2.533q-1.135-1.137-2.272-2.272c-.117,2.037.058,4.174,1.611,5.669a4.334,4.334,0,0,0,5.253.641c2.53-1.465.245-5.393-2.293-3.924.027-.015-.043-2.1-.027-2.386a2.3,2.3,0,0,0-2.876-2.191c-.867.175-.455-2.951-.418-3.264.234-2.009-3.052-2.409-3.508-.475"/>
    <path id="Path_1270" data-name="Path 1270" d="M324.718,45.129a13.253,13.253,0,0,1,2.743,10.861c-.446,2.755,3.58,4.011,4.28,1.18a15.936,15.936,0,0,0-4.223-14.841c-1.783-1.872-4.419.879-2.8,2.8"/>
    <path id="Path_1271" data-name="Path 1271" d="M227.593,217.161a120.159,120.159,0,0,0-4.114,40.793c.429,6.012,1.339,12.081,3.815,17.576,4.02,8.921,11.91,15.644,20.617,20.108,9.784,5.017,20.86,6.319,30.589,11.059,10.852,5.288,21.863,10.136,32.336,16.178,21.142,12.2,41.575,24.808,63.476,35.533q17.619,8.63,35.816,16.006c11.6,4.7,23.925,10.521,36.3,12.357a7.859,7.859,0,0,0,3.792-.114,2.3,2.3,0,0,0,1.42-1.2,3.113,3.113,0,0,0,.157-1.1c.153-7.454-.522-14.789.528-22.242.654-4.634,2.236-9.357,3.464-13.9a62.622,62.622,0,0,1,5.819-14.245c.785-1.4,7.254-12.552,8.819-12.054a17.439,17.439,0,0,0-12.166.972c-8.073,3.551-13.843,14.917-23.628,13.94-4.194-.419-8.015-2.506-11.672-4.6-16.678-9.55-31.871-20.833-47.765-31.53-15.075-10.146-31.85-18.542-47.208-28.564-7.912-5.164-16.037-10.238-24.425-14.793" fill="#fff"/>
    <path id="Path_1272" data-name="Path 1272" d="M226.135,216.759a123.468,123.468,0,0,0-4.25,41.2c.827,11.679,4.1,22.262,12.782,30.48,8.664,8.2,19.384,11.859,30.561,15.251,13.777,4.181,27.052,11.129,39.707,17.956,25.245,13.621,49.193,29.31,75.161,41.634,11.912,5.652,24.062,10.694,36.224,15.767a196.943,196.943,0,0,0,19.013,7.174c4.056,1.219,11.581,4.234,15.878,2.131,4.745-2.323,2.487-10.989,2.482-15.11a81.08,81.08,0,0,1,3.531-22.783,71.956,71.956,0,0,1,7.172-17.319c.979-1.654,1.988-3.294,3.051-4.9.55-.832,1.1-1.686,1.712-2.473.4-.518,2.008-1.879,1.271-1.852,2.2-.08,2.771-3.335.53-3.917a20.5,20.5,0,0,0-17.252,3.265c-4.89,3.461-8.927,9.317-14.833,11.125-7.687,2.353-16.678-4.833-22.852-8.652-7.317-4.527-14.442-9.36-21.524-14.244-14.2-9.787-28.423-19.19-43.358-27.822-15.685-9.067-30.592-19.5-46.558-28.064-2.282-1.225-4.3,2.209-2.034,3.48,15.818,8.861,30.812,19.075,46.511,28.145,15.471,8.937,30.172,18.728,44.9,28.829,7.1,4.868,14.247,9.665,21.6,14.144,5.937,3.616,13.026,8.776,20.334,8.7,13.882-.141,18.762-19,34.011-15.063q.264-1.959.53-3.917c-4.425.165-8.136,8.872-9.985,12.091a85.082,85.082,0,0,0-10.086,30.1c-.83,6.086.495,12.565-.5,18.524-.424,2.531-.587,3.865-3.414,4.14-1.445.141-3.4-.587-4.794-.907a98.552,98.552,0,0,1-10.536-3.126c-12.606-4.422-25.019-9.866-37.226-15.279-25-11.084-48.582-24.591-72.17-38.355-11.589-6.762-23.339-12.893-35.46-18.645a138.737,138.737,0,0,0-15.207-6.616c-5.958-2-12.117-3.412-17.962-5.749-13.944-5.574-24.68-16.246-27.242-31.377-2.633-15.544-.86-32.047,3.2-47.164a1.513,1.513,0,0,0-2.915-.8"/>
    <path id="Path_1273" data-name="Path 1273" d="M188.517,150.762c-10.945,14.029-4.767,39.944-1.833,56.242a173.907,173.907,0,0,0,19.164,53.719,47.489,47.489,0,0,0,8.037,11.271c13.316,12.891,34.861,6.335,49.181-1.344,12.588-6.749,31.148-16.3,35.313-30.326,1.529-5.149,1.119-10.9-2.239-17.339-2.208-4.235-5.524-7.772-8.8-11.25Q270.2,193.516,253.049,175.3c-6.625-7.039-12.686-16.373-20.464-22.812" fill="#fff"/>
    <path id="Path_1274" data-name="Path 1274" d="M187.173,149.977c-12.173,16.332-5.346,41.085-1.947,59.279a176.009,176.009,0,0,0,11.716,38.057c4.634,10.622,10.007,23.667,20.332,29.959,17.9,10.906,40.284-.719,56.241-9.785,8.862-5.035,18.219-11,23.86-19.736,6.188-9.583,4.733-20.9-1.816-29.934-4.223-5.826-9.611-10.868-14.532-16.09q-8.58-9.1-17.161-18.205c-5.065-5.373-10.221-10.655-14.917-16.359-4.674-5.677-9.218-11.418-14.846-16.2-2.092-1.776-5.139,1.222-3.038,3.038,8.253,7.131,14.3,16.346,21.724,24.273q13.155,14.049,26.358,28.051c8.059,8.571,20.307,18.714,17.418,31.977-2.123,9.744-11.256,16.582-19.173,21.65-14.467,9.261-34.455,21.242-52.3,16.1-11.859-3.415-17.481-15.624-22.429-25.9a173.577,173.577,0,0,1-12.351-34.89,254.455,254.455,0,0,1-5.806-32.209c-1.124-10.658-1.242-22.482,5.351-31.511,1.186-1.625-1.506-3.155-2.687-1.571"/>
    <path id="Path_1275" data-name="Path 1275" d="M472.87,336.43c-1.491,16.547-4.617,36.277-17.2,48.228-.946.9-2.273,1.8-3.455,1.245a3.077,3.077,0,0,1-1.407-2.019c-1-3.265-.649-6.771-.288-10.167,1.851-17.368,6.778-34.839,17.553-48.9a5.422,5.422,0,0,1,1.816-1.714,1.945,1.945,0,0,1,2.313.334,2.715,2.715,0,0,1,.469,1.237,42.582,42.582,0,0,1,.2,11.758" fill="#161616"/>
    <path id="Path_1276" data-name="Path 1276" d="M471.19,336.43c-1.115,8.965-2.42,18.076-5.251,26.682a55.91,55.91,0,0,1-5.86,12.655c-1.262,1.976-2.966,4.995-4.971,6.292l-1.029,1.013q-.809-1.26-1.618-2.52c-.381-1.245-.014-3.015.077-4.272a107.2,107.2,0,0,1,7.165-30.723,79.432,79.432,0,0,1,7.338-14.45c.6-.931,1.4-1.84,1.917-2.817,1.252-2.381,1.034-3.854,1.318-.283a61.99,61.99,0,0,1-.094,8.423c-.2,3.5,5.012,3.37,5.375,0,.441-4.092,2.265-15.383-4.058-16.3-5.7-.827-10.23,9.515-12.243,13.3-7.042,13.248-10.642,28.742-11.312,43.7-.167,3.744.144,12.3,6.075,11.055,4.955-1.042,9.137-8.656,11.339-12.672,6.516-11.885,8.383-25.761,9.191-39.09.134-2.2-3.1-2.087-3.359,0"/>
    <path id="Path_1277" data-name="Path 1277" d="M188.635,150.645c-20.708,6.563-34.346,25.853-45.982,44.2-5.606,8.837-13.045,20.937-24.64,22.165-10.948,1.159-19.615-10.471-22.161-19.958-4.679-17.433,3.618-36.311,16.544-48.909A75.684,75.684,0,0,1,137.6,131.967c4.31-1.687,9.754-3.926,14.356-4.382,4.509-.447,6.623,5.121,11.114,4.607a1.851,1.851,0,0,0,1.432-.767,2.346,2.346,0,0,0,.24-.923c1.334-11.18,1.248-22.731,1.822-34.008-23.134-2.561-47.221,2.907-66.51,15.933s-33.489,33.643-37.95,56.487c-4.907,25.131,1.7,54.329,21.453,71.667,14.015,12.3,34.106,15.365,51.786,10.5,12.988-3.573,23.929-12.109,32.771-22.03,9.03-10.131,14.952-22.78,25.215-31.77" fill="#fff"/>
    <path id="Path_1278" data-name="Path 1278" d="M188.139,148.846c-16.363,5.309-28.144,17.17-38.088,30.786-5.111,7-9.426,14.519-14.471,21.553-4.574,6.378-11.511,14.262-20.255,13.362-9.336-.961-15.568-11.37-17.448-19.658-2.133-9.4-.236-19.29,3.842-27.9,8.7-18.359,26.685-31.091,46.013-36.331,3.505-.951,5.745-.875,8.664,1.178a13.926,13.926,0,0,0,3.834,2.286c2.5.765,5.208.353,6.458-2.1.966-1.895.708-5.058.88-7.143.259-3.146.425-6.3.561-9.452.272-6.312.436-12.628.742-18.938a2.356,2.356,0,0,0-2.3-2.3c-49.043-5.055-99.186,26.479-107.342,76.93-3.493,21.6.831,45.2,14.433,62.705,14.442,18.584,38.226,25.871,60.92,20.218,12.965-3.23,24.166-11.163,33.266-20.751,10.1-10.638,16.707-24,27.145-34.354,2.181-2.165-1.027-5.2-3.313-3.313-8.641,7.127-14.144,16.874-20.759,25.748-6.723,9.019-15.161,17.149-25.079,22.566-20.021,10.935-46.712,8.549-63.126-7.748-15.036-14.93-20.994-37.138-19.4-57.877,1.689-21.984,12.757-42.6,29.176-57.138C112.649,103.322,140.07,96.1,166.567,98.8q-1.152-1.15-2.3-2.3c-.282,5.994-.38,11.993-.623,17.989-.115,2.841-.253,5.681-.456,8.518-.181,2.515.407,7.288-3.164,5.982-3.187-1.165-4.548-3.733-8.353-3.556-5.238.243-10.647,2.807-15.419,4.757-17.7,7.232-33.3,20.469-40.5,38.509-6.241,15.647-5,36.609,9.854,47.157,15.356,10.906,29.294-4.424,37.111-16.625,11.784-18.39,24.6-39.3,46.415-46.782,2.252-.772,1.308-4.343-.992-3.6"/>
    <path id="Path_1279" data-name="Path 1279" d="M188.635,150.645c-20.708,6.563-34.346,25.853-45.982,44.2-5.606,8.837-13.045,20.937-24.64,22.165-10.948,1.159-19.615-10.471-22.161-19.958-4.679-17.433,3.618-36.311,16.544-48.909,3.32-3.236,7.231-7.05,11.512-8.969,2.7-1.211,7.673-.779,9.455-3.419a5.8,5.8,0,0,0,.76-2.83,40.848,40.848,0,0,0-8.508-28.14c-2.263-2.882-6-5.67-9.285-4.054a10.317,10.317,0,0,0-2.418,1.925c-4.9,4.643-11.188,7-16.273,11.381-5.846,5.042-11.648,9.669-16.624,15.647a88.2,88.2,0,0,0-18.907,39.234c-4.907,25.131,1.7,54.329,21.453,71.667,14.015,12.3,34.106,15.365,51.786,10.5,12.988-3.573,23.929-12.109,32.771-22.03,9.03-10.131,14.952-22.78,25.215-31.77" fill="#fff"/>
    <path id="Path_1280" data-name="Path 1280" d="M188.139,148.846c-17.4,5.623-29.6,18.7-39.914,33.283-7.707,10.9-21.367,41.29-39,30.179-18.448-11.622-13.108-38.474-2.958-53.524a66.292,66.292,0,0,1,9.967-11.325,34.918,34.918,0,0,1,7.368-5.693c2.106-1.1,4.32-1.186,6.563-1.779,8.272-2.189,6.821-11.715,5.505-18.475-1.493-7.67-5.673-18.641-13.146-22.436a7.806,7.806,0,0,0-8.626.534c-4.234,3.111-8.274,6.167-12.707,9.044a97.17,97.17,0,0,0-37.36,45.829c-12.345,32.033-4.849,77.591,27.885,94.855,17.974,9.48,40.724,8.573,58.21-1.573a85.058,85.058,0,0,0,24.209-21.857c6.967-9.043,12.753-18.828,20.857-26.97,2.173-2.183-1.02-5.18-3.313-3.313-7.178,5.846-12.179,13.6-17.438,21.115-5.536,7.907-11.736,15.232-19.362,21.213-15.075,11.824-35.112,16-53.455,9.865-36.8-12.307-45.362-60.626-32.791-92.885,7.576-19.442,22.336-34.448,39.769-45.391,4.1-2.573,9.625-8.937,14.159-4.705,3.963,3.7,6.541,9.519,7.974,14.628.949,3.386,3.431,13.109.109,15.723-1.251.984-3.726.88-5.239,1.249a16.717,16.717,0,0,0-4.7,1.963c-14.067,8.343-25.384,25.349-27.972,41.389-2.256,13.985,2.52,31.949,16.605,38.193,16.784,7.441,28.757-11.378,36.229-23.2,10.754-17.014,23.677-35.491,43.57-42.34,2.25-.775,1.31-4.341-.992-3.6"/>
    <path id="Path_1281" data-name="Path 1281" d="M190.443,159.209c6.726-.313,13.9-2.664,17.977-8.385a4.776,4.776,0,0,0,1.127-3.548c-.694-3.5-5.262-5.23-3.306-9.528.733-1.612,2.122-2.827,3.054-4.333a11.716,11.716,0,0,0,1.25-8.053,35.926,35.926,0,0,0-2.621-7.884,2.473,2.473,0,0,1-.278-1.54c.151-.576.688-.957,1.014-1.456,1.02-1.565-.248-3.573-1.46-4.994-1.94-2.274-3.411-5.039-5.692-6.946a46.614,46.614,0,0,0-9.465-6.551c-3.09-1.475-7.462-2.867-10.9-1.908-1.271.355-2.413.967-3.716,1.294a20.228,20.228,0,0,0-15.047,15.853,28.926,28.926,0,0,0,.186,11.307,52.543,52.543,0,0,0,3.268,9.316,27.053,27.053,0,0,0,12.4,13.836c1.508.792,3.152,1.484,4.216,2.814a9.574,9.574,0,0,1,1.41,2.879q.753,2.149,1.4,4.334a5.565,5.565,0,0,0,1.279,2.584c1,.938,2.526.973,3.9.909" fill="#fff"/>
    <path id="Path_1282" data-name="Path 1282" d="M190.443,160.906c6.273-.364,12.737-2.011,17.381-6.5,1.591-1.539,3.366-3.6,3.649-5.882.335-2.718-1.41-4.114-2.528-6.307-2.06-4.045,1.782-6.15,3.094-9.727a16.5,16.5,0,0,0-.013-10.116c-.44-1.578-2.113-3.942-2.023-5.467.055-.924.729-1.564.931-2.467.58-2.59-.64-4.446-2.2-6.488-4.652-6.111-9.737-11.408-16.968-14.5-6.452-2.76-12.093-1.783-18.373.928-14.4,6.216-15.95,22.75-10.682,35.778,2.793,6.909,6.585,12.829,13.109,16.774,2.481,1.5,4.424,2.235,5.859,5.056.906,1.782,1.083,3.9,1.939,5.71,1.389,2.931,3.706,3.692,6.82,3.655a2.141,2.141,0,0,0,0-4.279c-4.06-.042-4.118-7.123-6.033-9.708-1.433-1.936-3.631-2.828-5.665-3.984-6.986-3.971-10.723-10.786-13.13-18.228-2.586-7.994-1.94-17.327,4.475-23.331a19.36,19.36,0,0,1,22.287-3.159,34.263,34.263,0,0,1,9.438,7.387c1.856,2.157,5,5.262,4.406,8.044-.53,2.462-.794,2.772.269,5.5,1.573,4.039,3.374,8.6,1.014,12.778s-5.331,6.645-2.344,11.459c1.308,2.11,3.127,2.787,1.607,6.03-.783,1.671-3.209,3.4-4.664,4.285a26.03,26.03,0,0,1-11.66,3.369c-2.155.17-2.2,3.522,0,3.4"/>
    <path id="Path_1283" data-name="Path 1283" d="M151.235,109.594a8.557,8.557,0,0,1,4.057,4.331c.947,1.957,4.35.569,3.555-1.5a10.571,10.571,0,0,0-6.27-6.015c-1.83-.706-3.117,2.33-1.342,3.183"/>
    <path id="Path_1284" data-name="Path 1284" d="M205.811,96.993c-4.244,3.406-6.159,1.59-10.205-.124a4.848,4.848,0,0,1-1.8,4.479,17.675,17.675,0,0,1-11.747,4.8c-1.377.023-2.9-.074-3.972.788-1.311,1.053-1.333,3.013-1.164,4.686a56.065,56.065,0,0,0,3.855,15.5c-2.03-.852-2.72-3.312-3.363-5.418s-1.95-4.5-4.151-4.562c-2.6-.07-3.962,3.205-3.7,5.791.533,5.321,4.56,9.558,6.619,14.494.743,1.78.693,4.571-1.218,4.827a3.342,3.342,0,0,1-2-.594c-7.3-4.079-13.616-10.224-16.934-17.9s-3.36-16.925.8-24.18c1.621-2.826,4.352-5.536,7.6-5.272,2.346-7.027,8.864-12.195,16.008-13.718a33.97,33.97,0,0,1,10.43-.232c3.825.429,7.476,3.484,11.434,2.6,1.781-.4,3.366-1.635,5.19-1.638a4.839,4.839,0,0,1,4.279,3.171,6.092,6.092,0,0,1-3.818,7.74c.491,1.778-.7,3.609-2.136,4.763" fill="#fff"/>
    <path id="Path_1285" data-name="Path 1285" d="M205.039,95.673c-3.273,2.278-5.457,1.2-8.556-.3a1.758,1.758,0,0,0-2.615,1.5c.119,6.25-9.149,6.819-13.214,7.362-2.168.289-4.046.753-5.122,2.887-2.74,5.436,1.307,15.533,3.225,20.561l3.076-2.365c-3.11-2.033-2.432-7.209-5.756-9.383a5.148,5.148,0,0,0-6.281.326c-5.308,4.564-1.01,12.464,1.682,17.109.537.926,3.473,5.078,2.882,6.047-.427.7-3.621-1.773-4.246-2.215a36.108,36.108,0,0,1-10.358-11.1,27.406,27.406,0,0,1-3.856-14.584c.146-4.9,2.178-14.6,8.524-14.831a2.477,2.477,0,0,0,2.289-1.742c3.552-9.218,13.085-13.128,22.452-12.2,4.042.4,7.573,2.968,11.66,2.953a11.57,11.57,0,0,0,4.08-.929q3.261-2.319,4.491,2.574a3.949,3.949,0,0,1-2.7,2.759,2.388,2.388,0,0,0-1.224,2.134q-.633,1.581-1.265,3.162a2.264,2.264,0,0,0,3.2,3.2,7.6,7.6,0,0,0,3.008-6.363L208.6,94.614c4.989-1.911,8.1-7.819,4.718-12.677a7.341,7.341,0,0,0-5.836-3.212,11.818,11.818,0,0,0-3.917,1.031c-3.161,1.08-4.826.417-7.772-.618-13.306-4.676-28.652.922-33.661,14.542l2.288-1.742c-9.547.5-13.125,12.328-13.073,20.361.069,10.478,5.566,19.98,13.516,26.55,2.54,2.1,6.792,6.146,10.394,5.629,2.788-.4,3.792-3.175,3.532-5.664-.529-5.071-5.026-8.886-6.482-13.666-.624-2.051-1.864-4.308,1.3-3.4,2.3.664,1.8,1.24,2.639,3.087a8.54,8.54,0,0,0,3.473,4.091c1.443.917,3.761-.637,3.076-2.364a60,60,0,0,1-3.464-11.951c-.681-3.953-1.051-5.273,3.535-6.6,1.433-.414,3.016-.356,4.483-.818,4.613-1.454,10.284-4.9,9.995-10.33l-2.2,1.676c4.493,1.826,7.283,2.789,11.439-.232,1.568-1.14.087-3.776-1.544-2.641"/>
    <path id="Path_1286" data-name="Path 1286" d="M414.6,329.108c-7.172,2.094-10.874,10.128-6.494,16.657a15.872,15.872,0,0,0,3.708,3.579c3.326,2.581,3.608,4.983,2.391,9a34.379,34.379,0,0,0-1.414,15.557c.413,2.62,4.481,1.9,4.515-.611a48.035,48.035,0,0,1,1.722-13.617c.829-2.736,1.946-5.517,1-8.4-.794-2.425-2.7-3.832-4.62-5.35-1.871-1.48-3.669-2.382-4.368-5.013-.979-3.684,1.249-6.843,4.58-8.1,2.264-.857,1.395-4.4-1.02-3.7"/>
    <path id="Path_1287" data-name="Path 1287" d="M266.909,192.377c-9.318,8.7-19.186,16.826-30.217,23.278s-22.9,10.582-35.206,13.858c-2.58.687-1.484,4.506,1.1,3.972,26.256-5.436,47.919-20.137,66.9-38.533,1.69-1.637-.864-4.172-2.575-2.575"/>
    <path id="Path_1288" data-name="Path 1288" d="M179.176,163.01c11.552,9.712,30.388,8.784,37.724-5.744a1.778,1.778,0,0,0-3.069-1.793c-7.829,10.352-21.81,14.295-32.53,5.412-1.476-1.223-3.611.875-2.125,2.125"/>
    <path id="Path_1289" data-name="Path 1289" d="M213.693,147.515q.431.678.862,1.356a1.7,1.7,0,0,0,2.931-1.713l-.923-1.321a1.785,1.785,0,0,0-.993-.763,1.662,1.662,0,0,0-1.877,2.441"/>
    <path id="Path_1290" data-name="Path 1290" d="M194.911,142.839a17.214,17.214,0,0,0,13.883-5.159c1.983-2.064-.97-4.9-3.1-3.1a22.045,22.045,0,0,1-11.207,5.133c-1.89.293-1.231,2.979.423,3.126"/>
    <path id="Path_1291" data-name="Path 1291" d="M187.9,111.154a4.362,4.362,0,0,1,1.874-1.395,5.134,5.134,0,0,1,2.9.2c2.073.443,3.552-2.48,1.506-3.571-3.09-1.646-7.075-.044-8.726,2.883-.838,1.486,1.258,3.269,2.444,1.885"/>
    <path id="Path_1292" data-name="Path 1292" d="M189.657,117.073c2.612.681,6.133.052,7.505-2.544.844-1.594-.931-3.714-2.612-2.612-1.477.97-2.617,2.151-4.5,2.221a1.5,1.5,0,0,0-.4,2.935"/>
    <path id="Path_1293" data-name="Path 1293" d="M199.746,127.326a6.033,6.033,0,0,0,5.806-2.007,1.948,1.948,0,0,0,0-2.675,1.918,1.918,0,0,0-2.675,0,4.647,4.647,0,0,1-2.684,1.383,1.7,1.7,0,0,0-1.65,1.456,1.659,1.659,0,0,0,1.2,1.843"/>
    <path id="Path_1294" data-name="Path 1294" d="M201.417,114.94a2.29,2.29,0,0,0-.19.761l.021-.156a2.249,2.249,0,0,0,.017.973,2.178,2.178,0,0,0,.488.9,2.142,2.142,0,0,0,.9.55,1.208,1.208,0,0,0,.544.053,2.253,2.253,0,0,0,.554-.113.86.86,0,0,0,.486-.373.838.838,0,0,0,.1-.519.807.807,0,0,0-.8-.705,1.526,1.526,0,0,1-.253-.012l.227.031a1.512,1.512,0,0,1-.189-.04,2.716,2.716,0,0,0-.4-.07l.238.032a1.62,1.62,0,0,1-.38-.1l.205.086a1.975,1.975,0,0,1-.414-.231l.158.123a1.507,1.507,0,0,1-.241-.238c.037.048.075.1.112.145a1.58,1.58,0,0,1-.2-.341c.022.051.044.1.065.153a1.639,1.639,0,0,1-.088-.3l.021.156a1.482,1.482,0,0,1,.011-.258c-.007.05-.013.1-.02.151a1.461,1.461,0,0,1,.05-.225.556.556,0,0,0-.323-.657.547.547,0,0,0-.695.228"/>
    <path id="Path_1295" data-name="Path 1295" d="M203.192,128.781l.822-.272c.344-.115.679-.284,1.012-.43a.739.739,0,0,0,.277-.255,1.025,1.025,0,0,0,.078-1.1,1.007,1.007,0,0,0-.592-.455.987.987,0,0,0-.763.1c-.3.206-.607.4-.887.636l-.661.55c-.038.049-.076.1-.115.148a.557.557,0,0,0-.087.273.7.7,0,0,0,.087.468.883.883,0,0,0,.264.263.735.735,0,0,0,.565.074"/>
    <path id="Path_1296" data-name="Path 1296" d="M197.075,144.272c1.178,1.12,2.9,1.053,4.379.693,1.339-.327,3.222-1.134,4.337.119.663.746,1.8-.375,1.1-1.1-1.192-1.236-3-1.162-4.529-.711-1.366.4-3.288,1.408-4.574.286-.485-.422-1.188.262-.713.713"/>
    <path id="Path_1297" data-name="Path 1297" d="M175,123.655c-.414-.524-1.152-1.245-1.851-.782a2.012,2.012,0,0,0-.7,1.641,3.156,3.156,0,0,0,1.482,2.759.849.849,0,1,0,.857-1.465,2.547,2.547,0,0,1-.214-.141c-.022-.018-.045-.035-.068-.051l.1.08a.45.45,0,0,1-.1-.084q-.093-.087-.177-.183c-.019-.022-.037-.043-.054-.065l.076.1a1.233,1.233,0,0,0-.073-.1,2.32,2.32,0,0,1-.131-.22c-.02-.038-.037-.076-.056-.115-.069-.137.061.17.014.034-.028-.081-.057-.162-.079-.245-.011-.041-.021-.082-.03-.124s-.032-.216-.015-.065,0-.015,0-.045-.005-.085-.006-.128a2.15,2.15,0,0,1,.009-.254c.015-.171-.022.109,0,.031L174,124.1c.016-.084.028-.168.05-.251.01-.038.072-.144.014-.06a.329.329,0,0,1-.294.188c-.251.041-.126.03-.018.069l-.018-.007.076.035a3.4,3.4,0,0,1,.586.357.49.49,0,0,0,.639-.127.506.506,0,0,0-.039-.65"/>
    <path id="Path_1298" data-name="Path 1298" d="M250.844,153.862c10.463,7.057,17.872,19.028,30.784,22.058a20.867,20.867,0,0,0,8.393.334c3.059-.54,5.564-2.079,8.105-3.779a25.658,25.658,0,0,1,3.866-2.238,15.83,15.83,0,0,1,5.854-1.078,17.456,17.456,0,0,0,8.917-2.476,38.644,38.644,0,0,0,13.681-15.108c.214-.412-.4-.777-.626-.365a41.2,41.2,0,0,1-12.036,13.766,16.521,16.521,0,0,1-9.472,3.238c-3.137.109-6.01.181-8.82,1.738-2.553,1.415-4.82,3.284-7.624,4.215a17.766,17.766,0,0,1-8.856.49c-6.028-1.122-11.282-4.411-15.92-8.288-5.276-4.41-10.034-9.449-15.862-13.163-.416-.265-.786.385-.384.656"/>
    <path id="Path_1299" data-name="Path 1299" d="M248.705,158q-.688,4.747-1.376,9.495a.651.651,0,1,0,1.285.173q.542-4.767,1.081-9.534c.063-.559-.909-.7-.99-.134"/>
    <path id="Path_1300" data-name="Path 1300" d="M253.22,153.358a78.268,78.268,0,0,0-2.158,10.675c-.457,3.537-.97,7.329-.425,10.873.115.751,1.139.461,1.216-.165.422-3.472.226-7.014.576-10.507a86,86,0,0,1,1.746-10.613.5.5,0,0,0-.955-.263"/>
    <path id="Path_1301" data-name="Path 1301" d="M256,154.588c-1.568,7.788-3,15.626-3.81,23.534-.132,1.286,1.893,1.285,2.015,0,.737-7.774,1.552-15.529,2.937-23.219.134-.742-.991-1.067-1.142-.315"/>
    <path id="Path_1302" data-name="Path 1302" d="M258.474,157.054q-.867,5.769-1.476,11.579a80.77,80.77,0,0,0-.778,11.947.823.823,0,0,0,1.644,0c.346-3.807.238-7.669.483-11.489.252-3.931.671-7.833,1.235-11.731.105-.723-1-1.038-1.108-.306"/>
    <path id="Path_1303" data-name="Path 1303" d="M260.357,165.515c-.43,5.841-1.106,11.681-1.4,17.529-.045.908,1.313.881,1.4,0,.55-5.823.719-11.693,1.131-17.529.051-.727-1.079-.723-1.132,0"/>
    <path id="Path_1304" data-name="Path 1304" d="M263.584,161.519q-.645,6.21-1.11,12.437a100.1,100.1,0,0,0-.616,12.461.592.592,0,0,0,1.184,0c.488-4.113.363-8.323.577-12.461s.494-8.295.831-12.437c.046-.559-.809-.547-.866,0"/>
    <path id="Path_1305" data-name="Path 1305" d="M266.685,163.255a122.621,122.621,0,0,0-2.354,25.64c.038,1.191,1.894,1.2,1.857,0a122.955,122.955,0,0,1,1.366-25.4c.1-.567-.765-.812-.869-.24"/>
    <path id="Path_1306" data-name="Path 1306" d="M270.213,164.445c-.854,4.27-1.534,8.587-2,12.917a79.305,79.305,0,0,0-.753,13.373.938.938,0,0,0,1.875,0c.155-4.3-.084-8.582.235-12.889a109.891,109.891,0,0,1,1.769-13.091c.145-.733-.978-1.047-1.125-.31"/>
    <path id="Path_1307" data-name="Path 1307" d="M273.382,168.155c-.62,3.525-1.071,7.093-1.346,10.661a66.658,66.658,0,0,0-.184,11.006c.093,1.046,1.692,1.085,1.661,0-.1-3.541-.361-7.042-.232-10.591a80.218,80.218,0,0,1,1.141-10.789c.117-.679-.921-.971-1.04-.287"/>
    <path id="Path_1308" data-name="Path 1308" d="M277.571,169.674q-.78,5.25-1.421,10.524c-.441,3.589-.943,7.228-1.058,10.844-.037,1.161,1.693,1.131,1.786,0,.289-3.537.345-7.1.613-10.636s.651-7.069,1.122-10.591c.078-.587-.954-.732-1.042-.141"/>
    <path id="Path_1309" data-name="Path 1309" d="M279.891,172.888q-.378,4.851-.842,9.691c-.155,1.584-.314,3.167-.486,4.75a35.035,35.035,0,0,0-.479,4.94c.037,1,1.617,1.32,1.823.247a33.5,33.5,0,0,0,.291-4.807q.109-2.472.247-4.94.274-4.945.648-9.881c.058-.772-1.142-.767-1.2,0"/>
    <path id="Path_1310" data-name="Path 1310" d="M284.035,173.819c-.73,6.677-1.724,13.318-2.473,19.992-.124,1.1,1.619,1.1,1.733,0,.688-6.657,1.129-13.336,1.836-19.992.075-.7-1.02-.694-1.1,0"/>
    <path id="Path_1311" data-name="Path 1311" d="M290.208,174.294c-1.132,6.756-2.5,13.482-3.552,20.249-.14.9,1.222,1.294,1.381.381,1.174-6.763,2.043-13.585,3.143-20.362.1-.634-.865-.908-.972-.268"/>
    <path id="Path_1312" data-name="Path 1312" d="M293.752,171.968c-.459,3.656-1.036,7.287-1.767,10.9q-.535,2.645-1.15,5.273a34.287,34.287,0,0,0-1.174,5.076c-.059.8,1.239,1.192,1.565.424a27.614,27.614,0,0,0,1.258-5.476q.518-2.655.961-5.324c.6-3.611,1.125-7.238,1.562-10.872.1-.8-1.156-.791-1.255,0"/>
    <path id="Path_1313" data-name="Path 1313" d="M299.385,165.359c-.827,4.711-1.7,9.412-2.59,14.112s-1.966,9.383-2.6,14.109c-.142,1.057,1.417,1.564,1.654.456,1-4.673,1.566-9.468,2.317-14.188s1.516-9.461,2.33-14.183c.125-.723-.98-1.035-1.108-.306"/>
    <path id="Path_1314" data-name="Path 1314" d="M301.78,170.739c-1.015,7.578-2.563,15.006-3.987,22.509-.225,1.186,1.578,1.7,1.824.5,1.557-7.566,2.472-15.346,3.383-23.012.093-.783-1.118-.764-1.22,0"/>
    <path id="Path_1315" data-name="Path 1315" d="M306.719,170.884q-.781,5.139-1.886,10.21-.545,2.489-1.149,4.963a19.2,19.2,0,0,0-1,4.989.669.669,0,0,0,1.236.334,15.746,15.746,0,0,0,1.311-4.694q.534-2.6,1-5.206.919-5.118,1.661-10.272c.112-.766-1.058-1.1-1.176-.324"/>
    <path id="Path_1316" data-name="Path 1316" d="M311.541,165.817a75.813,75.813,0,0,1-1.521,12.109q-.583,2.818-1.359,5.594a42.914,42.914,0,0,0-1.681,5.756c-.118.912,1.257,1.167,1.664.451a22.686,22.686,0,0,0,1.733-5.734q.732-3.018,1.24-6.085a97.428,97.428,0,0,0,1.2-12.091c.032-.82-1.237-.817-1.273,0"/>
    <path id="Path_1317" data-name="Path 1317" d="M315.2,166.432c-.237,3.315-.577,6.626-1.09,9.909-.493,3.151-1.361,6.306-1.545,9.49-.048.826,1.1.867,1.354.184,1.137-3.031,1.406-6.448,1.788-9.647.393-3.3.69-6.613.854-9.936.044-.88-1.3-.867-1.361,0"/>
    <path id="Path_1318" data-name="Path 1318" d="M317.493,165.205a99.65,99.65,0,0,1-.732,13.541c-.112,1.012,1.447.986,1.574,0a71.822,71.822,0,0,0,.307-13.541c-.045-.732-1.167-.745-1.149,0"/>
    <path id="Path_1319" data-name="Path 1319" d="M320.21,163.667a44.181,44.181,0,0,1-.183,4.63c-.146,1.538-.412,3.065-.609,4.6-.118.918,1.421,1.117,1.615.219a34.927,34.927,0,0,0,.468-9.446.646.646,0,0,0-1.291,0"/>
    <path id="Path_1320" data-name="Path 1320" d="M323.244,161.819c.1,2.57-.209,5.124-.235,7.691a.91.91,0,0,0,1.821,0,25.172,25.172,0,0,0-.8-7.8.4.4,0,0,0-.781.106"/>
    <path id="Path_1321" data-name="Path 1321" d="M326.778,159.976l-.183,1.568c-.03.261-.061.523-.091.784a1.276,1.276,0,0,0,0,.453c.027.128.071.255.106.381a.42.42,0,0,0,.759.1c.058-.114.12-.228.175-.344a1.471,1.471,0,0,0,.113-.529c.022-.271.045-.542.067-.814l.132-1.6a.54.54,0,0,0-.539-.539.555.555,0,0,0-.539.539"/>
    <path id="Path_1322" data-name="Path 1322" d="M329.437,155.055q-.018.719-.035,1.438c-.006.235-.008.471-.018.706-.005.117-.019.235-.022.353a.945.945,0,0,0,.271.666.637.637,0,0,0,.9,0,.932.932,0,0,0,.27-.666c0-.109-.016-.217-.021-.326-.011-.244-.012-.489-.018-.733q-.018-.718-.035-1.438a.645.645,0,0,0-1.291,0"/>
    <path id="Path_1323" data-name="Path 1323" d="M331.309,147.366l-.009.923a.648.648,0,0,0,.184.444.63.63,0,0,0,.888,0,.648.648,0,0,0,.183-.444c0-.308-.005-.615-.008-.923a.642.642,0,0,0-.182-.438.619.619,0,0,0-.875,0,.65.65,0,0,0-.181.438"/>
    <path id="Path_1324" data-name="Path 1324" d="M332.543,141.815a.6.6,0,0,0,0-1.2.6.6,0,0,0,0,1.2"/>
    <path id="Path_1325" data-name="Path 1325" d="M333.466,131.825a.761.761,0,0,0,0-1.521.761.761,0,0,0,0,1.521"/>
    <path id="Path_1326" data-name="Path 1326" d="M246.887,155.851q-.465,1.69-.931,3.381a.486.486,0,0,0,.937.258l.915-3.385a.478.478,0,0,0-.921-.254"/>
    <path id="Path_1327" data-name="Path 1327" d="M243.683,154.893q-.347,2.142-.692,4.285a.689.689,0,1,0,1.355.183q.267-2.152.535-4.306a.611.611,0,0,0-1.2-.162"/>
    <path id="Path_1328" data-name="Path 1328" d="M240.928,152.126c-.378,2.307-.774,4.61-1.077,6.929-.107.821,1.341,1.026,1.459.2.329-2.315.563-4.64.816-6.964.074-.677-1.087-.841-1.2-.162"/>
    <path id="Path_1329" data-name="Path 1329" d="M238.253,150.927c-.244,1.681-.49,3.361-.708,5.045a.532.532,0,0,0,.53.53.544.544,0,0,0,.53-.53c.213-1.637.4-3.278.586-4.918.06-.529-.861-.659-.938-.127"/>
    <path id="Path_1330" data-name="Path 1330" d="M235.387,149.974l-.643,2.453a.61.61,0,0,0,1.176.324l.592-2.467a.583.583,0,1,0-1.125-.31"/>
    <path id="Path_1331" data-name="Path 1331" d="M229.39,148.6l-.009.308a.564.564,0,0,0,.064.286.667.667,0,0,0,.393.392.55.55,0,0,0,.286.064l.2-.026a.751.751,0,0,0,.328-.191l.116-.151a.731.731,0,0,0,.1-.374l-.009-.308a.818.818,0,0,0-.214-.519.566.566,0,0,0-.237-.152.557.557,0,0,0-.282-.063l-.195.026a.728.728,0,0,0-.324.189l-.115.149a.729.729,0,0,0-.1.37"/>
    <path id="Path_1332" data-name="Path 1332" d="M226.433,150.175a.964.964,0,0,0,0-1.927.964.964,0,0,0,0,1.927"/>
    <path id="Path_1333" data-name="Path 1333" d="M212.8,252c25.008-8.76,54.188-20.551,70.074-43.048,1.184-1.676-1.43-3.632-2.818-2.174-9.438,9.906-19,18.454-30.973,25.284-11.816,6.741-24.463,11.865-37.242,16.46-2.164.778-1.244,4.25.959,3.478"/>
    <path id="Path_1334" data-name="Path 1334" d="M195.438,200.153a17.374,17.374,0,0,0,1.262,17.012c1.6,2.387,3.628,4.449,5.258,6.813a10.608,10.608,0,0,1,1.967,8.689c-.658,3.158-1.07,6.059-.258,9.244a28.454,28.454,0,0,0,4.248,8.8,67.275,67.275,0,0,0,13.433,14.865c5.734,4.558,12.708,7.931,20.153,7.955a.7.7,0,0,0,0-1.4c-13.577-.546-23.927-10.491-31.5-20.891a30.924,30.924,0,0,1-4.652-8.494,16.048,16.048,0,0,1-.81-4.3,21.823,21.823,0,0,1,.741-5.406,11.287,11.287,0,0,0-.76-7.518,34.408,34.408,0,0,0-4.3-6.209A22.044,22.044,0,0,1,195.7,210.8a17.706,17.706,0,0,1,.643-10.267c.194-.52-.67-.891-.9-.381"/>
    <path id="Path_1335" data-name="Path 1335" d="M242.268,267.585a11.034,11.034,0,0,0,3.059.686,6.8,6.8,0,0,0,1.568,0,8.1,8.1,0,0,0,1.519-.424.544.544,0,0,0,.386-.592.531.531,0,0,0-.529-.467c-.49.053-.972.048-1.463.058s-.949.067-1.428.055a9.761,9.761,0,0,1-2.788-.488.616.616,0,0,0-.75.426.623.623,0,0,0,.426.75"/>
    <path id="Path_1336" data-name="Path 1336" d="M289.963,223.785a12.366,12.366,0,0,1,3.673,9.085.849.849,0,0,0,1.7,0,12.4,12.4,0,0,0-1.255-5.472,14.264,14.264,0,0,0-3.352-4.376c-.518-.453-1.27.279-.763.763"/>
    <path id="Path_1337" data-name="Path 1337" d="M289.534,233.814l.308.615a.5.5,0,0,0,.168.184.681.681,0,0,0,.727.051l.132-.1a.655.655,0,0,0,.168-.289l.024-.174a.66.66,0,0,0-.09-.33l-.307-.615a.734.734,0,0,0-.391-.3.5.5,0,0,0-.261-.012.485.485,0,0,0-.243.078l-.133.1a.655.655,0,0,0-.168.289c-.008.058-.016.116-.023.174a.648.648,0,0,0,.089.33"/>
    <path id="Path_1338" data-name="Path 1338" d="M286.245,239.328c0,.2-.009.411,0,.615,0,.1.025.2.038.3l.042.313a.78.78,0,0,0,.2.494.714.714,0,0,0,.494.205.706.706,0,0,0,.494-.205l.109-.141a.7.7,0,0,0,.1-.353l.042-.313c.013-.1.034-.2.038-.3.009-.2,0-.411,0-.615a.8.8,0,0,0-.228-.55.777.777,0,0,0-1.1,0,.806.806,0,0,0-.228.55"/>
    <path id="Path_1339" data-name="Path 1339" d="M118.4,119.3a35.847,35.847,0,0,1,4.452,7.76,64.118,64.118,0,0,1,2.49,8.462c.174.666,1.3.554,1.233-.167a27.129,27.129,0,0,0-2.655-8.745,38.153,38.153,0,0,0-4.854-7.824c-.3-.372-.955.127-.666.514"/>
    <path id="Path_1340" data-name="Path 1340" d="M113.985,110.644l.615.615a.53.53,0,0,0,.225.145.633.633,0,0,0,.538,0,.53.53,0,0,0,.225-.145l.109-.141a.7.7,0,0,0,.1-.353l-.025-.185a.7.7,0,0,0-.179-.309l-.615-.615a.531.531,0,0,0-.225-.144.72.72,0,0,0-.763.144l-.109.142a.7.7,0,0,0-.1.352l.025.186a.7.7,0,0,0,.18.308"/>
    <path id="Path_1341" data-name="Path 1341" d="M119.233,249.1a59.047,59.047,0,0,0,37.885-25.509,51.694,51.694,0,0,0,5.82-11.916c.192-.585-.683-.793-.9-.249a61.419,61.419,0,0,1-30.691,32.753,55.088,55.088,0,0,1-12.354,4.034c-.581.118-.334,1,.244.887"/>
    <path id="Path_1342" data-name="Path 1342" d="M170.9,205.1a32.165,32.165,0,0,1,12.29-5.3c.645-.123.362-1.2-.272-.989a46.519,46.519,0,0,0-12.205,5.971c-.194.137-.011.458.187.321"/>
    <path id="Path_1343" data-name="Path 1343" d="M189.328,191.766l.615-.615a.608.608,0,0,0,0-.838.6.6,0,0,0-.419-.173l-.157.021a.589.589,0,0,0-.261.152l-.616.615a.457.457,0,0,0-.122.191.449.449,0,0,0-.051.228.444.444,0,0,0,.051.228.451.451,0,0,0,.122.191.59.59,0,0,0,.419.173l.158-.021a.6.6,0,0,0,.261-.152"/>
    <path id="Path_1344" data-name="Path 1344" d="M175.014,161.266a15.449,15.449,0,0,0,8.773,5.6c.9.175,1.3-1.159.385-1.4a15.93,15.93,0,0,1-8.383-4.978c-.457-.544-1.213.234-.775.775"/>
    <path id="Path_1345" data-name="Path 1345" d="M172.723,163.344a17.18,17.18,0,0,0,2.344,2.756,15.468,15.468,0,0,0,1.424,1.182,5.892,5.892,0,0,0,.741.494,3.643,3.643,0,0,0,1.007.342.777.777,0,0,0,.908-.445.788.788,0,0,0-.315-.961c.078.061-.052-.042-.065-.053-.053-.042-.1-.086-.156-.127a3.284,3.284,0,0,0-.471-.308c-.248-.137-.508-.25-.757-.382a12.306,12.306,0,0,1-1.4-.861,9.987,9.987,0,0,1-2.252-2.226.6.6,0,0,0-.8-.209.589.589,0,0,0-.209.8"/>
    <path id="Path_1346" data-name="Path 1346" d="M170.868,165.038c0,.016.005.032.008.047v-.27a1.089,1.089,0,0,0,.042.68c.042.161.091.319.147.475a6.822,6.822,0,0,0,.466,1.031,7.023,7.023,0,0,0,.649.938,4.918,4.918,0,0,0,.905.8.9.9,0,0,0,.695.091.9.9,0,0,0,.216-1.648c-.067-.044-.132-.089-.2-.135l-.1-.071c-.083-.061.181.147.048.036s-.243-.208-.367-.309a5.577,5.577,0,0,1-.671-.642c-.047-.053-.094-.107-.138-.161-.025-.031-.049-.062-.074-.092-.055-.068.088.119.01.012-.094-.129-.185-.26-.269-.4s-.162-.272-.233-.413c-.032-.064-.063-.127-.093-.191a.76.76,0,0,0-.291-.309l.182.183-.018-.043a.5.5,0,0,0-.629-.206.511.511,0,0,0-.292.594"/>
    <path id="Path_1347" data-name="Path 1347" d="M168.2,169l.929.916a.594.594,0,0,0,.406.169.586.586,0,0,0,.407-.169.578.578,0,0,0,.168-.406.6.6,0,0,0-.168-.406l-.917-.929a.583.583,0,0,0-.825,0,.586.586,0,0,0-.171.412.606.606,0,0,0,.171.413"/>
    <path id="Path_1348" data-name="Path 1348" d="M166.15,172.178a.822.822,0,0,0,0-1.644.822.822,0,0,0,0,1.644"/>
    <path id="Path_1349" data-name="Path 1349" d="M162.459,173.521a.628.628,0,0,0,0-1.255.628.628,0,0,0,0,1.255"/>
    <path id="Path_1350" data-name="Path 1350" d="M320.241,88.242a20.928,20.928,0,0,1,14.615,7.588c.816.974,2.174-.419,1.387-1.388a19.642,19.642,0,0,0-16-7,.4.4,0,0,0,0,.8"/>
    <path id="Path_1351" data-name="Path 1351" d="M310.523,88.046l2.451.647a.8.8,0,0,0,.423-1.535l-2.484-.527a.734.734,0,0,0-.39,1.415"/>
    <path id="Path_1352" data-name="Path 1352" d="M332.2,97.52l2.443,1.876a.725.725,0,0,0,.558.073.727.727,0,0,0,.507-.892.834.834,0,0,0-.334-.433l-2.478-1.815a.69.69,0,0,0-1.013.779.817.817,0,0,0,.317.412"/>
    <path id="Path_1353" data-name="Path 1353" d="M213.637,240.132a4.286,4.286,0,0,1-.469-1.881,3.881,3.881,0,0,1,.633-1.882,8.871,8.871,0,0,1,3.053-2.747c.828-.472,2.241-1.085,3.079-.319s.606,2.311.219,3.218a4.534,4.534,0,0,1-2.5,2.385,1,1,0,0,0-.679,1.2.985.985,0,0,0,1.2.679,5.517,5.517,0,0,0,3.52-3.248,5.082,5.082,0,0,0-.239-4.782c-2.28-3.151-6.849.266-8.39,2.487a5.337,5.337,0,0,0-.969,2.7,3.3,3.3,0,0,0,.825,2.619c.293.252.9.019.724-.421"/>
    <path id="Path_1354" data-name="Path 1354" d="M233.1,230.015a2.029,2.029,0,0,1-.854-.721,2.7,2.7,0,0,1-.143-.242c-.028-.052-.054-.1-.079-.159-.055-.119.05.144-.027-.066a2.968,2.968,0,0,1-.1-.3c-.015-.058-.03-.116-.041-.174,0-.006-.036-.229-.019-.091a3.389,3.389,0,0,1-.009-.637c.013-.223-.018.085.006-.045.011-.058.022-.115.035-.173a3.362,3.362,0,0,1,.1-.337c-.058.159.026-.052.036-.071.021-.042.043-.084.067-.125a3.276,3.276,0,0,1,.206-.315c-.087.115.08-.085.113-.12s.088-.088.134-.13c.023-.022.224-.184.09-.084a3.786,3.786,0,0,1,.579-.343c.143-.073.038-.017,0,0,.071-.027.14-.053.213-.076a3.5,3.5,0,0,1,.365-.1c.062-.013.125-.022.187-.034.142-.027-.2.007.033,0,.1,0,.2-.013.3-.013.128,0,.253.012.379.019-.176-.01-.054-.009-.01,0,.086.018.172.034.256.056.112.028.218.065.325.1.224.075-.1-.063.033.015.063.036.131.064.194.1a2.969,2.969,0,0,1,.293.187c-.144-.105.074.067.084.076.063.059.121.122.179.186.026.027.091.139.013.015.037.059.067.13.109.185.082.106-.045-.179.025.051.017.055.034.109.049.165,0,0,.036.269.026.125s0,.132,0,.128c0,.057,0,.114-.007.172-.014.26.052-.172-.015.08-.019.07-.034.141-.055.211-.008.029-.1.28-.054.169.056-.138-.061.123-.059.119-.041.079-.086.156-.132.231-.032.05-.066.1-.1.147-.07.1-.069.1,0,0-.029.037-.061.073-.093.109-.116.13-.237.259-.362.382s-.235.218-.357.32c.012-.009-.235.185-.12.1.055-.043.039-.031-.048.034s-.2.144-.29.22c-.261.228-.506.478-.762.711a.871.871,0,0,0-.134,1.04.861.861,0,0,0,.969.394,9.315,9.315,0,0,0,1.191-.506,5.979,5.979,0,0,0,1.045-.817A4.262,4.262,0,0,0,238.1,228.1a3.222,3.222,0,0,0-.347-2.491,3.8,3.8,0,0,0-1.884-1.457c-2.534-.954-5.823.941-5.517,3.825a3.616,3.616,0,0,0,2.431,3.164.592.592,0,0,0,.718-.407.6.6,0,0,0-.408-.718"/>
    <path id="Path_1355" data-name="Path 1355" d="M249.389,222.744a3.23,3.23,0,0,1-.517-1.912c0-.094.009-.187.016-.281q0-.06.012-.12c0,.036-.025.137,0-.025a5.438,5.438,0,0,1,.124-.549c.025-.09.054-.18.085-.269.014-.039.1-.276.045-.132a5.255,5.255,0,0,1,.247-.506c.091-.166.2-.32.3-.477.1-.14-.058.058.053-.068.07-.08.138-.161.212-.238a4.192,4.192,0,0,1,.412-.376c-.127.1.011,0,.065-.04.088-.059.179-.114.271-.166s.166-.085.25-.127-.036.014-.047.019c.05-.02.1-.039.151-.057.09-.031.182-.059.274-.083.067-.017.134-.031.2-.047.05-.011.152-.028.042-.013a2.948,2.948,0,0,1,.721-.006c-.161-.018.08.022.129.034.066.017.129.037.194.057s.13.058.031.009a1.929,1.929,0,0,1,.346.209c-.151-.119.074.1.114.141-.022-.025-.073-.137-.039-.041a1.359,1.359,0,0,0,.111.19c.012.021.061.152.017.03-.052-.144.03.117.03.119a1.066,1.066,0,0,0,.029.127c.048.1,0-.216,0,.009a.5.5,0,0,0,0,.128c.042.109.033-.155.014-.04s-.054.217-.075.327.012-.05.026-.066c-.052.061-.092.148-.141.213A1.062,1.062,0,0,0,254.759,220a2.772,2.772,0,0,0-.121-3.794,3.742,3.742,0,0,0-3.865-.755,5.3,5.3,0,0,0-3.472,4.9,4.893,4.893,0,0,0,1.047,3.2c.464.6,1.44-.174,1.041-.8"/>
    <path id="Path_1356" data-name="Path 1356" d="M268.876,208.052l-.079,0c-.065-.007-.052-.005.04.006,0-.006-.137-.028-.151-.032-.037-.009-.074-.021-.11-.033a.768.768,0,0,1-.072-.027c.083.036.1.041.037.014s-.09-.046-.133-.074l-.032-.022c-.052-.039-.041-.03.033.026,0-.028-.168-.155-.2-.185s-.064-.085-.1-.118c.13.115.029.032-.006-.026-.047-.079-.079-.167-.126-.244.109.179.024.057,0-.009-.013-.037-.024-.074-.035-.111s-.026-.1-.037-.152c-.006-.032-.033-.21-.011-.049s0-.015,0-.047c0-.051,0-.1,0-.154,0-.09.012-.179.016-.268-.013.289-.018.122,0,.04.009-.037.018-.074.03-.111.025-.082.114-.221-.023.032.021-.039.038-.081.06-.12s.046-.079.072-.117c.122-.181-.128.141-.029.037.059-.062.121-.118.183-.177-.22.21-.125.092-.047.041.031-.02.061-.038.093-.056.084-.047.172-.088.26-.127l-.233.1a2.158,2.158,0,0,1,.529-.143l-.262.035a2.385,2.385,0,0,1,.591,0l-.264-.036a2.29,2.29,0,0,1,.532.144l-.24-.1a2.064,2.064,0,0,1,.408.234c-.068-.053-.136-.106-.205-.158a1.807,1.807,0,0,1,.308.3l-.16-.206a1.734,1.734,0,0,1,.156.249,1.033,1.033,0,0,0,1.4.368,1.046,1.046,0,0,0,.368-1.4,3.017,3.017,0,0,0-3.98-1.037,2.487,2.487,0,0,0-1.246,1.943,2.825,2.825,0,0,0,2.658,2.942.583.583,0,0,0,0-1.167"/>
    <path id="Path_1357" data-name="Path 1357" d="M279.383,266.312c-5.927,13.6,1.141,28.443,11.015,38.1a.69.69,0,0,0,.975-.975c-4.536-4.831-8.648-10.128-10.942-16.414-2.345-6.425-2.678-13.7.051-20.065.319-.743-.771-1.394-1.1-.642"/>
    <path id="Path_1358" data-name="Path 1358" d="M241.252,280.35a22.344,22.344,0,0,1-4.191,4.121.557.557,0,1,0,.675.875,38.238,38.238,0,0,0,4.057-4.578c.23-.313-.3-.723-.541-.418"/>
    <path id="Path_1359" data-name="Path 1359" d="M244.449,281l-3.073,3.618a45.888,45.888,0,0,0-3.022,3.69c-.4.59.483,1.236.972.75a44.824,44.824,0,0,0,3.014-3.576l2.959-3.632a.619.619,0,0,0,0-.85.606.606,0,0,0-.85,0"/>
    <path id="Path_1360" data-name="Path 1360" d="M252.54,276.759q-2.751,2.823-5.5,5.645c-.892.914-1.78,1.832-2.675,2.743-.46.469-.925.932-1.388,1.4a3.186,3.186,0,0,0-1.136,1.594.591.591,0,0,0,.717.717,2.917,2.917,0,0,0,1.464-1.111c.443-.485.884-.973,1.33-1.456.891-.966,1.792-1.923,2.688-2.885l5.376-5.77c.542-.581-.317-1.448-.875-.875"/>
    <path id="Path_1361" data-name="Path 1361" d="M263.093,271.169c-3.277,3.51-6.535,7.04-9.886,10.481s-6.756,6.826-10.049,10.316l1.656,1.278q.422-.579.842-1.159c.625-.859-.674-1.683-1.388-1.071l-1.11.952c-1.027.881.567,2.5,1.491,1.491,3.244-3.547,6.378-7.2,9.565-10.8s6.468-7.108,9.729-10.637c.524-.567-.32-1.417-.85-.85"/>
    <path id="Path_1362" data-name="Path 1362" d="M268.678,268.242c-6.834,8.833-13.958,17.4-21.117,25.966l1.843,1.073q.184-.606.37-1.211c.409-1.339-1.628-1.872-2.08-.573q-.209.6-.416,1.2c-.35,1.005,1.151,1.932,1.843,1.072,7.046-8.758,13.833-17.745,20.626-26.7.463-.61-.6-1.436-1.069-.825"/>
    <path id="Path_1363" data-name="Path 1363" d="M272.01,269.042c-3.678,4.561-7.346,9.131-11.048,13.672l-5.473,6.713a67.334,67.334,0,0,0-5.443,6.78l2,.542q.05-.842.1-1.682c.059-1-1.42-1.135-1.7-.23q-.254.813-.508,1.627a1.082,1.082,0,0,0,1.795,1.045,65.364,65.364,0,0,0,5.174-6.676l5.4-7.078c3.555-4.656,7.146-9.284,10.726-13.92.45-.583-.561-1.371-1.027-.793"/>
    <path id="Path_1364" data-name="Path 1364" d="M275.881,267.379c-7.535,9.7-14.758,19.645-21.307,30.035-.827,1.311,1.2,2.452,2.057,1.2,1.258-1.83,2.478-3.685,3.684-5.55.745-1.151-1.018-2.1-1.8-1.053-1.334,1.785-2.656,3.579-3.939,5.4l2.057,1.2a340.521,340.521,0,0,1,20.277-30.445c.444-.588-.571-1.379-1.027-.793"/>
    <path id="Path_1365" data-name="Path 1365" d="M275.012,272.235c-6.272,9.351-12.7,18.6-18.947,27.963-.651.977.66,2.326,1.642,1.642l1.747-1.216a1.035,1.035,0,0,0-1.044-1.786l-1.914.93q.82.82,1.642,1.642c5.994-9.507,11.8-19.127,17.775-28.649.359-.573-.53-1.079-.9-.526"/>
    <path id="Path_1366" data-name="Path 1366" d="M274.385,280.2q-7.094,9.207-13.447,18.961c-.606.931.617,2.2,1.557,1.557a10.531,10.531,0,0,0,3.207-3.484c.528-.912-.823-2.055-1.513-1.168a13.068,13.068,0,0,1-2.844,2.686l1.559,1.557a223.651,223.651,0,0,1,12.9-19.28c.637-.851-.786-1.652-1.421-.829"/>
    <path id="Path_1367" data-name="Path 1367" d="M277.961,281.35a129.329,129.329,0,0,0-15.4,21.22A1.187,1.187,0,0,0,264.421,304l2.108-1.779c1.123-.947-.473-2.45-1.588-1.588q-1.1.849-2.192,1.7l1.857,1.432a126.454,126.454,0,0,1,14.48-21.288c.657-.773-.441-1.9-1.125-1.125"/>
    <path id="Path_1368" data-name="Path 1368" d="M279.21,285.581A47.783,47.783,0,0,0,269,299.894a1.136,1.136,0,0,0,1.54,1.54l1.311-.651c1.284-.638.16-2.5-1.116-1.908l-1.331.615,1.54,1.54a64.959,64.959,0,0,1,4.039-7.585,49.34,49.34,0,0,1,5.29-6.8c.655-.708-.373-1.747-1.063-1.063"/>
    <path id="Path_1369" data-name="Path 1369" d="M281.371,289.013a47.33,47.33,0,0,0-8.326,11.2,1.146,1.146,0,0,0,.4,1.546,2.3,2.3,0,0,0,2.774-.4,1.079,1.079,0,0,0-1.526-1.525c-.029.027.222.164-.107-.027q.2.774.406,1.547a42.5,42.5,0,0,1,7.537-11.177c.724-.77-.412-1.914-1.163-1.163"/>
    <path id="Path_1370" data-name="Path 1370" d="M283.159,291.655a21.425,21.425,0,0,0-3.928,4.918,13.809,13.809,0,0,0-2.177,6.054,1.039,1.039,0,0,0,.905,1.025,1.061,1.061,0,0,0,1.144-.747c.348-.9.545-1.869.837-2.793a18.775,18.775,0,0,1,1.044-2.615,19.787,19.787,0,0,1,3.263-4.754.77.77,0,0,0-1.088-1.088"/>
    <path id="Path_1371" data-name="Path 1371" d="M284.953,297.855a8.5,8.5,0,0,0-2.386,2.694,5.257,5.257,0,0,0-.883,3.626.8.8,0,0,0,.669.576.794.794,0,0,0,.8-.384,4.035,4.035,0,0,0,.274-.83c.054-.261.1-.524.165-.783a7.355,7.355,0,0,1,.213-.726c.023-.066.048-.132.071-.2s.042-.11.006-.024c.055-.13.118-.256.181-.381a6.5,6.5,0,0,1,1.874-2.293.814.814,0,0,0-.986-1.277"/>
    <path id="Path_1372" data-name="Path 1372" d="M286.544,303.13q-.027,1.062-.053,2.125a.919.919,0,0,0,1.569.65.937.937,0,0,0,.27-.65q-.027-1.062-.053-2.125a.9.9,0,0,0-.254-.613.867.867,0,0,0-1.479.613"/>
    <path id="Path_1373" data-name="Path 1373" d="M293.36,308.715a.911.911,0,0,0,0-1.821.911.911,0,0,0,0,1.821"/>
    <path id="Path_1374" data-name="Path 1374" d="M298.885,311.672a.894.894,0,0,0,0-1.786.894.894,0,0,0,0,1.786"/>
    <path id="Path_1375" data-name="Path 1375" d="M339.206,282.021a74.73,74.73,0,0,0-2.947,7.98c-.614,2.012-1.749,4.8-.007,6.558a.989.989,0,0,0,1.391,0c2.365-2.91,4.6-5.931,6.868-8.919l-2.034-.551q-.189,2.471-.38,4.94c-.092,1.19-.453,2.625,0,3.776a1.749,1.749,0,0,0,2.874.671,14.176,14.176,0,0,0,2.66-3.247,9.253,9.253,0,0,0,1-1.7q.4-.271-.16-.327c-.123-.094-.154-.14-.093-.137-.006,0,.005.476,0,.519a4.154,4.154,0,0,0,.228,2.458c.694,1.168,2.085.967,3.1.392a14.06,14.06,0,0,0,3.926-2.992.909.909,0,0,0-.877-1.507,13.228,13.228,0,0,0-3.691,1.975c-.133.09-.846.487-.84.57,0,.029.464.316.424.347a6.309,6.309,0,0,0,.041-.97,2.9,2.9,0,0,0-.494-2.181,1.957,1.957,0,0,0-2.6-.31c-.944.617-1.353,1.795-1.929,2.71a14.836,14.836,0,0,1-1.028,1.45c-.2.248-.409.488-.624.722-.143.157-.289.31-.438.461l.6.315a4.439,4.439,0,0,1-.046-.531c0-.346.05-.713.074-1.058q.075-1.059.153-2.117.153-2.117.307-4.234c.087-1.2-1.455-1.321-2.034-.551-2.2,2.925-4.431,5.832-6.527,8.83l1.544-.2c-.675-.59-.532-1.567-.4-2.371.2-1.2.468-2.4.758-3.58a47.235,47.235,0,0,1,2.255-6.754c.246-.6-.791-1.04-1.05-.443"/>
    <path id="Path_1376" data-name="Path 1376" d="M412.941,359.231q-.179,3.035-.172,6.077a45.851,45.851,0,0,0,.283,6.056c.128.928,1.628.689,1.615-.219-.027-1.984-.237-3.968-.289-5.954s-.04-3.974.03-5.96c.034-.948-1.412-.937-1.467,0"/>
    <path id="Path_1377" data-name="Path 1377" d="M413.287,348.816a104.169,104.169,0,0,0-2.867,13.27,60.285,60.285,0,0,0-.708,6.24,4.563,4.563,0,0,0,1.639,4.21c1.008.734,2.108-.832,1.3-1.68-1.088-1.137-.761-3.011-.673-4.435q.172-2.794.516-5.576a81.4,81.4,0,0,1,2.348-11.6.8.8,0,0,0-1.551-.428"/>
    <path id="Path_1378" data-name="Path 1378" d="M408.414,347.6c-.755,3.545-1.351,7.14-1.761,10.741-.2,1.771-.314,3.554-.387,5.335-.071,1.747-.408,3.93.113,5.613a1.034,1.034,0,0,0,1.978,0c.367-1.63.007-3.533-.01-5.2-.017-1.78.034-3.558.1-5.336a78.829,78.829,0,0,1,1.142-10.827c.135-.762-1.011-1.1-1.176-.324"/>
    <path id="Path_1379" data-name="Path 1379" d="M404.408,349.254a60.506,60.506,0,0,0-1.753,7.879q-.3,1.959-.479,3.932c-.108,1.225-.507,2.894.3,3.919a.929.929,0,0,0,1.312,0c.794-.97.479-2.581.521-3.777q.069-1.911.263-3.814a55.616,55.616,0,0,1,1.372-7.716.8.8,0,0,0-1.534-.423"/>
    <path id="Path_1380" data-name="Path 1380" d="M398.791,354.329c-.228,1.17-.394,2.361-.52,3.546q-.092.852-.128,1.707c-.025.589.01,1.185-.028,1.773a1.069,1.069,0,1,0,2.1-.285,11.659,11.659,0,0,1-.106-1.488q-.033-.82-.017-1.641a19.286,19.286,0,0,1,.335-3.161.873.873,0,0,0-.593-1.044.857.857,0,0,0-1.044.593"/>
    <path id="Path_1381" data-name="Path 1381" d="M395.784,357.758a.654.654,0,0,0,0-1.308.654.654,0,0,0,0,1.308"/>
    <path id="Path_1382" data-name="Path 1382" d="M395.75,356.855l-.831-.457a.806.806,0,0,0-.593-.078.86.86,0,0,0-.46.354.776.776,0,0,0-.077.592c.026.062.052.123.077.184a.777.777,0,0,0,.276.276l.867.4a.54.54,0,0,0,.273.087.658.658,0,0,0,.542-.144.559.559,0,0,0,.189-.206.74.74,0,0,0,.074-.565.75.75,0,0,0-.337-.439"/>
    <path id="Path_1383" data-name="Path 1383" d="M369.988,309.168c4.31,2.337,8.517,4.831,12.673,7.431,4.131,2.584,8.1,5.612,12.433,7.835.756.388,1.7-.648.964-1.25-3.76-3.067-8.228-5.354-12.444-7.737-4.334-2.45-8.725-4.806-13.117-7.149-.572-.3-1.08.56-.509.87"/>
    <path id="Path_1384" data-name="Path 1384" d="M305.306,270.2l2.116,1.29a.769.769,0,0,0,.776-1.328l-2.133-1.26a.752.752,0,1,0-.759,1.3"/>
    <path id="Path_1385" data-name="Path 1385" d="M311.719,246.95c2.535,2.15,5.326,4.475,8.712,5.015,3.332.531,6.382-1,8.931-3.013,2.9-2.292,5.127-5.31,8.439-7.074a18.7,18.7,0,0,1,10.8-1.789c.679.072.808-1.021.16-1.18a16.633,16.633,0,0,0-9.52.548A23.416,23.416,0,0,0,331,244.848c-2.46,2.3-5.071,4.966-8.566,5.475-3.779.551-7.109-2-9.892-4.2-.577-.456-1.406.333-.825.825"/>
    <path id="Path_1386" data-name="Path 1386" d="M355.41,240.513a.283.283,0,0,0,0-.566.283.283,0,0,0,0,.566"/>
    <path id="Path_1387" data-name="Path 1387" d="M309.44,251.705q.39,3.612.779,7.225a.583.583,0,0,0,.566.566.569.569,0,0,0,.566-.566l-.921-7.225a.512.512,0,0,0-.495-.495.5.5,0,0,0-.495.495"/>
    <path id="Path_1388" data-name="Path 1388" d="M314.011,248.73c-.222,4.675-.544,9.348-.719,14.025-.042,1.125,1.724,1.127,1.75,0,.11-4.673.072-9.351.136-14.025a.584.584,0,0,0-1.167,0"/>
    <path id="Path_1389" data-name="Path 1389" d="M316.974,252.129c.118,4.25.169,8.5.22,12.75.012,1.084,1.739,1.076,1.679,0-.238-4.25-.474-8.5-.644-12.75-.032-.8-1.277-.811-1.255,0"/>
    <path id="Path_1390" data-name="Path 1390" d="M322.1,249.582c-.575,5.814-1.221,11.619-1.864,17.425-.109.986,1.472,1,1.556,0,.488-5.811.972-11.62,1.528-17.425.075-.782-1.143-.775-1.22,0"/>
    <path id="Path_1391" data-name="Path 1391" d="M325.807,247.446q-.609,4.78-1.219,9.561c-.4,3.171-1.04,6.367-1.177,9.561-.042.969,1.539,1.214,1.719.233.576-3.156.674-6.415.984-9.606l.948-9.749c.079-.812-1.155-.784-1.255,0"/>
    <path id="Path_1392" data-name="Path 1392" d="M330.044,244.708c-.97,6.255-1.907,12.579-2.337,18.9-.082,1.2,1.758,1.18,1.856,0,.519-6.191,1-12.352,1.913-18.5.139-.933-1.285-1.34-1.432-.4"/>
    <path id="Path_1393" data-name="Path 1393" d="M334.355,240.132q-.876,5.155-1.777,10.306l-.9,5.15-.414,2.377a8.925,8.925,0,0,0-.29,2.614c.08.629,1.02,1.114,1.367.371.682-1.461.667-3.347.885-4.935q.359-2.6.716-5.2.715-5.2,1.451-10.4c.1-.673-.923-.978-1.04-.287"/>
    <path id="Path_1394" data-name="Path 1394" d="M339.424,240.465c-.873,3.815-1.82,7.619-2.615,11.451-.232,1.119,1.475,1.6,1.722.475.84-3.829,1.53-7.7,2.291-11.541.18-.907-1.188-1.3-1.4-.385"/>
    <path id="Path_1395" data-name="Path 1395" d="M343.654,243.433q-.223.848-.444,1.694a.869.869,0,0,0,.084.641.831.831,0,0,0,1.519-.2l.375-1.713a.849.849,0,0,0-.08-.613.814.814,0,0,0-.475-.366.8.8,0,0,0-.979.556"/>
    <path id="Path_1396" data-name="Path 1396" d="M348.61,242.681a.752.752,0,0,0,0-1.5.752.752,0,0,0,0,1.5"/>
    <path id="Path_1397" data-name="Path 1397" d="M389.308,300.919c5.542,2.7,15.552,8.29,21.831,5.027,2.74-1.424,2.763-4.263,3.631-6.862,2.327-6.968,9.065-5.751,15-5.031,2.43.294,2.927-3.713.576-4.254-6.078-1.4-13.975-1.952-18.172,3.709a11.185,11.185,0,0,0-1.685,3.5c-.946,3.033-.584,4.442-4.033,5.077-4.577.842-11.189-2.762-15.178-4.541-2.257-1.006-4.259,2.261-1.972,3.374"/>
    <path id="Path_1398" data-name="Path 1398" d="M377.1,234.851c7.553.947,13.85,6.33,17.294,12.93,4.024,7.712,4.423,16.743,3.412,25.223-.637,5.346-1.891,10.576-3.022,15.832-.224,1.04,1.358,1.487,1.6.441,3.87-16.541,7.573-38.659-7.687-50.863a22.842,22.842,0,0,0-11.6-4.977c-.9-.108-.891,1.3,0,1.414"/>
    <path id="Path_1399" data-name="Path 1399" d="M398.559,295.255l1.275,1.275a.912.912,0,0,0,.625.259.9.9,0,0,0,.625-.259.886.886,0,0,0,.259-.625.919.919,0,0,0-.259-.625l-1.275-1.275a.912.912,0,0,0-.625-.259.884.884,0,0,0-.884.884.925.925,0,0,0,.259.625"/>
    <path id="Path_1400" data-name="Path 1400" d="M404.811,202.692a25.035,25.035,0,0,0-6.865,7.56.877.877,0,0,0,.98,1.274c2.112-.756,4.218-1.578,6.25-2.532q1.512-.711,3.008-1.455c1.111-.553,2.167-1.247,3.311-1.728l-.5-1.177a28.089,28.089,0,0,0-7.549,6.151c-.509.579-.032,1.7.818,1.4,3.182-1.125,6.221-2.523,9.3-3.885l-1.063-1.063a41.721,41.721,0,0,1-3.437,4.956c-.626.773.2,2.2,1.164,1.509a8.641,8.641,0,0,1,3.77-1.562l-1.266-1.266a3.561,3.561,0,0,0,2.025,3.94,3.3,3.3,0,0,0,4.158-1.44c.539-.937-.793-2.055-1.541-1.189-1.049,1.214-2.838.657-2.62-1.037.093-.722-.728-1.1-1.3-.993a9.7,9.7,0,0,0-4.387,2.038l1.509,1.165a43.1,43.1,0,0,0,3.27-5.337.783.783,0,0,0-1.063-1.063,90.755,90.755,0,0,1-8.967,3.607l.817,1.4a38.348,38.348,0,0,1,7.011-6.227.644.644,0,0,0-.65-1.112,51.535,51.535,0,0,1-6.329,2.684c-2.076.826-4.137,1.691-6.205,2.535l.979,1.274a21.31,21.31,0,0,1,6.081-7.214c.716-.538.026-1.762-.714-1.221"/>
    <path id="Path_1401" data-name="Path 1401" d="M402.414,197.131l-3.841,3.385a.827.827,0,0,0,0,1.162.84.84,0,0,0,1.163,0l3.8-3.422a.8.8,0,0,0,0-1.125.815.815,0,0,0-1.125,0"/>
    <path id="Path_1402" data-name="Path 1402" d="M392.882,196.455v.85a.6.6,0,0,0,.066.3.8.8,0,0,0,.712.478l.206-.028a.782.782,0,0,0,.344-.2.811.811,0,0,0,.228-.55v-.85a.606.606,0,0,0-.067-.3.6.6,0,0,0-.161-.25.862.862,0,0,0-.55-.228l-.207.028a.782.782,0,0,0-.344.2.81.81,0,0,0-.227.55"/>
    <path id="Path_1403" data-name="Path 1403" d="M418.685,228.8a11.438,11.438,0,0,1,3.564,5.254.777.777,0,0,0,.936.531.769.769,0,0,0,.531-.936,12.749,12.749,0,0,0-4.081-5.8.693.693,0,0,0-.95,0,.677.677,0,0,0,0,.95"/>
    <path id="Path_1404" data-name="Path 1404" d="M419.125,310.15c.523-.308.985-.7,1.528-.981a7.527,7.527,0,0,1,1.672-.623,8.506,8.506,0,0,1,3.442-.093.9.9,0,0,0,1.077-.611.886.886,0,0,0-.611-1.077,8.458,8.458,0,0,0-4.349.182,7.487,7.487,0,0,0-3.715,2.247c-.446.578.4,1.285.956.956"/>
    <path id="Path_1405" data-name="Path 1405" d="M421.36,315.456a4.883,4.883,0,0,1,.906-.542c.124-.058-.009.016-.058.024a.838.838,0,0,0,.123-.047c.083-.03.166-.059.251-.084a4.64,4.64,0,0,1,.547-.132l.131-.022c.138-.025-.221.021-.082.011.088-.006.176-.017.264-.021.175-.01.353-.01.529-.005.088,0,.176.007.264.014.044,0,.088.01.132.013.141.011-.228-.037-.088-.011a4.515,4.515,0,0,0,.48.057c.043,0,.086.009.129.012.131.008-.27-.041-.044-.006a1.027,1.027,0,0,0,1.189-.584.994.994,0,0,0-.412-1.258,4.238,4.238,0,0,0-.741-.279,5.1,5.1,0,0,0-.81-.094,5.3,5.3,0,0,0-1.43.15,5.74,5.74,0,0,0-2.458,1.277.973.973,0,0,0,1.178,1.527"/>
    <path id="Path_1406" data-name="Path 1406" d="M423.038,322.222l1.27-.859a.966.966,0,0,0,.419-.544.69.69,0,0,0,.016-.363.665.665,0,0,0-.108-.338.91.91,0,0,0-1.246-.327l-1.288.828a.979.979,0,0,0-.427.555.706.706,0,0,0-.016.37.686.686,0,0,0,.11.345.927.927,0,0,0,1.27.333"/>
    <path id="Path_1407" data-name="Path 1407" d="M433.883,338.329a2.955,2.955,0,0,0-.99,1.279,5.39,5.39,0,0,0-.448,1.649,4.658,4.658,0,0,0,.086,1.475,3.375,3.375,0,0,0,.756,1.526,1.092,1.092,0,0,0,1.318.17,1.284,1.284,0,0,0,.39-.39,1.077,1.077,0,0,0,.11-.837,4.834,4.834,0,0,0-.3-.722c.019.03.094.242.044.1-.013-.04-.028-.078-.041-.117-.03-.089-.055-.178-.078-.269s-.047-.18-.065-.271c-.008-.041-.015-.081-.023-.122-.041-.22.02.214.011.081a5.234,5.234,0,0,1-.02-.56c0-.083.012-.165.017-.248.01-.137-.044.263-.01.072.007-.041.014-.082.022-.123a3.7,3.7,0,0,1,.146-.539,1.02,1.02,0,0,0,.044-.116c-.018.078-.092.206-.02.052.035-.075.072-.149.113-.222.094-.17.231-.322.309-.5a1.036,1.036,0,0,0-.156-1.211,1.017,1.017,0,0,0-1.211-.156"/>
    <path id="Path_1408" data-name="Path 1408" d="M439.576,336.706a13.807,13.807,0,0,0-.1,2.618,9.389,9.389,0,0,0,.462,2.727.911.911,0,1,0,1.756-.484c-.07-.417-.166-.824-.248-1.239q-.062-.309-.108-.621l-.021-.143c.012.083.011.068,0-.046-.01-.1-.022-.193-.031-.29a13.974,13.974,0,0,1-.008-2.522.852.852,0,0,0-.848-.849.876.876,0,0,0-.849.849"/>
    <path id="Path_1409" data-name="Path 1409" d="M445.983,334.375q.417,1.7.833,3.4a.856.856,0,0,0,1.044.592.866.866,0,0,0,.593-1.044l-.867-3.395a.831.831,0,0,0-1.6.442"/>
    <path id="Path_1410" data-name="Path 1410" d="M457.467,327.989a142.435,142.435,0,0,0-10.211,25.676c-1.26,4.448-2.289,8.966-3.1,13.517a32.423,32.423,0,0,0-.659,6.148c.026,1.83.207,4.129,1.5,5.537.392.427,1.321.123,1.237-.512-.126-.957-.49-1.847-.683-2.792a13.837,13.837,0,0,1-.231-3.075,41.235,41.235,0,0,1,.823-6.431c.772-4.251,1.753-8.455,2.882-12.625a147.219,147.219,0,0,1,9.192-25.006c.238-.5-.494-.938-.748-.437"/>
    <path id="Path_1411" data-name="Path 1411" d="M445.555,377.285a1.717,1.717,0,0,0-.895.1,7.722,7.722,0,0,0-.858.277,17.619,17.619,0,0,0-1.7.745,14.938,14.938,0,0,0-3,2.065.841.841,0,0,0,1.017,1.319c.913-.69,1.85-1.351,2.818-1.963.468-.3.935-.6,1.42-.868.25-.139.495-.281.74-.428a1.978,1.978,0,0,0,.739-.568.463.463,0,0,0-.274-.675"/>
    <path id="Path_1412" data-name="Path 1412" d="M179.257,205.287a21.852,21.852,0,0,1-.015,7.643.754.754,0,0,0,.512.9.74.74,0,0,0,.9-.512,22.005,22.005,0,0,0-.138-8.381c-.173-.83-1.409-.472-1.262.348"/>
    <path id="Path_1413" data-name="Path 1413" d="M176.62,205.807a29.222,29.222,0,0,1-.222,8.851.748.748,0,1,0,1.476.2,34.531,34.531,0,0,0-.282-9.183c-.091-.544-1.04-.423-.972.132"/>
    <path id="Path_1414" data-name="Path 1414" d="M170.906,209.811a19.186,19.186,0,0,1-.024,8.333.85.85,0,0,0,.58,1.022.837.837,0,0,0,1.022-.581,22.746,22.746,0,0,0-.385-9.1c-.191-.775-1.366-.447-1.193.329"/>
    <path id="Path_1415" data-name="Path 1415" d="M168,214.859a16.721,16.721,0,0,1-.48,5.415.612.612,0,0,0,.42.739.6.6,0,0,0,.739-.42,23.661,23.661,0,0,0,.117-5.734c-.05-.5-.836-.514-.8,0"/>
    <path id="Path_1416" data-name="Path 1416" d="M163.593,221.123l-.018,1.044a.677.677,0,0,0,.2.469.663.663,0,0,0,.937,0,.679.679,0,0,0,.194-.469c-.006-.348-.011-.7-.017-1.044a.671.671,0,0,0-.189-.456.658.658,0,0,0-.457-.189.647.647,0,0,0-.456.189.678.678,0,0,0-.189.456"/>
    <path id="Path_1417" data-name="Path 1417" d="M161.1,226.589a.593.593,0,0,0,0-1.185.593.593,0,0,0,0,1.185"/>
    <path id="Path_1418" data-name="Path 1418" d="M160.159,226.961l-1.044.7a.526.526,0,0,0-.228.3.51.51,0,0,0,.05.382.5.5,0,0,0,.3.227.492.492,0,0,0,.381-.05l1.045-.7a.529.529,0,0,0,.227-.3.5.5,0,0,0-.346-.609.5.5,0,0,0-.381.05"/>
    <path id="Path_1419" data-name="Path 1419" d="M157.624,230.533a.707.707,0,0,0,0-1.414.707.707,0,0,0,0,1.414"/>
    <path id="Path_1420" data-name="Path 1420" d="M118.764,127.988c.889,2.8,1.637,5.631,2.515,8.429.348,1.109,2.121.615,1.739-.479-.97-2.778-2.067-5.507-3.027-8.288-.264-.768-1.477-.449-1.227.338"/>
    <path id="Path_1421" data-name="Path 1421" d="M116.443,133.669a14.232,14.232,0,0,1,1.044,4.955.817.817,0,0,0,.8.8c.393-.017.859-.357.805-.8a16.524,16.524,0,0,0-1.722-5.5.545.545,0,0,0-.738-.194.555.555,0,0,0-.193.738"/>
    <path id="Path_1422" data-name="Path 1422" d="M113.068,140.4a.734.734,0,0,0,0-1.467.734.734,0,0,0,0,1.467"/>
    <path id="Path_1423" data-name="Path 1423" d="M110.283,144.069a.92.92,0,0,0,0-1.839.92.92,0,0,0,0,1.839"/>
    <path id="Path_1424" data-name="Path 1424" d="M555.353,196.388a95.591,95.591,0,0,0-20.123,27.49c-4.209,8.748-9.35,19.72-4.919,29.24,1.23,2.642,5.12.343,3.908-2.284-4.041-8.763,2.994-21.439,7.064-29.127a104.155,104.155,0,0,1,16.558-22.831,1.76,1.76,0,0,0-2.488-2.488"/>
    <path id="Path_1425" data-name="Path 1425" d="M239.791,474.214c38.754,13.484,80.216,18.871,121.087,14.712,2.771-.282,2.826-4.636,0-4.385-40.615,3.609-81.462-.687-120.166-13.669-2.124-.712-3.014,2.614-.921,3.342"/>
    <path id="Path_1426" data-name="Path 1426" d="M441.171,482.111l5.017.009c2.434,0,2.438-3.788,0-3.784l-5.017.009a1.884,1.884,0,0,0,0,3.766"/>
    <path id="Path_1427" data-name="Path 1427" d="M31.947,197.837c3.929-2.591,7.857-5.166,11.679-7.913,2.005-1.441.171-4.764-1.972-3.374-3.951,2.562-7.781,5.287-11.626,8-1.969,1.392-.147,4.645,1.919,3.282"/>
    <path id="Path_1428" data-name="Path 1428" d="M70.415,272.321a8.717,8.717,0,0,1,6.963-5.616c2.289-.382,1.311-3.842-.959-3.477a11.831,11.831,0,0,0-9.26,8.2c-.665,2.087,2.543,2.93,3.256.9"/>
    <path id="Path_1429" data-name="Path 1429" d="M115.189,159.793c4.813-5.369,10.654-7.331,17.623-8.187a1.734,1.734,0,0,0,0-3.465c-7.674-.913-15.363,3.356-20.2,9.077-1.5,1.769,1,4.337,2.575,2.575"/>
    <path id="Path_1430" data-name="Path 1430" d="M173.028,75.148a53.365,53.365,0,0,1,16.246-4.935c2.093-.329,1.6-3.816-.5-3.7a40.942,40.942,0,0,0-17.655,5.367c-2.141,1.185-.249,4.37,1.91,3.267"/>
    <path id="Path_1431" data-name="Path 1431" d="M155.343,81.858H156.8a1.83,1.83,0,0,0,0-3.66h-1.454a1.83,1.83,0,1,0,0,3.66"/>
    <path id="Path_1432" data-name="Path 1432" d="M257.542,85.3a77.726,77.726,0,0,1,18.445-2.066,1.8,1.8,0,0,0,0-3.589,80.508,80.508,0,0,0-19.333,2.433c-2.09.511-1.2,3.727.888,3.222"/>
    <path id="Path_1433" data-name="Path 1433" d="M287.719,142.5A40.008,40.008,0,0,1,299,139.187c1.986-.315,1.544-3.756-.48-3.543a33.38,33.38,0,0,0-12.466,4c-1.889,1.023-.227,3.771,1.669,2.855"/>
    <path id="Path_1434" data-name="Path 1434" d="M247.41,297.923a77.013,77.013,0,0,0,27.928,25.1,81.558,81.558,0,0,0,17.895,6.713,69.2,69.2,0,0,1,11.45,3.6,106.274,106.274,0,0,1,9.784,5.276c24.258,14.1,48.15,29.335,74.521,39.28,14.408,5.434,29.5,9.127,44.925,9.806.957.042.952-1.437,0-1.485-27.819-1.4-53.72-12.373-77.948-25.407-12.284-6.608-24.251-13.782-36.3-20.809-6.056-3.533-12.106-7.46-18.829-9.6-3.555-1.134-7.224-1.851-10.814-2.859a73.876,73.876,0,0,1-9.1-3.205,77.647,77.647,0,0,1-32.994-26.707c-.219-.314-.737-.02-.519.3"/>
    <path id="Path_1435" data-name="Path 1435" d="M376.44,380.535a67.468,67.468,0,0,0,16.751,7.441.779.779,0,0,0,.414-1.5,64.791,64.791,0,0,1-16.487-7.1c-.742-.45-1.412.7-.678,1.16"/>
    <path id="Path_1436" data-name="Path 1436" d="M386.988,400.338l4.15,1.056a.69.69,0,0,0,.367-1.33l-4.16-1.022a.672.672,0,0,0-.357,1.3"/>
    <path id="Path_1437" data-name="Path 1437" d="M239.193,300.107a39.757,39.757,0,0,0,11.479,17.953c.56.5,1.388-.325.825-.825a39.076,39.076,0,0,1-11.315-17.4c-.2-.626-1.184-.361-.989.273"/>
    <path id="Path_1438" data-name="Path 1438" d="M238.107,316.9l3.108,5.2a.62.62,0,0,0,1.069-.625l-3.124-5.189a.61.61,0,0,0-1.053.616"/>
    <path id="Path_1439" data-name="Path 1439" d="M255.873,555.906c11.054-14.349,30.221-17.291,46.763-20.983a113.794,113.794,0,0,0,24.273-8,98.346,98.346,0,0,0,19.918-12.689c6.821-5.571,13.466-12.139,18.016-19.733.386-.645-.57-1.437-1.069-.825-5.087,6.235-10.131,12.341-16.235,17.631a98.194,98.194,0,0,1-19.889,13.349,111.722,111.722,0,0,1-24.457,8.685c-8.936,2.169-18.043,3.873-26.632,7.243-8.176,3.208-15.894,7.919-21.3,14.968-.277.361.337.713.611.357"/>
    <path id="Path_1440" data-name="Path 1440" d="M247.223,480.277q-3.5,6.7-6.334,13.724a87.694,87.694,0,0,0-4.81,14.621.593.593,0,0,0,1.142.315c1.7-4.685,3.1-9.464,4.906-14.113a149.645,149.645,0,0,1,6.241-13.878c.387-.757-.749-1.428-1.145-.669"/>
    <path id="Path_1441" data-name="Path 1441" d="M254.789,479.4a123.154,123.154,0,0,0-21.145,46.793c-.19.888,1.17,1.268,1.364.376a124.627,124.627,0,0,1,20.682-46.643c.395-.545-.509-1.062-.9-.526"/>
    <path id="Path_1442" data-name="Path 1442" d="M266.071,478.276a202.378,202.378,0,0,0-25.1,43.806,91.671,91.671,0,0,0-4.758,13.6c-.162.666.87,1.18,1.163.49,3.293-7.761,6.018-15.716,9.626-23.352a200.926,200.926,0,0,1,12.1-21.955q3.871-6.086,8.174-11.881c.537-.725-.673-1.413-1.206-.7"/>
    <path id="Path_1443" data-name="Path 1443" d="M274.41,480.366q-17.7,26.985-33.06,55.4c-2.9,5.384-5.723,10.81-8.309,16.352-.412.883.856,1.662,1.328.776,5.079-9.526,9.935-19.166,15.142-28.625q7.753-14.082,16.133-27.806,4.779-7.824,9.789-15.5c.417-.642-.606-1.233-1.023-.6"/>
    <path id="Path_1444" data-name="Path 1444" d="M280.443,482.332q-16.662,28.377-33.411,56.7c-3.12,5.3-6.268,10.582-9.292,15.937a.823.823,0,0,0,1.42.83c5.67-9.387,11.071-18.942,16.573-28.429s10.987-18.988,16.469-28.49q4.609-7.989,9.264-15.953a.593.593,0,0,0-1.023-.6"/>
    <path id="Path_1445" data-name="Path 1445" d="M289.032,486.656q-18.582,26.014-35.95,52.879-2.365,3.662-4.7,7.342a69.857,69.857,0,0,0-4.774,7.865c-.38.824.709,1.9,1.375,1.061a67.3,67.3,0,0,0,4.3-6.717q2.026-3.3,4.073-6.591,4.222-6.783,8.535-13.508,8.689-13.551,17.808-26.824,5.156-7.476,10.422-14.873c.469-.66-.618-1.286-1.084-.634"/>
    <path id="Path_1446" data-name="Path 1446" d="M300.006,480.121q-18.518,26.559-37.22,52.989l-5.163,7.332-2.725,3.87c-.43.611-.863,1.22-1.29,1.833a6.115,6.115,0,0,0-.566.819l-.267.319q.893,1.1-.572.81a.773.773,0,0,0,1.208-.932c-.794-1.554-2.909.287-2.043,1.618a1.652,1.652,0,0,0,2.1.451c1.124-.526,1.791-1.909,2.46-2.88l11.012-15.987,21.74-31.565q6.213-9.021,12.488-18c.5-.712-.669-1.383-1.16-.678"/>
    <path id="Path_1447" data-name="Path 1447" d="M302.546,488.726a421.664,421.664,0,0,0-27.176,39.739c-2.365,3.917-4.647,7.881-6.9,11.863l1.709.223a3.544,3.544,0,0,1,1.217-4.13c.68-.532-.2-1.657-.921-1.194a5.048,5.048,0,0,0-2.1,5.821.947.947,0,0,0,1.709.223,385.351,385.351,0,0,1,25.261-40.947q3.95-5.609,8.084-11.08c.4-.53-.489-1.032-.885-.518"/>
    <path id="Path_1448" data-name="Path 1448" d="M311.891,484.367a372.708,372.708,0,0,0-28.879,37.85c-2.517,3.782-5.045,7.588-7.33,11.515a1.125,1.125,0,0,0,1.758,1.356c1.5-1.265,2.981-2.544,4.434-3.864.765-.7-.266-2.087-1.125-1.458-1.658,1.214-3.279,2.464-4.891,3.739l1.758,1.356c4.165-6.676,8.239-13.38,12.686-19.878q6.73-9.832,14.125-19.189,4.172-5.256,8.539-10.352c.632-.738-.431-1.817-1.075-1.075"/>
    <path id="Path_1449" data-name="Path 1449" d="M320.223,483.355q-15.273,19.479-30.269,39.177c-2.873,3.79-5.888,7.523-8.563,11.457-.644.947.577,1.868,1.447,1.447a16.26,16.26,0,0,0,6.373-5.487c.655-.952-.858-1.78-1.527-.892a13.838,13.838,0,0,1-5.661,4.446l1.029,1.767c2.5-3.154,4.783-6.5,7.159-9.75q3.635-4.971,7.3-9.92c4.93-6.664,9.87-13.325,14.906-19.91q4.362-5.7,8.774-11.372c.53-.683-.422-1.653-.963-.963"/>
    <path id="Path_1450" data-name="Path 1450" d="M326.369,486.4c-6.225,7.819-12.424,15.661-18.679,23.456Q303,515.7,298.306,521.54c-3.066,3.816-6.374,7.538-9.193,11.54-.771,1.1.988,2.056,1.771,1.035.807-1.053,1.616-2.106,2.41-3.17.521-.7-.589-1.491-1.18-.91-.955.938-1.9,1.888-2.84,2.838l1.449,1.45c3.294-3.734,6.191-7.891,9.243-11.826q4.524-5.834,9.049-11.667c6.086-7.835,12.227-15.629,18.342-23.442.546-.7-.426-1.694-.988-.988"/>
    <path id="Path_1451" data-name="Path 1451" d="M332.605,488.477c-6.113,7.041-12,14.266-17.745,21.608-5.676,7.251-11.409,14.6-16.466,22.3-.612.932.838,2.087,1.565,1.208,1.545-1.866,3.162-3.676,4.746-5.509.737-.853-.476-2.1-1.25-1.25-1.632,1.784-3.236,3.6-4.9,5.349l1.565,1.208c5.332-7.454,10.445-15.038,15.981-22.35,5.589-7.381,11.466-14.551,17.5-21.574.582-.678-.4-1.669-.988-.988"/>
    <path id="Path_1452" data-name="Path 1452" d="M339.959,490.636a178.833,178.833,0,0,0-15.821,16.505q-3.586,4.251-6.9,8.725a76.472,76.472,0,0,0-6.424,9.594.911.911,0,0,0,1.572.919c2.215-2.966,4.138-6.144,6.287-9.162q3.346-4.7,7.006-9.161a169.929,169.929,0,0,1,15.368-16.332c.725-.679-.36-1.755-1.088-1.088"/>
    <path id="Path_1453" data-name="Path 1453" d="M341.986,494.733q-5.508,6.564-10.564,13.487-2.537,3.467-4.95,7.021a46.634,46.634,0,0,0-4.663,7.479c-.263.617.495,1.41,1.028.793a66.416,66.416,0,0,0,4.637-6.882q2.373-3.576,4.87-7.069,5.076-7.1,10.68-13.791c.6-.72-.429-1.763-1.038-1.038"/>
    <path id="Path_1454" data-name="Path 1454" d="M348.192,497.819a73.529,73.529,0,0,0-5.858,7.434,52.952,52.952,0,0,0-4.811,8.222c-.414.924.867,1.733,1.389.812,1.523-2.69,2.989-5.39,4.725-7.953a70.389,70.389,0,0,1,5.73-7.34c.71-.8-.459-1.974-1.175-1.175"/>
    <path id="Path_1455" data-name="Path 1455" d="M358.44,499.762l-7.3,6.207a1.008,1.008,0,0,0,0,1.413,1.019,1.019,0,0,0,1.413,0q3.622-3.129,7.246-6.257a.973.973,0,0,0,0-1.363.984.984,0,0,0-1.363,0"/>
    <path id="Path_1456" data-name="Path 1456" d="M238.88,474.252c-2.493,6.209-5.179,12.353-7.3,18.7-.331.99,1.293,1.7,1.713.722,2.659-6.222,4.769-12.657,7.057-19.02.336-.933-1.109-1.293-1.466-.4"/>
    <path id="Path_1457" data-name="Path 1457" d="M230.881,479.383l-2.111,4.136a.663.663,0,1,0,1.145.669q1.032-2.08,2.065-4.163a.651.651,0,0,0-.228-.87.643.643,0,0,0-.871.228"/>
    <path id="Path_1458" data-name="Path 1458" d="M228.246,475.245a.769.769,0,0,0,0-1.538.769.769,0,0,0,0,1.538"/>
    <path id="Path_1459" data-name="Path 1459" d="M249.452,585.033c2.112-2.4,4.21-4.8,6.27-7.242a.844.844,0,0,0,0-1.163.83.83,0,0,0-1.162,0c-2.147,2.363-4.25,4.759-6.346,7.167a.9.9,0,0,0,0,1.238.884.884,0,0,0,1.238,0"/>
    <path id="Path_1460" data-name="Path 1460" d="M278.654,576.818l4.155-4.155a.778.778,0,1,0-1.1-1.1l-4.155,4.155a.778.778,0,1,0,1.1,1.1"/>
    <path id="Path_1461" data-name="Path 1461" d="M110.772,351.989c11.373,16.3,23.882,33.916,42.681,42.152,9.6,4.208,20.279,4.681,29.958,8.606a30.311,30.311,0,0,1,11.859,8.541,64.434,64.434,0,0,1,7.084,10.936c4.537,8.306,8.832,17.529,17.375,22.447a.752.752,0,0,0,.758-1.3c-7.645-4.4-11.769-12.493-15.8-19.983-4.14-7.683-8.632-15.519-16.485-19.93-9.089-5.105-19.845-5.453-29.6-8.616-9.674-3.135-18.068-9.18-25.236-16.281-8.242-8.164-15.022-17.645-21.654-27.119-.4-.565-1.33-.027-.931.544"/>
    <path id="Path_1462" data-name="Path 1462" d="M224.926,454.444l4.152,1.047a.778.778,0,0,0,.414-1.5l-4.157-1.03a.769.769,0,0,0-.409,1.483"/>
    <path id="Path_1463" data-name="Path 1463" d="M30.054,182.281l10.406-4.087a.838.838,0,0,0,.568-1,.819.819,0,0,0-1-.568l-10.368,4.223a.767.767,0,0,0-.518.913.747.747,0,0,0,.913.519"/>
    <path id="Path_1464" data-name="Path 1464" d="M163.076,65.689a48.758,48.758,0,0,1,21.553-5.523c1.115-.025,1.115-1.778,0-1.732a49.223,49.223,0,0,0-22.1,6.324c-.608.34-.069,1.254.544.931"/>
    <path id="Path_1465" data-name="Path 1465" d="M128.6,314.615a136.726,136.726,0,0,1,46.733-35.1,139,139,0,0,1,15.657-6.047c.734-.233.422-1.39-.32-1.159A133.776,133.776,0,0,0,139.744,301.8a136.413,136.413,0,0,0-11.684,12.274c-.312.372.218.911.538.538"/>
    <path id="Path_1466" data-name="Path 1466" d="M187.093,287.136c2.807-2.033,5.6-4.08,8.353-6.18a.694.694,0,0,0,.241-.919.676.676,0,0,0-.919-.241c-2.829,2-5.617,4.039-8.4,6.1a.739.739,0,0,0-.257.98.722.722,0,0,0,.98.257"/>
    <path id="Path_1467" data-name="Path 1467" d="M348.844,10.3c1.42-2.333,2.838-4.664,4.189-7.038,1.4-2.459-2.317-4.622-3.786-2.213-1.423,2.331-2.776,4.7-4.129,7.074-1.378,2.418,2.282,4.548,3.726,2.177"/>
    <path id="Path_1468" data-name="Path 1468" d="M361.142,25.681l4.983-.371a2,2,0,0,0,1.954-1.954,1.968,1.968,0,0,0-1.954-1.953l-4.983.459a1.961,1.961,0,0,0-1.909,1.91,1.924,1.924,0,0,0,1.909,1.909"/>
    <path id="Path_1469" data-name="Path 1469" d="M317.643,4.668q.2,1.66.406,3.322a2.043,2.043,0,0,0,1.981,1.98,1.992,1.992,0,0,0,1.98-1.98q-.213-1.66-.424-3.322A2.035,2.035,0,0,0,319.614,2.7a1.983,1.983,0,0,0-1.971,1.971"/>
    <path id="Path_1470" data-name="Path 1470" d="M158.923,96.067a119.209,119.209,0,0,0-5.337,26.953c-.112,1.281,1.919,1.523,2.223.3,2.3-9.26,4.494-18.55,6.842-27.8a1.066,1.066,0,0,0-2.054-.566,157.616,157.616,0,0,0-5.08,29.993,1.221,1.221,0,0,0,2.387.323,210.062,210.062,0,0,1,8.584-32.124c.426-1.188-1.453-1.971-2.036-.859-2.819,5.378-4,11.471-5.025,17.4a150.454,150.454,0,0,0-1.991,18.8c-.072,1.577,2.42,1.585,2.457,0,.3-12.892,5.075-25.112,9.343-37.113l-1.664-.459a130.273,130.273,0,0,0-5.681,21.425c-.571,3.552-1,7.132-1.251,10.72q-.2,2.8-.258,5.605c-.03,1.326,0,2.647,1.033,3.617a1.193,1.193,0,0,0,2.013-.834c.18-9.694,2.665-19.021,5.241-28.3l-2.154-.594a162.324,162.324,0,0,0-3.863,29.3,1.163,1.163,0,0,0,2.275.308c.947-3.7,1.734-7.436,2.412-11.193.257-1.422-1.912-2.037-2.182-.6-.707,3.752-1.546,7.474-2.464,11.179l2.275.308a147.529,147.529,0,0,1,3.7-28.707,1.118,1.118,0,0,0-2.154-.594c-2.684,9.416-5.434,19.028-5.445,28.9l2.013-.834c-.892-.812-.421-3.2-.395-4.285q.062-2.569.241-5.134.355-5.11,1.2-10.166a101.311,101.311,0,0,1,5.1-19.655c.4-1.041-1.256-1.474-1.664-.459-4.857,12.09-9.262,24.463-10.136,37.572h2.457a129.93,129.93,0,0,1,1.772-18.18c.965-5.732,2.05-11.674,4.711-16.9l-2.036-.858a191.113,191.113,0,0,0-8.78,32.07l2.388.323a154.455,154.455,0,0,1,4.7-29.427l-2.054-.566c-2.255,9.269-4.669,18.5-6.97,27.763l2.222.3a118.22,118.22,0,0,1,4.557-26.544.77.77,0,0,0-1.483-.409"/>
    <path id="Path_1471" data-name="Path 1471" d="M169.452,109.249a139.529,139.529,0,0,0-3.125,13.7c-.391,2.223-.707,4.459-1.028,6.694-.279,1.94-.506,3.912.322,5.751.485,1.075,1.975.421,2.041-.553a53.319,53.319,0,0,1,1.256-7.382c.506-2.379,1.071-4.757,1.8-7.08l-1.94-.535c-.738,5.46-1.171,10.954-1.377,16.459a1.174,1.174,0,0,0,2.3.311c.747-2.681,1.429-5.381,2.137-8.072l-2.224-.3q-.048,5.063-.2,10.12c-.048,1.492,1.956,1.556,2.435.33.284-.727.518-1.472.78-2.207h-2.212a18.985,18.985,0,0,1,.9,3.4,1.185,1.185,0,0,0,1.969.519q.4-.438.794-.878l-1.86-.239q.531,1.2,1.067,2.4c.524,1.175,2.6.321,2.1-.885q-.5-1.212-1-2.423a1.2,1.2,0,0,0-1.98-.523q-.393.444-.785.887l1.969.52a33.332,33.332,0,0,0-.963-3.378c-.267-.847-1.672-1.236-2.1-.274-.357.812-.741,1.61-1.075,2.432l2.436.329q-.067-5.061-.012-10.12a1.138,1.138,0,0,0-2.225-.3c-.739,2.683-1.506,5.359-2.207,8.052l2.3.311c.109-5.412.483-10.805,1.015-16.191.113-1.148-1.684-1.336-1.976-.268-.663,2.427-1.338,4.844-1.882,7.3s-.852,4.953-1.382,7.4h2.112a12.591,12.591,0,0,1-.509-5.635c.158-2.172.415-4.339.683-6.5.543-4.367,1.29-8.711,2.166-13.023a.265.265,0,0,0-.511-.141"/>
    <path id="Path_1472" data-name="Path 1472" d="M171.142,82.983c-4.011,11.114-6.591,22.886-8.707,34.492-.21,1.155,1.52,2.131,2.064.87a141.362,141.362,0,0,0,5.963-16.956c1.681-5.844,2.875-11.787,4.372-17.674a.88.88,0,0,0-1.7-.468c-3.768,12.089-7.367,24.306-8.7,36.942-.133,1.269,1.889,1.5,2.2.3q2.976-11.538,5.749-23.121a.991.991,0,0,0-1.91-.527q-3.111,11.5-6,23.054l2.2.3c1.227-12.451,4.765-24.481,8.156-36.474l-1.7-.468c-1.3,5.753-2.91,11.477-4.552,17.141a128.16,128.16,0,0,1-6.037,16.817l2.063.87c.97-5.86,2.131-11.683,3.444-17.476s2.931-11.5,4.382-17.259a.673.673,0,0,0-1.3-.357"/>
    <path id="Path_1473" data-name="Path 1473" d="M174.56,86.241a127.679,127.679,0,0,0-4.643,16.986c-1.308,5.723-2.4,11.493-3.344,17.287-.231,1.419,1.8,2.057,2.2.607,2.417-8.764,5.212-17.415,8.475-25.9.526-1.369-1.644-1.928-2.183-.6a85.1,85.1,0,0,0-5.84,23.974c-.137,1.447,1.947,1.524,2.386.323q2.523-6.915,5.038-13.833l-2.421-.667q-1.422,6.911-2.631,13.862c-.279,1.614,2.191,2.307,2.472.682q1.2-6.956,2.58-13.877a1.256,1.256,0,0,0-2.421-.667q-2.482,6.925-4.959,13.854l2.385.323a82.85,82.85,0,0,1,5.594-23.372l-2.183-.6a247.1,247.1,0,0,0-8.5,25.9l2.2.607c.892-5.809,1.936-11.594,3.085-17.358s2.7-11.463,3.67-17.254a.5.5,0,0,0-.972-.268"/>
    <path id="Path_1474" data-name="Path 1474" d="M178.363,79.7a84.182,84.182,0,0,0-7.079,18.91,1.009,1.009,0,0,0,1.835.774c3.135-5.69,6.3-11.368,9.553-16.989l-1.853-1.083a90.869,90.869,0,0,0-8.314,26.271c-.176,1.139,1.516,2.158,2.068.872,3.843-8.953,7.712-17.975,13.1-26.134.808-1.225-1.16-2.365-1.963-1.148a80.775,80.775,0,0,0-11.585,27.7c-.276,1.3,1.676,2.332,2.288.965A190.935,190.935,0,0,1,191.692,82l-2.332-.984q-5.168,12.438-10.337,24.874c-.571,1.372,1.642,2.226,2.358,1,4.655-8.008,9.251-16.051,13.932-24.044l-2.32-.978-9.45,22.775c-.588,1.415,1.854,2.457,2.493,1.051a140.035,140.035,0,0,1,12.707-22.505l-2.23-1.3a128.786,128.786,0,0,0-9.457,20.253c-.532,1.465,1.66,2.262,2.436,1.027,3.993-6.358,7.9-12.778,11.946-19.1l-2.106-1.231-7.585,16.206c-.7,1.5,1.421,2.818,2.265,1.324a117.841,117.841,0,0,1,10.4-15.23l-1.424-1.1c-1.04,2.332-2.555,4.53-3.8,6.763-1.259,2.26-2.524,4.515-3.746,6.794a1.283,1.283,0,0,0,2.213,1.294c3.573-4.958,7.246-9.858,11.1-14.6l-1.887-1.456c-2.289,4.393-4.839,8.665-7.221,13.01-.7,1.284,1.132,2.887,2.124,1.638,2.9-3.652,5.653-7.4,8.512-11.082l-1.987-1.157A22.108,22.108,0,0,1,204.7,91.89c-.887,1.154,1.132,2.731,2.033,1.569,1.563-2.015,3.057-4.07,4.564-6.126l-2.369-1a29.079,29.079,0,0,1-2.23,7.8c-.632,1.408,1.447,2.643,2.092,1.222a35.653,35.653,0,0,0,2.638-8.329,1.3,1.3,0,0,0-2.369-1c-1.468,1.948-2.944,3.879-4.359,5.866l2.236,1.307a28.426,28.426,0,0,0,3.647-7.333c.366-1.08-1.241-2.092-1.986-1.156-2.9,3.635-5.885,7.182-8.744,10.851l2.124,1.639c2.342-4.371,4.529-8.842,6.961-13.162.645-1.146-.977-2.531-1.887-1.456-4.093,4.837-7.991,9.808-11.612,15.008l2.213,1.294c1.186-2.3,2.327-4.629,3.475-6.952,1.136-2.3,2.088-4.8,3.423-6.984a.91.91,0,0,0-1.424-1.1,64.71,64.71,0,0,0-11.378,15.188l2.265,1.324,7.426-16.3a1.22,1.22,0,0,0-2.106-1.231c-3.981,6.368-8.108,12.652-12.142,18.988l2.436,1.027a132.345,132.345,0,0,1,9.117-19.659,1.292,1.292,0,0,0-2.23-1.3,134.86,134.86,0,0,0-12.833,22.431l2.494,1.051,9.267-22.825c.549-1.353-1.62-2.2-2.32-.979C188.5,89.59,183.8,97.57,179.153,105.584l2.358.994Q186.663,94.137,191.82,81.7c.579-1.4-1.577-2.121-2.332-.983a183.674,183.674,0,0,0-15.24,27.859l2.288.965A78.909,78.909,0,0,1,187.67,82.323l-1.963-1.148c-5.329,8.211-9.238,17.171-13.088,26.14l2.069.872a92.115,92.115,0,0,1,7.984-25.79c.591-1.229-1.163-2.3-1.853-1.083-3.205,5.654-6.374,11.325-9.434,17.058l1.836.774a93.545,93.545,0,0,1,6.44-18.686c.4-.863-.847-1.626-1.3-.758"/>
  </g>
</svg>
