<svg id="Group_20266" data-name="Group 20266" xmlns="http://www.w3.org/2000/svg" xmlns:xlink="http://www.w3.org/1999/xlink" width="159.031" height="216.375" viewBox="0 0 159.031 216.375">
  <defs>
    <clipPath id="clip-path">
      <rect id="Rectangle_8798" data-name="Rectangle 8798" width="159.031" height="216.375" fill="none"/>
    </clipPath>
  </defs>
  <g id="Group_20265" data-name="Group 20265" clip-path="url(#clip-path)">
    <path id="Path_1994" data-name="Path 1994" d="M159.274,532.17a171.462,171.462,0,0,0-19.1,38.877c-4.744,13.819-6.613,27.952-9.765,42.129a7.145,7.145,0,0,1-1.187,3.017c-1.439,1.78-4.11,1.807-6.149,2.848a2.65,2.65,0,0,0-1.536,1.7c-.259,1.376,1.2,2.4,2.468,3.005,4.011,1.906,24.933,11.472,26.937,4.68,5.657-19.169,10.069-39.141,20.844-55.974,5.385-8.414,12.573-16.781,12.282-26.766" transform="translate(-94.737 -414.93)" fill="#fff"/>
    <path id="Path_1995" data-name="Path 1995" d="M157.392,530.722a164.439,164.439,0,0,0-21.949,48.141c-2.367,8.935-3.942,18.05-5.791,27.1-.458,2.239-.859,4.516-1.456,6.722-.64,2.366-2.243,3.134-4.423,3.787-1.361.408-3.093.832-3.914,2.112-.8,1.254-.147,2.581.912,3.424a21.338,21.338,0,0,0,4.741,2.381c2.134.935,4.292,1.818,6.479,2.623a63.277,63.277,0,0,0,7.367,2.281,20.043,20.043,0,0,0,6.419.7A4.573,4.573,0,0,0,149.535,628a21.977,21.977,0,0,0,1.432-4.617q.884-3.079,1.75-6.164c2.3-8.151,4.611-16.313,7.535-24.268a110.337,110.337,0,0,1,11.162-22.723c4.229-6.426,9.348-12.8,11.042-20.475a21.917,21.917,0,0,0,.509-5.331.462.462,0,0,0-.923,0c.107,7.82-4.188,14.556-8.408,20.8-2.185,3.236-4.385,6.452-6.31,9.853A107.225,107.225,0,0,0,162,585.955a204.121,204.121,0,0,0-7.848,22.788c-1.143,3.919-2.237,7.852-3.349,11.779q-.819,2.891-1.66,5.776a3.251,3.251,0,0,1-1.273,2.123c-1.415.9-3.42.745-5.006.564a38.211,38.211,0,0,1-7.109-1.664,102.706,102.706,0,0,1-12.118-4.784,8.912,8.912,0,0,1-2.565-1.485c-2.131-2.068,1.421-3.238,2.944-3.7a7.725,7.725,0,0,0,3.962-2.1c1.145-1.382,1.346-3.4,1.708-5.094,1.861-8.7,3.324-17.477,5.341-26.14a163.266,163.266,0,0,1,19.666-47.658q1.62-2.663,3.337-5.264c.263-.4-.378-.77-.639-.374" transform="translate(-93.174 -413.669)"/>
    <path id="Path_1996" data-name="Path 1996" d="M174.6,847.155c1.281.612,2.554,1.238,3.832,1.856.861.417,1.53.623,1.635,1.717a20.117,20.117,0,0,1-.1,2.035c-.027,2.328.1,4.923,1.263,7,2.225,3.983,7.729,5.63,11.969,5.9.646.041.642-.96,0-1-4.793-.33-10.9-2.414-11.964-7.719a19.613,19.613,0,0,1-.317-3.772,13.616,13.616,0,0,0,.062-3.372c-.266-.944-1.3-1.18-2.1-1.541-1.3-.581-2.6-1.154-3.9-1.742-.428-.194-.807.432-.374.639" transform="translate(-135.987 -659.995)"/>
    <path id="Path_1997" data-name="Path 1997" d="M129.517,905.883c.617.959,1.244,1.914,1.824,2.9a.168.168,0,0,0,.306-.129,38.662,38.662,0,0,0-1.714-4.8l-.283.165c1.129,1.8,2.192,3.639,3.316,5.441a.237.237,0,0,0,.41-.239q-1.068-2.508-2.149-5.01l-.393.23c1.425,2.08,2.826,4.177,4.243,6.263.142.208.535.085.435-.184-.894-2.414-1.869-4.79-2.826-7.179l-.357.151a35.558,35.558,0,0,0,5.465,8.531c.189.218.48-.06.374-.288l-2.219-4.782a15.246,15.246,0,0,1-1.67-4.688l-.444.12a89.1,89.1,0,0,1,5.767,9.654l.42-.246c-2.089-3.646-4.215-7.377-5-11.557l-.436.184q2.856,4.71,5.7,9.426l1.617,2.673c.163.27.529.034.411-.24-1.45-3.389-2.872-6.792-4.353-10.169-.425-.968-.855-1.934-1.283-2.9l-.343.2c.572.874,1.088,1.791,1.62,2.69s1.059,1.806,1.58,2.714q1.575,2.748,3.074,5.538c.563,1.047,1.114,2.1,1.664,3.154l.411-.24a76.12,76.12,0,0,1-5.294-12.222q-.6-1.8-1.106-3.619l-.431.182q2.709,6.274,5.544,12.493.814,1.775,1.64,3.544c.13.279.534.036.411-.24a94.928,94.928,0,0,1-4.262-11.6c-.331-1.122-.652-2.25-.942-3.384a.227.227,0,0,0-.438.121,95.329,95.329,0,0,0,3.86,11.856q.656,1.635,1.37,3.245l.411-.24q-2.889-6.192-5.635-12.451-.784-1.788-1.553-3.583c-.107-.249-.5-.07-.431.182a76.16,76.16,0,0,0,4.724,12.585q.818,1.706,1.72,3.37c.146.27.553.031.411-.24-1.943-3.728-4.007-7.395-6.16-11-.608-1.02-1.256-2.021-1.847-3.051-.108-.188-.451-.06-.363.153,1.417,3.425,2.879,6.829,4.338,10.236l1.25,2.92.411-.24-5.7-9.426q-.808-1.337-1.616-2.673a.24.24,0,0,0-.436.184,31.152,31.152,0,0,0,3.642,9.2c.456.83.927,1.652,1.4,2.474.157.273.563.031.42-.246a89.871,89.871,0,0,0-5.775-9.649c-.12-.174-.471-.136-.444.12a15.248,15.248,0,0,0,1.643,4.731l2.311,4.98.374-.289a36.011,36.011,0,0,1-5.464-8.392c-.092-.2-.441-.055-.357.15.971,2.376,1.853,4.8,2.743,7.2l.435-.183c-1.417-2.086-2.851-4.161-4.26-6.252a.228.228,0,0,0-.393.23q1.061,2.512,2.133,5.019l.41-.239c-1.129-1.8-2.319-3.564-3.442-5.367a.164.164,0,0,0-.283.165,38.326,38.326,0,0,1,1.675,4.723l.306-.129c-.669-.926-1.295-1.885-1.927-2.837-.076-.115-.262-.009-.186.109" transform="translate(-100.97 -699.579)"/>
    <path id="Path_1998" data-name="Path 1998" d="M173.167,861.717q2.373,6.369,4.742,12.739c.445,1.2.885,2.4,1.341,3.6l.459-.127c-1.292-3.21-2.582-6.422-3.741-9.683a84.858,84.858,0,0,1-2.945-9.965,55.334,55.334,0,0,1-.981-5.789l-.468.063q1.512,5.594,3.328,11.1,1.794,5.452,3.886,10.8a15.337,15.337,0,0,0,2.8,4.982.253.253,0,0,0,.4-.305,40.6,40.6,0,0,1-3.96-9.07,81.35,81.35,0,0,1-2.278-9.7c-.334-1.851-.668-3.7-.953-5.563l-.4.111a175.169,175.169,0,0,0,6.73,19.452c.729,1.768,1.469,3.535,2.255,5.279.124.274.58.08.486-.205q-3.037-9.224-5.533-18.614c-.471-1.773-.93-3.549-1.363-5.331l-.433.119a90.3,90.3,0,0,0,7.229,19.4q1.331,2.611,2.832,5.131c.144.241.563.084.466-.2l-4.592-13.3-.5.137a99.2,99.2,0,0,0,5.445,11.236c.17.3.594.037.456-.267a43.259,43.259,0,0,1-2.715-7.926l-.437.254a21.036,21.036,0,0,1,3.863,6.827l.512-.141A26.936,26.936,0,0,1,187.544,870l-.482.13c.822,1.576,1.632,3.158,2.444,4.739.144.28.547.078.487-.205a21.8,21.8,0,0,1-.471-4.565l-.535.073a5.443,5.443,0,0,0,2.114,3.075c.288.207.564-.271.278-.475a4.866,4.866,0,0,1-1.867-2.744.274.274,0,0,0-.535.072,22.031,22.031,0,0,0,.5,4.706l.487-.205c-.822-1.576-1.646-3.15-2.458-4.731a.261.261,0,0,0-.482.131,26.473,26.473,0,0,0,1.554,6.905c.117.315.623.185.512-.141a22.006,22.006,0,0,0-4-7.056c-.178-.211-.493.018-.437.254a42.871,42.871,0,0,0,2.763,8.054l.456-.267a96.941,96.941,0,0,1-5.4-11.107c-.123-.3-.609-.184-.5.137l4.6,13.3.466-.2a90.943,90.943,0,0,1-4.777-9.141,89.651,89.651,0,0,1-3.707-9.666q-.883-2.769-1.585-5.59a.225.225,0,0,0-.433.119c1.543,6.289,3.234,12.536,5.141,18.725q.81,2.63,1.675,5.242l.486-.2a180.522,180.522,0,0,1-7.352-19.045q-.883-2.752-1.69-5.527a.209.209,0,0,0-.4.111c.536,3.322,1.033,6.642,1.767,9.929a57.685,57.685,0,0,0,2.907,9.521,41.674,41.674,0,0,0,2.485,5.024l.4-.305a14.7,14.7,0,0,1-2.523-4.408c-.7-1.727-1.352-3.473-1.991-5.223q-1.962-5.368-3.623-10.838-.934-3.078-1.772-6.183c-.068-.25-.5-.211-.467.063a61.771,61.771,0,0,0,2.089,10.166c.969,3.355,2.153,6.644,3.412,9.9.711,1.839,1.446,3.669,2.183,5.5.112.279.569.162.459-.127-1.62-4.239-3.314-8.451-4.969-12.677l-1.4-3.578c-.041-.105-.213-.061-.172.047" transform="translate(-133.768 -664.501)"/>
    <path id="Path_1999" data-name="Path 1999" d="M232.367,679.867a81.6,81.6,0,0,1,1.8-9.079c.913-3.641,1.976-7.244,3.162-10.8q1.925-5.778,4.286-11.4c1.569-3.721,3.288-7.384,5.214-10.935a87.579,87.579,0,0,1,5.851-9.3c.237-.331.481-.657.728-.981.127-.167-.158-.388-.292-.225a59.9,59.9,0,0,0-5.99,9.049,117.249,117.249,0,0,0-5.294,10.885q-2.411,5.632-4.366,11.445c-1.223,3.62-2.33,7.283-3.262,10.989a93.173,93.173,0,0,0-1.916,9.386q-.07.486-.132.972c-.017.133.191.131.208,0" transform="translate(-181.012 -488.933)"/>
    <path id="Path_2000" data-name="Path 2000" d="M357.611,547.75a172.629,172.629,0,0,0,8.847,27.057c5.667,13.466,13.689,25.252,20.783,37.924a7.141,7.141,0,0,1,1.125,3.04c.113,2.286-1.862,4.085-2.689,6.22a2.649,2.649,0,0,0-.013,2.292c.723,1.2,2.5.992,3.843.6,4.261-1.251,26.237-8.054,23.207-14.455-8.55-18.065-18.565-35.9-21.743-55.631-1.588-9.863-1.8-20.891-8.671-28.144" transform="translate(-278.827 -410.627)" fill="#fff"/>
    <path id="Path_2001" data-name="Path 2001" d="M355.95,546.188a162.272,162.272,0,0,0,19.1,47.126c2.127,3.663,4.31,7.294,6.456,10.945q1.541,2.621,3.048,5.262c1.037,1.826,2.565,3.835,1.843,6.033-.665,2.025-4.7,6.149-1.722,8.022,1.6,1.007,3.815.05,5.456-.462a99.982,99.982,0,0,0,12.423-4.689,35.545,35.545,0,0,0,5.995-3.386,9.237,9.237,0,0,0,3.313-3.64c.845-2.049-.553-3.935-1.421-5.74-1.785-3.714-3.608-7.41-5.4-11.12a237.512,237.512,0,0,1-9.947-22.849,113.207,113.207,0,0,1-5.655-23.448c-.9-6.686-1.686-13.742-5.173-19.668a21.745,21.745,0,0,0-2.947-3.911c-.41-.433-1.053.216-.653.653,4.687,5.106,6.23,11.953,7.223,18.614.512,3.433.888,6.887,1.479,10.309a97.187,97.187,0,0,0,2.7,11.331c4.516,15.067,12.1,28.9,18.765,43.073,1.609,3.418-3.208,6.056-5.626,7.4a75.653,75.653,0,0,1-12.678,5.326c-1.418.478-2.843.938-4.28,1.358-1.638.478-4.292.635-3.556-1.952.448-1.575,1.656-2.85,2.31-4.338,1.467-3.336-1.2-6.518-2.806-9.294-1.994-3.438-4.043-6.844-6.072-10.26a215.623,215.623,0,0,1-11.49-21.315,163.66,163.66,0,0,1-8.4-23.49q-.841-3.029-1.57-6.087c-.111-.463-.824-.267-.714.2" transform="translate(-277.523 -408.967)"/>
    <path id="Path_2002" data-name="Path 2002" d="M467.051,862.022c1.364-.4,2.732-.779,4.1-1.169,1.039-.3,1.76-.542,2.524.446.357.462.724.917,1.108,1.357a14.411,14.411,0,0,0,5.433,4.3c4.338,1.628,9.653-.877,13.033-3.532.509-.4-.207-1.1-.71-.71a18.5,18.5,0,0,1-6.727,3.346,8.231,8.231,0,0,1-7.681-1.438,21.97,21.97,0,0,1-2.539-2.488c-.661-.745-1.284-2.024-2.194-2.483-.781-.395-1.727.12-2.479.36-1.355.432-2.707.872-4.064,1.3a.37.37,0,0,0,.2.714" transform="translate(-363.802 -670.153)"/>
    <path id="Path_2003" data-name="Path 2003" d="M487.908,921.055c1.1.3,2.205.6,3.293.946.186.059.285-.207.129-.306a38.4,38.4,0,0,0-4.437-2.419l-.126.3c2.041.589,4.061,1.255,6.1,1.85.252.074.43-.317.183-.433q-2.468-1.16-4.942-2.305l-.175.416c2.448.6,4.89,1.233,7.337,1.844.254.064.429-.305.183-.435-2.274-1.2-4.584-2.326-6.888-3.471l-.2.338a35.734,35.734,0,0,0,9.81,2.74.24.24,0,0,0,.12-.444l-5.041-2.174a14.729,14.729,0,0,1-4.225-2.328l-.232.4a89.156,89.156,0,0,1,10.732,3.359l.129-.469a48.374,48.374,0,0,1-9.093-3.73,21.488,21.488,0,0,1-2.334-1.56l-.184.437q5.268,1.61,10.532,3.231l2.987.916c.253.078.431-.319.183-.435-3.339-1.562-6.667-3.152-10.02-4.684-.964-.44-1.931-.875-2.9-1.312l-.153.363c1.005.27,2,.608,2.989.923q1.516.482,3.026.984,2.994,1,5.96,2.075c1.115.406,2.226.823,3.337,1.242l.126-.459a76.115,76.115,0,0,1-12.128-5.613q-1.621-.931-3.2-1.94l-.238.407q6.2,2.875,12.457,5.624,1.789.782,3.584,1.551c.277.119.521-.284.24-.411a95.407,95.407,0,0,1-10.974-5.845c-.99-.614-1.976-1.238-2.943-1.887-.243-.163-.471.23-.229.392a95.309,95.309,0,0,0,10.746,6.255q1.566.778,3.16,1.5l.24-.411q-6.281-2.694-12.5-5.532-1.776-.811-3.545-1.638a.236.236,0,0,0-.238.407,76.133,76.133,0,0,0,11.856,6.215q1.772.74,3.58,1.39c.29.1.41-.352.126-.459q-5.9-2.229-11.93-4.105c-1.131-.355-2.278-.67-3.4-1.043-.211-.07-.357.264-.153.363,3.32,1.6,6.661,3.158,10,4.719l2.877,1.345.183-.435-10.532-3.231q-1.493-.458-2.987-.917c-.215-.066-.426.249-.232.4A31.2,31.2,0,0,0,496.807,918c.9.319,1.815.623,2.726.925.3.1.417-.359.129-.469a89.847,89.847,0,0,0-10.735-3.349.24.24,0,0,0-.232.4,14.706,14.706,0,0,0,4.221,2.36l5.14,2.217.12-.444a35.862,35.862,0,0,1-9.613-2.6c-.226-.1-.427.225-.2.338,2.307,1.125,4.577,2.342,6.845,3.544l.183-.435c-2.447-.612-4.9-1.2-7.342-1.825-.241-.061-.417.3-.175.416q2.464,1.165,4.932,2.322l.183-.433c-2.04-.591-4.1-1.112-6.139-1.709-.174-.051-.3.22-.126.3a38.668,38.668,0,0,1,4.434,2.425l.129-.306c-1.116-.245-2.22-.543-3.325-.831a.108.108,0,0,0-.057.208" transform="translate(-379.434 -708.195)"/>
    <path id="Path_2004" data-name="Path 2004" d="M475.41,877.073q6.015,3.17,12.027,6.345c1.131.6,2.26,1.2,3.4,1.788l.24-.411c-3.11-1.538-6.221-3.078-9.266-4.744a84.773,84.773,0,0,1-8.814-5.46,55.284,55.284,0,0,1-4.583-3.664l-.289.374q4.765,3.107,9.691,5.953t9.989,5.428a16.062,16.062,0,0,0,5.7,1.992c.292.027.329-.415.067-.495a40.531,40.531,0,0,1-8.947-4.1,80.8,80.8,0,0,1-8.186-5.728c-1.474-1.152-2.949-2.3-4.393-3.495l-.253.328a175.245,175.245,0,0,0,17.852,9.963c1.742.844,3.494,1.68,5.263,2.466.306.136.572-.284.269-.459q-8.4-4.853-16.515-10.189-2.3-1.516-4.578-3.075l-.227.388a90.1,90.1,0,0,0,18.335,9.659q2.725,1.057,5.515,1.934a.256.256,0,0,0,.2-.466l-12.284-6.859-.261.446a99.274,99.274,0,0,0,11.547,4.75c.279.095.479-.362.2-.483a43.6,43.6,0,0,1-7.367-4.132l-.2.478a21.2,21.2,0,0,1,7.494,2.533l.268-.458a26.913,26.913,0,0,1-5.661-4.018l-.252.432c1.663.627,3.321,1.268,4.98,1.906.3.117.429-.323.205-.487a21.8,21.8,0,0,1-3.392-3.1l-.33.428a5.4,5.4,0,0,0,3.561.884c.349-.037.353-.588,0-.551a4.927,4.927,0,0,1-3.286-.8c-.269-.179-.527.207-.33.428a21.981,21.981,0,0,0,3.509,3.17l.205-.487c-1.663-.628-3.326-1.252-4.984-1.891-.246-.095-.431.263-.252.432a26.453,26.453,0,0,0,5.759,4.11c.3.159.567-.29.268-.458a21.869,21.869,0,0,0-7.623-2.579.263.263,0,0,0-.2.478,42.534,42.534,0,0,0,7.364,4.137l.2-.483a96.9,96.9,0,0,1-11.427-4.687c-.3-.144-.555.282-.261.446l12.287,6.853.2-.466a89.635,89.635,0,0,1-18.825-8.358q-2.518-1.485-4.935-3.131c-.24-.163-.463.225-.227.388,5.338,3.661,10.757,7.191,16.3,10.535q2.361,1.425,4.752,2.8l.269-.459a181.1,181.1,0,0,1-18.2-9.317q-2.507-1.472-4.972-3.014c-.2-.123-.44.177-.253.328,2.613,2.12,5.2,4.265,7.931,6.229a57.819,57.819,0,0,0,8.544,5.191,41.63,41.63,0,0,0,5.212,2.094q.034-.247.067-.495a15.345,15.345,0,0,1-5.083-1.745c-1.674-.835-3.332-1.7-4.98-2.588q-4.942-2.654-9.732-5.575-2.7-1.646-5.344-3.372c-.225-.146-.491.193-.289.374a61.755,61.755,0,0,0,8.313,6.174c2.964,1.862,6.044,3.529,9.159,5.122,1.754.9,3.521,1.771,5.287,2.645.273.135.514-.27.24-.411-4.03-2.082-8.1-4.094-12.146-6.142l-3.428-1.734c-.1-.052-.192.1-.09.154" transform="translate(-364.898 -678.219)"/>
    <path id="Path_2005" data-name="Path 2005" d="M457.279,669.75a81.822,81.822,0,0,1-4.5-7.531q-2.393-4.489-4.417-9.161-2.2-5.06-4-10.286c-1.2-3.5-2.265-7.053-3.148-10.648q-.65-2.648-1.16-5.328c-.323-1.716-.574-3.442-.836-5.168-.065-.43-.124-.862-.179-1.294-.03-.231-.393-.242-.372,0a73.1,73.1,0,0,0,1.781,10.493c.854,3.626,1.9,7.208,3.088,10.738q1.759,5.214,3.932,10.277c1.364,3.184,2.839,6.326,4.464,9.386,1.416,2.667,2.932,5.289,4.606,7.8q.276.415.558.825c.076.11.256.006.18-.105" transform="translate(-342.027 -483.532)"/>
    <path id="Path_2006" data-name="Path 2006" d="M170.041,81.023q.042-.913.1-1.823c.662-11.068,2.547-22.019,3.3-33.081a165.367,165.367,0,0,0,.111-20.3c-.286-5.2-1.2-10.384-1.52-15.553-.132-2.157-.137-4.511,1.17-6.232a7.517,7.517,0,0,1,2.478-1.958A17.458,17.458,0,0,1,188.411.589c7.178,1.945,11.867,8.552,13.812,15.44,1.489,5.271,1.432,10.844,1.164,16.315-.22,4.483-.055,10.645,3.583,13.721,3.234-4.136,8.277-6.584,13.443-7.523,5.739-1.044,12.138-.3,18-.375a45.031,45.031,0,0,1,11.568.86c3.761.948,7.4,3.013,9.415,6.325,2.3,3.777,2.178,8.594,1.023,12.864a20.985,20.985,0,0,1-3.442,7.2c4.335-.543,8.255,5.266,9.087,8.847,1.107,4.763-.3,9.789-2.531,14.141A14.082,14.082,0,0,1,268,99.35c-.223,4.244-2.817,9.311-6.778,11.21a9.62,9.62,0,0,1,.28,10c-2.417,4.454-7.635,7.087-12.4,8.051a122.61,122.61,0,0,1-18.739,2.3,123.329,123.329,0,0,1-37.432-4.043c-8.4-2.251-15.534-7.8-18.82-15.975-3.784-9.426-4.531-19.8-4.069-29.871" transform="translate(-132.485 0)" fill="#edff36"/>
    <path id="Path_2007" data-name="Path 2007" d="M182.738,62.167c4.214-3.195,5.668-8.692,5.011-13.778a14.763,14.763,0,0,0-2.6-7.055,9.194,9.194,0,0,0-7.546-3.762c-.609.036-.613.989,0,.952,5.756-.341,8.759,5.528,9.256,10.442.459,4.539-.838,9.521-4.606,12.378-.482.366-.008,1.193.481.822" transform="translate(-138.122 -29.286)"/>
    <path id="Path_2008" data-name="Path 2008" d="M336.568,206.266c2.166,1.794,5.294,2.494,8,3.007a40.586,40.586,0,0,0,10.024.54,92.769,92.769,0,0,0,13.5-2.346c2.32-.494,4.636-1,6.957-1.492.559-.118.318-.95-.234-.85-5.485.992-10.888,2.4-16.392,3.3a42.556,42.556,0,0,1-9.637.482,33.392,33.392,0,0,1-6.408-1.021,16.039,16.039,0,0,1-5.445-2.1c-.276-.2-.633.256-.367.476" transform="translate(-262.348 -159.927)"/>
    <path id="Path_2009" data-name="Path 2009" d="M476.527,302.488c6.8-.751,13.7-2.356,19.366-6.354.437-.308.028-1.032-.424-.726a32.664,32.664,0,0,1-9.021,4.312,66.74,66.74,0,0,1-10,2.221c-.308.044-.239.583.074.548" transform="translate(-371.333 -230.27)"/>
    <path id="Path_2010" data-name="Path 2010" d="M495.819,405.828c7.634-.713,15.359-2.3,21.958-6.374.458-.282.038-1.007-.423-.723-6.51,4.017-14.071,5.363-21.535,6.357-.46.061-.482.785,0,.74" transform="translate(-386.312 -310.838)"/>
    <path id="Path_2011" data-name="Path 2011" d="M506.695,503.527a41.476,41.476,0,0,0,18.123-5.344.434.434,0,0,0-.438-.749,41.7,41.7,0,0,1-17.685,5.43c-.421.035-.427.694,0,.662" transform="translate(-394.819 -387.799)"/>
    <path id="Path_2012" data-name="Path 2012" d="M296.454,310.627a4.277,4.277,0,1,1-4.229-4.325,4.277,4.277,0,0,1,4.229,4.325" transform="translate(-224.474 -238.822)" fill="#fff"/>
    <path id="Path_2013" data-name="Path 2013" d="M294.293,308.942a3.8,3.8,0,1,1-3.906-3.845,3.851,3.851,0,0,1,3.906,3.845.476.476,0,0,0,.952,0,4.753,4.753,0,1,0-4.8,4.706,4.82,4.82,0,0,0,4.8-4.706c.028-.613-.924-.611-.952,0" transform="translate(-222.789 -237.137)"/>
    <path id="Path_2014" data-name="Path 2014" d="M300.72,309.035a1.2,1.2,0,0,1,1.074.508,2.4,2.4,0,0,1,.122,1.8,2.118,2.118,0,0,1-.842,1.093,2.339,2.339,0,0,1-1.051.291,1.6,1.6,0,0,1-.758-.281,2.182,2.182,0,0,1-.592-.48,1.569,1.569,0,0,1-.242-1.166,1.85,1.85,0,0,1,.615-1.3,2.992,2.992,0,0,1,1.674-.467" transform="translate(-232.671 -240.952)" fill="#161616"/>
    <path id="Path_2015" data-name="Path 2015" d="M298.9,307.469a.794.794,0,0,1,.451.129.965.965,0,0,1,.238.307,1.859,1.859,0,0,1,.154.864,1.706,1.706,0,0,1-.768,1.532,1.688,1.688,0,0,1-.771.2,1.616,1.616,0,0,1-.781-.4.8.8,0,0,1-.323-.694,2.064,2.064,0,0,1,.164-.853c.011-.024.078-.143.114-.2.047-.075-.043.046.013-.021a1.394,1.394,0,0,1,.112-.116c.063-.06-.046.03.014-.013a1.3,1.3,0,0,1,.118-.073c.029-.016.058-.032.088-.047l.07-.033q-.061.024-.007,0a4.645,4.645,0,0,1,1.114-.294.482.482,0,0,0,.468-.413.47.47,0,0,0-.341-.523,2.825,2.825,0,0,0-1.507.161,2.065,2.065,0,0,0-1.1.9,2.485,2.485,0,0,0,.127,2.717,2.932,2.932,0,0,0,1.285.791,2.113,2.113,0,0,0,1.329-.143,2.554,2.554,0,0,0,1.526-2.315,2.108,2.108,0,0,0-.463-1.465.993.993,0,0,0-.619-.315,5.029,5.029,0,0,0-.7-.058.182.182,0,0,0,0,.365" transform="translate(-230.851 -239.204)"/>
    <path id="Path_2016" data-name="Path 2016" d="M310.7,320.99c.428-.466.128-1.182-.07-1.673-.37-.916-1.41-.265-1.609.425-.245.848.92,2.073,1.679,1.248" transform="translate(-240.915 -248.618)" fill="#fff"/>
    <path id="Path_2017" data-name="Path 2017" d="M295.923,281.225c-.293-.263-.529-.576-.842-.817a7.323,7.323,0,0,0-.949-.628,8.449,8.449,0,0,0-2.181-.837,9.3,9.3,0,0,0-7.231,1.346c-.5.338-.035,1.152.477.816a8.66,8.66,0,0,1,5.326-1.43,9.354,9.354,0,0,1,2.616.6,10.328,10.328,0,0,1,1.221.561c.2.106.394.226.6.33a3.321,3.321,0,0,1,.646.385c.221.185.541-.124.321-.321" transform="translate(-221.827 -217.312)"/>
    <path id="Path_2018" data-name="Path 2018" d="M184.051,297.988a4.277,4.277,0,1,0,5.084-3.277,4.277,4.277,0,0,0-5.084,3.277" transform="translate(-143.427 -229.708)" fill="#fff"/>
    <path id="Path_2019" data-name="Path 2019" d="M182.018,296.183a4.753,4.753,0,1,0,5.67-3.61,4.821,4.821,0,0,0-5.67,3.61.477.477,0,0,0,.918.253,3.8,3.8,0,1,1,3.182,4.533,3.854,3.854,0,0,1-3.182-4.533c.108-.6-.81-.856-.918-.253" transform="translate(-141.853 -228.029)"/>
    <path id="Path_2020" data-name="Path 2020" d="M197.333,297.8a1.582,1.582,0,0,0-1.466.612,2.126,2.126,0,0,0,.391,2.492,2.34,2.34,0,0,0,.96.517,1.605,1.605,0,0,0,.8-.106,2.187,2.187,0,0,0,.684-.337,1.569,1.569,0,0,0,.494-1.083,1.849,1.849,0,0,0-.311-1.4,2.3,2.3,0,0,0-1.555-.691" transform="translate(-152.521 -232.188)" fill="#161616"/>
    <path id="Path_2021" data-name="Path 2021" d="M195.652,295.931c-.21-.017-.421-.013-.631-.023a1.334,1.334,0,0,0-.678.131,1.572,1.572,0,0,0-.812,1.027,2.691,2.691,0,0,0,.645,2.423,2.62,2.62,0,0,0,1.145.682,2.417,2.417,0,0,0,1.591-.256,2.224,2.224,0,0,0,1.126-2.372,2,2,0,0,0-.823-1.457,2.372,2.372,0,0,0-1.564-.45.478.478,0,0,0-.468.413.472.472,0,0,0,.341.523,3.132,3.132,0,0,1,.5.149,2.475,2.475,0,0,1,.449.194,2.124,2.124,0,0,1,.185.116c-.071-.05.018.014.035.029s.051.046.075.07.087.092.036.03a.753.753,0,0,1,.06.09c.018.03.035.062.052.094.048.094,0-.024.026.072s.049.174.062.266c-.011-.082.007.121.007.137,0,.083,0,.167,0,.25q0,.069-.009.137c0,.018-.023.16-.008.073-.012.07-.027.14-.046.209-.01.035-.021.068-.031.1-.045.154.019-.029-.02.054a1,1,0,0,1-.12.2c.037-.046-.022.019-.025.022.015-.014-.11.1-.073.067a1.465,1.465,0,0,1-.415.209,1.394,1.394,0,0,1-.6.124.948.948,0,0,1-.3-.1c-.076-.037-.151-.079-.223-.123-.031-.02-.063-.039-.093-.06,0,0-.126-.1-.07-.049a1.45,1.45,0,0,1-.149-.143c-.026-.029-.052-.057-.076-.088.014.018.038.059-.011-.018s-.079-.122-.114-.187c-.02-.036-.038-.073-.056-.11l-.021-.045c.012.029.012.029,0,0a2.377,2.377,0,0,1-.124-.439c0-.017-.017-.123-.009-.049,0-.034-.006-.068-.008-.1a2.125,2.125,0,0,1,0-.251c0-.033,0-.066.008-.1-.01.081.011-.053.015-.069.014-.064.056-.2.065-.221a1.5,1.5,0,0,1,.085-.192.775.775,0,0,1,.134-.192,2.134,2.134,0,0,1,.366-.306.926.926,0,0,1,.566-.134c.237,0,.231-.346,0-.365" transform="translate(-150.84 -230.504)"/>
    <path id="Path_2022" data-name="Path 2022" d="M206.281,309.178c-.314-.549.137-1.181.44-1.616.564-.811,1.434.055,1.475.772.05.881-1.357,1.816-1.914.844" transform="translate(-160.753 -239.549)" fill="#fff"/>
    <path id="Path_2023" data-name="Path 2023" d="M182.844,269.1a8.548,8.548,0,0,1,7.073-.366,9.97,9.97,0,0,1,2.84,1.673,7.318,7.318,0,0,1,2.044,2.547,9.071,9.071,0,0,1,.574,3.72,16.411,16.411,0,0,1-.53,3.862,27.051,27.051,0,0,1-3.25,7.313c-.3.494-.6,1-.938,1.464-.3.413-.626.8-.942,1.2a8.442,8.442,0,0,0-1.64,2.681,2.437,2.437,0,0,0,.159,2,2.065,2.065,0,0,0,1.41.81,10.457,10.457,0,0,0,1.89.087c.309,0,.619-.007.928,0,.143.005.286.014.428.028.029,0,.211.028.11.012.082.013.163.027.244.045a2.9,2.9,0,0,1,.336.1c.114.041-.06-.03.007,0,.027.013.055.025.082.04.051.029.1.059.151.091.1.063-.07-.068.014.011.017.015.035.03.051.046s.13.163.061.062c.027.04.05.081.075.121.011.017.059.129.015.022.022.054.039.109.056.165.2.652,0,1.366.208,2.028.3.941,1.378,1.161,2.227,1.316a16.992,16.992,0,0,0,3.751.238,44.153,44.153,0,0,0,7.682-1.2c.578-.127,1.155-.256,1.734-.381l-.586-.332a4.515,4.515,0,0,1-1.542,3.714,13.492,13.492,0,0,1-3.587,2.621,9.757,9.757,0,0,1-4.151,1.2c-1.033.015-2.474-.034-2.688,1.3a2.251,2.251,0,0,0,.749,1.865,3.43,3.43,0,0,0,1.642.993c.593.128.846-.783.251-.911a2.538,2.538,0,0,1-1.222-.752c-.289-.3-.634-.776-.441-1.185.156-.331.643-.347,1.009-.355a12.544,12.544,0,0,0,1.725-.109,12.4,12.4,0,0,0,4.179-1.529,13.727,13.727,0,0,0,3.453-2.724,5.269,5.269,0,0,0,1.543-4.376.483.483,0,0,0-.586-.333,73.33,73.33,0,0,1-7.5,1.425,20.853,20.853,0,0,1-3.785.1,12.869,12.869,0,0,1-1.838-.266,2.007,2.007,0,0,1-1.042-.44c.048.056-.051-.085-.066-.118.038.084-.023-.1-.03-.125s-.011-.057-.015-.084c.014.093,0,0,0-.028-.005-.086-.008-.172-.008-.258a7.371,7.371,0,0,0-.067-1.162,1.9,1.9,0,0,0-1.011-1.49c-1.1-.533-2.456-.277-3.637-.328-.141-.006-.282-.017-.422-.03a2.173,2.173,0,0,1-.325-.057c-.063-.015-.126-.032-.187-.051-.03-.01-.166-.061-.119-.041a1.119,1.119,0,0,0-.105-.054c-.033-.018-.2-.141-.1-.062-.039-.033-.074-.07-.111-.1-.072-.068.019.056-.042-.054-.029-.052-.06-.1-.085-.156.046.1-.017-.067-.026-.1s-.018-.08-.025-.12c0,.02.008.092,0,0-.007-.078-.009-.156-.008-.235a1.944,1.944,0,0,1,.063-.5,7.117,7.117,0,0,1,1.536-2.529c.332-.418.672-.831.984-1.264.349-.483.655-1,.963-1.509a27.324,27.324,0,0,0,3.238-7.3,17.855,17.855,0,0,0,.568-3.9,11.391,11.391,0,0,0-.449-3.862,8.714,8.714,0,0,0-4.656-4.742,8.925,8.925,0,0,0-6.88-.456,10.1,10.1,0,0,0-1.634.692c-.258.138-.029.529.229.392" transform="translate(-142.296 -208.595)"/>
    <path id="Path_2024" data-name="Path 2024" d="M334.894,624.549a7.325,7.325,0,0,1,.554,4.268,37.08,37.08,0,0,1-.892,4.539c-.721,2.987-1.6,5.946-2.028,9a21.244,21.244,0,0,0-.153,5.1c.026.254.425.259.4,0a29.461,29.461,0,0,1,.952-9.305,80.9,80.9,0,0,0,1.966-9.1,7.81,7.81,0,0,0-.634-4.6c-.059-.11-.225-.013-.167.1" transform="translate(-259.08 -486.844)"/>
    <path id="Path_2025" data-name="Path 2025" d="M338.738,674.976q-3.283,4.926-6.3,10.026c-.567.961-1.129,1.923-1.656,2.906a.164.164,0,0,0,.283.165c1-1.693,1.948-3.411,2.948-5.1s2.04-3.4,3.1-5.073q.895-1.413,1.812-2.811c.078-.119-.111-.228-.189-.111" transform="translate(-257.895 -526.236)"/>
    <path id="Path_2026" data-name="Path 2026" d="M338.764,674.877q-2.885,4.7-5.485,9.574c-.113.211.211.4.321.188q2.535-4.9,5.385-9.632a.128.128,0,0,0-.222-.13" transform="translate(-259.837 -526.151)"/>
    <path id="Path_2027" data-name="Path 2027" d="M339.66,651.608q-3.015,4.5-5.889,9.1-.411.66-.818,1.323a7.612,7.612,0,0,0-.725,1.309.187.187,0,0,0,.311.181,6.791,6.791,0,0,0,.7-1.075q.352-.6.707-1.2.683-1.154,1.377-2.3,1.4-2.317,2.858-4.6c.557-.874,1.11-1.75,1.677-2.618.08-.123-.115-.235-.2-.115" transform="translate(-259.028 -508.015)"/>
    <path id="Path_2028" data-name="Path 2028" d="M339.219,647.016q-1.769,2.191-3.441,4.459c-1.12,1.527-2.256,3.073-3.241,4.692-.136.223.2.415.347.2,1.046-1.544,2.036-3.122,3.115-4.645q1.637-2.311,3.41-4.52c.107-.133-.081-.324-.189-.189" transform="translate(-259.253 -504.439)"/>
    <path id="Path_2029" data-name="Path 2029" d="M345.555,643.63a31.8,31.8,0,0,0-2.174,2.748q-.5.709-.957,1.445a6,6,0,0,0-.828,1.566.148.148,0,0,0,.246.143,8.658,8.658,0,0,0,.87-1.426c.294-.5.6-.987.918-1.468a29.6,29.6,0,0,1,2.125-2.808c.117-.137-.078-.337-.2-.2" transform="translate(-266.337 -501.799)"/>
    <path id="Path_2030" data-name="Path 2030" d="M347.965,638.415c-.4.514-.8,1.029-1.2,1.541a13.172,13.172,0,0,0-1.148,1.549.12.12,0,0,0,.187.144,13.13,13.13,0,0,0,1.189-1.518c.387-.523.778-1.044,1.168-1.565.084-.112-.109-.263-.2-.151" transform="translate(-269.464 -497.738)"/>
    <path id="Path_2031" data-name="Path 2031" d="M349.446,631.038q-.384.553-.807,1.077-.209.257-.427.507a4.327,4.327,0,0,0-.429.529c-.068.109.074.269.186.186a2.966,2.966,0,0,0,.477-.481q.227-.268.443-.546.427-.547.812-1.123c.106-.158-.147-.3-.254-.148" transform="translate(-271.15 -491.966)"/>
    <path id="Path_2032" data-name="Path 2032" d="M349.389,624.58l-1.191,1.436a.138.138,0,0,0,0,.189.135.135,0,0,0,.189,0l1.17-1.458a.123.123,0,0,0,0-.168.12.12,0,0,0-.168,0" transform="translate(-271.459 -486.954)"/>
    <path id="Path_2033" data-name="Path 2033" d="M348.4,625.428a.114.114,0,0,0,0-.227.114.114,0,0,0,0,.227" transform="translate(-271.56 -487.466)"/>
    <path id="Path_2034" data-name="Path 2034" d="M346.4,624.094a.117.117,0,0,0,0-.234.117.117,0,0,0,0,.234" transform="translate(-269.999 -486.42)"/>
    <path id="Path_2035" data-name="Path 2035" d="M272.589,584.8a22.748,22.748,0,0,0,10.019,4.368c3.681.766,7.436,1.024,11.146,1.6a28.512,28.512,0,0,1,10.481,3.358,16.1,16.1,0,0,1,2.246,1.633,29.4,29.4,0,0,1,2.2,2.217,14.087,14.087,0,0,0,4.553,3.679,6.027,6.027,0,0,0,2.684.511,11.584,11.584,0,0,0,3.085-.707c1.419-.477,3.07-1.052,3.925-2.372a2.89,2.89,0,0,0,.4-.988c.039-.187-.245-.267-.287-.079-.355,1.6-2.019,2.373-3.422,2.876-1.866.669-3.84,1.293-5.8.623a11.982,11.982,0,0,1-4.632-3.487,23.88,23.88,0,0,0-4.2-3.823,26.229,26.229,0,0,0-10.045-3.569c-3.595-.628-7.244-.856-10.84-1.471a25.638,25.638,0,0,1-10.255-3.68q-.575-.393-1.115-.833c-.1-.081-.242.06-.142.142" transform="translate(-212.509 -455.836)"/>
    <path id="Path_2036" data-name="Path 2036" d="M446.694,595.486q-3.653,4.529-7.333,9.036-1.04,1.277-2.081,2.551c-.153.187.117.454.266.266,2.406-3.05,4.8-6.106,7.227-9.142l2.057-2.576c.075-.094-.057-.229-.134-.134" transform="translate(-340.909 -464.272)"/>
    <path id="Path_2037" data-name="Path 2037" d="M453.677,591.748c-2.964,3.328-5.862,6.713-8.774,10.086-.827.958-1.666,1.908-2.47,2.886-.181.22.124.538.318.318,1.483-1.677,2.9-3.416,4.341-5.128s2.862-3.4,4.286-5.106q1.219-1.461,2.42-2.936c.069-.084-.047-.2-.121-.121" transform="translate(-344.92 -461.361)"/>
    <path id="Path_2038" data-name="Path 2038" d="M458.352,597.114q-4.133,4.858-8.237,9.741L448.98,608.2l-.6.714-.284.336-.106.126a1.454,1.454,0,0,1-.1.115c-.078.064-.033.122.135.172l-.1.124.034-.021c.183-.118.069-.456-.156-.37a.3.3,0,0,0,.119.578c.235,0,.369-.224.5-.387l.6-.722,2.31-2.8,4.62-5.608q1.3-1.573,2.58-3.154c.1-.128-.074-.313-.184-.184" transform="translate(-348.999 -465.532)"/>
    <path id="Path_2039" data-name="Path 2039" d="M462.771,615.817q-3.9,4.273-7.637,8.7c-.174.206.126.506.3.3q3.674-4.478,7.561-8.773c.135-.149-.085-.37-.221-.221" transform="translate(-354.825 -480.111)"/>
    <path id="Path_2040" data-name="Path 2040" d="M469.987,618.9q-1.976,2.177-3.976,4.331c-1.31,1.417-2.6,2.849-3.962,4.219a.235.235,0,0,0,.332.331c1.378-1.346,2.614-2.849,3.893-4.288q1.954-2.2,3.922-4.385c.127-.14-.08-.348-.208-.208" transform="translate(-360.203 -482.516)"/>
    <path id="Path_2041" data-name="Path 2041" d="M476.739,629.758c-.918,1.184-1.866,2.344-2.857,3.469q-.734.833-1.492,1.645-.388.416-.782.825a2.485,2.485,0,0,0-.653.769.154.154,0,0,0,.188.188c.3-.119.52-.45.736-.686q.384-.42.763-.844.757-.85,1.489-1.722,1.44-1.716,2.793-3.5c.08-.105-.1-.247-.184-.142" transform="translate(-367.196 -490.99)"/>
    <path id="Path_2042" data-name="Path 2042" d="M486.205,638.262c-1.072,1.163-2.168,2.3-3.235,3.473-.156.171.1.427.255.255,1.068-1.169,2.107-2.365,3.169-3.539.115-.128-.072-.317-.189-.189" transform="translate(-376.531 -497.616)"/>
    <path id="Path_2043" data-name="Path 2043" d="M492.971,648.792l-.584.436a.19.19,0,0,0-.08.1.177.177,0,0,0,.017.133.175.175,0,0,0,.1.08.168.168,0,0,0,.133-.018l.582-.439a.186.186,0,0,0,.079-.1.175.175,0,0,0-.017-.132.173.173,0,0,0-.1-.079.167.167,0,0,0-.132.017" transform="translate(-383.845 -505.842)"/>
    <path id="Path_2044" data-name="Path 2044" d="M438.846,594.255a105.488,105.488,0,0,1-6.9,8.506c-.692.772-1.4,1.533-2.1,2.292-.189.2.115.509.305.305a102,102,0,0,0,7.019-8.442c.632-.844,1.262-1.689,1.877-2.545.087-.121-.113-.235-.2-.116" transform="translate(-335.1 -463.298)"/>
    <path id="Path_2045" data-name="Path 2045" d="M436.737,603.065c-2.088,2.428-4.174,4.857-6.311,7.242-.155.173.111.429.252.253,2.006-2.506,4.063-4.97,6.119-7.434.035-.042-.024-.1-.061-.061" transform="translate(-335.564 -470.195)"/>
    <path id="Path_2046" data-name="Path 2046" d="M432.4,596.294q-1.75,2.012-3.467,4.051-.852,1.007-1.694,2.022a20.052,20.052,0,0,0-1.612,2.077.146.146,0,0,0,.228.176,23.3,23.3,0,0,0,1.664-2.048q.811-1.046,1.631-2.085,1.64-2.076,3.333-4.109c.048-.058-.033-.143-.084-.084" transform="translate(-331.842 -464.912)"/>
    <path id="Path_2047" data-name="Path 2047" d="M425.126,596.084q-1.41,1.97-2.866,3.907-.714.946-1.436,1.885a21.234,21.234,0,0,0-1.453,2,.125.125,0,0,0,.2.151,17.869,17.869,0,0,0,1.5-1.883q.717-.973,1.426-1.953,1.433-1.983,2.844-3.981c.09-.128-.119-.247-.209-.122" transform="translate(-326.968 -464.722)"/>
    <path id="Path_2048" data-name="Path 2048" d="M418.949,590.772q-2.9,4.035-6.152,7.8c-.179.207.129.51.3.3q3.168-3.883,6.084-7.962c.1-.141-.132-.274-.231-.135" transform="translate(-321.813 -460.576)"/>
    <path id="Path_2049" data-name="Path 2049" d="M411.531,592.631c-.819,1.03-1.636,2.061-2.464,3.083-.815,1.007-1.679,1.985-2.457,3.02-.159.211.2.489.368.284.815-.983,1.555-2.035,2.334-3.046.806-1.046,1.623-2.084,2.438-3.123.121-.154-.094-.374-.218-.218" transform="translate(-317.001 -462.029)"/>
    <path id="Path_2050" data-name="Path 2050" d="M401.074,595.912q-.971,1.546-2.075,3-.553.725-1.135,1.427-.29.35-.588.695a2.187,2.187,0,0,0-.485.688c-.044.13.109.219.216.166a2.038,2.038,0,0,0,.6-.59q.29-.352.573-.71.565-.714,1.1-1.45c.725-.995,1.412-2.018,2.065-3.062.109-.175-.167-.335-.276-.161" transform="translate(-309.37 -464.571)"/>
    <path id="Path_2051" data-name="Path 2051" d="M394.323,598.057a23.09,23.09,0,0,1-3.192,3.47c-.175.156.087.42.258.258a27,27,0,0,0,3.149-3.6c.1-.13-.121-.253-.215-.126" transform="translate(-304.918 -466.26)"/>
    <path id="Path_2052" data-name="Path 2052" d="M385.71,601.052l-2.048,2.472a.212.212,0,0,0,0,.292.208.208,0,0,0,.292,0l2.035-2.485a.2.2,0,0,0,0-.279.2.2,0,0,0-.279,0" transform="translate(-299.094 -468.592)"/>
    <path id="Path_2053" data-name="Path 2053" d="M379.173,589.383c-.769.883-1.482,1.814-2.209,2.732-.714.9-1.482,1.784-2.131,2.733-.138.2.181.452.342.264.748-.875,1.4-1.845,2.085-2.769.7-.941,1.41-1.872,2.063-2.845.06-.089-.078-.2-.149-.115" transform="translate(-292.229 -459.516)"/>
    <path id="Path_2054" data-name="Path 2054" d="M369.636,588.936c-.634.892-1.288,1.768-1.97,2.624q-.486.608-.985,1.205c-.343.409-.729.8-1.043,1.228-.141.194.165.419.327.253a14.074,14.074,0,0,0,.989-1.24q.5-.644.981-1.3.966-1.314,1.879-2.666c.074-.11-.1-.209-.177-.1" transform="translate(-285.057 -459.155)"/>
    <path id="Path_2055" data-name="Path 2055" d="M362.125,588.484a36.945,36.945,0,0,1-3.372,5.129h.41a.354.354,0,0,1-.054-.306.194.194,0,0,0-.354-.149.705.705,0,0,0,0,.7.241.241,0,0,0,.41,0,42.93,42.93,0,0,0,3.167-5.249c.071-.135-.134-.256-.206-.12" transform="translate(-279.647 -458.791)"/>
    <path id="Path_2056" data-name="Path 2056" d="M356.967,592.953c-.848,1.236-1.729,2.447-2.584,3.678-.153.22.21.432.36.21.836-1.241,1.644-2.5,2.488-3.735.111-.163-.153-.315-.263-.154" transform="translate(-276.282 -462.268)"/>
    <path id="Path_2057" data-name="Path 2057" d="M344.478,589.669q-1.439,1.922-2.894,3.831c-.177.231.223.471.4.231q1.393-1.949,2.807-3.882c.136-.187-.173-.361-.308-.18" transform="translate(-266.297 -459.702)"/>
    <path id="Path_2058" data-name="Path 2058" d="M336.765,588.537a33.363,33.363,0,0,1-2.688,3.675c-.171.209.13.508.3.3a36.118,36.118,0,0,0,2.6-3.85.121.121,0,0,0-.209-.122" transform="translate(-260.438 -458.834)"/>
    <path id="Path_2059" data-name="Path 2059" d="M328.8,590.748l-1.715,2.611c-.147.224.217.438.36.21l1.66-2.643c.122-.194-.181-.367-.305-.178" transform="translate(-255.003 -460.539)"/>
    <path id="Path_2060" data-name="Path 2060" d="M316.39,581.414c-1.034,1.509-2.113,3-3.089,4.546-.111.175.156.321.273.159,1.078-1.478,2.062-3.031,3.083-4.549.111-.166-.155-.319-.267-.156" transform="translate(-244.258 -453.271)"/>
    <path id="Path_2061" data-name="Path 2061" d="M304.949,586.7q-.549.921-1.155,1.806c-.2.286-.4.567-.607.846a2.319,2.319,0,0,1-.664.7c-.161.09-.042.3.116.275.325-.046.505-.307.682-.558.224-.318.441-.641.655-.966q.633-.963,1.2-1.966a.134.134,0,0,0-.231-.135" transform="translate(-235.816 -457.395)"/>
    <path id="Path_2062" data-name="Path 2062" d="M299.072,580.1l-2.176,3.459c-.1.154.149.3.244.143l2.141-3.48c.082-.133-.126-.254-.209-.122" transform="translate(-231.471 -452.26)"/>
    <path id="Path_2063" data-name="Path 2063" d="M290.691,580.659q-.561.943-1.178,1.851c-.41.6-.875,1.172-1.254,1.8a.127.127,0,0,0,.2.153,12.846,12.846,0,0,0,1.314-1.758q.622-.924,1.185-1.886a.154.154,0,0,0-.267-.156" transform="translate(-224.74 -452.679)"/>
    <path id="Path_2064" data-name="Path 2064" d="M283.816,582l-.849,1.271c-.282.422-.588.837-.835,1.28-.089.159.141.358.263.2.317-.405.587-.849.871-1.279l.858-1.3c.127-.192-.181-.371-.308-.18" transform="translate(-219.961 -453.717)"/>
    <path id="Path_2065" data-name="Path 2065" d="M280.517,579.518a3.4,3.4,0,0,1-1.159,1.261.169.169,0,0,0,.171.292,3.477,3.477,0,0,0,1.287-1.378.177.177,0,0,0-.062-.237.175.175,0,0,0-.237.062" transform="translate(-217.749 -451.781)"/>
    <path id="Path_2066" data-name="Path 2066" d="M276.087,575.7a.128.128,0,0,0,0-.257.128.128,0,0,0,0,.257" transform="translate(-215.167 -448.674)"/>
    <path id="Path_2067" data-name="Path 2067" d="M265.716,587.822l.386.694a.152.152,0,0,0,.206.054.154.154,0,0,0,.054-.206l-.386-.694a.151.151,0,1,0-.26.152" transform="translate(-207.162 -458.145)"/>
    <path id="Path_2068" data-name="Path 2068" d="M260.482,597.99q.228.274.45.553a.173.173,0,0,0,.122.051.173.173,0,0,0,.122-.3q-.242-.26-.476-.526a.155.155,0,0,0-.218,0,.159.159,0,0,0,0,.218" transform="translate(-203.062 -466.044)"/>
    <path id="Path_2069" data-name="Path 2069" d="M257.469,607.5a.149.149,0,0,0,0-.3.149.149,0,0,0,0,.3" transform="translate(-200.635 -473.432)"/>
    <path id="Path_2070" data-name="Path 2070" d="M592.642,662.971a.236.236,0,0,0,0-.473.236.236,0,0,0,0,.473" transform="translate(-461.902 -516.546)"/>
    <path id="Path_2071" data-name="Path 2071" d="M373.44,636.989a13.193,13.193,0,0,1,4.982,2.728,20.314,20.314,0,0,1,3.6,4.646,13.627,13.627,0,0,0,3.582,4.1,10.72,10.72,0,0,0,4.664,1.8,10,10,0,0,0,5.5-.773c.1-.046.028-.223-.076-.18a10.624,10.624,0,0,1-9.753-.945,13.212,13.212,0,0,1-3.694-4.127,21.142,21.142,0,0,0-3.468-4.5,13.522,13.522,0,0,0-5.283-2.938.1.1,0,0,0-.052.19" transform="translate(-291.115 -496.505)"/>
    <path id="Path_2072" data-name="Path 2072" d="M489.328,693.774a9.121,9.121,0,0,1,2.929,2.556c.077.1.254,0,.177-.1a9.038,9.038,0,0,0-3-2.639c-.122-.067-.231.12-.109.186" transform="translate(-381.485 -540.776)"/>
    <path id="Path_2073" data-name="Path 2073" d="M506.176,722.306a.05.05,0,0,0,0-.1.05.05,0,0,0,0,.1" transform="translate(-394.625 -563.1)"/>
    <path id="Path_2074" data-name="Path 2074" d="M321.923,685.871l-.523,2.259c-.022.093.122.133.143.04l.52-2.26c.021-.091-.119-.13-.14-.039" transform="translate(-250.592 -534.73)"/>
    <path id="Path_2075" data-name="Path 2075" d="M312.928,741.274a.037.037,0,0,0,0-.074.037.037,0,0,0,0,.074" transform="translate(-243.96 -577.91)"/>
    <path id="Path_2076" data-name="Path 2076" d="M315.635,757.54l.346.522a.132.132,0,0,0,.228-.133l-.349-.521a.13.13,0,0,0-.225.132" transform="translate(-246.084 -590.497)"/>
    <path id="Path_2077" data-name="Path 2077" d="M188.573,823.042c1.042.35,2.079.718,3.136,1.02.192.055.262-.227.081-.294-1.03-.384-2.083-.7-3.13-1.041-.2-.065-.286.249-.087.316" transform="translate(-146.941 -641.468)"/>
    <path id="Path_2078" data-name="Path 2078" d="M196.28,803.205a3.415,3.415,0,0,0,2.046.744.188.188,0,0,0,0-.376,3,3,0,0,1-1.786-.629.19.19,0,0,0-.26,0,.185.185,0,0,0,0,.26" transform="translate(-152.997 -626.011)"/>
    <path id="Path_2079" data-name="Path 2079" d="M264.608,416.964c1.005.363,1.412,1.576,1.644,2.522a4.13,4.13,0,0,1,.1,1.737,3.474,3.474,0,0,1-.666,1.383c-.1.139.1.334.237.237,1.064-.746.971-2.342.639-3.441-.306-1.017-.812-2.215-1.922-2.548-.072-.022-.1.086-.031.111" transform="translate(-206.283 -325.016)"/>
    <path id="Path_2080" data-name="Path 2080" d="M268.908,410.913a1.76,1.76,0,0,1,.534,1.158q.162.729.259,1.472a17.349,17.349,0,0,1,.129,2.9h.4c-.073-.967-.229-1.928-.317-2.894s-.2-1.929-.274-2.894l-.241.033a14.975,14.975,0,0,1,.816,5.051h.443c-.1-.868-.239-1.724-.286-2.6a21.2,21.2,0,0,1,.022-2.608l-.157.12c.222.045.2.388.221.557l.062.644.118,1.235c.081.841.15,1.685.251,2.524.035.3.5.306.473,0-.082-.881-.166-1.762-.241-2.644a4.2,4.2,0,0,1,.127-2.371l-.422-.055a24.724,24.724,0,0,1,.643,4.771l.468-.063a12.317,12.317,0,0,1-.113-4.877h-.409a15.7,15.7,0,0,1,.515,4.548.238.238,0,0,0,.476,0c.153-1.544.222-3.1.4-4.642l-.344.047a17.852,17.852,0,0,1,.3,4.348.238.238,0,0,0,.476,0,18.373,18.373,0,0,1,.5-3.967H273.3a12.44,12.44,0,0,1,.278,3.14c-.009.3.442.293.459,0a20.687,20.687,0,0,1,.408-3.416l-.363-.049c.064.908.118,1.817.2,2.723.022.249.4.338.462.063.229-.952.438-1.909.673-2.859l-.446-.061a5.205,5.205,0,0,1-.149,1.544c-.052.211.243.431.4.232a5.9,5.9,0,0,0,.6-.919,5.438,5.438,0,0,1,.478-.968h-.337a1.285,1.285,0,0,0,.567.387c.288.106.412-.354.127-.459a.821.821,0,0,1-.357-.265.239.239,0,0,0-.337,0,4.136,4.136,0,0,0-.469.9,5.247,5.247,0,0,1-.606.992l.4.232a5.363,5.363,0,0,0,.144-1.67c-.017-.242-.386-.324-.446-.06-.219.954-.464,1.9-.689,2.855l.462.063c-.085-.909-.2-1.816-.3-2.723-.021-.188-.322-.273-.363-.049-.109.588-.257,1.174-.337,1.767s-.136,1.163-.174,1.748h.459a13.471,13.471,0,0,0-.3-3.259.226.226,0,0,0-.432,0,17.839,17.839,0,0,0-.54,4.086h.476a19.912,19.912,0,0,0-.44-4.442.176.176,0,0,0-.344.047c-.132,1.55-.369,3.093-.521,4.642h.476a17.452,17.452,0,0,0-.581-4.661c-.057-.189-.366-.215-.409,0a12.293,12.293,0,0,0,.063,5.116.239.239,0,0,0,.468-.063,24.9,24.9,0,0,0-.674-4.894.233.233,0,0,0-.422-.055,4.117,4.117,0,0,0-.216,2.388c.075.954.164,1.907.255,2.86h.473c-.122-1-.283-2-.429-3l-.219-1.493c-.041-.277-.09-.633-.411-.708a.127.127,0,0,0-.158.12,24.684,24.684,0,0,0-.114,2.662,16.193,16.193,0,0,0,.191,2.6c.043.245.449.189.435-.059a17.422,17.422,0,0,0-1.023-5.116c-.044-.119-.257-.115-.241.033.1.962.157,1.931.239,2.894s.1,1.933.2,2.894a.2.2,0,0,0,.4,0,16.674,16.674,0,0,0-.264-3.261,14.608,14.608,0,0,0-.369-1.569,1.478,1.478,0,0,0-.579-.894c-.121-.076-.227.111-.111.189" transform="translate(-209.627 -319.468)"/>
    <path id="Path_2081" data-name="Path 2081" d="M260.917,417.892a5.711,5.711,0,0,1,1.5,2.315,5.04,5.04,0,0,1,.251,1.315,2.635,2.635,0,0,1-.228,1.439.19.19,0,0,0,.328.191,2.5,2.5,0,0,0,.29-1.467,5.394,5.394,0,0,0-.286-1.534,5.022,5.022,0,0,0-1.724-2.424c-.1-.071-.21.083-.126.164" transform="translate(-203.412 -325.686)"/>
    <path id="Path_2082" data-name="Path 2082" d="M266.32,434.484a4.139,4.139,0,0,1-.036,1.4.137.137,0,0,0,.093.165.135.135,0,0,0,.165-.094,4.415,4.415,0,0,0-.032-1.524.1.1,0,0,0-.121-.069.1.1,0,0,0-.069.121" transform="translate(-207.618 -338.668)"/>
    <path id="Path_2083" data-name="Path 2083" d="M259.135,419.129l.166.377a.14.14,0,0,0,.085.065.146.146,0,0,0,.092-.007.139.139,0,0,0,.082-.167l-.159-.38a.145.145,0,0,0-.037-.064l-.029-.023a.139.139,0,0,0-.129-.007.137.137,0,0,0-.077.077.111.111,0,0,0-.013.056.143.143,0,0,0,.02.073" transform="translate(-202.03 -326.623)"/>
    <path id="Path_2084" data-name="Path 2084" d="M247.71,381.678c.008-.015.009-.012,0,.008a.1.1,0,0,0,0,.052.167.167,0,0,0,.042.067c.026.029.053.056.077.086a1.083,1.083,0,0,1,.128.212,1.216,1.216,0,0,1,.03.916,1.563,1.563,0,0,1-.1.2,1.794,1.794,0,0,1-.128.195.225.225,0,1,0,.318.318,1.331,1.331,0,0,0,.36-1.209,1.5,1.5,0,0,0-.206-.564,1.392,1.392,0,0,0-.187-.239,1.173,1.173,0,0,0-.109-.1c-.063-.05-.091-.032-.159-.04a.078.078,0,0,0-.075.1" transform="translate(-193.135 -297.515)"/>
    <path id="Path_2085" data-name="Path 2085" d="M98.242,148.613c-.9,3.334-3.141,6.022-5.573,8.379a.264.264,0,0,0,.053.409c2.93,1.753,4.094,5.038,5.563,7.931a.277.277,0,0,0,.5-.065,12.423,12.423,0,0,1,1.418-2.832c.24-.374.479-.752.736-1.114.039-.055-.02.025.011-.015l.059-.074c.06-.073.121-.145.182-.217a31.878,31.878,0,0,1,2.328-2.487,6.461,6.461,0,0,1,.573-.5,2.326,2.326,0,0,1,.206-.133c-.021.012.034-.025.04-.014s-.165-.049-.161-.045c.188.226.581-.074.41-.316-1.1-1.554-2.256-3.066-3.457-4.539-1.082-1.329-2.246-2.708-2.448-4.479-.034-.3-.508-.306-.476,0a8.59,8.59,0,0,0,2.3,4.511q1.91,2.315,3.632,4.771l.41-.316c-.261-.316-.752.126-.953.292a15.808,15.808,0,0,0-1.326,1.277,19.625,19.625,0,0,0-2.247,2.689,13.951,13.951,0,0,0-1.765,3.4l.5-.065c-1.531-2.981-2.746-6.3-5.773-8.1l.052.409a27.617,27.617,0,0,0,3.394-3.939,13.61,13.61,0,0,0,2.044-4.744.121.121,0,0,0-.233-.064" transform="translate(-72.195 -115.609)"/>
    <path id="Path_2086" data-name="Path 2086" d="M100.685,161.641c.719,1.149,1.445,2.294,2.14,3.458s1.422,2.31,2.074,3.5c.148.269.558.029.411-.24a33.47,33.47,0,0,1-3.643-8.58l-.36.152a30.121,30.121,0,0,1,3.629,7.538.238.238,0,0,0,.459-.127,8.174,8.174,0,0,0-.8-2.2c-.355-.721-.7-1.441-1.006-2.185a25.16,25.16,0,0,1-1.408-4.584l-.375.158a38.228,38.228,0,0,1,3.949,8.007l.513-.141a87.49,87.49,0,0,1-3.027-8.85l-.4.169a41.637,41.637,0,0,1,3.661,7.9.269.269,0,0,0,.518-.143,45.647,45.647,0,0,0-3.143-9.034l-.437.255a41.509,41.509,0,0,1,3.424,7.333.278.278,0,0,0,.535-.148c-.673-2.912-1.669-5.715-2.618-8.544l-.364.28c.535.309.751,1.043,1,1.573l.991,2.139q.98,2.115,1.959,4.229c.128.278.616.078.5-.211-1.239-3.079-2.535-6.135-3.787-9.209l-.4.232a14.448,14.448,0,0,1,2.38,3.608c.7,1.4,1.342,2.837,2.021,4.251.151.315.62.04.469-.274-.692-1.44-1.383-2.885-2.113-4.307a15.141,15.141,0,0,0-2.421-3.614c-.154-.162-.49.005-.4.232,1.25,3.072,2.456,6.16,3.719,9.227l.5-.211q-1.04-2.205-2.076-4.414l-1.026-2.182a3.016,3.016,0,0,0-1.067-1.5.251.251,0,0,0-.364.28c.959,2.815,1.868,5.667,2.561,8.56l.535-.148a48.727,48.727,0,0,0-3.522-7.44c-.138-.24-.573-.077-.462.195a55.106,55.106,0,0,1,3.087,8.982l.518-.143a46.22,46.22,0,0,0-3.8-7.977.221.221,0,0,0-.4.169,55.72,55.72,0,0,0,2.938,8.875c.122.314.634.182.513-.141a39.2,39.2,0,0,0-4.108-8.073.206.206,0,0,0-.375.158c.167.794.325,1.582.558,2.361q.34,1.138.786,2.24c.292.721.619,1.424.965,2.12a8.306,8.306,0,0,1,.844,2.264l.459-.127a30.207,30.207,0,0,0-3.747-7.609.2.2,0,0,0-.36.152,29.866,29.866,0,0,0,3.612,8.715l.411-.24c-.79-1.1-1.514-2.256-2.264-3.385s-1.471-2.279-2.2-3.424c-.065-.1-.229-.008-.164.1" transform="translate(-78.492 -120.044)"/>
    <path id="Path_2087" data-name="Path 2087" d="M116.042,46.705a11.174,11.174,0,0,1-3.242,4.766.263.263,0,0,0,.053.409c1.666,1.007,2.328,2.882,3.163,4.536a.277.277,0,0,0,.5-.065,8.555,8.555,0,0,1,1.057-1.99c.053-.08.1-.162.16-.241.009-.013.036-.05-.007.007.031-.041.065-.081.1-.121.107-.128.217-.253.328-.378.29-.326.587-.648.9-.955.128-.127.258-.253.4-.369.044-.037.088-.07.135-.1.137-.1-.024.041-.144-.087.2.211.584-.071.41-.316-.63-.89-1.3-1.757-1.985-2.6a5.249,5.249,0,0,1-1.414-2.54c-.037-.3-.508-.307-.476,0a4.85,4.85,0,0,0,1.263,2.571q1.14,1.375,2.162,2.836l.41-.316c-.257-.276-.655.118-.842.286a14.933,14.933,0,0,0-1.051,1.068,8.717,8.717,0,0,0-1.924,3.107l.5-.065c-.9-1.741-1.61-3.653-3.373-4.709l.053.409a16.529,16.529,0,0,0,1.964-2.3,7.658,7.658,0,0,0,1.142-2.771.121.121,0,0,0-.233-.064" transform="translate(-87.891 -36.199)"/>
    <path id="Path_2088" data-name="Path 2088" d="M354.023,125.947a8.607,8.607,0,0,1-2.469,3.569.263.263,0,0,0,.053.409c1.247.76,1.743,2.168,2.367,3.411a.277.277,0,0,0,.5-.065,6.442,6.442,0,0,1,.779-1.47,4.259,4.259,0,0,1,.441-.561c.214-.241.432-.477.66-.7.1-.1.194-.193.3-.282a1.126,1.126,0,0,0,.1-.08c.109-.117.043.131-.178-.081.2.2.588-.066.41-.316-.468-.659-.963-1.3-1.471-1.929a4.1,4.1,0,0,1-1.1-1.93c-.04-.3-.509-.308-.476,0a3.7,3.7,0,0,0,.952,1.967c.577.7,1.124,1.414,1.642,2.156l.41-.316c-.229-.224-.516.032-.694.187a10.314,10.314,0,0,0-.811.817,6.716,6.716,0,0,0-1.492,2.4l.5-.065c-.686-1.33-1.233-2.774-2.577-3.584l.053.409a12.855,12.855,0,0,0,1.491-1.755,5.7,5.7,0,0,0,.843-2.118.121.121,0,0,0-.233-.064" transform="translate(-274.046 -98)"/>
    <path id="Path_2089" data-name="Path 2089" d="M347.775,3.175a13.606,13.606,0,0,1-3.973,5.9.263.263,0,0,0,.053.409c2.063,1.241,2.882,3.558,3.916,5.6a.277.277,0,0,0,.5-.065,10.691,10.691,0,0,1,1.342-2.516,3.125,3.125,0,0,1,.3-.416c.133-.158.269-.313.406-.467.36-.4.727-.8,1.113-1.18a6.87,6.87,0,0,1,.509-.469,1.813,1.813,0,0,1,.153-.111c.057-.037.034-.031.034-.023a.294.294,0,0,1-.163-.059c.194.218.582-.072.41-.316-.767-1.086-1.579-2.143-2.417-3.175A6.519,6.519,0,0,1,348.191,3.1c-.036-.3-.508-.307-.476,0a6.107,6.107,0,0,0,1.622,3.221q1.363,1.65,2.589,3.4l.41-.316c-.221-.25-.567.032-.75.179a10.4,10.4,0,0,0-.933.89,13.894,13.894,0,0,0-1.614,1.912,10.158,10.158,0,0,0-1.3,2.481l.5-.065c-1.1-2.13-1.966-4.484-4.126-5.774q.026.2.053.409a20.051,20.051,0,0,0,2.413-2.813,9.521,9.521,0,0,0,1.425-3.39.121.121,0,0,0-.233-.064" transform="translate(-268.002 -2.244)"/>
    <path id="Path_2090" data-name="Path 2090" d="M349.685,12.431c1.016,1.627,2.051,3.26,2.953,4.954.144.27.558.03.411-.24a24.214,24.214,0,0,1-2.589-6.067l-.36.152a21.526,21.526,0,0,1,2.557,5.336.238.238,0,0,0,.459-.127,15.851,15.851,0,0,0-1.269-3.073,17.667,17.667,0,0,1-1.022-3.285l-.375.158a27.217,27.217,0,0,1,2.778,5.67l.513-.141c-.8-2.066-1.57-4.139-2.161-6.274l-.4.169a29.206,29.206,0,0,1,2.577,5.591.269.269,0,0,0,.518-.143,31.456,31.456,0,0,0-2.241-6.424l-.437.255a28.7,28.7,0,0,1,2.414,5.186.278.278,0,0,0,.535-.147c-.475-2.069-1.192-4.051-1.866-6.059l-.364.28c.382.228.535.777.712,1.161l.685,1.483q.685,1.483,1.37,2.967c.128.278.615.078.5-.211-.876-2.186-1.808-4.348-2.7-6.529l-.4.232a10.238,10.238,0,0,1,1.686,2.565c.49.991.952,2,1.417,3,.146.315.625.04.469-.274-.506-1.018-.988-2.048-1.509-3.057a10.939,10.939,0,0,0-1.726-2.571c-.154-.163-.49.005-.4.232.887,2.178,1.729,4.374,2.628,6.548l.5-.211q-.745-1.574-1.486-3.15l-.742-1.575a2.131,2.131,0,0,0-.761-1.038.25.25,0,0,0-.364.28c.68,2,1.313,4.025,1.808,6.074l.535-.147a35.993,35.993,0,0,0-2.513-5.294c-.137-.241-.572-.077-.462.195a41.092,41.092,0,0,1,2.185,6.372l.518-.143a33.519,33.519,0,0,0-2.716-5.67.22.22,0,0,0-.4.169,37.944,37.944,0,0,0,2.071,6.3c.123.314.635.181.513-.141a27.934,27.934,0,0,0-2.937-5.736.206.206,0,0,0-.375.158c.121.564.223,1.125.388,1.679s.354,1.092.571,1.624c.2.5.43.987.67,1.47a5.956,5.956,0,0,1,.6,1.6l.459-.127a21.452,21.452,0,0,0-2.676-5.408.2.2,0,0,0-.36.152,20.984,20.984,0,0,0,2.558,6.2l.411-.24c-1.141-1.548-2.169-3.188-3.2-4.809-.065-.1-.229-.008-.164.1" transform="translate(-272.636 -5.382)"/>
    <path id="Path_2091" data-name="Path 2091" d="M514.057,520.839a10.739,10.739,0,0,1-3.084,6.94c-.981.99-2.252,1.615-3.221,2.612-.506.52-.943,1.1-1.435,1.634a7.046,7.046,0,0,1-1.563,1.29,6.919,6.919,0,0,1-4.315.928c-.169-.019-.167.245,0,.264a7.257,7.257,0,0,0,3.915-.66,7,7,0,0,0,1.673-1.106,19.991,19.991,0,0,0,1.531-1.657,9.739,9.739,0,0,1,1.724-1.506,14.694,14.694,0,0,0,1.661-1.284,10.626,10.626,0,0,0,2.312-3.165,10.43,10.43,0,0,0,1.014-4.291.106.106,0,0,0-.212,0" transform="translate(-390.092 -406.016)"/>
    <path id="Path_2092" data-name="Path 2092" d="M585.472,423.341a8.479,8.479,0,0,1,2.92,8.118c-.012.065.083.093.1.028a8.077,8.077,0,0,0-2.932-8.259c-.065-.05-.152.063-.088.114" transform="translate(-456.472 -329.978)"/>
    <path id="Path_2093" data-name="Path 2093" d="M593.944,477.444a.145.145,0,0,0,0-.29.145.145,0,0,0,0,.29" transform="translate(-462.985 -372.034)"/>
    <path id="Path_2094" data-name="Path 2094" d="M566.854,316.315a3.37,3.37,0,0,1,1.341.112,3.445,3.445,0,0,1,1.226.738,6.612,6.612,0,0,1,1.559,2.558,11.162,11.162,0,0,1,.924,6.129,5.862,5.862,0,0,1-1.419,2.851.093.093,0,0,0,.131.132,6.524,6.524,0,0,0,1.577-5.678,15.877,15.877,0,0,0-.959-3.456,7.118,7.118,0,0,0-1.547-2.621,3.07,3.07,0,0,0-2.857-.937c-.088.03-.081.179.023.172" transform="translate(-441.908 -246.42)"/>
    <path id="Path_2095" data-name="Path 2095" d="M547.622,389.06a7.868,7.868,0,0,0-.872.685l-.936.758q-.957.775-1.906,1.559-1.881,1.546-3.752,3.1c-.118.1.051.265.168.168q1.854-1.534,3.7-3.081c.614-.515,1.229-1.03,1.839-1.549l.874-.744a9,9,0,0,0,.946-.826.047.047,0,0,0-.056-.073" transform="translate(-421.125 -303.342)"/>
    <path id="Path_2096" data-name="Path 2096" d="M385.23,180.677a3.532,3.532,0,0,0-.114,4.108,3.736,3.736,0,0,0,1.788,1.461,6.646,6.646,0,0,1,2.188,1.1,4.733,4.733,0,0,1,1.324,2.48c.033.164.273.092.248-.068a4.3,4.3,0,0,0-2.555-3.378,7.411,7.411,0,0,1-2.109-.993,3.585,3.585,0,0,1-1.169-2.053,2.986,2.986,0,0,1,.565-2.489c.1-.115-.068-.281-.166-.166" transform="translate(-299.804 -140.842)"/>
    <path id="Path_2097" data-name="Path 2097" d="M421.553,218.412l.5.758a.118.118,0,0,0,.158.041.116.116,0,0,0,.041-.158l-.5-.756a.113.113,0,1,0-.2.115" transform="translate(-328.671 -170.162)"/>
    <path id="Path_2098" data-name="Path 2098" d="M369.7,186.567c-.69,1.153.069,2.552.995,3.318,1.191.985,2.825,1.3,3.852,2.509a4.186,4.186,0,0,1,.961,2.486.134.134,0,0,0,.268,0,4.328,4.328,0,0,0-1.991-3.5c-1.224-.815-2.81-1.2-3.68-2.463a2.113,2.113,0,0,1-.261-2.267.084.084,0,0,0-.145-.085" transform="translate(-288.044 -145.434)"/>
    <path id="Path_2099" data-name="Path 2099" d="M363.264,201.436c.611.831,1.213,1.669,1.849,2.482.073.094.236-.03.166-.128-.593-.833-1.221-1.641-1.838-2.457-.078-.1-.255,0-.177.1" transform="translate(-283.22 -156.944)"/>
    <path id="Path_2100" data-name="Path 2100" d="M365.637,217.188a.156.156,0,0,0,0-.312.156.156,0,0,0,0,.312" transform="translate(-284.967 -169.097)"/>
    <path id="Path_2101" data-name="Path 2101" d="M438.789,218.419h.5a.121.121,0,0,0,0-.242h-.5a.121.121,0,0,0,0,.242" transform="translate(-342.027 -170.111)"/>
    <path id="Path_2102" data-name="Path 2102" d="M433.116,269.894a2.471,2.471,0,0,1,1.622,3.561c-.1.167.163.323.263.154a2.7,2.7,0,0,0-1.831-3.912c-.128-.019-.185.175-.054.2" transform="translate(-337.64 -210.28)"/>
    <path id="Path_2103" data-name="Path 2103" d="M449.9,378.083a10.436,10.436,0,0,1,.712,4.231c-.008.261.4.261.405,0a10.361,10.361,0,0,0-.83-4.31c-.072-.174-.359-.1-.287.079" transform="translate(-350.773 -294.65)"/>
    <path id="Path_2104" data-name="Path 2104" d="M453.239,471.541a4.714,4.714,0,0,1,.7,2.423.212.212,0,0,0,.424,0,4.869,4.869,0,0,0-.795-2.613c-.131-.2-.452-.017-.324.19" transform="translate(-353.365 -367.442)"/>
    <path id="Path_2105" data-name="Path 2105" d="M439.71,556.985l-1.265,1a.183.183,0,0,0,0,.258.187.187,0,0,0,.258,0l1.249-1.014a.172.172,0,0,0,0-.242.175.175,0,0,0-.242,0" transform="translate(-341.811 -434.24)"/>
    <path id="Path_2106" data-name="Path 2106" d="M617.629,777.327A19.149,19.149,0,0,1,623.49,764.5a5.633,5.633,0,0,1,1.436-1.151,1.091,1.091,0,0,1,1.382.461,6.676,6.676,0,0,1,.736,3.306,30.24,30.24,0,0,1-3.378,16.27l.439.185a11.239,11.239,0,0,1,4.867-7.211,10.955,10.955,0,0,1,1.962-1.025,3.559,3.559,0,0,1,1.093-.324c.52-.022.517.463.5.854a16.233,16.233,0,0,1-1.122,4.991,16.775,16.775,0,0,1-3.016,4.932l.374.048a1.069,1.069,0,0,1,.041-1.237,2.132,2.132,0,0,1,1.349-.793,7.675,7.675,0,0,1,2.82-.217,1.851,1.851,0,0,1,1.788,1.82,5.5,5.5,0,0,1-1.11,2.959,7.346,7.346,0,0,1-2.613,2.3.24.24,0,0,0,.12.444,3.414,3.414,0,0,1,2.605,5.981l.4.232c.284-.675,1.141-.764,1.774-.658a4.1,4.1,0,0,1,2,1.042,6.254,6.254,0,0,1,2.034,4.105,5.712,5.712,0,0,1-.383,2.611c-.114.284.346.408.459.127a6.461,6.461,0,0,0-.266-5.164,5.5,5.5,0,0,0-3.881-3.2A1.951,1.951,0,0,0,633.7,797.2c-.1.238.24.372.4.232a3.89,3.89,0,0,0-2.942-6.794l.12.444a7.589,7.589,0,0,0,2.664-2.4,5.822,5.822,0,0,0,1.2-3.457c-.186-2.522-3.489-2.277-5.236-1.826a2.436,2.436,0,0,0-1.548,1.02,1.5,1.5,0,0,0-.005,1.653.241.241,0,0,0,.374.048,17.306,17.306,0,0,0,4.217-10.076,1.734,1.734,0,0,0-.147-1.141.943.943,0,0,0-.944-.328,7.183,7.183,0,0,0-2.257.861,11.706,11.706,0,0,0-3.691,3.11,11.46,11.46,0,0,0-2.258,4.893c-.048.252.306.441.439.185a30.534,30.534,0,0,0,3.322-16.223q-.075-1.012-.219-2.017a4.447,4.447,0,0,0-.45-1.464,1.789,1.789,0,0,0-.96-.909,1.607,1.607,0,0,0-1.487.4,18.038,18.038,0,0,0-4.654,5.8,19.265,19.265,0,0,0-2.179,8.1c0,.113.17.112.175,0" transform="translate(-481.425 -594.874)"/>
    <path id="Path_2107" data-name="Path 2107" d="M100.672,344.535l1.921.969c.216.109.406-.217.19-.324l-1.928-.956c-.207-.1-.39.207-.182.311" transform="translate(-78.422 -268.373)"/>
    <path id="Path_2108" data-name="Path 2108" d="M103.049,390.928l3.118-.762a.194.194,0,0,0-.1-.373l-3.108.8a.175.175,0,0,0,.093.337" transform="translate(-80.177 -303.914)"/>
    <path id="Path_2109" data-name="Path 2109" d="M118.336,451.818l1.687-1.441a.2.2,0,0,0,0-.279.2.2,0,0,0-.279,0l-1.681,1.446a.2.2,0,0,0,0,.274.2.2,0,0,0,.274,0" transform="translate(-92.009 -350.895)"/>
    <path id="Path_2110" data-name="Path 2110" d="M5.564,854.1c-2.371-.615-4.7-2.3-5.108-4.858a4.521,4.521,0,0,1,.7-3.288,3.966,3.966,0,0,1,3.172-1.572,10.074,10.074,0,0,1,4.3,1.02.219.219,0,0,0,.263-.341c-1.909-2.44-2.708-6.028-.953-8.772a6.016,6.016,0,0,1,3.32-2.552,4.554,4.554,0,0,1,3.986.7,4.32,4.32,0,0,1,1.864,4.139l.366.05c-.258-2.259.029-4.916,2.109-6.265a3.377,3.377,0,0,1,2.962-.448,4.156,4.156,0,0,1,2.231,2.21,11.4,11.4,0,0,1,.774,4.238c.011.194.3.312.4.107A6.228,6.228,0,0,1,28.2,835.5a2.156,2.156,0,0,1,2.815.456c.135.211.472.016.337-.2a2.5,2.5,0,0,0-3.1-.731c-1.34.567-2.057,1.992-2.663,3.224l.4.108c-.133-2.425-.463-5.533-2.977-6.7-2.226-1.035-4.628.56-5.488,2.641a8.462,8.462,0,0,0-.4,4.373c.024.18.33.176.359,0,.517-3.125-2.528-5.879-5.567-5.465a6.131,6.131,0,0,0-3.857,2.261,6.813,6.813,0,0,0-1.488,4.488A9.246,9.246,0,0,0,8.59,845.37l.263-.342c-2.345-1.029-5.7-1.91-7.707.266a4.69,4.69,0,0,0-1.137,3.434,5.41,5.41,0,0,0,1.535,3.422,8.315,8.315,0,0,0,3.949,2.209.134.134,0,0,0,.071-.258" transform="translate(0 -648.19)"/>
    <path id="Path_2111" data-name="Path 2111" d="M288.669,906.278a2.213,2.213,0,0,1,2.218,3.785c-.2.167.085.443.284.284a2.669,2.669,0,0,0,.882-2.613,2.548,2.548,0,0,0-1.9-1.892,2.577,2.577,0,0,0-1.582.092c-.21.084-.12.428.095.344" transform="translate(-224.906 -706.216)"/>
    <path id="Path_2112" data-name="Path 2112" d="M306.227,935.5a2.627,2.627,0,0,1,.664,2.526c-.053.195.256.279.3.083a2.986,2.986,0,0,0-.81-2.764.11.11,0,0,0-.155.155" transform="translate(-238.738 -729.259)"/>
    <path id="Path_2113" data-name="Path 2113" d="M620.812,890.565a1.888,1.888,0,0,1,2.18-1.08l-.109-.109a6.317,6.317,0,0,1-.425,4.867.207.207,0,0,0,.23.3,2.454,2.454,0,0,1,2.74,1.609,2.521,2.521,0,0,1-1.288,2.9c-.208.107-.025.4.18.308a2.818,2.818,0,0,0,1.464-3.388,2.885,2.885,0,0,0-3.206-1.826l.231.3a6.469,6.469,0,0,0,.525-4.672,1.71,1.71,0,0,0-.168-.522c-.079-.1-.234-.105-.354-.119a2.118,2.118,0,0,0-.921.1,2.173,2.173,0,0,0-1.319,1.226c-.056.135.179.236.238.1" transform="translate(-483.851 -693.245)"/>
    <path id="Path_2114" data-name="Path 2114" d="M81.7,905.462a1.624,1.624,0,0,1-.409-2.1,1.517,1.517,0,0,1,2.176-.277.155.155,0,0,0,.241-.031A4.156,4.156,0,0,1,85.317,901a1.5,1.5,0,0,1,1.949.393.16.16,0,0,0,.276-.161,1.76,1.76,0,0,0-2.159-.608,4.072,4.072,0,0,0-1.939,2.269l.24-.031a1.826,1.826,0,0,0-2.586.26,1.747,1.747,0,0,0,.5,2.475c.083.048.186-.074.106-.137" transform="translate(-62.987 -702.108)"/>
  </g>
</svg>
